<svg width="397" height="127" viewBox="0 0 397 127" fill="none" xmlns="http://www.w3.org/2000/svg">
<path d="M26.3516 124.203C13.201 124.203 2.5 113.502 2.5 100.352V26.3516C2.5 13.201 13.201 2.5 26.3516 2.5H370.352C383.502 2.5 394.203 13.201 394.203 26.3516V100.352C394.203 113.502 383.502 124.203 370.352 124.203H26.3516Z" fill="#79C392" stroke="#13644D" stroke-width="5"/>
<path d="M41.7969 76.8086C43.3594 76.8086 44.6797 77.0742 45.7656 77.6055C46.8594 78.1289 47.4062 78.793 47.4062 79.6055C47.4062 79.9727 47.3164 80.2891 47.1406 80.5586C46.9609 80.8203 46.6953 80.9492 46.3437 80.9492C46 80.9492 45.25 80.6797 44.0937 80.1367C42.9453 79.5977 41.8984 79.3242 40.9531 79.3242C40.0039 79.3242 39.0234 79.6289 38.0156 80.2305C37.0039 80.8242 36.5 81.5547 36.5 82.418C36.5 83.5977 37.1133 84.461 38.3437 85.0117C39.25 85.418 40.5508 85.7852 42.25 86.1055C43.957 86.4297 45.3516 87.0899 46.4375 88.0899C47.5195 89.0899 48.0625 90.5977 48.0625 92.6055C48.0625 95.6797 47.1328 97.9492 45.2812 99.418C44.25 100.23 42.7891 100.637 40.9062 100.637C39.0312 100.637 37.1562 100.121 35.2812 99.0899C34.0508 98.4453 33.4375 97.8008 33.4375 97.1524C33.4375 96.9024 33.5391 96.6367 33.75 96.3555C33.957 96.0664 34.2383 95.8242 34.5937 95.6367C34.957 95.4414 35.2852 95.4102 35.5781 95.543C35.8789 95.6797 36.3633 95.9141 37.0312 96.2461C37.707 96.5821 38.2031 96.8086 38.5156 96.9336C39.5234 97.3203 40.4727 97.5117 41.3594 97.5117C42.2422 97.5117 43.0977 97.0742 43.9219 96.1992C44.7539 95.3164 45.1719 94.2383 45.1719 92.9649C45.1719 91.2891 44.332 90.1133 42.6562 89.4336C41.8437 89.1016 40.9219 88.8516 39.8906 88.6836C37.7539 88.3008 36.1445 87.6602 35.0625 86.7617C33.9766 85.8555 33.4375 84.4922 33.4375 82.668C33.4375 80.8477 34.2187 79.4141 35.7812 78.3711C37.3437 77.3321 39.3477 76.8086 41.7969 76.8086Z" fill="black"/>
<path d="M55.8057 100.605C54.9814 100.605 54.2197 100.332 53.5244 99.7774C53.5244 99.7774 53.3682 99.6446 53.0557 99.3711V110.184C52.9189 110.66 52.6689 111.063 52.3057 111.387C51.9502 111.707 51.5635 111.871 51.1494 111.871C50.5244 111.871 50.2119 111.449 50.2119 110.605V85.5117C50.3564 84.8867 50.5283 84.4453 50.7275 84.1836C50.9346 83.9258 51.2627 83.793 51.7119 83.793C52.1572 83.793 52.4463 83.8985 52.5713 84.1055C52.7041 84.3047 52.8682 84.8555 53.0557 85.7617C53.1572 85.2852 53.5439 84.8399 54.2119 84.4336C54.8877 84.0274 55.79 83.8242 56.915 83.8242C59.3604 83.8242 61.1025 84.7149 62.1338 86.4961C63.165 88.2696 63.6807 90.3633 63.6807 92.7774C63.6807 95.1836 62.9775 97.0899 61.5713 98.4961C60.1729 99.9024 58.251 100.605 55.8057 100.605ZM53.0557 89.793V96.4961C53.2002 96.5703 53.3721 96.6914 53.5713 96.8555C54.2666 97.4805 55.0244 97.793 55.8369 97.793C59.1494 97.793 60.8057 96.0899 60.8057 92.6836C60.8057 89.7774 60.0596 87.9414 58.5713 87.168C57.9463 86.836 57.1807 86.668 56.2744 86.668C55.376 86.793 54.6182 87.1836 53.9932 87.8399C53.3682 88.4961 53.0557 89.1485 53.0557 89.793Z" fill="black"/>
<path d="M70.6982 83.9649C71.9678 83.9649 73.1826 84.3399 74.3389 85.0899C75.4951 85.8321 76.0732 86.7462 76.0732 87.8399C76.0732 88.9337 75.6045 89.9922 74.667 91.0118C73.7295 92.0352 72.4795 92.6485 70.917 92.8555C70.249 92.961 69.2451 93.0118 67.9014 93.0118C68.1592 95.043 68.6748 96.3868 69.4482 97.043C69.6865 97.3047 70.0107 97.4337 70.417 97.4337C71.9053 97.4337 73.1514 96.961 74.1514 96.0118C75.1592 95.0665 75.8857 94.5899 76.3232 94.5899C76.5107 94.5899 76.7959 94.7735 77.1826 95.1368C77.5654 95.4922 77.7607 95.8243 77.7607 96.1368C77.7607 96.7618 77.0029 97.6641 75.4951 98.8399C74.8154 99.3946 74.0029 99.8555 73.0576 100.231C72.1084 100.598 71.2295 100.777 70.417 100.777C68.3232 100.777 66.7842 99.4337 65.8076 96.7462C65.1826 95.0899 64.8701 93.2696 64.8701 91.2774C64.8701 89.2891 65.3389 87.5743 66.2764 86.1368C67.2139 84.6915 68.6865 83.9649 70.6982 83.9649ZM70.8857 86.4493C69.9678 86.4493 69.1865 86.9649 68.542 87.9962C68.2998 88.3633 68.0732 89.1797 67.8545 90.4493C71.2178 90.4493 72.9014 89.6212 72.9014 87.9649C72.9014 86.9571 72.2295 86.4493 70.8857 86.4493Z" fill="black"/>
<path d="M79.3379 92.2149C79.3379 90.6016 79.7637 89.1368 80.6191 87.8243C81.4707 86.504 82.5566 85.5118 83.8691 84.8555C85.1895 84.1915 86.4785 83.8555 87.7285 83.8555C88.9785 83.8555 89.9785 84.0079 90.7285 84.3087C91.4863 84.6133 91.8691 85.0079 91.8691 85.4962C91.8691 85.9883 91.7285 86.4805 91.4473 86.9805C91.1738 87.4727 90.8105 87.7149 90.3535 87.7149C90.1855 87.7149 89.7207 87.5821 88.9629 87.3087C88.2129 87.0274 87.7285 86.8868 87.5098 86.8868C86.123 86.8868 84.9355 87.3985 83.9473 88.418C82.9668 89.4415 82.4785 90.7891 82.4785 92.4649C82.4785 94.1446 82.7441 95.3985 83.2754 96.2305C83.8145 97.0547 84.748 97.4649 86.0723 97.4649C86.6035 97.4649 87.5098 97.1641 88.791 96.5587C90.0723 95.9454 90.8691 95.6368 91.1816 95.6368C91.4941 95.6368 91.7441 95.7383 91.9316 95.9337C92.127 96.1212 92.2285 96.3555 92.2285 96.6368C92.2285 97.2227 91.8613 97.8321 91.1348 98.4649C90.4043 99.1016 89.498 99.629 88.416 100.043C87.3301 100.461 86.3574 100.668 85.4941 100.668C83.5762 100.668 82.0723 99.9141 80.9785 98.4024C79.8848 96.8946 79.3379 94.8321 79.3379 92.2149Z" fill="black"/>
<path d="M94.7129 83.8243L96.5098 83.8555C96.9238 83.8555 97.1543 83.8477 97.1973 83.8243V76.4493C97.2168 76.043 97.4199 75.6954 97.8066 75.4024C98.1895 75.1133 98.5488 74.9649 98.8848 74.9649C99.2285 74.9649 99.498 75.0743 99.6973 75.293C99.9043 75.5118 99.9941 75.8516 99.9629 76.3087C99.9395 76.7579 99.9316 79.254 99.9316 83.793L104.15 83.6524C104.869 83.6524 105.229 84.0704 105.229 84.9024C105.229 85.5274 105.041 85.9962 104.666 86.3087C104.291 86.6212 103.893 86.793 103.479 86.8243C103.061 86.8477 102.65 86.8555 102.244 86.8555L100.041 86.8087C100.041 87.8008 100.139 89.7462 100.338 92.6524C100.545 95.5508 100.705 97.4258 100.822 98.2774C100.947 99.1329 100.971 99.6837 100.9 99.9337C100.838 100.184 100.705 100.356 100.51 100.449C100.197 100.598 99.7754 100.668 99.2441 100.668C98.7207 100.668 98.416 100.383 98.3223 99.8087C97.8301 96.6641 97.502 92.3477 97.3379 86.8555C97.127 86.879 96.2988 86.8868 94.8535 86.8868C93.416 86.8868 92.6973 86.4649 92.6973 85.6212C92.6973 84.4258 93.3691 83.8243 94.7129 83.8243Z" fill="black"/>
<path d="M116.236 83.8243C117.299 83.8243 117.83 84.7266 117.83 86.5274V87.1368L117.752 89.6524C117.729 90.4454 117.721 91.2266 117.721 91.9962L118.252 100.137C118.252 100.731 117.643 101.027 116.424 101.027H115.893C115.619 101.027 115.428 100.918 115.314 100.699C115.209 100.492 115.197 100.231 115.283 99.918C115.365 99.6055 115.338 99.2579 115.205 98.8712C114.1 100.051 112.631 100.637 110.799 100.637C107.424 100.637 105.736 98.0235 105.736 92.793C105.736 89.8868 106.275 87.6915 107.361 86.1993C108.455 84.711 110.021 83.9649 112.064 83.9649C113.021 83.9649 113.979 84.1368 114.939 84.4805C115.252 84.043 115.682 83.8243 116.236 83.8243ZM112.502 87.1055C111.127 87.1055 110.1 87.504 109.424 88.293C108.756 89.086 108.424 90.5391 108.424 92.6524C108.424 96.2071 109.385 97.9805 111.314 97.9805C111.814 97.9805 112.369 97.754 112.986 97.293C113.6 96.836 114.025 96.3204 114.268 95.7462C114.713 94.4454 114.939 93.0274 114.939 91.4962C114.939 89.9571 114.752 88.8399 114.377 88.1524C114.01 87.4571 113.385 87.1055 112.502 87.1055Z" fill="black"/>
<path d="M119.803 92.2149C119.803 90.6016 120.229 89.1368 121.084 87.8243C121.936 86.504 123.021 85.5118 124.334 84.8555C125.654 84.1915 126.943 83.8555 128.193 83.8555C129.443 83.8555 130.443 84.0079 131.193 84.3087C131.951 84.6133 132.334 85.0079 132.334 85.4962C132.334 85.9883 132.193 86.4805 131.912 86.9805C131.639 87.4727 131.275 87.7149 130.818 87.7149C130.65 87.7149 130.186 87.5821 129.428 87.3087C128.678 87.0274 128.193 86.8868 127.975 86.8868C126.588 86.8868 125.4 87.3985 124.412 88.418C123.432 89.4415 122.943 90.7891 122.943 92.4649C122.943 94.1446 123.209 95.3985 123.74 96.2305C124.279 97.0547 125.213 97.4649 126.537 97.4649C127.068 97.4649 127.975 97.1641 129.256 96.5587C130.537 95.9454 131.334 95.6368 131.646 95.6368C131.959 95.6368 132.209 95.7383 132.396 95.9337C132.592 96.1212 132.693 96.3555 132.693 96.6368C132.693 97.2227 132.326 97.8321 131.6 98.4649C130.869 99.1016 129.963 99.629 128.881 100.043C127.795 100.461 126.822 100.668 125.959 100.668C124.041 100.668 122.537 99.9141 121.443 98.4024C120.35 96.8946 119.803 94.8321 119.803 92.2149Z" fill="black"/>
<path d="M134.19 77.3399C134.253 76.4337 134.394 75.8477 134.612 75.5743C134.839 75.293 135.21 75.1524 135.722 75.1524C136.753 75.1524 137.269 75.5704 137.269 76.4024C137.269 77.0587 137.21 78.7579 137.097 81.4962C136.991 84.2266 136.94 86.6758 136.94 88.8399C136.94 90.9962 137.022 92.7305 137.19 94.043C137.479 96.3555 137.886 97.5118 138.409 97.5118C138.94 97.5118 139.339 97.1368 139.612 96.3868C139.726 96.0977 139.913 95.8399 140.175 95.6212C140.444 95.3946 140.784 95.2774 141.19 95.2774C142.034 95.2774 142.456 95.9883 142.456 97.4024C142.456 98.1641 142.038 98.9258 141.206 99.6837C140.382 100.445 139.558 100.824 138.737 100.824C137.925 100.824 137.269 100.688 136.769 100.418C136.276 100.137 135.882 99.7227 135.581 99.168C135.288 98.6172 135.05 98.0821 134.862 97.5587C134.683 97.0391 134.558 96.4102 134.487 95.668C134.351 94.4727 134.253 92.5508 134.19 89.9024C134.128 87.2462 134.097 84.7149 134.097 82.3087C134.097 79.8946 134.128 78.2383 134.19 77.3399Z" fill="black"/>
<path d="M149.034 83.9649C150.304 83.9649 151.519 84.3399 152.675 85.0899C153.831 85.8321 154.409 86.7462 154.409 87.8399C154.409 88.9337 153.94 89.9922 153.003 91.0118C152.065 92.0352 150.815 92.6485 149.253 92.8555C148.585 92.961 147.581 93.0118 146.237 93.0118C146.495 95.043 147.011 96.3868 147.784 97.043C148.022 97.3047 148.347 97.4337 148.753 97.4337C150.241 97.4337 151.487 96.961 152.487 96.0118C153.495 95.0665 154.222 94.5899 154.659 94.5899C154.847 94.5899 155.132 94.7735 155.519 95.1368C155.901 95.4922 156.097 95.8243 156.097 96.1368C156.097 96.7618 155.339 97.6641 153.831 98.8399C153.151 99.3946 152.339 99.8555 151.394 100.231C150.444 100.598 149.565 100.777 148.753 100.777C146.659 100.777 145.12 99.4337 144.144 96.7462C143.519 95.0899 143.206 93.2696 143.206 91.2774C143.206 89.2891 143.675 87.5743 144.612 86.1368C145.55 84.6915 147.022 83.9649 149.034 83.9649ZM149.222 86.4493C148.304 86.4493 147.522 86.9649 146.878 87.9962C146.636 88.3633 146.409 89.1797 146.19 90.4493C149.554 90.4493 151.237 89.6212 151.237 87.9649C151.237 86.9571 150.565 86.4493 149.222 86.4493Z" fill="black"/>
<path d="M166.783 83.793L166.752 76.8399C166.752 75.5508 167.162 74.9024 167.986 74.9024C168.818 74.9024 169.283 75.2618 169.377 75.9805C169.428 76.293 169.49 78.1797 169.564 81.6368C169.635 85.086 169.744 88.3243 169.893 91.3555C170.049 94.379 170.127 97.1954 170.127 99.8087C170.127 100.527 169.588 100.887 168.518 100.887C167.799 100.887 167.439 100.383 167.439 99.3712C166.408 100.195 165.182 100.606 163.768 100.606C161.963 100.606 160.506 99.9337 159.393 98.5899C158.275 97.2462 157.721 95.5899 157.721 93.6212C157.721 91.6524 158.119 89.8087 158.924 88.0899C159.725 86.3712 160.979 85.1446 162.689 84.4024C163.74 83.9454 164.756 83.7149 165.736 83.7149C166.1 83.7149 166.447 83.7422 166.783 83.793ZM166.986 88.7149C166.807 88.1954 166.6 87.8008 166.361 87.5274C166.119 87.2462 165.861 87.0743 165.58 87.0118C165.307 86.9493 164.979 86.918 164.596 86.918C164.209 86.918 163.74 87.0665 163.189 87.3555C162.635 87.6368 162.166 88.1055 161.783 88.7618C161.01 90.0548 160.627 91.4141 160.627 92.8399C160.627 94.2696 160.908 95.4337 161.471 96.3399C162.041 97.2383 162.85 97.6837 163.893 97.6837C164.932 97.6837 165.752 97.168 166.346 96.1368C166.947 95.1055 167.252 93.7891 167.252 92.1837C167.252 90.3829 167.162 89.2266 166.986 88.7149Z" fill="black"/>
<path d="M180.572 76.293C180.572 75.336 181.17 74.8555 182.369 74.8555C182.92 74.8555 183.248 75.1954 183.354 75.8712V81.2618C183.354 82.2735 183.361 83.2852 183.385 84.293C183.861 84.1485 184.471 84.0743 185.213 84.0743C187.545 84.0743 189.346 84.8555 190.619 86.418C191.889 87.9805 192.525 89.9415 192.525 92.293C192.525 94.6368 191.775 96.6212 190.275 98.2462C188.775 99.8633 186.846 100.668 184.494 100.668C182.15 100.668 180.979 100.008 180.979 98.6837C180.979 97.3516 180.908 93.9649 180.775 88.5274C180.639 83.0899 180.572 79.0118 180.572 76.293ZM187.854 87.8868C186.986 87.2227 186.072 86.8868 185.104 86.8868C184.58 86.8868 184.045 86.9805 183.494 87.168C183.639 89.1368 183.713 92.6329 183.713 97.6524C184.119 97.8008 184.533 97.8712 184.963 97.8712C185.9 97.8712 186.838 97.5235 187.775 96.8243C189.17 95.8672 189.869 94.3985 189.869 92.418C189.869 90.4297 189.197 88.918 187.854 87.8868Z" fill="black"/>
<path d="M200.514 83.9649C201.783 83.9649 202.998 84.3399 204.154 85.0899C205.311 85.8321 205.889 86.7462 205.889 87.8399C205.889 88.9337 205.42 89.9922 204.482 91.0118C203.545 92.0352 202.295 92.6485 200.732 92.8555C200.064 92.961 199.061 93.0118 197.717 93.0118C197.975 95.043 198.49 96.3868 199.264 97.043C199.502 97.3047 199.826 97.4337 200.232 97.4337C201.721 97.4337 202.967 96.961 203.967 96.0118C204.975 95.0665 205.701 94.5899 206.139 94.5899C206.326 94.5899 206.611 94.7735 206.998 95.1368C207.381 95.4922 207.576 95.8243 207.576 96.1368C207.576 96.7618 206.818 97.6641 205.311 98.8399C204.631 99.3946 203.818 99.8555 202.873 100.231C201.924 100.598 201.045 100.777 200.232 100.777C198.139 100.777 196.6 99.4337 195.623 96.7462C194.998 95.0899 194.686 93.2696 194.686 91.2774C194.686 89.2891 195.154 87.5743 196.092 86.1368C197.029 84.6915 198.502 83.9649 200.514 83.9649ZM200.701 86.4493C199.783 86.4493 199.002 86.9649 198.357 87.9962C198.115 88.3633 197.889 89.1797 197.67 90.4493C201.033 90.4493 202.717 89.6212 202.717 87.9649C202.717 86.9571 202.045 86.4493 200.701 86.4493Z" fill="black"/>
<path d="M219.701 83.8243C220.764 83.8243 221.295 84.7266 221.295 86.5274V87.1368L221.217 89.6524C221.193 90.4454 221.186 91.2266 221.186 91.9962L221.717 100.137C221.717 100.731 221.107 101.027 219.889 101.027H219.357C219.084 101.027 218.893 100.918 218.779 100.699C218.674 100.492 218.662 100.231 218.748 99.918C218.83 99.6055 218.803 99.2579 218.67 98.8712C217.564 100.051 216.096 100.637 214.264 100.637C210.889 100.637 209.201 98.0235 209.201 92.793C209.201 89.8868 209.74 87.6915 210.826 86.1993C211.92 84.711 213.486 83.9649 215.529 83.9649C216.486 83.9649 217.443 84.1368 218.404 84.4805C218.717 84.043 219.146 83.8243 219.701 83.8243ZM215.967 87.1055C214.592 87.1055 213.564 87.504 212.889 88.293C212.221 89.086 211.889 90.5391 211.889 92.6524C211.889 96.2071 212.85 97.9805 214.779 97.9805C215.279 97.9805 215.834 97.754 216.451 97.293C217.064 96.836 217.49 96.3204 217.732 95.7462C218.178 94.4454 218.404 93.0274 218.404 91.4962C218.404 89.9571 218.217 88.8399 217.842 88.1524C217.475 87.4571 216.85 87.1055 215.967 87.1055Z" fill="black"/>
<path d="M228.423 95.3867L228.454 99.0899C228.454 99.5196 228.255 99.9141 227.86 100.277C227.462 100.641 227.071 100.824 226.688 100.824C226.134 100.824 225.786 100.395 225.642 99.5274C225.618 99.3321 225.524 97.5703 225.36 94.2461C225.192 90.9258 224.868 88.3164 224.392 86.418C224.173 85.5039 224.063 84.961 224.063 84.793C224.063 84.0039 224.54 83.6055 225.501 83.6055C225.907 83.6055 226.228 83.7617 226.47 84.0742C226.708 84.3867 226.86 84.7071 226.923 85.0274C226.985 85.3516 227.036 85.7891 227.079 86.3399C227.13 86.8946 227.165 87.2422 227.188 87.3867C227.696 86.1914 228.454 85.293 229.454 84.6992C230.462 84.0977 231.571 83.793 232.782 83.793C234.739 83.793 235.72 84.293 235.72 85.293C235.72 85.8047 235.548 86.211 235.204 86.5117C234.86 86.8047 234.458 86.9492 234.001 86.9492C231.958 86.9492 230.517 87.6016 229.673 88.9024C228.837 90.1953 228.423 92.3555 228.423 95.3867Z" fill="black"/>
<path d="M286.583 20.1116C286.493 14.7016 283.403 10.3516 279.593 10.3516C275.783 10.3516 272.593 14.8316 272.593 20.3516C272.593 24.0316 273.993 27.2416 276.063 28.9716C279.103 25.5216 282.643 22.5216 286.583 20.1016V20.1116Z" fill="#A8846C" stroke="black" stroke-miterlimit="10"/>
<path d="M344.673 28.4615C346.433 26.6415 347.593 23.6916 347.593 20.3516C347.593 14.8316 344.463 10.3516 340.593 10.3516C336.723 10.3516 333.913 14.3916 333.623 19.5416C337.753 21.9416 341.493 24.9515 344.683 28.4615H344.673Z" fill="#A8846C" stroke="black" stroke-miterlimit="10"/>
<path d="M356.563 60.6516C356.573 60.2215 356.593 59.7916 356.593 59.3516C356.593 47.4616 352.083 36.6215 344.673 28.4615C341.483 24.9415 337.753 21.9316 333.613 19.5416C326.843 15.6116 318.973 13.3516 310.583 13.3516C302.193 13.3516 293.563 15.8216 286.573 20.1116C282.633 22.5316 279.093 25.5216 276.053 28.9816C268.923 37.0816 264.583 47.7116 264.583 59.3616C264.583 59.3616 260.583 87.3616 250.353 105.362H283.033L295.373 62.9316H323.713L340.583 105.362H370.583C361.653 89.6616 357.473 66.3516 356.553 60.6616L356.563 60.6516Z" fill="#302A26" stroke="black" stroke-miterlimit="10"/>
<path d="M295.382 62.9216L283.042 105.352H310.362H310.592H340.592L323.722 62.9216H295.382Z" fill="#C4A691" stroke="black" stroke-miterlimit="10"/>
<path d="M327.593 45.3516C330.906 45.3516 333.593 42.6653 333.593 39.3516C333.593 36.0379 330.906 33.3516 327.593 33.3516C324.279 33.3516 321.593 36.0379 321.593 39.3516C321.593 42.6653 324.279 45.3516 327.593 45.3516Z" fill="black"/>
<path d="M326.593 41.3516C328.25 41.3516 329.593 40.0084 329.593 38.3516C329.593 36.6947 328.25 35.3516 326.593 35.3516C324.936 35.3516 323.593 36.6947 323.593 38.3516C323.593 40.0084 324.936 41.3516 326.593 41.3516Z" fill="white"/>
<path d="M337.593 63.3516C341.043 61.4816 346.593 67.3516 346.593 68.3516C346.593 69.3516 337.593 66.3516 337.593 70.3516C337.593 74.3516 333.593 72.3116 333.593 72.3116C333.593 72.3116 331.593 71.3516 331.593 68.3516C331.593 65.3516 337.593 63.3516 337.593 63.3516Z" fill="#C4A691"/>
<path d="M281.852 39.3516C282.592 44.3516 283.592 52.3716 288.592 50.8616C293.592 49.3516 297.082 48.7416 297.332 51.0516C297.582 53.3616 298.592 45.3516 295.592 46.3516C292.592 47.3516 291.752 31.3516 294.172 30.3516C296.592 29.3516 285.482 27.5616 283.042 31.4616C280.602 35.3616 281.852 39.3516 281.852 39.3516Z" fill="#C4A691"/>
<path d="M292.593 45.3516C295.906 45.3516 298.593 42.6653 298.593 39.3516C298.593 36.0379 295.906 33.3516 292.593 33.3516C289.279 33.3516 286.593 36.0379 286.593 39.3516C286.593 42.6653 289.279 45.3516 292.593 45.3516Z" fill="black"/>
<path d="M291.593 41.3516C293.25 41.3516 294.593 40.0084 294.593 38.3516C294.593 36.6947 293.25 35.3516 291.593 35.3516C289.936 35.3516 288.593 36.6947 288.593 38.3516C288.593 40.0084 289.936 41.3516 291.593 41.3516Z" fill="white"/>
<path d="M303.662 44.0816L298.222 48.5616C294.802 51.3716 293.382 55.9516 294.602 60.2116L297.212 69.3016C298.582 74.0716 302.942 77.3516 307.902 77.3516H313.562C318.522 77.3516 322.882 74.0616 324.252 69.3016L326.862 60.2116C328.082 55.9516 326.662 51.3816 323.242 48.5616L317.802 44.0816C313.702 40.7016 307.772 40.7016 303.672 44.0816H303.662Z" fill="#A8846C" stroke="black" stroke-miterlimit="10"/>
<path d="M310.212 53.9616L308.122 54.8016C306.792 55.3316 306.252 56.9216 306.982 58.1516L307.012 58.2116C307.432 58.9216 308.192 59.3616 309.022 59.3616H313.142C313.962 59.3616 314.732 58.9216 315.152 58.2116L315.182 58.1516C315.912 56.9216 315.372 55.3316 314.042 54.8016L311.952 53.9616C311.392 53.7416 310.772 53.7416 310.222 53.9616H310.212Z" fill="black"/>
<path d="M310.812 58.4515L305.652 67.2216" stroke="black" stroke-miterlimit="10"/>
<path d="M311.652 58.4515L316.812 67.2216" stroke="black" stroke-miterlimit="10"/>
<path d="M30.788 23.084C31.568 23.084 32.228 23.216 32.768 23.48C33.32 23.744 33.596 24.08 33.596 24.488C33.596 24.668 33.548 24.824 33.452 24.956C33.368 25.088 33.236 25.154 33.056 25.154C32.888 25.154 32.516 25.022 31.94 24.758C31.364 24.482 30.836 24.344 30.356 24.344C29.888 24.344 29.402 24.494 28.898 24.794C28.394 25.094 28.142 25.46 28.142 25.892C28.142 26.48 28.448 26.912 29.06 27.188C29.516 27.392 30.17 27.578 31.022 27.746C31.874 27.902 32.57 28.232 33.11 28.736C33.65 29.228 33.92 29.978 33.92 30.986C33.92 32.522 33.458 33.656 32.534 34.388C32.018 34.796 31.286 35 30.338 35C29.402 35 28.466 34.742 27.53 34.226C26.918 33.902 26.612 33.578 26.612 33.254C26.612 33.134 26.66 33.002 26.756 32.858C26.864 32.714 27.008 32.594 27.188 32.498C27.368 32.402 27.53 32.39 27.674 32.462C27.83 32.522 28.076 32.636 28.412 32.804C28.748 32.972 28.994 33.086 29.15 33.146C29.654 33.338 30.128 33.434 30.572 33.434C31.016 33.434 31.442 33.218 31.85 32.786C32.27 32.342 32.48 31.802 32.48 31.166C32.48 30.326 32.06 29.738 31.22 29.402C30.812 29.234 30.35 29.108 29.834 29.024C28.766 28.832 27.962 28.514 27.422 28.07C26.882 27.614 26.612 26.93 26.612 26.018C26.612 25.106 27.002 24.392 27.782 23.876C28.562 23.348 29.564 23.084 30.788 23.084ZM38.1317 26.612C38.9957 26.612 39.7037 27.026 40.2557 27.854C40.8197 28.682 41.1017 29.678 41.1017 30.842C41.1017 31.994 40.8137 32.978 40.2377 33.794C39.6737 34.61 38.9177 35.018 37.9697 35.018C37.0337 35.018 36.2777 34.604 35.7017 33.776C35.1257 32.936 34.8377 32.006 34.8377 30.986C34.8377 29.678 35.1017 28.634 35.6297 27.854C36.1937 27.026 37.0277 26.612 38.1317 26.612ZM37.9157 28.088C37.4117 28.088 36.9977 28.352 36.6737 28.88C36.3497 29.408 36.1877 29.966 36.1877 30.554C36.1877 31.466 36.3677 32.162 36.7277 32.642C37.0877 33.122 37.4957 33.362 37.9517 33.362C38.7677 33.362 39.2897 33.008 39.5177 32.3C39.6137 31.964 39.6617 31.544 39.6617 31.04C39.6617 29.072 39.0797 28.088 37.9157 28.088ZM42.1695 27.296C42.2175 27.092 42.3195 26.924 42.4755 26.792C42.6315 26.648 42.7875 26.576 42.9435 26.576C43.1115 26.576 43.2375 26.606 43.3215 26.666C43.4175 26.726 43.4715 26.78 43.4835 26.828C43.5075 26.876 43.5315 26.96 43.5555 27.08C43.4835 28.016 43.4475 28.862 43.4475 29.618C43.4475 30.362 43.5375 31.22 43.7175 32.192C43.8975 33.152 44.0955 33.632 44.3115 33.632C44.6355 33.632 45.0435 33.452 45.5355 33.092C46.0395 32.732 46.3995 32.354 46.6155 31.958C46.4715 30.23 46.3995 28.748 46.3995 27.512C46.3995 27.26 46.4775 27.044 46.6335 26.864C46.8015 26.684 46.9995 26.594 47.2275 26.594C47.5995 26.594 47.7855 26.846 47.7855 27.35C47.7855 28.202 47.8455 29.468 47.9655 31.148C48.0975 32.828 48.2295 33.896 48.3615 34.352C48.3855 34.448 48.3975 34.562 48.3975 34.694C48.3975 34.814 48.3135 34.928 48.1455 35.036C47.9895 35.156 47.7795 35.216 47.5155 35.216C47.2635 35.216 47.0955 35.072 47.0115 34.784C46.9875 34.544 46.9275 34.184 46.8315 33.704C45.9915 34.58 45.1455 35.018 44.2935 35.018C43.8975 35.018 43.5435 34.868 43.2315 34.568C42.9195 34.268 42.6735 33.86 42.4935 33.344C42.1815 32.348 42.0255 31.412 42.0255 30.536C42.0255 29.66 42.0735 28.58 42.1695 27.296ZM49.8625 26.594L50.7625 26.612C50.9665 26.612 51.0805 26.606 51.1045 26.594V22.904C51.1165 22.7 51.2185 22.526 51.4105 22.382C51.6025 22.238 51.7825 22.166 51.9505 22.166C52.1185 22.166 52.2505 22.22 52.3465 22.328C52.4545 22.436 52.5025 22.604 52.4905 22.832C52.4785 23.06 52.4725 24.308 52.4725 26.576L54.5785 26.504C54.9385 26.504 55.1185 26.714 55.1185 27.134C55.1185 27.446 55.0225 27.68 54.8305 27.836C54.6505 27.992 54.4525 28.076 54.2365 28.088C54.0325 28.1 53.8285 28.106 53.6245 28.106L52.5265 28.088C52.5265 28.58 52.5745 29.552 52.6705 31.004C52.7785 32.456 52.8625 33.398 52.9225 33.83C52.9825 34.25 52.9945 34.526 52.9585 34.658C52.9225 34.778 52.8565 34.862 52.7605 34.91C52.6045 34.982 52.3945 35.018 52.1305 35.018C51.8665 35.018 51.7105 34.874 51.6625 34.586C51.4225 33.014 51.2605 30.854 51.1765 28.106C51.0685 28.118 50.6545 28.124 49.9345 28.124C49.2145 28.124 48.8545 27.914 48.8545 27.494C48.8545 26.894 49.1905 26.594 49.8625 26.594ZM57.526 29.168L57.67 33.416C57.67 33.944 57.646 34.25 57.598 34.334C57.574 34.55 57.502 34.718 57.382 34.838C57.274 34.958 57.058 35.018 56.734 35.018C56.578 35.018 56.452 34.922 56.356 34.73C56.26 34.526 56.206 34.298 56.194 34.046C56.11 31.934 55.996 29.954 55.852 28.106C55.72 26.246 55.654 24.518 55.654 22.922C55.654 22.67 55.738 22.472 55.906 22.328C56.074 22.184 56.272 22.112 56.5 22.112C56.836 22.112 57.034 22.4 57.094 22.976C57.166 23.552 57.208 24.272 57.22 25.136C57.244 26 57.268 26.63 57.292 27.026C57.892 26.714 58.492 26.558 59.092 26.558C60.484 26.558 61.366 27.17 61.738 28.394C61.954 29.09 62.062 29.984 62.062 31.076C62.062 31.436 62.026 32.006 61.954 32.786C61.894 33.554 61.858 34.052 61.846 34.28C61.834 34.508 61.732 34.688 61.54 34.82C61.36 34.94 61.162 35 60.946 35C60.61 35 60.442 34.82 60.442 34.46L60.568 31.328C60.568 31.064 60.556 30.626 60.532 30.014C60.508 29.402 60.382 28.916 60.154 28.556C59.938 28.196 59.554 28.016 59.002 28.016C58.018 28.016 57.526 28.4 57.526 29.168ZM71.285 23.138C71.585 23.138 71.837 23.27 72.041 23.534C72.245 23.798 72.509 24.344 72.833 25.172C73.589 27.128 74.327 30.194 75.047 34.37C75.059 34.418 75.065 34.49 75.065 34.586C75.065 34.67 75.005 34.766 74.885 34.874C74.777 34.97 74.615 35.018 74.399 35.018C74.195 35.018 74.021 34.97 73.877 34.874C73.733 34.766 73.637 34.598 73.589 34.37C73.541 34.13 73.451 33.668 73.319 32.984C73.031 31.46 72.839 30.668 72.743 30.608C72.599 30.524 72.119 30.434 71.303 30.338C70.499 30.242 69.965 30.194 69.701 30.194C69.437 30.194 69.281 30.218 69.233 30.266C69.017 30.458 68.723 31.916 68.351 34.64C68.303 34.868 68.075 34.982 67.667 34.982C67.259 34.982 67.055 34.808 67.055 34.46C67.055 33.596 67.373 31.946 68.009 29.51C68.645 27.074 69.173 25.46 69.593 24.668C70.121 23.648 70.685 23.138 71.285 23.138ZM71.213 25.136C71.033 25.136 70.721 25.67 70.277 26.738C69.833 27.794 69.611 28.448 69.611 28.7C69.611 28.76 69.623 28.802 69.647 28.826C69.743 28.922 70.121 29.006 70.781 29.078C71.441 29.15 71.879 29.186 72.095 29.186C72.311 29.186 72.431 29.174 72.455 29.15C72.479 29.114 72.491 29.018 72.491 28.862C72.491 28.694 72.329 28.034 72.005 26.882C71.681 25.718 71.417 25.136 71.213 25.136ZM77.1221 35.018C76.8101 35.018 76.6241 34.844 76.5641 34.496C76.5641 32.072 76.4201 29.912 76.1321 28.016C76.1321 27.776 76.2161 27.56 76.3841 27.368C76.5641 27.176 76.7621 27.08 76.9781 27.08C77.2061 27.08 77.3741 27.206 77.4821 27.458C77.9261 26.87 78.5201 26.576 79.2641 26.576C80.2121 26.576 80.9441 27.032 81.4601 27.944C82.0601 27.08 82.8521 26.648 83.8361 26.648C84.8321 26.648 85.5761 27.044 86.0681 27.836C86.3921 28.328 86.6201 28.976 86.7521 29.78C86.8841 30.584 86.9501 31.724 86.9501 33.2C86.9501 33.776 86.8901 34.226 86.7701 34.55C86.6501 34.862 86.3981 35.018 86.0141 35.018C85.7021 35.018 85.5461 34.82 85.5461 34.424L85.6001 32.174C85.6001 29.474 84.8981 28.124 83.4941 28.124C83.0501 28.124 82.7381 28.28 82.5581 28.592C82.3541 28.964 82.2341 29.354 82.1981 29.762C82.1501 30.482 82.1261 31.136 82.1261 31.724V34.334C82.1261 34.526 82.0301 34.688 81.8381 34.82C81.6461 34.952 81.4481 35.018 81.2441 35.018C80.9801 35.018 80.8121 34.844 80.7401 34.496L80.7941 30.77C80.7941 29.45 80.5721 28.628 80.1281 28.304C79.9121 28.148 79.5821 28.07 79.1381 28.07C78.7061 28.07 78.3821 28.232 78.1661 28.556C77.9621 28.88 77.8601 29.402 77.8601 30.122L77.9681 33.47C77.9681 34.502 77.6861 35.018 77.1221 35.018ZM90.9225 26.666C91.5585 26.666 92.1645 26.852 92.7405 27.224C93.3165 27.596 93.6045 28.058 93.6045 28.61C93.6045 29.15 93.3705 29.678 92.9025 30.194C92.4345 30.698 91.8105 31.004 91.0305 31.112C90.6945 31.16 90.1905 31.184 89.5185 31.184C89.6505 32.204 89.9085 32.876 90.2925 33.2C90.4125 33.332 90.5745 33.398 90.7785 33.398C91.5225 33.398 92.1465 33.164 92.6505 32.696C93.1545 32.216 93.5145 31.976 93.7305 31.976C93.8265 31.976 93.9705 32.066 94.1625 32.246C94.3545 32.426 94.4505 32.594 94.4505 32.75C94.4505 33.062 94.0725 33.512 93.3165 34.1C92.9805 34.376 92.5725 34.61 92.0925 34.802C91.6245 34.982 91.1865 35.072 90.7785 35.072C89.7345 35.072 88.9665 34.4 88.4745 33.056C88.1625 32.228 88.0065 31.316 88.0065 30.32C88.0065 29.324 88.2405 28.466 88.7085 27.746C89.1765 27.026 89.9145 26.666 90.9225 26.666ZM91.0125 27.908C90.5565 27.908 90.1665 28.166 89.8425 28.682C89.7225 28.862 89.6085 29.27 89.5005 29.906C91.1805 29.906 92.0205 29.492 92.0205 28.664C92.0205 28.16 91.6845 27.908 91.0125 27.908ZM97.8244 32.372L97.8424 34.226C97.8424 34.442 97.7404 34.64 97.5364 34.82C97.3444 35 97.1524 35.09 96.9604 35.09C96.6844 35.09 96.5104 34.874 96.4384 34.442C96.4264 34.346 96.3784 33.47 96.2944 31.814C96.2104 30.146 96.0484 28.838 95.8084 27.89C95.7004 27.434 95.6464 27.164 95.6464 27.08C95.6464 26.684 95.8864 26.486 96.3664 26.486C96.5704 26.486 96.7324 26.564 96.8524 26.72C96.9724 26.876 97.0444 27.038 97.0684 27.206C97.1044 27.362 97.1344 27.578 97.1584 27.854C97.1824 28.13 97.2004 28.304 97.2124 28.376C97.4644 27.776 97.8424 27.326 98.3464 27.026C98.8504 26.726 99.4024 26.576 100.002 26.576C100.986 26.576 101.478 26.828 101.478 27.332C101.478 27.584 101.388 27.788 101.208 27.944C101.04 28.088 100.842 28.16 100.614 28.16C99.5944 28.16 98.8744 28.484 98.4544 29.132C98.0344 29.78 97.8244 30.86 97.8244 32.372ZM103.616 23.624C103.832 23.624 104.036 23.726 104.228 23.93C104.42 24.134 104.516 24.35 104.516 24.578C104.516 24.794 104.408 25.016 104.192 25.244C103.988 25.472 103.772 25.586 103.544 25.586C103.316 25.586 103.106 25.49 102.914 25.298C102.734 25.106 102.644 24.86 102.644 24.56C102.644 23.984 102.956 23.672 103.58 23.624C103.592 23.624 103.604 23.624 103.616 23.624ZM104.372 33.056L104.39 34.316C104.39 34.544 104.3 34.736 104.12 34.892C103.94 35.036 103.748 35.108 103.544 35.108C103.244 35.108 103.088 34.958 103.076 34.658C102.92 30.83 102.842 28.712 102.842 28.304C102.842 27.896 102.86 27.398 102.896 26.81C102.92 26.594 103.058 26.486 103.31 26.486C103.946 26.486 104.306 26.744 104.39 27.26C104.426 27.524 104.444 27.734 104.444 27.89L104.372 29.024V33.056ZM106.202 30.788C106.202 29.984 106.412 29.252 106.832 28.592C107.264 27.932 107.81 27.44 108.47 27.116C109.13 26.78 109.772 26.612 110.396 26.612C111.02 26.612 111.518 26.69 111.89 26.846C112.274 26.99 112.466 27.188 112.466 27.44C112.466 27.68 112.394 27.926 112.25 28.178C112.118 28.418 111.938 28.538 111.71 28.538C111.626 28.538 111.392 28.472 111.008 28.34C110.636 28.196 110.396 28.124 110.288 28.124C109.592 28.124 108.998 28.382 108.506 28.898C108.014 29.402 107.768 30.074 107.768 30.914C107.768 31.754 107.9 32.384 108.164 32.804C108.44 33.212 108.908 33.416 109.568 33.416C109.832 33.416 110.282 33.266 110.918 32.966C111.566 32.654 111.968 32.498 112.124 32.498C112.28 32.498 112.406 32.546 112.502 32.642C112.598 32.738 112.646 32.858 112.646 33.002C112.646 33.29 112.46 33.596 112.088 33.92C111.728 34.232 111.278 34.496 110.738 34.712C110.198 34.916 109.712 35.018 109.28 35.018C108.32 35.018 107.564 34.64 107.012 33.884C106.472 33.128 106.202 32.096 106.202 30.788ZM118.454 26.594C118.982 26.594 119.246 27.044 119.246 27.944C119.246 28.04 119.246 28.142 119.246 28.25L119.21 29.51C119.198 29.906 119.192 30.296 119.192 30.68L119.462 34.748C119.462 35.048 119.156 35.198 118.544 35.198C118.508 35.198 118.418 35.198 118.274 35.198C118.142 35.198 118.046 35.144 117.986 35.036C117.938 34.928 117.932 34.796 117.968 34.64C118.016 34.484 118.004 34.31 117.932 34.118C117.38 34.706 116.648 35 115.736 35C114.044 35 113.198 33.692 113.198 31.076C113.198 29.624 113.468 28.526 114.008 27.782C114.56 27.038 115.346 26.666 116.366 26.666C116.846 26.666 117.326 26.75 117.806 26.918C117.962 26.702 118.178 26.594 118.454 26.594ZM116.582 28.232C115.898 28.232 115.388 28.43 115.052 28.826C114.716 29.222 114.548 29.948 114.548 31.004C114.548 32.78 115.028 33.668 115.988 33.668C116.24 33.668 116.516 33.554 116.816 33.326C117.128 33.098 117.344 32.84 117.464 32.552C117.692 31.904 117.806 31.196 117.806 30.428C117.806 29.66 117.71 29.102 117.518 28.754C117.338 28.406 117.026 28.232 116.582 28.232ZM121.165 34.442L120.967 27.134C120.967 26.906 121.045 26.72 121.201 26.576C121.357 26.432 121.513 26.36 121.669 26.36C122.053 26.36 122.275 26.522 122.335 26.846C122.383 27.17 122.407 27.506 122.407 27.854C123.055 27.002 123.865 26.576 124.837 26.576C126.325 26.576 127.069 28.274 127.069 31.67C127.069 31.982 127.069 32.456 127.069 33.092C127.069 33.716 127.033 34.172 126.961 34.46C126.877 34.82 126.619 35 126.187 35C125.899 35 125.755 34.808 125.755 34.424L125.773 33.416C125.773 32.024 125.725 31.076 125.629 30.572C125.545 30.056 125.461 29.648 125.377 29.348C125.173 28.7 124.843 28.376 124.387 28.376C123.787 28.376 123.367 28.592 123.127 29.024C122.863 29.492 122.707 30.044 122.659 30.68C122.575 31.796 122.533 32.978 122.533 34.226C122.533 34.466 122.443 34.658 122.263 34.802C122.083 34.946 121.867 35.018 121.615 35.018C121.315 35.018 121.165 34.826 121.165 34.442Z" fill="black"/>
</svg>
