<svg width="398" height="128" viewBox="0 0 398 128" fill="none" xmlns="http://www.w3.org/2000/svg">
<path d="M27 124.852C13.8495 124.852 3.14844 114.151 3.14844 101V27C3.14844 13.8495 13.8495 3.14844 27 3.14844H371C384.151 3.14844 394.852 13.8495 394.852 27V101C394.852 114.151 384.151 124.852 371 124.852H27Z" fill="#79C392" stroke="#13644D" stroke-width="5"/>
<path d="M42.1953 77.5665C42.7891 77.5665 43.2891 77.8321 43.6953 78.3633C44.1094 78.8868 44.6406 79.9727 45.2891 81.629C46.7969 85.5469 48.2734 91.6758 49.7109 100.02C49.7422 100.125 49.7578 100.266 49.7578 100.441C49.7578 100.621 49.6406 100.813 49.4141 101.02C49.1836 101.219 48.8555 101.316 48.4297 101.316C48.0117 101.316 47.6562 101.219 47.3672 101.02C47.0859 100.813 46.8906 100.473 46.7891 100.004C46.6953 99.5352 46.5156 98.6212 46.2578 97.254C45.6836 94.2032 45.2969 92.6212 45.1016 92.504C44.8203 92.3399 43.8672 92.1602 42.2422 91.9727C40.625 91.7774 39.5547 91.6758 39.0234 91.6758C38.4922 91.6758 38.1797 91.7227 38.0859 91.8165C37.6562 92.2032 37.0703 95.1212 36.3203 100.566C36.2266 101.027 35.7656 101.254 34.9453 101.254C34.1328 101.254 33.7266 100.906 33.7266 100.207C33.7266 98.4805 34.3594 95.1837 35.6328 90.3165C36.9141 85.4415 37.9687 82.2149 38.8047 80.629C39.8672 78.5899 40.9961 77.5665 42.1953 77.5665ZM42.0547 81.5508C41.6875 81.5508 41.0586 82.6133 40.1641 84.7383C39.2773 86.8633 38.8359 88.1837 38.8359 88.6915C38.8359 88.8087 38.8594 88.8907 38.9141 88.9415C39.1094 89.129 39.8672 89.2969 41.1797 89.4415C42.5 89.5899 43.375 89.6602 43.8047 89.6602C44.2422 89.6602 44.4805 89.629 44.5234 89.5665C44.5742 89.504 44.6016 89.3126 44.6016 88.9883C44.6016 88.668 44.2773 87.3477 43.6328 85.0352C42.9844 82.7149 42.4609 81.5508 42.0547 81.5508Z" fill="black"/>
<path d="M56.7168 76.0821C57.0918 75.8008 57.4121 75.6446 57.6855 75.6133C57.9668 75.5743 58.5996 75.5508 59.5918 75.5508C60.5918 75.5508 61.4121 75.6993 62.0605 75.9883C62.7051 76.2696 63.0293 76.8438 63.0293 77.7071C63.0293 78.5743 62.6855 79.004 61.998 79.004C61.8496 79.004 61.4395 78.879 60.7637 78.629C60.0957 78.3712 59.6621 78.2383 59.4668 78.2383C58.6309 78.2383 58.1309 78.7462 57.9668 79.754C57.9121 80.1212 57.8887 80.8594 57.8887 81.9727V84.7227H60.4043C61.4668 84.7774 61.998 85.1524 61.998 85.8477C61.998 86.8477 61.2715 87.3751 59.8262 87.4258C59.6152 87.4493 59.3574 87.4571 59.0449 87.4571C58.7324 87.4571 58.373 87.4493 57.9668 87.4258C58.0059 88.3868 58.1113 90.0938 58.2793 92.5508C58.4434 95.0118 58.5293 97.4063 58.5293 99.7383C58.5293 100.219 58.334 100.606 57.9512 100.895C57.5762 101.176 57.1855 101.316 56.7793 101.316C56.123 101.316 55.7949 100.938 55.7949 100.176C55.7949 98.0118 55.709 95.9102 55.5449 93.879C55.377 91.8399 55.2559 89.6876 55.1855 87.4258C53.0293 87.4258 51.7676 87.2071 51.4043 86.7696C51.2559 86.6055 51.1855 86.3907 51.1855 86.129C51.1855 85.504 51.4395 85.0977 51.9512 84.9102C52.4707 84.7149 53.0645 84.6133 53.7324 84.6133H55.1855C55.2559 80.7071 55.4746 78.2852 55.8418 77.3477C56.0488 76.7774 56.3418 76.3555 56.7168 76.0821Z" fill="black"/>
<path d="M69.375 96.0352L69.4062 99.7383C69.4062 100.168 69.207 100.563 68.8125 100.926C68.4141 101.289 68.0234 101.473 67.6406 101.473C67.0859 101.473 66.7383 101.043 66.5938 100.176C66.5703 99.9805 66.4766 98.2188 66.3125 94.8946C66.1445 91.5743 65.8203 88.9649 65.3438 87.0665C65.125 86.1524 65.0156 85.6094 65.0156 85.4415C65.0156 84.6524 65.4922 84.254 66.4531 84.254C66.8594 84.254 67.1797 84.4102 67.4219 84.7227C67.6602 85.0352 67.8125 85.3555 67.875 85.6758C67.9375 86.0001 67.9883 86.4376 68.0312 86.9883C68.082 87.543 68.1172 87.8907 68.1406 88.0352C68.6484 86.8399 69.4062 85.9415 70.4062 85.3477C71.4141 84.7462 72.5234 84.4415 73.7344 84.4415C75.6914 84.4415 76.6719 84.9415 76.6719 85.9415C76.6719 86.4532 76.5 86.8594 76.1562 87.1602C75.8125 87.4532 75.4102 87.5977 74.9531 87.5977C72.9102 87.5977 71.4688 88.2501 70.625 89.5508C69.7891 90.8438 69.375 93.004 69.375 96.0352Z" fill="black"/>
<path d="M80.9707 78.5352C81.3965 78.5352 81.8027 78.7383 82.1895 79.1446C82.5723 79.5508 82.7676 79.9805 82.7676 80.4258C82.7676 80.8633 82.5527 81.3126 82.127 81.7696C81.709 82.2305 81.2715 82.4571 80.8145 82.4571C80.3652 82.4571 79.9551 82.2657 79.5801 81.879C79.2051 81.4962 79.0176 81.004 79.0176 80.4102C79.0176 79.254 79.6426 78.629 80.8926 78.5352H80.9707ZM82.4707 97.3946L82.5176 99.9102C82.5176 100.371 82.334 100.75 81.9707 101.051C81.6152 101.352 81.2285 101.504 80.8145 101.504C80.2207 101.504 79.9082 101.203 79.877 100.598C79.5723 92.9415 79.4238 88.7071 79.4238 87.8946C79.4238 87.0821 79.4551 86.0899 79.5176 84.9102C79.5684 84.4727 79.8457 84.254 80.3457 84.254C81.627 84.254 82.3496 84.7696 82.5176 85.8008C82.5879 86.3321 82.627 86.754 82.627 87.0665L82.4707 89.3321V97.3946Z" fill="black"/>
<path d="M86.1426 92.8633C86.1426 91.2501 86.5684 89.7852 87.4238 88.4727C88.2754 87.1524 89.3613 86.1602 90.6738 85.504C91.9941 84.8399 93.2832 84.504 94.5332 84.504C95.7832 84.504 96.7832 84.6563 97.5332 84.9571C98.291 85.2618 98.6738 85.6563 98.6738 86.1446C98.6738 86.6368 98.5332 87.129 98.252 87.629C97.9785 88.1212 97.6152 88.3633 97.1582 88.3633C96.9902 88.3633 96.5254 88.2305 95.7676 87.9571C95.0176 87.6758 94.5332 87.5352 94.3145 87.5352C92.9277 87.5352 91.7402 88.0469 90.752 89.0665C89.7715 90.0899 89.2832 91.4376 89.2832 93.1133C89.2832 94.793 89.5488 96.0469 90.0801 96.879C90.6191 97.7032 91.5527 98.1133 92.877 98.1133C93.4082 98.1133 94.3145 97.8126 95.5957 97.2071C96.877 96.5938 97.6738 96.2852 97.9863 96.2852C98.2988 96.2852 98.5488 96.3868 98.7363 96.5821C98.9316 96.7696 99.0332 97.004 99.0332 97.2852C99.0332 97.8712 98.666 98.4805 97.9395 99.1133C97.209 99.7501 96.3027 100.277 95.2207 100.691C94.1348 101.109 93.1621 101.316 92.2988 101.316C90.3809 101.316 88.877 100.563 87.7832 99.0508C86.6895 97.543 86.1426 95.4805 86.1426 92.8633Z" fill="black"/>
<path d="M110.658 84.4727C111.721 84.4727 112.252 85.375 112.252 87.1758V87.7852L112.174 90.3008C112.15 91.0938 112.143 91.875 112.143 92.6445L112.674 100.785C112.674 101.379 112.064 101.676 110.846 101.676H110.314C110.041 101.676 109.85 101.566 109.736 101.348C109.631 101.141 109.619 100.879 109.705 100.566C109.787 100.254 109.76 99.9062 109.627 99.5195C108.521 100.699 107.053 101.285 105.221 101.285C101.846 101.285 100.158 98.6719 100.158 93.4414C100.158 90.5352 100.697 88.3398 101.783 86.8477C102.877 85.3594 104.443 84.6133 106.486 84.6133C107.443 84.6133 108.4 84.7852 109.361 85.1289C109.674 84.6914 110.104 84.4727 110.658 84.4727ZM106.924 87.7539C105.549 87.7539 104.521 88.1523 103.846 88.9414C103.178 89.7344 102.846 91.1875 102.846 93.3008C102.846 96.8555 103.807 98.6289 105.736 98.6289C106.236 98.6289 106.791 98.4023 107.408 97.9414C108.021 97.4844 108.447 96.9688 108.689 96.3945C109.135 95.0938 109.361 93.6758 109.361 92.1445C109.361 90.6055 109.174 89.4883 108.799 88.8008C108.432 88.1055 107.807 87.7539 106.924 87.7539Z" fill="black"/>
<path d="M116.096 100.176L115.705 85.5508C115.705 85.0938 115.861 84.7227 116.174 84.4414C116.486 84.1523 116.799 84.0039 117.111 84.0039C117.869 84.0039 118.314 84.3281 118.439 84.9727C118.533 85.6211 118.58 86.293 118.58 86.9883C119.869 85.293 121.49 84.4414 123.439 84.4414C126.416 84.4414 127.908 87.8398 127.908 94.6289V97.457C127.908 98.7188 127.834 99.6367 127.689 100.207C127.521 100.926 127.006 101.285 126.143 101.285C125.568 101.285 125.283 100.902 125.283 100.129L125.314 98.1133C125.314 95.332 125.221 93.4336 125.033 92.4102C124.854 91.3906 124.682 90.582 124.518 89.9883C124.111 88.6875 123.455 88.0352 122.549 88.0352C121.338 88.0352 120.494 88.4688 120.018 89.332C119.494 90.2695 119.182 91.375 119.08 92.6445C118.912 94.875 118.83 97.2383 118.83 99.7383C118.83 100.219 118.646 100.605 118.283 100.895C117.928 101.176 117.502 101.316 117.002 101.316C116.396 101.316 116.096 100.938 116.096 100.176Z" fill="black"/>
<path d="M140.039 100.129C139.672 99.8712 139.492 99.5782 139.492 99.254C139.492 98.9337 139.625 98.6602 139.898 98.4415C139.438 95.0157 139.211 91.0782 139.211 86.629C139.211 85.2852 139.266 82.6719 139.383 78.7852C139.508 78.4219 139.75 78.1094 140.117 77.8477C140.492 77.5899 140.844 77.4571 141.18 77.4571C141.523 77.4571 141.73 77.4688 141.805 77.4883C145.23 78.4493 148.215 80.3008 150.758 83.0508C153.309 85.8008 154.641 89.0938 154.758 92.9258C154.758 97.1563 153.008 99.8126 149.508 100.895C148.496 101.207 147.434 101.363 146.32 101.363C145.203 101.363 144.227 101.277 143.383 101.098C143.477 101.293 143.523 101.555 143.523 101.879C143.523 102.199 143.324 102.512 142.93 102.816C142.531 103.117 142.063 103.27 141.523 103.27C140.992 103.27 140.652 102.945 140.508 102.301L140.039 100.129ZM142.195 86.3477C142.195 90.5469 142.434 94.5313 142.914 98.3008C143.496 98.4688 144.469 98.5508 145.836 98.5508C147.199 98.5508 148.512 98.3243 149.773 97.8633C151.031 97.4063 151.699 96.7344 151.773 95.8477C151.844 95.1837 151.883 94.668 151.883 94.3008C151.883 91.1876 151.047 88.4337 149.383 86.0352C147.715 83.629 145.383 81.8008 142.383 80.5508C142.258 83.3868 142.195 85.3165 142.195 86.3477Z" fill="black"/>
<path d="M162.748 84.504C164.475 84.504 165.896 85.3321 167.014 86.9883C168.139 88.6446 168.701 90.6368 168.701 92.9571C168.701 95.2696 168.127 97.2462 166.982 98.879C165.846 100.504 164.334 101.316 162.451 101.316C160.564 101.316 159.045 100.484 157.889 98.8165C156.74 97.1524 156.17 95.2969 156.17 93.254C156.17 90.6407 156.693 88.5508 157.748 86.9883C158.873 85.3321 160.537 84.504 162.748 84.504ZM162.326 87.4571C161.314 87.4571 160.486 87.9883 159.842 89.0508C159.193 90.1055 158.873 91.2188 158.873 92.3946C158.873 94.2188 159.232 95.6094 159.951 96.5665C160.67 97.5274 161.482 98.004 162.389 98.004C164.021 98.004 165.068 97.2969 165.529 95.879C165.717 95.2149 165.811 94.3751 165.811 93.3633C165.811 89.4258 164.646 87.4571 162.326 87.4571Z" fill="black"/>
<path d="M181.229 99.8165C180.361 100.816 179.268 101.316 177.947 101.316C176.623 101.316 175.482 100.91 174.525 100.098C172.514 98.5352 171.51 96.1446 171.51 92.9258C171.51 90.418 172.201 88.4024 173.588 86.879C174.982 85.3477 176.701 84.5821 178.744 84.5821C180.783 84.5821 182.174 85.2813 182.916 86.6758C183.561 87.8946 183.885 89.7383 183.885 92.2071L183.822 95.1602C183.822 96.5587 183.885 98.4844 184.01 100.941C184.143 103.398 184.213 105.254 184.213 106.504C184.213 108.566 183.701 110.082 182.682 111.051C181.658 112.027 180.107 112.52 178.025 112.52C176.775 112.52 175.498 112.254 174.197 111.723C172.904 111.191 172.26 110.582 172.26 109.895C172.26 109.383 172.393 108.996 172.666 108.738C172.947 108.477 173.264 108.348 173.619 108.348C173.982 108.348 174.795 108.606 176.057 109.129C177.314 109.66 178.221 109.926 178.775 109.926C180.502 109.926 181.369 108.508 181.369 105.676C181.369 102.84 181.322 100.891 181.229 99.8165ZM181.182 92.1915C181.182 90.4532 180.92 89.2305 180.4 88.5196C179.889 87.8126 179.08 87.4571 177.979 87.4571C176.873 87.4571 175.982 87.9649 175.307 88.9727C174.639 89.9844 174.307 91.2657 174.307 92.8165C174.307 94.3594 174.623 95.5899 175.26 96.504C175.904 97.4102 176.885 97.8633 178.197 97.8633C179.518 97.8633 180.373 97.3008 180.76 96.1758C181.041 95.2618 181.182 93.9337 181.182 92.1915Z" fill="black"/>
<path d="M187.529 89.0508C187.529 87.6368 188.029 86.504 189.029 85.6602C190.037 84.8165 191.209 84.3946 192.545 84.3946C193.877 84.3946 195.154 84.6407 196.373 85.129C197.6 85.6094 198.217 86.2462 198.217 87.0352C198.217 87.4415 198.061 87.7657 197.748 88.004C197.436 88.2462 197.162 88.3633 196.936 88.3633C196.705 88.3633 196.521 88.3594 196.389 88.3477C196.264 88.3399 195.783 88.1212 194.951 87.6915C194.127 87.254 193.365 87.0352 192.67 87.0352C191.971 87.0352 191.377 87.2071 190.889 87.5508C190.396 87.8946 190.154 88.4063 190.154 89.0821C190.154 89.7501 190.436 90.2774 190.998 90.6602C191.561 91.0469 192.549 91.379 193.967 91.6602C195.381 91.9337 196.467 92.3243 197.217 92.8321C197.975 93.3321 198.357 94.2657 198.357 95.629C198.357 97.629 197.834 99.043 196.795 99.8633C195.752 100.688 194.486 101.098 192.998 101.098C191.506 101.098 190.24 100.895 189.201 100.488C188.158 100.082 187.639 99.4727 187.639 98.6602C187.639 97.7227 188.1 97.254 189.029 97.254C189.279 97.254 189.811 97.4219 190.623 97.754C191.436 98.0899 192.24 98.254 193.045 98.254C193.857 98.254 194.471 98.0001 194.889 97.4883C195.303 96.9688 195.514 96.3751 195.514 95.7071C195.514 95.0313 195.236 94.5469 194.686 94.254C194.131 93.9532 193.295 93.7071 192.17 93.5196C191.045 93.3243 190.217 93.1133 189.686 92.8946C188.248 92.3243 187.529 91.043 187.529 89.0508Z" fill="black"/>
<path d="M278.176 63.8555C278.176 63.8555 261.195 45.9102 259.195 27.4297C257.199 8.94921 258.945 -4.78907 285.422 18.6875L298.906 42.6641C298.906 42.6641 317.387 44.6641 319.887 43.1641C322.383 41.6641 337.867 11.1953 359.844 20.6875C379.328 31.6758 354.352 61.6445 340.367 66.6406C340.367 66.6406 328.379 102.105 317.387 111.594C317.387 111.594 306.398 125.582 295.41 114.094C295.41 114.094 289.418 106.602 287.918 95.6094C285.313 96.3203 279.645 87.3828 278.176 76.543C276.648 65.2422 278.176 63.8555 278.176 63.8555Z" fill="#C8A27E"/>
<path d="M306.898 44.6602C306.898 44.6602 303.402 63.1445 300.906 65.1406C298.406 67.1406 292.805 64.1445 290.363 65.1406C287.918 66.1406 283.922 70.6367 284.422 74.6328C284.922 78.6289 278.18 76.543 278.18 76.543C278.66 76.3047 281.129 95.9766 287.918 95.6094C290.664 108.848 294.938 115.844 300.23 117.633C311.645 122.836 321.293 106.152 326.266 99.4102C332.84 90.4961 337.664 75.4766 329.875 70.1367C322.449 65.043 317.887 67.6406 317.887 67.6406C317.887 67.6406 313.828 49.0274 315.891 46.1602C318.391 42.6797 306.902 43.4414 306.898 44.6602Z" fill="#333333"/>
<path d="M319.637 72.3828C319.637 72.3828 322.133 70.3867 323.133 70.3867C324.133 70.3867 325.629 70.9414 325.629 71.9102C325.629 72.8828 326.629 75.3828 322.133 75.8828C317.637 76.3789 319.637 72.3828 319.637 72.3828ZM293.164 74.8828C294.16 74.8828 295.246 69.8867 293.953 69.6367C292.664 69.3867 289.426 68.8867 288.797 69.6367C288.168 70.3867 288.668 74.8828 293.164 74.8828Z" fill="#030000"/>
<path d="M294.912 99.6055C294.912 99.6055 296.912 94.6133 298.908 93.1133C300.908 91.6172 297.908 88.6172 296.412 87.6211C294.912 86.6211 305.404 84.1211 306.4 83.125C307.4 82.125 313.396 91.1172 313.893 92.6133C314.393 94.1133 319.389 100.605 316.393 102.105C313.396 103.602 312.896 99.6055 311.396 99.1094C309.896 98.6094 295.412 100.605 294.912 99.6055Z" fill="#E6E6E6"/>
<path d="M322.132 75.8828C322.132 75.8828 325.628 74.3828 325.628 73.3828C325.628 72.3828 325.128 70.3867 323.132 71.3867C321.132 72.3828 320.136 72.8828 320.136 74.3828C320.136 75.8828 320.632 75.3828 322.132 75.8828ZM292.163 74.3828C292.163 74.3828 289.667 73.3828 289.167 71.8828C288.667 70.3867 290.163 69.457 292.163 70.1718C294.16 70.8867 293.949 73.496 293.949 73.496C293.949 73.496 292.663 74.3828 292.163 74.3828Z" fill="#4E2700"/>
<path d="M302.154 107.848C302.154 107.848 298.658 106.852 298.158 106.352C297.658 105.852 297.268 99.8828 297.268 99.8828C297.268 99.8828 309.791 99.4101 310.217 99.8828C310.646 100.355 313.217 100.527 311.932 102.437C310.646 104.352 309.15 106.852 308.15 107.352C307.15 107.848 302.654 108.848 302.154 107.848Z" fill="#1A1A1A"/>
<path d="M300.797 103.977C300.797 103.977 298.516 103.523 298.336 102.438C298.156 101.355 299.156 100.855 299.156 100.855C299.156 100.855 300.942 103.102 300.797 103.977ZM307.539 104.02C307.539 104.02 310.609 103.773 310.754 102.441C310.895 101.105 309.895 100.75 309.149 101.426C308.399 102.105 307.184 102.438 307.539 104.02Z" fill="#030000"/>
<path d="M300.156 111.344C300.156 111.344 302.152 112.844 303.652 112.844C305.152 112.844 306.148 112.344 306.648 111.344C307.148 110.348 302.652 110.348 300.156 111.344Z" fill="#B84F4B"/>
<path d="M350.857 46.1601C350.857 46.1601 359.423 45.6132 360.349 47.1601C362.103 50.0937 369.56 34.6406 365.759 26.6875C362.33 19.5117 353.443 17.9961 347.337 19.2656C341.326 20.5195 332.826 24.9296 330.494 29.8906C328.173 34.8203 332.873 33.1718 337.369 29.6757C341.865 26.1796 343.865 32.6718 340.865 35.1718C337.869 37.6679 346.451 39.2382 348.404 39.4531C350.357 39.6679 348.361 45.6601 350.857 46.1601Z" fill="#1A1A1A"/>
<path d="M342.365 51.1562C342.365 51.1562 339.529 51.75 340.697 47.207C341.865 42.664 344.365 42.164 345.861 43.164C347.361 44.164 348.162 45.7539 350.009 46.957C351.857 48.1601 348.857 50.6562 347.361 50.6562C345.861 50.6562 344.365 51.1562 344.365 52.1562C344.365 53.1523 348.447 54.2968 348.404 54.2226C348.357 54.1523 344.861 57.6484 343.365 58.1484C341.865 58.6484 341.33 60.7422 341.099 62.4453C340.869 64.1445 345.209 64.207 345.209 64.207L341.513 66.1875C341.513 66.1875 340.42 63.7422 339.892 62.4453C339.369 61.1445 336.869 61.1445 336.373 60.6484C335.873 60.1484 335.873 56.6523 335.873 56.6523C335.873 56.6523 340.369 56.1523 340.869 56.1523C341.365 56.1523 342.599 54.1875 343.232 53.4218C343.865 52.6562 342.365 51.1562 342.365 51.1562ZM264.396 43.8867C264.396 43.8867 269.935 41.664 271.935 42.164C273.931 42.664 267.939 35.1718 267.939 35.1718C267.939 35.1718 272.935 28.6757 274.931 29.6757C276.931 30.6757 273.931 24.1836 274.431 24.1836C274.931 24.1836 278.927 26.1797 279.427 25.6797C279.927 25.1836 276.431 22.6836 275.931 22.1836C275.431 21.6836 283.248 16.7968 283.248 16.7968C284.326 17.2695 270.685 4.95309 263.334 6.45699C253.052 8.06637 260.041 37.3515 264.396 43.8867ZM278.177 63.8554C278.177 63.8554 281.943 46.7656 283.306 45.3398C284.673 43.914 285.67 37.9179 287.67 41.414C289.67 44.914 288.486 50.289 288.576 52.0976C288.67 53.9023 293.662 49.1914 294.912 45.5547C296.162 41.914 288.576 34.207 288.576 34.207C288.576 34.207 299.47 42.3632 298.318 43.8867C297.162 45.4101 278.177 63.8554 278.177 63.8554Z" fill="#1A1A1A"/>
<path d="M30.662 23.138C30.962 23.138 31.214 23.27 31.418 23.534C31.622 23.798 31.886 24.344 32.21 25.172C32.966 27.128 33.704 30.194 34.424 34.37C34.436 34.418 34.442 34.49 34.442 34.586C34.442 34.67 34.382 34.766 34.262 34.874C34.154 34.97 33.992 35.018 33.776 35.018C33.572 35.018 33.398 34.97 33.254 34.874C33.11 34.766 33.014 34.598 32.966 34.37C32.918 34.13 32.828 33.668 32.696 32.984C32.408 31.46 32.216 30.668 32.12 30.608C31.976 30.524 31.496 30.434 30.68 30.338C29.876 30.242 29.342 30.194 29.078 30.194C28.814 30.194 28.658 30.218 28.61 30.266C28.394 30.458 28.1 31.916 27.728 34.64C27.68 34.868 27.452 34.982 27.044 34.982C26.636 34.982 26.432 34.808 26.432 34.46C26.432 33.596 26.75 31.946 27.386 29.51C28.022 27.074 28.55 25.46 28.97 24.668C29.498 23.648 30.062 23.138 30.662 23.138ZM30.59 25.136C30.41 25.136 30.098 25.67 29.654 26.738C29.21 27.794 28.988 28.448 28.988 28.7C28.988 28.76 29 28.802 29.024 28.826C29.12 28.922 29.498 29.006 30.158 29.078C30.818 29.15 31.256 29.186 31.472 29.186C31.688 29.186 31.808 29.174 31.832 29.15C31.856 29.114 31.868 29.018 31.868 28.862C31.868 28.694 31.706 28.034 31.382 26.882C31.058 25.718 30.794 25.136 30.59 25.136ZM37.9211 22.4C38.1131 22.256 38.2751 22.178 38.4071 22.166C38.5511 22.142 38.8691 22.13 39.3611 22.13C39.8651 22.13 40.2791 22.202 40.6031 22.346C40.9271 22.49 41.0891 22.778 41.0891 23.21C41.0891 23.642 40.9151 23.858 40.5671 23.858C40.4951 23.858 40.2911 23.798 39.9551 23.678C39.6191 23.546 39.4031 23.48 39.3071 23.48C38.8871 23.48 38.6351 23.732 38.5511 24.236C38.5271 24.416 38.5151 24.788 38.5151 25.352C38.5151 25.904 38.5151 26.36 38.5151 26.72H39.7751C40.3031 26.744 40.5671 26.93 40.5671 27.278C40.5671 27.782 40.2071 28.046 39.4871 28.07C39.3791 28.082 39.2471 28.088 39.0911 28.088C38.9351 28.088 38.7551 28.082 38.5511 28.07C38.5751 28.55 38.6291 29.408 38.7131 30.644C38.7971 31.868 38.8391 33.062 38.8391 34.226C38.8391 34.466 38.7431 34.658 38.5511 34.802C38.3591 34.946 38.1611 35.018 37.9571 35.018C37.6331 35.018 37.4711 34.826 37.4711 34.442C37.4711 33.362 37.4291 32.312 37.3451 31.292C37.2611 30.272 37.2011 29.198 37.1651 28.07C36.0851 28.07 35.4551 27.962 35.2751 27.746C35.2031 27.662 35.1671 27.554 35.1671 27.422C35.1671 27.11 35.2931 26.906 35.5451 26.81C35.8091 26.714 36.1091 26.666 36.4451 26.666C36.7811 26.666 37.0211 26.666 37.1651 26.666C37.2011 24.71 37.3091 23.498 37.4891 23.03C37.5971 22.742 37.7411 22.532 37.9211 22.4ZM44.2638 32.372L44.2818 34.226C44.2818 34.442 44.1798 34.64 43.9758 34.82C43.7838 35 43.5918 35.09 43.3998 35.09C43.1238 35.09 42.9498 34.874 42.8778 34.442C42.8658 34.346 42.8178 33.47 42.7338 31.814C42.6498 30.146 42.4878 28.838 42.2478 27.89C42.1398 27.434 42.0858 27.164 42.0858 27.08C42.0858 26.684 42.3258 26.486 42.8058 26.486C43.0098 26.486 43.1718 26.564 43.2918 26.72C43.4118 26.876 43.4838 27.038 43.5078 27.206C43.5438 27.362 43.5738 27.578 43.5978 27.854C43.6218 28.13 43.6398 28.304 43.6518 28.376C43.9038 27.776 44.2818 27.326 44.7858 27.026C45.2898 26.726 45.8418 26.576 46.4418 26.576C47.4258 26.576 47.9178 26.828 47.9178 27.332C47.9178 27.584 47.8278 27.788 47.6478 27.944C47.4798 28.088 47.2818 28.16 47.0538 28.16C46.0338 28.16 45.3138 28.484 44.8938 29.132C44.4738 29.78 44.2638 30.86 44.2638 32.372ZM50.0556 23.624C50.2716 23.624 50.4756 23.726 50.6676 23.93C50.8596 24.134 50.9556 24.35 50.9556 24.578C50.9556 24.794 50.8476 25.016 50.6316 25.244C50.4276 25.472 50.2116 25.586 49.9836 25.586C49.7556 25.586 49.5456 25.49 49.3536 25.298C49.1736 25.106 49.0836 24.86 49.0836 24.56C49.0836 23.984 49.3956 23.672 50.0196 23.624C50.0316 23.624 50.0436 23.624 50.0556 23.624ZM50.8116 33.056L50.8296 34.316C50.8296 34.544 50.7396 34.736 50.5596 34.892C50.3796 35.036 50.1876 35.108 49.9836 35.108C49.6836 35.108 49.5276 34.958 49.5156 34.658C49.3596 30.83 49.2816 28.712 49.2816 28.304C49.2816 27.896 49.2996 27.398 49.3356 26.81C49.3596 26.594 49.4976 26.486 49.7496 26.486C50.3856 26.486 50.7456 26.744 50.8296 27.26C50.8656 27.524 50.8836 27.734 50.8836 27.89L50.8116 29.024V33.056ZM52.641 30.788C52.641 29.984 52.851 29.252 53.271 28.592C53.703 27.932 54.249 27.44 54.909 27.116C55.569 26.78 56.211 26.612 56.835 26.612C57.459 26.612 57.957 26.69 58.329 26.846C58.713 26.99 58.905 27.188 58.905 27.44C58.905 27.68 58.833 27.926 58.689 28.178C58.557 28.418 58.377 28.538 58.149 28.538C58.065 28.538 57.831 28.472 57.447 28.34C57.075 28.196 56.835 28.124 56.727 28.124C56.031 28.124 55.437 28.382 54.945 28.898C54.453 29.402 54.207 30.074 54.207 30.914C54.207 31.754 54.339 32.384 54.603 32.804C54.879 33.212 55.347 33.416 56.007 33.416C56.271 33.416 56.721 33.266 57.357 32.966C58.005 32.654 58.407 32.498 58.563 32.498C58.719 32.498 58.845 32.546 58.941 32.642C59.037 32.738 59.085 32.858 59.085 33.002C59.085 33.29 58.899 33.596 58.527 33.92C58.167 34.232 57.717 34.496 57.177 34.712C56.637 34.916 56.151 35.018 55.719 35.018C54.759 35.018 54.003 34.64 53.451 33.884C52.911 33.128 52.641 32.096 52.641 30.788ZM64.8935 26.594C65.4215 26.594 65.6855 27.044 65.6855 27.944C65.6855 28.04 65.6855 28.142 65.6855 28.25L65.6495 29.51C65.6375 29.906 65.6315 30.296 65.6315 30.68L65.9015 34.748C65.9015 35.048 65.5955 35.198 64.9835 35.198C64.9475 35.198 64.8575 35.198 64.7135 35.198C64.5815 35.198 64.4855 35.144 64.4255 35.036C64.3775 34.928 64.3715 34.796 64.4075 34.64C64.4555 34.484 64.4435 34.31 64.3715 34.118C63.8195 34.706 63.0875 35 62.1755 35C60.4835 35 59.6375 33.692 59.6375 31.076C59.6375 29.624 59.9075 28.526 60.4475 27.782C60.9995 27.038 61.7855 26.666 62.8055 26.666C63.2855 26.666 63.7655 26.75 64.2455 26.918C64.4015 26.702 64.6175 26.594 64.8935 26.594ZM63.0215 28.232C62.3375 28.232 61.8275 28.43 61.4915 28.826C61.1555 29.222 60.9875 29.948 60.9875 31.004C60.9875 32.78 61.4675 33.668 62.4275 33.668C62.6795 33.668 62.9555 33.554 63.2555 33.326C63.5675 33.098 63.7835 32.84 63.9035 32.552C64.1315 31.904 64.2455 31.196 64.2455 30.428C64.2455 29.66 64.1495 29.102 63.9575 28.754C63.7775 28.406 63.4655 28.232 63.0215 28.232Z" fill="black"/>
</svg>
