<svg width="398" height="128" viewBox="0 0 398 128" fill="none" xmlns="http://www.w3.org/2000/svg">
<path d="M27.0005 124.852C13.8536 124.852 3.14893 114.15 3.14893 101V27C3.14893 13.8497 13.8536 3.14844 27.0005 3.14844H371C384.151 3.14844 394.852 13.8495 394.852 27V101C394.852 114.151 384.151 124.852 371 124.852H27.0005Z" fill="#79C392" stroke="#13644D" stroke-width="5"/>
<path d="M44.9609 77.7383C46.5742 77.7383 48.3516 78.0508 50.2891 78.6758C50.7266 79.0118 50.9453 79.3751 50.9453 79.7696C50.9453 80.168 50.7461 80.5157 50.3516 80.8165C49.9531 81.1212 49.5 81.2696 48.9922 81.2696C47.6992 80.9376 46.4844 80.7696 45.3516 80.7696C42.7656 80.7696 40.8047 81.543 39.4609 83.0821C38.1172 84.6133 37.4453 86.8907 37.4453 89.9102C37.4453 92.9337 38.2344 95.2969 39.8203 97.004C40.6328 97.8907 41.6016 98.3321 42.7266 98.3321C43.8594 98.3321 45.6641 97.7344 48.1328 96.5352C48.9961 96.129 49.5703 95.9258 49.8516 95.9258C50.4766 95.9258 50.7891 96.2501 50.7891 96.8946C50.7891 97.543 50.4922 98.0821 49.8984 98.5196C47.8359 99.5938 46.2266 100.316 45.0703 100.691C43.9141 101.066 42.918 101.254 42.0859 101.254C40.3555 101.254 38.875 100.621 37.6484 99.3477C35.4687 96.9962 34.3828 93.7852 34.3828 89.7227C34.3828 85.6524 35.418 82.6368 37.4922 80.6758C39.5625 78.7188 42.0547 77.7383 44.9609 77.7383Z" fill="black"/>
<path d="M60.3311 84.504C62.0576 84.504 63.4795 85.3322 64.5967 86.9884C65.7217 88.6447 66.2842 90.6368 66.2842 92.9572C66.2842 95.2697 65.71 97.2462 64.5654 98.879C63.4287 100.504 61.917 101.317 60.0342 101.317C58.1475 101.317 56.6279 100.484 55.4717 98.8165C54.3232 97.1525 53.7529 95.297 53.7529 93.254C53.7529 90.6407 54.2764 88.5509 55.3311 86.9884C56.4561 85.3322 58.1201 84.504 60.3311 84.504ZM59.9092 87.4572C58.8975 87.4572 58.0693 87.9884 57.4248 89.0509C56.7764 90.1056 56.4561 91.2189 56.4561 92.3947C56.4561 94.2189 56.8154 95.6095 57.5342 96.5665C58.2529 97.5275 59.0654 98.004 59.9717 98.004C61.6045 98.004 62.6514 97.297 63.1123 95.879C63.2998 95.215 63.3936 94.3751 63.3936 93.3634C63.3936 89.4259 62.2295 87.4572 59.9092 87.4572Z" fill="black"/>
<path d="M70.5264 101.316C69.9014 101.316 69.5264 100.969 69.4014 100.27C69.4014 95.4258 69.1123 91.1094 68.542 87.3165C68.542 86.8399 68.7139 86.4063 69.0576 86.0196C69.4092 85.6368 69.8076 85.4415 70.2451 85.4415C70.6904 85.4415 71.0264 85.6993 71.2451 86.2071C72.1279 85.0313 73.3154 84.4415 74.8076 84.4415C76.7021 84.4415 78.167 85.3555 79.1982 87.1758C80.3936 85.4493 81.9834 84.5821 83.9639 84.5821C85.9521 84.5821 87.4365 85.3751 88.417 86.9571C89.0615 87.9376 89.5146 89.2344 89.7764 90.8477C90.0459 92.4532 90.1826 94.7344 90.1826 97.6915C90.1826 98.8399 90.0615 99.7305 89.8232 100.363C89.5811 101 89.0771 101.316 88.3076 101.316C87.6826 101.316 87.3701 100.922 87.3701 100.129L87.4795 95.629C87.4795 90.2344 86.0732 87.5352 83.2607 87.5352C82.374 87.5352 81.7529 87.8477 81.4014 88.4727C80.9951 89.2149 80.7529 89.9962 80.6826 90.8165C80.5771 92.254 80.5264 93.5626 80.5264 94.7383V99.9571C80.5264 100.344 80.3311 100.668 79.9482 100.926C79.5732 101.188 79.1748 101.316 78.7607 101.316C78.2373 101.316 77.9053 100.969 77.7607 100.27L77.8701 92.8321C77.8701 90.1876 77.4248 88.543 76.542 87.8946C76.1045 87.5821 75.4482 87.4258 74.5732 87.4258C73.6982 87.4258 73.0459 87.7501 72.6201 88.3946C72.2021 89.043 71.9951 90.0899 71.9951 91.5352L72.2139 98.2227C72.2139 100.285 71.6514 101.316 70.5264 101.316Z" fill="black"/>
<path d="M95.0059 101.316C94.3809 101.316 94.0059 100.969 93.8809 100.27C93.8809 95.4258 93.5918 91.1094 93.0215 87.3165C93.0215 86.8399 93.1934 86.4063 93.5371 86.0196C93.8887 85.6368 94.2871 85.4415 94.7246 85.4415C95.1699 85.4415 95.5059 85.6993 95.7246 86.2071C96.6074 85.0313 97.7949 84.4415 99.2871 84.4415C101.182 84.4415 102.646 85.3555 103.678 87.1758C104.873 85.4493 106.463 84.5821 108.443 84.5821C110.432 84.5821 111.916 85.3751 112.896 86.9571C113.541 87.9376 113.994 89.2344 114.256 90.8477C114.525 92.4532 114.662 94.7344 114.662 97.6915C114.662 98.8399 114.541 99.7305 114.303 100.363C114.061 101 113.557 101.316 112.787 101.316C112.162 101.316 111.85 100.922 111.85 100.129L111.959 95.629C111.959 90.2344 110.553 87.5352 107.74 87.5352C106.854 87.5352 106.232 87.8477 105.881 88.4727C105.475 89.2149 105.232 89.9962 105.162 90.8165C105.057 92.254 105.006 93.5626 105.006 94.7383V99.9571C105.006 100.344 104.811 100.668 104.428 100.926C104.053 101.188 103.654 101.316 103.24 101.316C102.717 101.316 102.385 100.969 102.24 100.27L102.35 92.8321C102.35 90.1876 101.904 88.543 101.021 87.8946C100.584 87.5821 99.9277 87.4258 99.0527 87.4258C98.1777 87.4258 97.5254 87.7501 97.0996 88.3946C96.6816 89.043 96.4746 90.0899 96.4746 91.5352L96.6934 98.2227C96.6934 100.285 96.1309 101.316 95.0059 101.316Z" fill="black"/>
<path d="M123.799 84.504C125.525 84.504 126.947 85.3322 128.064 86.9884C129.189 88.6447 129.752 90.6368 129.752 92.9572C129.752 95.2697 129.178 97.2462 128.033 98.879C126.896 100.504 125.385 101.317 123.502 101.317C121.615 101.317 120.096 100.484 118.939 98.8165C117.791 97.1525 117.221 95.297 117.221 93.254C117.221 90.6407 117.744 88.5509 118.799 86.9884C119.924 85.3322 121.588 84.504 123.799 84.504ZM123.377 87.4572C122.365 87.4572 121.537 87.9884 120.893 89.0509C120.244 90.1056 119.924 91.2189 119.924 92.3947C119.924 94.2189 120.283 95.6095 121.002 96.5665C121.721 97.5275 122.533 98.004 123.439 98.004C125.072 98.004 126.119 97.297 126.58 95.879C126.768 95.215 126.861 94.3751 126.861 93.3634C126.861 89.4259 125.697 87.4572 123.377 87.4572Z" fill="black"/>
<path d="M133.306 100.176L132.915 85.5508C132.915 85.0938 133.071 84.7227 133.384 84.4415C133.696 84.1524 134.009 84.004 134.321 84.004C135.079 84.004 135.524 84.3282 135.649 84.9727C135.743 85.6212 135.79 86.293 135.79 86.9883C137.079 85.293 138.7 84.4415 140.649 84.4415C143.626 84.4415 145.118 87.8399 145.118 94.629V97.4571C145.118 98.7188 145.044 99.6368 144.899 100.207C144.731 100.926 144.216 101.285 143.353 101.285C142.778 101.285 142.493 100.902 142.493 100.129L142.524 98.1133C142.524 95.3321 142.431 93.4337 142.243 92.4102C142.063 91.3907 141.892 90.5821 141.728 89.9883C141.321 88.6876 140.665 88.0352 139.759 88.0352C138.548 88.0352 137.704 88.4688 137.228 89.3321C136.704 90.2696 136.392 91.3751 136.29 92.6446C136.122 94.8751 136.04 97.2383 136.04 99.7383C136.04 100.219 135.856 100.606 135.493 100.895C135.138 101.176 134.712 101.316 134.212 101.316C133.606 101.316 133.306 100.938 133.306 100.176Z" fill="black"/>
<path d="M159.873 87.504C161.748 87.8165 163.459 87.9727 165.014 87.9727C166.576 87.9727 167.576 87.9571 168.014 87.9258C167.959 86.1055 167.936 84.3555 167.936 82.6758V79.254C167.936 78.6524 167.955 78.2696 167.998 78.1133C168.049 77.9571 168.205 77.8126 168.467 77.6758C168.736 77.5313 169.127 77.4571 169.639 77.4571C170.357 77.4571 170.717 77.8907 170.717 78.754V91.4883C170.717 94.1368 170.654 97.043 170.529 100.207C170.506 100.906 169.92 101.254 168.764 101.254C168.189 101.254 167.904 100.906 167.904 100.207L168.045 90.6602C167.271 90.7149 166.221 90.7383 164.889 90.7383C163.564 90.7383 161.893 90.5938 159.873 90.3008C159.873 93.4688 160.018 96.7813 160.311 100.238C160.33 100.625 160.158 100.922 159.795 101.129C159.439 101.324 158.99 101.426 158.451 101.426C157.908 101.426 157.615 101.152 157.576 100.598C157.264 97.1915 157.107 93.8321 157.107 90.5196L157.326 79.2852C157.326 78.8087 157.502 78.4532 157.857 78.2227C158.221 77.9962 158.607 77.879 159.014 77.879C159.678 77.879 160.014 78.2071 160.014 78.8633L159.873 87.504Z" fill="black"/>
<path d="M183.377 84.4727C184.439 84.4727 184.971 85.3751 184.971 87.1758V87.7852L184.893 90.3008C184.869 91.0938 184.861 91.8751 184.861 92.6446L185.393 100.785C185.393 101.379 184.783 101.676 183.564 101.676H183.033C182.76 101.676 182.568 101.566 182.455 101.348C182.35 101.141 182.338 100.879 182.424 100.566C182.506 100.254 182.479 99.9063 182.346 99.5196C181.24 100.699 179.771 101.285 177.939 101.285C174.564 101.285 172.877 98.6719 172.877 93.4415C172.877 90.5352 173.416 88.3399 174.502 86.8477C175.596 85.3594 177.162 84.6133 179.205 84.6133C180.162 84.6133 181.119 84.7852 182.08 85.129C182.393 84.6915 182.822 84.4727 183.377 84.4727ZM179.643 87.754C178.268 87.754 177.24 88.1524 176.564 88.9415C175.896 89.7344 175.564 91.1876 175.564 93.3008C175.564 96.8555 176.525 98.629 178.455 98.629C178.955 98.629 179.51 98.4024 180.127 97.9415C180.74 97.4844 181.166 96.9688 181.408 96.3946C181.854 95.0938 182.08 93.6758 182.08 92.1446C182.08 90.6055 181.893 89.4883 181.518 88.8008C181.15 88.1055 180.525 87.754 179.643 87.754Z" fill="black"/>
<path d="M189.506 101.316C188.881 101.316 188.506 100.969 188.381 100.27C188.381 95.4258 188.092 91.1094 187.521 87.3165C187.521 86.8399 187.693 86.4063 188.037 86.0196C188.389 85.6368 188.787 85.4415 189.225 85.4415C189.67 85.4415 190.006 85.6993 190.225 86.2071C191.107 85.0313 192.295 84.4415 193.787 84.4415C195.682 84.4415 197.146 85.3555 198.178 87.1758C199.373 85.4493 200.963 84.5821 202.943 84.5821C204.932 84.5821 206.416 85.3751 207.396 86.9571C208.041 87.9376 208.494 89.2344 208.756 90.8477C209.025 92.4532 209.162 94.7344 209.162 97.6915C209.162 98.8399 209.041 99.7305 208.803 100.363C208.561 101 208.057 101.316 207.287 101.316C206.662 101.316 206.35 100.922 206.35 100.129L206.459 95.629C206.459 90.2344 205.053 87.5352 202.24 87.5352C201.354 87.5352 200.732 87.8477 200.381 88.4727C199.975 89.2149 199.732 89.9962 199.662 90.8165C199.557 92.254 199.506 93.5626 199.506 94.7383V99.9571C199.506 100.344 199.311 100.668 198.928 100.926C198.553 101.188 198.154 101.316 197.74 101.316C197.217 101.316 196.885 100.969 196.74 100.27L196.85 92.8321C196.85 90.1876 196.404 88.543 195.521 87.8946C195.084 87.5821 194.428 87.4258 193.553 87.4258C192.678 87.4258 192.025 87.7501 191.6 88.3946C191.182 89.043 190.975 90.0899 190.975 91.5352L191.193 98.2227C191.193 100.285 190.631 101.316 189.506 101.316Z" fill="black"/>
<path d="M212.548 89.0508C212.548 87.6368 213.048 86.504 214.048 85.6602C215.056 84.8165 216.228 84.3946 217.563 84.3946C218.896 84.3946 220.173 84.6407 221.392 85.129C222.618 85.6094 223.235 86.2462 223.235 87.0352C223.235 87.4415 223.079 87.7657 222.767 88.004C222.454 88.2462 222.181 88.3633 221.954 88.3633C221.724 88.3633 221.54 88.3594 221.407 88.3477C221.282 88.3399 220.802 88.1212 219.97 87.6915C219.146 87.254 218.384 87.0352 217.688 87.0352C216.989 87.0352 216.396 87.2071 215.907 87.5508C215.415 87.8946 215.173 88.4063 215.173 89.0821C215.173 89.7501 215.454 90.2774 216.017 90.6602C216.579 91.0469 217.567 91.379 218.985 91.6602C220.399 91.9337 221.485 92.3243 222.235 92.8321C222.993 93.3321 223.376 94.2657 223.376 95.629C223.376 97.629 222.853 99.043 221.813 99.8633C220.771 100.688 219.505 101.098 218.017 101.098C216.524 101.098 215.259 100.895 214.22 100.488C213.177 100.082 212.657 99.4727 212.657 98.6602C212.657 97.7227 213.118 97.254 214.048 97.254C214.298 97.254 214.829 97.4219 215.642 97.754C216.454 98.0899 217.259 98.254 218.063 98.254C218.876 98.254 219.489 98.0001 219.907 97.4883C220.321 96.9688 220.532 96.3751 220.532 95.7071C220.532 95.0313 220.255 94.5469 219.704 94.254C219.149 93.9532 218.313 93.7071 217.188 93.5196C216.063 93.3243 215.235 93.1133 214.704 92.8946C213.267 92.3243 212.548 91.043 212.548 89.0508Z" fill="black"/>
<path d="M226.688 84.4727L228.485 84.504C228.899 84.504 229.13 84.4962 229.173 84.4727V77.0977C229.192 76.6915 229.396 76.3438 229.782 76.0508C230.165 75.7618 230.524 75.6133 230.86 75.6133C231.204 75.6133 231.474 75.7227 231.673 75.9415C231.88 76.1602 231.97 76.5001 231.938 76.9571C231.915 77.4063 231.907 79.9024 231.907 84.4415L236.126 84.3008C236.845 84.3008 237.204 84.7188 237.204 85.5508C237.204 86.1758 237.017 86.6446 236.642 86.9571C236.267 87.2696 235.868 87.4415 235.454 87.4727C235.036 87.4962 234.626 87.504 234.22 87.504L232.017 87.4571C232.017 88.4493 232.114 90.3946 232.313 93.3008C232.521 96.1993 232.681 98.0743 232.798 98.9258C232.923 99.7813 232.946 100.332 232.876 100.582C232.813 100.832 232.681 101.004 232.485 101.098C232.173 101.246 231.751 101.316 231.22 101.316C230.696 101.316 230.392 101.031 230.298 100.457C229.806 97.3126 229.478 92.9962 229.313 87.504C229.103 87.5274 228.274 87.5352 226.829 87.5352C225.392 87.5352 224.673 87.1133 224.673 86.2696C224.673 85.0743 225.345 84.4727 226.688 84.4727Z" fill="black"/>
<path d="M243.354 84.6133C244.624 84.6133 245.839 84.9883 246.995 85.7383C248.151 86.4805 248.729 87.3946 248.729 88.4883C248.729 89.5821 248.261 90.6407 247.323 91.6602C246.386 92.6837 245.136 93.2969 243.573 93.504C242.905 93.6094 241.901 93.6602 240.558 93.6602C240.815 95.6915 241.331 97.0352 242.104 97.6915C242.343 97.9532 242.667 98.0821 243.073 98.0821C244.562 98.0821 245.808 97.6094 246.808 96.6602C247.815 95.7149 248.542 95.2383 248.979 95.2383C249.167 95.2383 249.452 95.4219 249.839 95.7852C250.222 96.1407 250.417 96.4727 250.417 96.7852C250.417 97.4102 249.659 98.3126 248.151 99.4883C247.472 100.043 246.659 100.504 245.714 100.879C244.765 101.246 243.886 101.426 243.073 101.426C240.979 101.426 239.44 100.082 238.464 97.3946C237.839 95.7383 237.526 93.918 237.526 91.9258C237.526 89.9376 237.995 88.2227 238.933 86.7852C239.87 85.3399 241.343 84.6133 243.354 84.6133ZM243.542 87.0977C242.624 87.0977 241.843 87.6133 241.198 88.6446C240.956 89.0118 240.729 89.8282 240.511 91.0977C243.874 91.0977 245.558 90.2696 245.558 88.6133C245.558 87.6055 244.886 87.0977 243.542 87.0977Z" fill="black"/>
<path d="M257.151 96.0352L257.183 99.7383C257.183 100.168 256.983 100.563 256.589 100.926C256.19 101.289 255.8 101.473 255.417 101.473C254.862 101.473 254.515 101.043 254.37 100.176C254.347 99.9805 254.253 98.2188 254.089 94.8946C253.921 91.5743 253.597 88.9649 253.12 87.0665C252.901 86.1524 252.792 85.6094 252.792 85.4415C252.792 84.6524 253.269 84.254 254.229 84.254C254.636 84.254 254.956 84.4102 255.198 84.7227C255.437 85.0352 255.589 85.3555 255.651 85.6758C255.714 86.0001 255.765 86.4376 255.808 86.9883C255.858 87.543 255.894 87.8907 255.917 88.0352C256.425 86.8399 257.183 85.9415 258.183 85.3477C259.19 84.7462 260.3 84.4415 261.511 84.4415C263.468 84.4415 264.448 84.9415 264.448 85.9415C264.448 86.4532 264.276 86.8594 263.933 87.1602C263.589 87.4532 263.187 87.5977 262.729 87.5977C260.687 87.5977 259.245 88.2501 258.401 89.5508C257.565 90.8438 257.151 93.004 257.151 96.0352Z" fill="black"/>
<path d="M302.056 35.664C299.286 41.4414 295.794 42.5586 289.349 39.4726C282.903 36.3867 277.56 31.0351 280.325 25.2578C283.095 19.4765 294.149 17.0351 300.595 20.1211C307.04 23.2109 304.825 29.8867 302.056 35.664ZM364.524 32.9882C361.755 38.7656 358.259 39.8828 351.814 36.7968C345.368 33.707 340.024 28.3593 342.79 22.582C345.56 16.8007 356.614 14.3593 363.06 17.4453C369.509 20.5312 367.29 27.207 364.524 32.9882Z" fill="#6F5443"/>
<path d="M375.146 69.5C385.267 96.3008 357.278 109.027 327.849 111.441C292.626 114.328 269.97 95.3906 279.661 65.9297C287.517 42.0508 302.716 20.418 327.849 20.418C352.986 20.418 366.267 45.9844 375.146 69.5Z" fill="#BE734C"/>
<path d="M375.146 69.5C385.267 96.3008 357.278 109.027 327.849 111.441C292.626 114.328 269.97 95.3906 279.661 65.9297C287.517 42.0508 302.716 20.418 327.849 20.418C352.986 20.418 366.267 45.9844 375.146 69.5Z" stroke="#050405" stroke-width="1.18933" stroke-miterlimit="10"/>
<path d="M313.571 56.5586C313.571 59.2695 311.375 61.4648 308.665 61.4648C305.954 61.4648 303.754 59.2695 303.754 56.5586C303.754 53.8477 305.954 51.6523 308.665 51.6523C311.375 51.6523 313.571 53.8477 313.571 56.5586ZM346.59 55.668C346.59 58.3789 344.391 60.5742 341.68 60.5742C338.969 60.5742 336.774 58.3789 336.774 55.668C336.774 52.957 338.969 50.7578 341.68 50.7578C344.391 50.7578 346.59 52.957 346.59 55.668Z" fill="#0A0A0A"/>
<path d="M330.527 72.1133C330.527 74.0469 327.93 78.4219 324.727 78.4219C321.523 78.4219 318.926 74.0469 318.926 72.1133C318.926 70.1758 321.523 68.6055 324.727 68.6055C327.93 68.6055 330.527 70.1758 330.527 72.1133Z" fill="#FFC5E7"/>
<path d="M323.388 91.8086C323.388 89.8711 323.31 85.5625 326.513 85.5625C329.716 85.5625 330.528 90.7656 330.528 92.6992C330.528 94.6367 330.161 91.8086 326.958 91.8086C323.755 91.8086 323.388 93.7422 323.388 91.8086Z" fill="#6F5443"/>
<path d="M336.825 68.8399C351.083 62.8516 366.548 58.211 382.161 59.2344C370.501 58.6055 358.903 61.4531 347.962 65.2696C344.302 66.5586 340.735 68.0938 337.188 69.6524L336.825 68.8399ZM338.388 72.9727C338.771 72.3516 339.239 72.2383 339.786 71.9727C342.97 70.7852 346.368 70.3594 349.704 69.8633C357.313 68.8946 365.005 68.4102 372.665 68.8555C375.528 69.0664 378.427 69.3555 381.149 70.3047C382.044 70.6367 382.935 71.0547 383.622 71.7305C382.923 71.0703 382.028 70.6719 381.13 70.3555C374.688 68.4883 367.817 68.961 361.192 69.2813C354.556 69.8047 347.853 70.4727 341.431 72.2891C340.688 72.5547 339.716 72.8008 339.192 73.3555L338.388 72.9727ZM338.552 75.711C348.349 75.9141 380.411 76.6914 383.946 87.0977C380.825 78.4922 358.751 77.4375 350.63 76.8555C346.61 76.6524 342.575 76.5547 338.563 76.6016L338.552 75.711ZM316.126 69.7305C301.864 63.7422 286.399 59.1055 270.786 60.1289C282.446 59.5 294.048 62.3477 304.985 66.1641C308.646 67.4532 312.212 68.9844 315.763 70.5469L316.126 69.7305ZM314.56 73.8633C314.181 73.2461 313.712 73.1289 313.161 72.8633C309.978 71.6797 306.579 71.25 303.243 70.7578C295.638 69.7852 287.946 69.3047 280.282 69.7461C277.423 69.9571 274.521 70.2461 271.798 71.1953C270.903 71.5313 270.013 71.9492 269.325 72.6211C270.024 71.961 270.919 71.5625 271.817 71.25C278.263 69.3789 285.13 69.8516 291.759 70.1758C298.396 70.6992 305.099 71.3672 311.517 73.1797C312.259 73.4492 313.231 73.6914 313.755 74.25L314.56 73.8633ZM314.396 76.6016C304.603 76.8086 272.536 77.586 269.001 87.9922C272.122 79.3867 294.196 78.3282 302.321 77.75C306.337 77.5469 310.372 77.4453 314.384 77.4961L314.396 76.6016Z" fill="black"/>
<path d="M26.99 28.808C26.822 28.7 26.738 28.544 26.738 28.34C26.738 28.136 26.804 27.95 26.936 27.782C26.888 26.582 26.864 25.316 26.864 23.984C26.936 23.696 27.044 23.486 27.188 23.354C27.344 23.222 27.566 23.138 27.854 23.102C29.438 23.174 31.154 23.21 33.002 23.21C33.458 23.306 33.686 23.504 33.686 23.804C33.686 24.308 33.194 24.602 32.21 24.686C31.946 24.698 31.658 24.704 31.346 24.704H30.176C29.948 24.704 29.318 24.656 28.286 24.56C28.286 26.06 28.31 27.092 28.358 27.656C28.994 27.668 30.218 27.674 32.03 27.674C32.462 27.758 32.678 27.956 32.678 28.268C32.678 28.568 32.504 28.802 32.156 28.97C32.12 28.994 32.054 29.018 31.958 29.042L28.844 28.988C28.652 28.988 28.496 29 28.376 29.024L28.448 32.12C28.448 32.816 28.43 33.314 28.394 33.614L32.57 33.56C32.954 33.62 33.146 33.782 33.146 34.046C33.146 34.226 33.062 34.406 32.894 34.586C32.738 34.766 32.552 34.88 32.336 34.928L27.728 35C27.452 35 27.26 34.952 27.152 34.856C27.044 34.748 26.99 34.574 26.99 34.334C27.038 33.998 27.062 33.458 27.062 32.714V31.454L26.99 28.808ZM34.6109 27.296C34.6589 27.092 34.7609 26.924 34.9169 26.792C35.0729 26.648 35.2289 26.576 35.3849 26.576C35.5529 26.576 35.6789 26.606 35.7629 26.666C35.8589 26.726 35.9129 26.78 35.9249 26.828C35.9489 26.876 35.9729 26.96 35.9969 27.08C35.9249 28.016 35.8889 28.862 35.8889 29.618C35.8889 30.362 35.9789 31.22 36.1589 32.192C36.3389 33.152 36.5369 33.632 36.7529 33.632C37.0769 33.632 37.4849 33.452 37.9769 33.092C38.4809 32.732 38.8409 32.354 39.0569 31.958C38.9129 30.23 38.8409 28.748 38.8409 27.512C38.8409 27.26 38.9189 27.044 39.0749 26.864C39.2429 26.684 39.4409 26.594 39.6689 26.594C40.0409 26.594 40.2269 26.846 40.2269 27.35C40.2269 28.202 40.2869 29.468 40.4069 31.148C40.5389 32.828 40.6709 33.896 40.8029 34.352C40.8269 34.448 40.8389 34.562 40.8389 34.694C40.8389 34.814 40.7549 34.928 40.5869 35.036C40.4309 35.156 40.2209 35.216 39.9569 35.216C39.7049 35.216 39.5369 35.072 39.4529 34.784C39.4289 34.544 39.3689 34.184 39.2729 33.704C38.4329 34.58 37.5869 35.018 36.7349 35.018C36.3389 35.018 35.9849 34.868 35.6729 34.568C35.3609 34.268 35.1149 33.86 34.9349 33.344C34.6229 32.348 34.4669 31.412 34.4669 30.536C34.4669 29.66 34.5149 28.58 34.6109 27.296ZM44.1759 32.372L44.1939 34.226C44.1939 34.442 44.0919 34.64 43.8879 34.82C43.6959 35 43.5039 35.09 43.3119 35.09C43.0359 35.09 42.8619 34.874 42.7899 34.442C42.7779 34.346 42.7299 33.47 42.6459 31.814C42.5619 30.146 42.3999 28.838 42.1599 27.89C42.0519 27.434 41.9979 27.164 41.9979 27.08C41.9979 26.684 42.2379 26.486 42.7179 26.486C42.9219 26.486 43.0839 26.564 43.2039 26.72C43.3239 26.876 43.3959 27.038 43.4199 27.206C43.4559 27.362 43.4859 27.578 43.5099 27.854C43.5339 28.13 43.5519 28.304 43.5639 28.376C43.8159 27.776 44.1939 27.326 44.6979 27.026C45.2019 26.726 45.7539 26.576 46.3539 26.576C47.3379 26.576 47.8299 26.828 47.8299 27.332C47.8299 27.584 47.7399 27.788 47.5599 27.944C47.3919 28.088 47.1939 28.16 46.9659 28.16C45.9459 28.16 45.2259 28.484 44.8059 29.132C44.3859 29.78 44.1759 30.86 44.1759 32.372ZM51.9657 26.612C52.8297 26.612 53.5377 27.026 54.0897 27.854C54.6537 28.682 54.9357 29.678 54.9357 30.842C54.9357 31.994 54.6477 32.978 54.0717 33.794C53.5077 34.61 52.7517 35.018 51.8037 35.018C50.8677 35.018 50.1117 34.604 49.5357 33.776C48.9597 32.936 48.6717 32.006 48.6717 30.986C48.6717 29.678 48.9357 28.634 49.4637 27.854C50.0277 27.026 50.8617 26.612 51.9657 26.612ZM51.7497 28.088C51.2457 28.088 50.8317 28.352 50.5077 28.88C50.1837 29.408 50.0217 29.966 50.0217 30.554C50.0217 31.466 50.2017 32.162 50.5617 32.642C50.9217 33.122 51.3297 33.362 51.7857 33.362C52.6017 33.362 53.1237 33.008 53.3517 32.3C53.4477 31.964 53.4957 31.544 53.4957 31.04C53.4957 29.072 52.9137 28.088 51.7497 28.088ZM58.8835 34.982C58.4755 34.982 58.0975 34.844 57.7495 34.568C57.7495 34.568 57.6715 34.502 57.5155 34.37V39.77C57.4435 40.01 57.3175 40.208 57.1375 40.364C56.9575 40.532 56.7655 40.616 56.5615 40.616C56.2495 40.616 56.0935 40.406 56.0935 39.986V27.44C56.1655 27.128 56.2495 26.906 56.3455 26.774C56.4535 26.642 56.6155 26.576 56.8315 26.576C57.0595 26.576 57.2035 26.63 57.2635 26.738C57.3355 26.834 57.4195 27.11 57.5155 27.566C57.5635 27.326 57.7555 27.104 58.0915 26.9C58.4275 26.696 58.8775 26.594 59.4415 26.594C60.6655 26.594 61.5355 27.038 62.0515 27.926C62.5675 28.814 62.8255 29.864 62.8255 31.076C62.8255 32.276 62.4715 33.23 61.7635 33.938C61.0675 34.634 60.1075 34.982 58.8835 34.982ZM57.5155 29.582V32.93C57.5875 32.966 57.6715 33.026 57.7675 33.11C58.1155 33.422 58.4935 33.578 58.9015 33.578C60.5575 33.578 61.3855 32.726 61.3855 31.022C61.3855 29.57 61.0135 28.652 60.2695 28.268C59.9575 28.1 59.5735 28.016 59.1175 28.016C58.6735 28.076 58.2955 28.274 57.9835 28.61C57.6715 28.934 57.5155 29.258 57.5155 29.582ZM66.3307 26.666C66.9667 26.666 67.5727 26.852 68.1487 27.224C68.7247 27.596 69.0127 28.058 69.0127 28.61C69.0127 29.15 68.7787 29.678 68.3107 30.194C67.8427 30.698 67.2187 31.004 66.4387 31.112C66.1027 31.16 65.5987 31.184 64.9267 31.184C65.0587 32.204 65.3167 32.876 65.7007 33.2C65.8207 33.332 65.9827 33.398 66.1867 33.398C66.9307 33.398 67.5547 33.164 68.0587 32.696C68.5627 32.216 68.9227 31.976 69.1387 31.976C69.2347 31.976 69.3787 32.066 69.5707 32.246C69.7627 32.426 69.8587 32.594 69.8587 32.75C69.8587 33.062 69.4807 33.512 68.7247 34.1C68.3887 34.376 67.9807 34.61 67.5007 34.802C67.0327 34.982 66.5947 35.072 66.1867 35.072C65.1427 35.072 64.3747 34.4 63.8827 33.056C63.5707 32.228 63.4147 31.316 63.4147 30.32C63.4147 29.324 63.6487 28.466 64.1167 27.746C64.5847 27.026 65.3227 26.666 66.3307 26.666ZM66.4207 27.908C65.9647 27.908 65.5747 28.166 65.2507 28.682C65.1307 28.862 65.0167 29.27 64.9087 29.906C66.5887 29.906 67.4287 29.492 67.4287 28.664C67.4287 28.16 67.0927 27.908 66.4207 27.908Z" fill="black"/>
</svg>
