<svg width="396" height="128" viewBox="0 0 396 128" fill="none" xmlns="http://www.w3.org/2000/svg">
<path d="M26.8632 124.852C13.7975 124.852 3.14404 114.162 3.14404 101V27C3.14404 13.8376 13.7975 3.14845 26.8632 3.14845H369.135C382.2 3.14845 392.854 13.8376 392.854 27V101C392.854 114.162 382.2 124.852 369.135 124.852H26.8632Z" fill="#79C392" stroke="#13644D" stroke-width="5"/>
<path d="M339.207 73.8079C339.207 73.8079 340.73 78.9247 352.879 79.6557C352.879 79.6557 367.309 75.2699 377.181 78.1938C387.053 81.1177 382.499 87.1847 377.181 90.0009C371.864 92.8209 351.361 95.7448 336.93 84.7764C322.5 73.8079 339.207 73.8079 339.207 73.8079Z" fill="#85560A"/>
<path d="M339.207 73.8079C339.207 73.8079 340.73 78.9247 352.879 79.6557C352.879 79.6557 367.309 75.2699 377.181 78.1938C387.053 81.1177 382.499 87.1847 377.181 90.0009C371.864 92.8209 351.361 95.7448 336.93 84.7764C322.5 73.8079 339.207 73.8079 339.207 73.8079Z" stroke="black" stroke-width="0.990667" stroke-miterlimit="10" stroke-linecap="round"/>
<path d="M218.077 43.8227C218.077 43.8227 216.559 45.7424 218.836 46.7466C221.113 47.7507 229.467 47.4776 230.985 59.9118C230.985 59.9118 234.025 59.4155 232.503 56.2531C232.503 56.2531 236.303 57.715 236.303 64.2976C236.303 64.2976 239.339 60.6428 238.58 59.9118C237.821 59.1808 240.857 64.2976 240.098 68.6873C239.339 73.077 241.62 65.0286 241.62 65.0286C241.62 65.0286 246.175 77.5359 241.62 87.3733C237.062 97.2106 228.708 93.5519 228.708 93.5519C228.708 93.5519 228.96 101.631 243.642 97.226C243.642 97.226 242.379 94.2829 248.452 95.0139V93.2557C248.452 93.2557 250.733 94.2829 250.733 95.7448V91.8899C250.733 91.8899 256.047 94.2829 256.806 96.4758C256.806 96.4758 261.364 95.7448 260.605 92.09C260.605 92.09 267.605 83.8992 274.273 85.5074C283.39 87.7003 286.426 82.5835 286.426 82.5835L292.503 86.9693C292.503 86.9693 288.196 82.5835 281.108 87.7003C278.072 89.8932 280.349 90.628 280.349 90.628C280.349 90.628 280.349 93.5519 282.627 92.8209C282.627 92.8209 284.149 95.0139 285.667 93.5519C285.667 93.5519 287.185 94.2829 287.185 95.0139C287.185 95.0139 304.652 91.359 310.729 95.0139C316.805 98.6726 324.396 94.2829 324.396 94.2829C324.396 94.2829 325.319 94.9369 326.677 94.2829C331.232 92.09 356.293 62.8357 325.411 43.8227C319.841 35.0472 287.185 35.0472 287.185 35.0472C285.507 35.6666 271.432 35.9859 254.529 24.0749C239.339 21.151 244.657 24.8058 225.672 27.7336C219.595 28.4646 223.39 39.433 223.39 39.433C223.39 39.433 224.149 45.2846 218.077 43.8227Z" fill="#603813"/>
<path d="M218.077 43.8227C218.077 43.8227 216.559 45.7424 218.836 46.7466C221.113 47.7507 229.467 47.4775 230.985 59.9118C230.985 59.9118 234.025 59.4155 232.503 56.2531C232.503 56.2531 236.303 57.715 236.303 64.2976C236.303 64.2976 239.339 60.6428 238.58 59.9118C237.821 59.1808 240.857 64.2976 240.098 68.6873C239.339 73.077 241.62 65.0286 241.62 65.0286C241.62 65.0286 246.175 77.5359 241.62 87.3733C237.062 97.2106 228.708 93.5519 228.708 93.5519C228.708 93.5519 228.96 101.631 243.642 97.226C243.642 97.226 242.379 94.2829 248.452 95.0139V93.2557C248.452 93.2557 250.733 94.2829 250.733 95.7448V91.8899C250.733 91.8899 256.047 94.2829 256.806 96.4758C256.806 96.4758 261.364 95.7448 260.605 92.09C260.605 92.09 267.605 83.8992 274.273 85.5074C283.39 87.7003 286.426 82.5835 286.426 82.5835L292.503 86.9693C292.503 86.9693 288.196 82.5835 281.108 87.7003C278.072 89.8932 280.349 90.628 280.349 90.628C280.349 90.628 280.349 93.5519 282.627 92.8209C282.627 92.8209 284.149 95.0139 285.667 93.5519C285.667 93.5519 287.185 94.2829 287.185 95.0139C287.185 95.0139 304.652 91.359 310.729 95.0139C316.805 98.6726 324.396 94.2829 324.396 94.2829C324.396 94.2829 325.319 94.9369 326.677 94.2829C331.232 92.09 356.293 62.8357 325.411 43.8227C319.842 35.0472 287.185 35.0472 287.185 35.0472C285.507 35.6666 271.432 35.9859 254.529 24.0749C239.339 21.151 244.657 24.8058 225.672 27.7336C219.595 28.4646 223.39 39.433 223.39 39.433C223.39 39.433 224.149 45.2846 218.077 43.8227Z" stroke="black" stroke-width="0.990667" stroke-miterlimit="10"/>
<path d="M233.303 30.2112C233.303 31.8386 231.737 33.1582 229.803 33.1582C227.869 33.1582 226.303 31.8386 226.303 30.2112C226.303 28.5838 227.869 27.2642 229.803 27.2642C231.737 27.2642 233.303 28.5838 233.303 30.2112Z" fill="#EDEAE6"/>
<path d="M233.303 30.2112C233.303 31.8386 231.737 33.1582 229.803 33.1582C227.869 33.1582 226.303 31.8386 226.303 30.2112C226.303 28.5838 227.869 27.2642 229.803 27.2642C231.737 27.2642 233.303 28.5838 233.303 30.2112Z" stroke="black" stroke-width="1.00533" stroke-miterlimit="10" stroke-linecap="round"/>
<path d="M231.553 30.6305C231.553 31.5616 230.77 32.3156 229.803 32.3156C228.836 32.3156 228.053 31.5616 228.053 30.6305C228.053 29.6995 228.836 28.9455 229.803 28.9455C230.77 28.9455 231.553 29.6995 231.553 30.6305Z" fill="#E5E5E5"/>
<path d="M231.553 30.6305C231.553 31.5616 230.77 32.3156 229.803 32.3156C228.836 32.3156 228.053 31.5616 228.053 30.6305C228.053 29.6995 228.836 28.9455 229.803 28.9455C230.77 28.9455 231.553 29.6995 231.553 30.6305Z" stroke="black" stroke-width="2.28" stroke-miterlimit="10" stroke-linecap="round"/>
<path d="M230.498 29.2379C232.387 29.7726 233.973 30.7575 235.088 31.9655C235.212 31.7463 235.32 31.5154 235.396 31.2692C236.099 28.9609 234.233 26.4025 231.229 25.5522C228.224 24.702 225.22 25.8869 224.513 28.1914C224.397 28.58 224.357 28.9763 224.377 29.3725C226.143 28.7185 228.316 28.6185 230.498 29.2379Z" fill="#483925"/>
<path d="M230.498 29.2379C232.387 29.7726 233.973 30.7575 235.088 31.9655C235.212 31.7463 235.32 31.5154 235.396 31.2692C236.099 28.9609 234.233 26.4025 231.229 25.5522C228.224 24.702 225.22 25.8869 224.513 28.1914C224.397 28.58 224.357 28.9763 224.377 29.3725C226.143 28.7185 228.316 28.6185 230.498 29.2379Z" stroke="black" stroke-width="0.910667" stroke-miterlimit="10"/>
<path d="M223.77 29.1955C223.77 29.1955 216.938 27.1719 212 37.3247C212 37.3247 215.036 44.1381 217.885 45.0769C220.733 46.0156 226.051 43.0917 222.252 36.5091C221.493 32.8504 223.77 33.5814 223.77 29.1955Z" fill="#483925"/>
<path d="M223.77 29.1955C223.77 29.1955 216.938 27.1719 212 37.3247C212 37.3247 215.036 44.1381 217.885 45.0769C220.733 46.0156 226.051 43.0917 222.252 36.5091C221.493 32.8504 223.77 33.5814 223.77 29.1955Z" stroke="black" stroke-width="0.790667" stroke-miterlimit="10"/>
<path d="M220.43 39.433C220.698 37.5478 223.655 39.4522 224.581 39.9139C225.836 40.6333 227.042 41.4258 228.217 42.2607C226.986 41.5066 225.728 40.7987 224.434 40.1678C223.878 39.9062 221.03 38.5366 221.038 39.433H220.43ZM220.418 41.1719C223.151 39.8908 225.241 44.6383 226.104 46.4772C226.415 47.2736 226.767 48.0854 226.811 48.9395C226.575 47.3121 222.991 41.195 221.05 42.0837L220.418 41.1719Z" fill="black"/>
<path d="M242.001 33.5852C242.001 33.5852 236.304 32.608 241.238 35.7781C243.519 37.2401 246.555 36.5091 247.642 34.3124C248.093 33.3967 248.517 32.4811 248.321 31.4846C247.974 29.7303 248.073 27.0026 245.037 27.0026C242.001 27.0026 241.238 27.0026 241.238 28.4646C241.238 29.3687 242.688 28.9801 243.795 29.1148C244.522 29.1994 244.402 29.3071 245.037 30.6575C245.648 31.9579 243.986 34.5393 242.001 33.5852Z" fill="#483925"/>
<path d="M242.001 33.5852C242.001 33.5852 236.304 32.608 241.238 35.7781C243.519 37.2401 246.555 36.5091 247.642 34.3124C248.093 33.3967 248.517 32.4811 248.321 31.4846C247.974 29.7303 248.073 27.0026 245.037 27.0026C242.001 27.0026 241.238 27.0026 241.238 28.4646C241.238 29.3687 242.688 28.9801 243.795 29.1148C244.522 29.1994 244.402 29.3071 245.037 30.6575C245.648 31.9579 243.986 34.5393 242.001 33.5852Z" stroke="black" stroke-width="0.990667" stroke-miterlimit="10"/>
<path d="M226.682 95.9526C227.082 95.3101 227.541 94.783 228.036 94.2483C228.392 93.9212 228.716 93.6596 228.971 93.2403C229.383 92.7555 229.886 93.298 230.302 93.7058C230.645 94.0559 231.013 94.6099 231.269 95.0485L231.396 95.5332C231.384 96.2911 231.297 97.3722 230.837 97.9301C230.486 98.3763 229.938 97.7531 229.559 97.6723C228.584 97.3838 227.705 96.9721 226.81 96.4373L226.682 95.9526Z" fill="#483925"/>
<path d="M226.682 95.9526C227.082 95.3101 227.541 94.783 228.036 94.2483C228.392 93.9212 228.716 93.6596 228.971 93.2403C229.383 92.7555 229.886 93.298 230.302 93.7058C230.645 94.0559 231.013 94.6099 231.269 95.0485L231.396 95.5332C231.384 96.2911 231.297 97.3722 230.837 97.9301C230.486 98.3763 229.938 97.7531 229.559 97.6723C228.584 97.3838 227.705 96.9721 226.81 96.4373L226.682 95.9526Z" stroke="#020202" stroke-width="0.990667" stroke-miterlimit="10"/>
<path d="M228.456 98.8226C228.664 98.0993 228.963 97.4761 229.291 96.8336C229.547 96.4258 229.782 96.0911 229.914 95.6179C230.178 95.0485 230.813 95.4409 231.329 95.7294C231.752 95.9795 232.263 96.4181 232.627 96.7759L232.887 97.2106C233.086 97.9455 233.298 99.0111 233.007 99.6652C232.791 100.185 232.092 99.7229 231.704 99.746C230.685 99.7152 229.723 99.542 228.716 99.2535L228.456 98.8226Z" fill="#483925"/>
<path d="M228.456 98.8226C228.664 98.0993 228.963 97.4761 229.291 96.8336C229.547 96.4258 229.782 96.0911 229.914 95.6179C230.178 95.0485 230.813 95.4409 231.329 95.7294C231.752 95.9795 232.263 96.4181 232.627 96.7759L232.887 97.2106C233.086 97.9455 233.298 99.0111 233.007 99.6652C232.791 100.185 232.092 99.7229 231.704 99.746C230.685 99.7152 229.723 99.542 228.716 99.2535L228.456 98.8226Z" stroke="#020202" stroke-width="0.990667" stroke-miterlimit="10"/>
<path d="M230.733 100.285C230.941 99.5613 231.241 98.938 231.568 98.2955C231.824 97.8877 232.06 97.553 232.192 97.0837C232.455 96.5104 233.091 96.9029 233.606 97.1914C234.033 97.4453 234.541 97.8839 234.908 98.2378L235.164 98.6726C235.364 99.4074 235.576 100.473 235.284 101.127C235.072 101.646 234.369 101.185 233.981 101.208C232.963 101.181 232 101.004 230.993 100.715L230.733 100.285Z" fill="#483925" stroke="#020202" stroke-width="0.990667" stroke-miterlimit="10"/>
<path d="M257.538 97.5838C256.755 96.7643 256.491 96.4566 256.347 96.2873C256.295 96.2142 256.248 96.1488 256.208 96.1142C256.152 96.0372 256.279 95.941 256.363 95.8987C256.519 95.8679 256.875 95.8333 257.446 95.8526C258.401 95.8987 257.674 96.0988 257.854 96.2411L258.101 96.5797C258.345 97.0798 258.669 97.7454 258.641 98.3956L257.538 97.5838Z" fill="#4D3C26" stroke="black" stroke-width="0.990667" stroke-miterlimit="10"/>
<path d="M259.223 96.8528C258.276 96.2065 257.953 95.9603 257.777 95.8256C257.709 95.7641 257.645 95.7102 257.601 95.6794C257.525 95.6217 257.633 95.4986 257.701 95.4409C257.849 95.3793 258.188 95.2716 258.752 95.1754C259.695 95.0292 259.027 95.3716 259.235 95.4755L259.551 95.7564C259.902 96.195 260.362 96.7836 260.474 97.4222L259.223 96.8528Z" fill="#4D3C26"/>
<path d="M259.223 96.8528C258.276 96.2065 257.953 95.9603 257.777 95.8256C257.709 95.7641 257.645 95.7102 257.601 95.6794C257.525 95.6217 257.633 95.4986 257.701 95.4409C257.849 95.3793 258.188 95.2716 258.752 95.1754C259.695 95.0292 259.027 95.3716 259.235 95.4755L259.551 95.7564C259.902 96.195 260.362 96.7836 260.474 97.4222L259.223 96.8528Z" stroke="black" stroke-width="0.990667" stroke-miterlimit="10"/>
<path d="M260.862 96.0988C259.819 95.6063 259.464 95.4101 259.264 95.3024C259.188 95.2524 259.116 95.2101 259.068 95.187C258.984 95.1408 259.068 95.0023 259.132 94.9369C259.264 94.8523 259.583 94.6945 260.123 94.5137C261.034 94.229 260.426 94.6676 260.65 94.7368L261.006 94.9638C261.425 95.3447 261.976 95.8564 262.192 96.4681L260.862 96.0988ZM278.113 91.1128C278.736 90.1702 278.976 89.847 279.112 89.67C279.172 89.6008 279.224 89.5392 279.252 89.4931C279.311 89.42 279.439 89.5162 279.503 89.5816C279.575 89.7201 279.703 90.0432 279.831 90.578C280.027 91.4782 279.639 90.8511 279.543 91.0589L279.268 91.3744C278.828 91.7322 278.241 92.2054 277.586 92.3439L278.113 91.1128Z" fill="#4D3C26" stroke="black" stroke-width="0.990667" stroke-miterlimit="10"/>
<path d="M278.956 92.7632C279.791 91.763 280.11 91.4244 280.29 91.2397C280.374 91.1666 280.442 91.1012 280.482 91.0551C280.562 90.9781 280.758 91.0935 280.854 91.1705C280.969 91.3244 281.177 91.6937 281.405 92.2977C281.756 93.3057 281.149 92.5863 281.021 92.8056L280.65 93.1364C280.043 93.5019 279.228 93.979 278.285 94.0867L278.956 92.7632Z" fill="#4D3C26"/>
<path d="M278.956 92.7632C279.791 91.763 280.11 91.4244 280.29 91.2397C280.374 91.1666 280.442 91.1012 280.482 91.0551C280.562 90.9781 280.758 91.0935 280.854 91.1705C280.969 91.3244 281.177 91.6937 281.405 92.2977C281.756 93.3057 281.149 92.5863 281.021 92.8056L280.65 93.1364C280.043 93.5019 279.228 93.979 278.285 94.0867L278.956 92.7632Z" stroke="black" stroke-width="0.990667" stroke-miterlimit="10"/>
<path d="M280.477 93.4942C281.308 92.4939 281.628 92.1554 281.807 91.9707C281.891 91.8976 281.963 91.8322 281.999 91.7861C282.079 91.7091 282.279 91.8245 282.371 91.9015C282.49 92.0554 282.694 92.4247 282.922 93.0287C283.274 94.0367 282.666 93.3173 282.538 93.5365L282.167 93.8674C281.56 94.2329 280.745 94.7099 279.802 94.8215L280.477 93.4942Z" fill="#4D3C26"/>
<path d="M280.477 93.4942C281.308 92.4939 281.628 92.1554 281.807 91.9707C281.891 91.8976 281.963 91.8322 281.999 91.7861C282.079 91.7091 282.279 91.8245 282.371 91.9015C282.491 92.0554 282.694 92.4247 282.922 93.0287C283.274 94.0367 282.666 93.3173 282.538 93.5365L282.167 93.8674C281.56 94.2329 280.745 94.7099 279.802 94.8215L280.477 93.4942Z" stroke="black" stroke-width="0.990667" stroke-miterlimit="10"/>
<path d="M282.906 94.9869C283.981 94.0367 284.4 93.7173 284.636 93.5404C284.744 93.475 284.836 93.4134 284.884 93.3672C284.992 93.298 285.275 93.4288 285.415 93.5134C285.591 93.6827 285.906 94.0713 286.274 94.7022C286.853 95.7564 285.946 94.9754 285.787 95.1908L285.295 95.4986C284.48 95.8218 283.382 96.245 282.079 96.2834L282.906 94.9869Z" fill="#4D3C26"/>
<path d="M282.906 94.9869C283.981 94.0367 284.4 93.7173 284.636 93.5404C284.744 93.475 284.836 93.4134 284.884 93.3672C284.992 93.298 285.275 93.4288 285.415 93.5134C285.591 93.6827 285.906 94.0713 286.274 94.7022C286.853 95.7564 285.946 94.9754 285.787 95.1908L285.295 95.4986C284.48 95.8218 283.382 96.245 282.079 96.2834L282.906 94.9869Z" stroke="black" stroke-width="0.990667" stroke-miterlimit="10"/>
<path d="M256.079 94.7523C244.497 92.3824 247.825 83.3414 254.533 77.4552C256.427 75.7085 258.46 74.1311 260.606 72.7077C256.946 76.1163 252.995 79.548 250.55 83.88C247.453 89.1584 250.646 93.0864 256.079 94.7523ZM283.03 85.215C287.022 82.268 289.135 77.5898 290.609 73.0924C291.308 74.2389 292.247 75.42 292.459 76.7357C292.463 76.7588 292.459 76.6934 292.419 76.6241C292.387 76.628 292.487 76.5972 292.195 76.4703C291.82 76.4895 291.86 76.6241 291.824 76.6549C291.972 75.1314 292.287 72.9885 291.968 71.3188C291.956 71.2727 291.928 71.238 291.948 71.2573C291.96 71.2727 291.996 71.3034 292.071 71.3188C292.267 71.3573 292.463 71.088 292.383 70.9149C292.399 70.9418 292.511 71.0649 292.539 71.0918C293.458 71.9613 294.492 72.7423 295.515 73.531L294.932 73.8118C294.896 72.2268 294.832 70.6225 294.648 69.0528C294.612 68.595 294.429 67.7794 294.321 67.5216C294.401 67.5678 294.536 67.5062 294.588 67.36C294.624 67.2792 294.588 67.1869 294.588 67.1869C294.544 67.1061 294.576 67.1677 294.6 67.1792C295.256 67.6601 296.047 68.0487 296.806 68.4449L296.398 68.7258C295.923 66.202 294.876 58.9385 291.364 59.1808C291.856 59.0616 292.391 59.1577 292.834 59.4078C294.149 60.208 294.808 61.6738 295.391 62.9973C296.19 64.9863 296.682 67.0676 297.057 69.1721C296.083 68.6835 295.08 68.2949 294.173 67.6447C294.121 67.5909 294.073 67.5832 293.985 67.4139C293.909 67.3062 293.989 67.0138 294.165 66.9599C295.152 66.6444 295.18 68.4065 295.311 68.972C295.555 70.8302 295.619 72.6807 295.679 74.539C294.377 73.5233 292.962 72.6076 291.824 71.3958C291.752 71.3111 291.676 71.1919 291.656 71.0572C291.668 70.3801 292.551 70.5186 292.675 71.0918C293.018 73.0347 292.723 74.9775 292.447 76.9088C292.395 76.9627 292.447 77.0858 292.063 77.1089C291.768 76.9781 291.864 76.9512 291.832 76.9512C291.74 76.7434 291.812 76.7242 291.748 76.5395C291.464 75.6316 290.925 74.789 290.429 73.9696L291.005 73.9003C289.411 78.19 287.097 82.6528 283.03 85.215Z" fill="black"/>
<path d="M286.91 82.5642C295.16 89.4277 304.185 89.9471 309.099 79.4326L309.047 79.6557L309.039 78.6632L309.016 75.0352C309.471 76.4741 310.446 79.548 310.893 80.9638L309.795 81.0138C310.062 79.7404 310.725 76.6395 310.989 75.4046C311.329 76.4125 312.028 78.4785 312.375 79.4942L311.425 79.371C315.124 73.4271 318.963 65.7557 315.959 58.8538C315.484 57.9189 314.876 57.0456 314.145 56.2531C320.969 62.7703 316.542 73.177 312.312 79.9404L311.724 80.8368C311.496 80.1905 310.825 78.3054 310.59 77.6283L311.648 77.5667L310.905 81.2254L310.458 83.4337C310.114 82.2911 309.411 79.9597 309.063 78.8132L310.138 78.6632L310.134 79.6557C305.14 90.7204 295.064 90.578 286.91 82.5642ZM241.621 65.0286C242.568 70.8225 247.582 74.7775 253.151 76.3202C253.954 76.5433 254.773 76.728 255.588 76.9665C254.749 76.8896 253.906 76.778 253.063 76.6664C247.19 75.6931 241.557 71.0995 241.621 65.0286Z" fill="black"/>
<path d="M30.9626 97.8731L26.3453 97.7637C26.0849 96.7637 25.9294 92.2325 25.8789 84.17V81.6075C25.8789 79.5684 26.0694 78.0137 26.4541 76.9512C26.835 75.8809 27.6357 75.0215 28.8483 74.3731C29.4701 74.0606 30.333 73.9043 31.4445 73.9043C32.5522 73.9043 33.4073 73.9786 34.0097 74.1231C35.6032 74.459 36.6915 75.084 37.2745 75.9981C37.8652 76.9043 38.1606 78.1309 38.1606 79.67C38.1606 81.8067 37.601 83.3731 36.4816 84.3731C37.0491 84.4473 37.6204 84.7403 38.1917 85.2481C38.7708 85.7481 39.2372 86.2637 39.5909 86.795C40.2128 87.7559 40.5237 89.0606 40.5237 90.7168C40.5237 93.3106 39.7386 95.1543 38.1762 96.2481C36.6215 97.334 34.2157 97.8731 30.9626 97.8731ZM28.7395 80.3418L28.8172 84.4512C28.8677 84.4512 29.2719 84.4004 30.0298 84.295C30.7955 84.1817 31.4445 84.0684 31.9731 83.9512C34.3751 83.3692 35.5799 81.9903 35.5799 79.8106C35.5799 78.7286 35.2612 77.9356 34.6316 77.4356C33.9981 76.9278 33.1702 76.67 32.1441 76.67C30.8577 76.67 29.9871 76.9004 29.5323 77.3575C29.3458 77.5567 29.1903 77.7247 29.0659 77.8575C28.9493 77.9825 28.8677 78.1934 28.8172 78.4825C28.7628 78.7637 28.7317 78.9668 28.7239 79.0918C28.7123 79.209 28.7123 79.4356 28.7239 79.7793C28.7317 80.1153 28.7395 80.3028 28.7395 80.3418ZM36.8236 87.9981C36.5749 87.7481 36.194 87.5137 35.6887 87.295C35.1912 87.0762 34.4683 86.9668 33.5278 86.9668C32.5833 86.9668 30.9782 87.1231 28.7084 87.4356C28.7084 91.1856 28.7706 93.7168 28.8949 95.0293C31.6816 95.0293 33.6366 94.8497 34.7559 94.4825C35.8831 94.1075 36.6448 93.6504 37.0413 93.1075C37.4338 92.5684 37.632 91.9942 37.632 91.3887C37.632 90.7754 37.6204 90.3418 37.601 90.0918C37.5893 89.834 37.5154 89.4825 37.3833 89.045C37.2589 88.5997 37.0724 88.2481 36.8236 87.9981Z" fill="black"/>
<path d="M45.8744 93.6387C46.3913 93.6387 46.8421 93.834 47.2269 94.2168C47.6078 94.5918 47.8371 95.1192 47.911 95.795C47.911 96.3184 47.7166 96.8028 47.3357 97.2481C46.951 97.6973 46.5001 97.92 45.9832 97.92C45.474 97.92 45.0193 97.7872 44.6151 97.5137C44.2109 97.2325 44.0088 96.8067 44.0088 96.2325C44.0088 95.6504 44.1876 95.0723 44.5529 94.4981C44.926 93.9278 45.3652 93.6387 45.8744 93.6387Z" fill="black"/>
<path d="M61.732 74.4043C63.3372 74.4043 65.1056 74.7168 67.0333 75.3418C67.4687 75.6778 67.6863 76.0411 67.6863 76.4356C67.6863 76.834 67.4881 77.1817 67.0955 77.4825C66.6991 77.7871 66.2483 77.9356 65.743 77.9356C64.4565 77.6036 63.2478 77.4356 62.1207 77.4356C59.5477 77.4356 57.5966 78.209 56.2596 79.7481C54.9226 81.2793 54.2541 83.5567 54.2541 86.5762C54.2541 89.5996 55.0392 91.9629 56.6172 93.67C57.4256 94.5567 58.3895 94.9981 59.5089 94.9981C60.636 94.9981 62.4316 94.4004 64.8879 93.2012C65.7469 92.795 66.3182 92.5918 66.598 92.5918C67.2199 92.5918 67.5308 92.9161 67.5308 93.5606C67.5308 94.209 67.2355 94.7481 66.6447 95.1856C64.5926 96.2598 62.9913 96.9825 61.8408 97.3575C60.6904 97.7325 59.6993 97.92 58.8714 97.92C57.1497 97.92 55.6766 97.2871 54.4562 96.0137C52.2875 93.6621 51.207 90.4512 51.207 86.3887C51.207 82.3184 52.237 79.3028 54.3008 77.3418C56.3607 75.3848 58.8404 74.4043 61.732 74.4043Z" fill="black"/>
<path d="M73.1668 93.6387C73.6838 93.6387 74.1346 93.834 74.5194 94.2168C74.9003 94.5918 75.1296 95.1192 75.2034 95.795C75.2034 96.3184 75.0091 96.8028 74.6282 97.2481C74.2434 97.6973 73.7926 97.92 73.2757 97.92C72.7665 97.92 72.3118 97.7872 71.9076 97.5137C71.5034 97.2325 71.3013 96.8067 71.3013 96.2325C71.3013 95.6504 71.4801 95.0723 71.8454 94.4981C72.2185 93.9278 72.6577 93.6387 73.1668 93.6387Z" fill="black"/>
<path d="M103.607 73.9825C104.174 73.9825 104.544 74.4004 104.711 75.2325C104.835 79.1504 104.897 83.42 104.897 88.045C104.897 92.6621 104.87 95.3262 104.82 96.045C104.777 96.7637 104.621 97.2715 104.353 97.5606C104.093 97.8418 103.615 97.9825 102.923 97.9825C102.301 97.9825 101.99 97.6036 101.99 96.8418V88.7012C101.99 87.3809 101.963 86.0254 101.912 84.6387C101.87 83.2442 101.85 82.3653 101.85 81.9981C101.042 83.3965 99.969 84.545 98.632 85.4512C97.295 86.3496 95.8026 86.795 94.1546 86.795C92.5067 86.795 91.1153 86.1075 89.9882 84.7325C89.9454 86.2012 89.926 87.9434 89.926 89.9512C89.926 91.9512 89.9338 94.0567 89.9571 96.2637C89.9571 96.8575 89.7589 97.295 89.3663 97.5762C88.9699 97.8496 88.5268 97.9825 88.0293 97.9825C87.3841 97.9825 87.0654 97.5879 87.0654 96.795C87.0849 94.6387 87.0965 91.2246 87.0965 86.545V76.3106C87.0965 75.9043 87.2287 75.5098 87.5007 75.1231C87.7806 74.7403 88.0993 74.545 88.4646 74.545C88.8377 74.545 89.1798 74.6504 89.4907 74.8575C89.8016 75.0684 89.9648 75.3731 89.9882 75.7793C90.0892 78.4356 90.5206 80.4161 91.2785 81.7168C92.0442 83.0098 92.9498 83.6543 93.9992 83.6543C95.0563 83.6543 95.958 83.4825 96.7042 83.1387C97.4583 82.7871 98.0801 82.3848 98.5698 81.9356C99.0557 81.4786 99.5259 80.8262 99.9846 79.9825C100.626 78.7871 101.248 77.3106 101.85 75.5606C102.212 74.5098 102.798 73.9825 103.607 73.9825Z" fill="black"/>
<path d="M117.893 81.1387C118.95 81.1387 119.479 82.041 119.479 83.8418V84.4512L119.401 86.9668C119.378 87.7598 119.37 88.541 119.37 89.3106L119.899 97.4512C119.899 98.045 119.292 98.3418 118.08 98.3418H117.551C117.279 98.3418 117.089 98.2325 116.976 98.0137C116.871 97.8067 116.859 97.545 116.945 97.2325C117.026 96.92 116.999 96.5723 116.867 96.1856C115.767 97.3653 114.306 97.9512 112.483 97.9512C109.125 97.9512 107.446 95.3379 107.446 90.1075C107.446 87.2012 107.982 85.0059 109.063 83.5137C110.151 82.0254 111.709 81.2793 113.742 81.2793C114.694 81.2793 115.647 81.4512 116.603 81.795C116.914 81.3575 117.341 81.1387 117.893 81.1387ZM114.177 84.42C112.809 84.42 111.787 84.8184 111.115 85.6075C110.45 86.4004 110.12 87.8535 110.12 89.9668C110.12 93.5215 111.076 95.295 112.996 95.295C113.493 95.295 114.045 95.0684 114.659 94.6075C115.27 94.1504 115.693 93.6348 115.934 93.0606C116.377 91.7598 116.603 90.3418 116.603 88.8106C116.603 87.2715 116.416 86.1543 116.043 85.4668C115.678 84.7715 115.056 84.42 114.177 84.42Z" fill="black"/>
<path d="M126.571 92.7012L126.602 96.4043C126.602 96.834 126.404 97.2285 126.011 97.5918C125.615 97.9551 125.226 98.1387 124.845 98.1387C124.293 98.1387 123.947 97.709 123.804 96.8418C123.78 96.6465 123.687 94.8848 123.524 91.5606C123.357 88.2403 123.034 85.6309 122.56 83.7325C122.342 82.8184 122.233 82.2754 122.233 82.1075C122.233 81.3184 122.708 80.92 123.664 80.92C124.068 80.92 124.387 81.0762 124.628 81.3887C124.865 81.7012 125.016 82.0215 125.078 82.3418C125.141 82.666 125.191 83.1035 125.234 83.6543C125.284 84.209 125.319 84.5567 125.343 84.7012C125.848 83.5059 126.602 82.6075 127.597 82.0137C128.6 81.4121 129.703 81.1075 130.908 81.1075C132.856 81.1075 133.831 81.6075 133.831 82.6075C133.831 83.1192 133.66 83.5254 133.318 83.8262C132.976 84.1192 132.576 84.2637 132.121 84.2637C130.088 84.2637 128.654 84.916 127.815 86.2168C126.983 87.5098 126.571 89.67 126.571 92.7012Z" fill="black"/>
<path d="M137.78 97.9825C137.158 97.9825 136.785 97.6348 136.66 96.9356C136.66 92.0918 136.373 87.7754 135.805 83.9825C135.805 83.5059 135.976 83.0723 136.318 82.6856C136.668 82.3028 137.064 82.1075 137.5 82.1075C137.943 82.1075 138.277 82.3653 138.495 82.8731C139.373 81.6973 140.555 81.1075 142.039 81.1075C143.924 81.1075 145.382 82.0215 146.408 83.8418C147.597 82.1153 149.179 81.2481 151.15 81.2481C153.128 81.2481 154.605 82.041 155.58 83.6231C156.222 84.6035 156.672 85.9004 156.933 87.5137C157.201 89.1192 157.337 91.4004 157.337 94.3575C157.337 95.5059 157.217 96.3965 156.979 97.0293C156.739 97.666 156.237 97.9825 155.471 97.9825C154.85 97.9825 154.539 97.5879 154.539 96.795L154.648 92.295C154.648 86.9004 153.248 84.2012 150.45 84.2012C149.568 84.2012 148.95 84.5137 148.6 85.1387C148.196 85.8809 147.955 86.6621 147.885 87.4825C147.78 88.92 147.729 90.2285 147.729 91.4043V96.6231C147.729 97.0098 147.535 97.334 147.154 97.5918C146.781 97.8535 146.385 97.9825 145.973 97.9825C145.452 97.9825 145.121 97.6348 144.978 96.9356L145.086 89.4981C145.086 86.8535 144.643 85.209 143.765 84.5606C143.33 84.2481 142.677 84.0918 141.806 84.0918C140.936 84.0918 140.286 84.416 139.863 85.0606C139.447 85.709 139.241 86.7559 139.241 88.2012L139.459 94.8887C139.459 96.9512 138.899 97.9825 137.78 97.9825Z" fill="black"/>
<path d="M166.428 81.17C168.146 81.17 169.56 81.9981 170.672 83.6543C171.791 85.3106 172.351 87.3028 172.351 89.6231C172.351 91.9356 171.78 93.9122 170.641 95.545C169.51 97.17 168.006 97.9825 166.132 97.9825C164.255 97.9825 162.743 97.1504 161.593 95.4825C160.45 93.8184 159.883 91.9629 159.883 89.92C159.883 87.3067 160.404 85.2168 161.453 83.6543C162.572 81.9981 164.228 81.17 166.428 81.17ZM166.008 84.1231C165.001 84.1231 164.178 84.6543 163.536 85.7168C162.891 86.7715 162.572 87.8848 162.572 89.0606C162.572 90.8848 162.93 92.2754 163.645 93.2325C164.36 94.1934 165.169 94.67 166.07 94.67C167.695 94.67 168.737 93.9629 169.195 92.545C169.382 91.8809 169.475 91.0411 169.475 90.0293C169.475 86.0918 168.317 84.1231 166.008 84.1231Z" fill="black"/>
<path d="M175.421 81.1387L177.209 81.17C177.621 81.17 177.85 81.1621 177.893 81.1387V73.7637C177.912 73.3575 178.114 73.0098 178.499 72.7168C178.88 72.4278 179.238 72.2793 179.572 72.2793C179.914 72.2793 180.182 72.3887 180.38 72.6075C180.586 72.8262 180.676 73.166 180.645 73.6231C180.621 74.0723 180.614 76.5684 180.614 81.1075L184.811 80.9668C185.526 80.9668 185.884 81.3848 185.884 82.2168C185.884 82.8418 185.697 83.3106 185.324 83.6231C184.951 83.9356 184.555 84.1075 184.143 84.1387C183.727 84.1621 183.319 84.17 182.914 84.17L180.722 84.1231C180.722 85.1153 180.82 87.0606 181.018 89.9668C181.224 92.8653 181.383 94.7403 181.5 95.5918C181.624 96.4473 181.647 96.9981 181.577 97.2481C181.515 97.4981 181.383 97.67 181.189 97.7637C180.878 97.9121 180.458 97.9825 179.93 97.9825C179.409 97.9825 179.106 97.6973 179.012 97.1231C178.523 93.9785 178.196 89.6621 178.033 84.17C177.823 84.1934 176.999 84.2012 175.561 84.2012C174.131 84.2012 173.416 83.7793 173.416 82.9356C173.416 81.7403 174.084 81.1387 175.421 81.1387Z" fill="black"/>
<path d="M187.463 85.7168C187.463 84.3028 187.96 83.17 188.955 82.3262C189.958 81.4825 191.124 81.0606 192.453 81.0606C193.779 81.0606 195.05 81.3067 196.262 81.795C197.483 82.2754 198.097 82.9121 198.097 83.7012C198.097 84.1075 197.941 84.4317 197.63 84.67C197.319 84.9121 197.047 85.0293 196.822 85.0293C196.593 85.0293 196.41 85.0254 196.278 85.0137C196.153 85.0059 195.675 84.7871 194.847 84.3575C194.027 83.92 193.27 83.7012 192.578 83.7012C191.882 83.7012 191.291 83.8731 190.805 84.2168C190.316 84.5606 190.075 85.0723 190.075 85.7481C190.075 86.416 190.355 86.9434 190.914 87.3262C191.474 87.7129 192.457 88.045 193.868 88.3262C195.275 88.5996 196.355 88.9903 197.102 89.4981C197.856 89.9981 198.237 90.9317 198.237 92.295C198.237 94.295 197.716 95.709 196.682 96.5293C195.644 97.3535 194.385 97.7637 192.904 97.7637C191.419 97.7637 190.16 97.5606 189.126 97.1543C188.089 96.7481 187.572 96.1387 187.572 95.3262C187.572 94.3887 188.03 93.92 188.955 93.92C189.204 93.92 189.733 94.0879 190.541 94.42C191.35 94.7559 192.15 94.92 192.951 94.92C193.759 94.92 194.369 94.666 194.785 94.1543C195.197 93.6348 195.407 93.041 195.407 92.3731C195.407 91.6973 195.131 91.2129 194.583 90.92C194.031 90.6192 193.2 90.3731 192.08 90.1856C190.961 89.9903 190.137 89.7793 189.608 89.5606C188.178 88.9903 187.463 87.709 187.463 85.7168Z" fill="black"/>
<path d="M33.614 23.192C33.734 23.12 33.89 23.084 34.082 23.084C34.274 23.084 34.448 23.168 34.604 23.336C34.76 23.492 34.838 23.678 34.838 23.894C34.838 28.586 34.856 31.424 34.892 32.408C34.94 33.38 34.964 33.878 34.964 33.902C34.964 34.166 34.892 34.418 34.748 34.658C34.604 34.886 34.442 35 34.262 35C34.094 35 33.962 34.994 33.866 34.982C33.782 34.958 33.704 34.934 33.632 34.91C33.56 34.886 33.488 34.838 33.416 34.766L33.236 34.586C33.188 34.538 33.122 34.448 33.038 34.316C32.966 34.172 32.906 34.058 32.858 33.974C32.81 33.89 32.732 33.746 32.624 33.542C32.528 33.326 32.306 32.894 31.958 32.246C31.622 31.598 31.316 31.016 31.04 30.5C30.092 28.76 29.21 27.386 28.394 26.378C28.394 30.278 28.286 32.984 28.07 34.496C28.034 34.784 27.812 34.928 27.404 34.928C27.212 34.928 27.05 34.88 26.918 34.784C26.798 34.688 26.738 34.532 26.738 34.316C26.738 34.1 26.78 32.912 26.864 30.752C26.96 28.592 27.008 27.248 27.008 26.72C27.008 26.18 27.008 25.838 27.008 25.694C27.008 24.83 27.074 24.344 27.206 24.236C27.338 24.128 27.476 24.074 27.62 24.074C28.28 24.074 29.288 25.154 30.644 27.314C30.908 27.734 31.412 28.616 32.156 29.96C32.9 31.292 33.344 32.114 33.488 32.426L33.272 24.956C33.272 23.924 33.386 23.336 33.614 23.192ZM39.4501 26.612C40.3141 26.612 41.0221 27.026 41.5741 27.854C42.1381 28.682 42.4201 29.678 42.4201 30.842C42.4201 31.994 42.1321 32.978 41.5561 33.794C40.9921 34.61 40.2361 35.018 39.2881 35.018C38.3521 35.018 37.5961 34.604 37.0201 33.776C36.4441 32.936 36.1561 32.006 36.1561 30.986C36.1561 29.678 36.4201 28.634 36.9481 27.854C37.5121 27.026 38.3461 26.612 39.4501 26.612ZM39.2341 28.088C38.7301 28.088 38.3161 28.352 37.9921 28.88C37.6681 29.408 37.5061 29.966 37.5061 30.554C37.5061 31.466 37.6861 32.162 38.0461 32.642C38.4061 33.122 38.8141 33.362 39.2701 33.362C40.0861 33.362 40.6081 33.008 40.8361 32.3C40.9321 31.964 40.9801 31.544 40.9801 31.04C40.9801 29.072 40.3981 28.088 39.2341 28.088ZM45.8458 32.372L45.8638 34.226C45.8638 34.442 45.7618 34.64 45.5578 34.82C45.3658 35 45.1738 35.09 44.9818 35.09C44.7058 35.09 44.5318 34.874 44.4598 34.442C44.4478 34.346 44.3998 33.47 44.3158 31.814C44.2318 30.146 44.0698 28.838 43.8298 27.89C43.7218 27.434 43.6678 27.164 43.6678 27.08C43.6678 26.684 43.9078 26.486 44.3878 26.486C44.5918 26.486 44.7538 26.564 44.8738 26.72C44.9938 26.876 45.0658 27.038 45.0898 27.206C45.1258 27.362 45.1558 27.578 45.1798 27.854C45.2038 28.13 45.2218 28.304 45.2338 28.376C45.4858 27.776 45.8638 27.326 46.3678 27.026C46.8718 26.726 47.4238 26.576 48.0238 26.576C49.0078 26.576 49.4998 26.828 49.4998 27.332C49.4998 27.584 49.4098 27.788 49.2298 27.944C49.0618 28.088 48.8638 28.16 48.6358 28.16C47.6158 28.16 46.8958 28.484 46.4758 29.132C46.0558 29.78 45.8458 30.86 45.8458 32.372ZM50.8996 26.594L51.7996 26.612C52.0036 26.612 52.1176 26.606 52.1416 26.594V22.904C52.1536 22.7 52.2556 22.526 52.4476 22.382C52.6396 22.238 52.8196 22.166 52.9876 22.166C53.1556 22.166 53.2876 22.22 53.3836 22.328C53.4916 22.436 53.5396 22.604 53.5276 22.832C53.5156 23.06 53.5096 24.308 53.5096 26.576L55.6156 26.504C55.9756 26.504 56.1556 26.714 56.1556 27.134C56.1556 27.446 56.0596 27.68 55.8676 27.836C55.6876 27.992 55.4896 28.076 55.2736 28.088C55.0696 28.1 54.8656 28.106 54.6616 28.106L53.5636 28.088C53.5636 28.58 53.6116 29.552 53.7076 31.004C53.8156 32.456 53.8996 33.398 53.9596 33.83C54.0196 34.25 54.0316 34.526 53.9956 34.658C53.9596 34.778 53.8936 34.862 53.7976 34.91C53.6416 34.982 53.4316 35.018 53.1676 35.018C52.9036 35.018 52.7476 34.874 52.6996 34.586C52.4596 33.014 52.2976 30.854 52.2136 28.106C52.1056 28.118 51.6916 28.124 50.9716 28.124C50.2516 28.124 49.8916 27.914 49.8916 27.494C49.8916 26.894 50.2276 26.594 50.8996 26.594ZM58.5631 29.168L58.7071 33.416C58.7071 33.944 58.6831 34.25 58.6351 34.334C58.6111 34.55 58.5391 34.718 58.4191 34.838C58.3111 34.958 58.0951 35.018 57.7711 35.018C57.6151 35.018 57.4891 34.922 57.3931 34.73C57.2971 34.526 57.2431 34.298 57.2311 34.046C57.1471 31.934 57.0331 29.954 56.8891 28.106C56.7571 26.246 56.6911 24.518 56.6911 22.922C56.6911 22.67 56.7751 22.472 56.9431 22.328C57.1111 22.184 57.3091 22.112 57.5371 22.112C57.8731 22.112 58.0711 22.4 58.1311 22.976C58.2031 23.552 58.2451 24.272 58.2571 25.136C58.2811 26 58.3051 26.63 58.3291 27.026C58.9291 26.714 59.5291 26.558 60.1291 26.558C61.5211 26.558 62.4031 27.17 62.7751 28.394C62.9911 29.09 63.0991 29.984 63.0991 31.076C63.0991 31.436 63.0631 32.006 62.9911 32.786C62.9311 33.554 62.8951 34.052 62.8831 34.28C62.8711 34.508 62.7691 34.688 62.5771 34.82C62.3971 34.94 62.1991 35 61.9831 35C61.6471 35 61.4791 34.82 61.4791 34.46L61.6051 31.328C61.6051 31.064 61.5931 30.626 61.5691 30.014C61.5451 29.402 61.4191 28.916 61.1911 28.556C60.9751 28.196 60.5911 28.016 60.0391 28.016C59.0551 28.016 58.5631 28.4 58.5631 29.168ZM72.3222 23.138C72.6222 23.138 72.8742 23.27 73.0782 23.534C73.2822 23.798 73.5462 24.344 73.8702 25.172C74.6262 27.128 75.3642 30.194 76.0842 34.37C76.0962 34.418 76.1022 34.49 76.1022 34.586C76.1022 34.67 76.0422 34.766 75.9222 34.874C75.8142 34.97 75.6522 35.018 75.4362 35.018C75.2322 35.018 75.0582 34.97 74.9142 34.874C74.7702 34.766 74.6742 34.598 74.6262 34.37C74.5782 34.13 74.4882 33.668 74.3562 32.984C74.0682 31.46 73.8762 30.668 73.7802 30.608C73.6362 30.524 73.1562 30.434 72.3402 30.338C71.5362 30.242 71.0022 30.194 70.7382 30.194C70.4742 30.194 70.3182 30.218 70.2702 30.266C70.0542 30.458 69.7602 31.916 69.3882 34.64C69.3402 34.868 69.1122 34.982 68.7042 34.982C68.2962 34.982 68.0922 34.808 68.0922 34.46C68.0922 33.596 68.4102 31.946 69.0462 29.51C69.6822 27.074 70.2102 25.46 70.6302 24.668C71.1582 23.648 71.7222 23.138 72.3222 23.138ZM72.2502 25.136C72.0702 25.136 71.7582 25.67 71.3142 26.738C70.8702 27.794 70.6482 28.448 70.6482 28.7C70.6482 28.76 70.6602 28.802 70.6842 28.826C70.7802 28.922 71.1582 29.006 71.8182 29.078C72.4782 29.15 72.9162 29.186 73.1322 29.186C73.3482 29.186 73.4682 29.174 73.4922 29.15C73.5162 29.114 73.5282 29.018 73.5282 28.862C73.5282 28.694 73.3662 28.034 73.0422 26.882C72.7182 25.718 72.4542 25.136 72.2502 25.136ZM78.1592 35.018C77.8472 35.018 77.6612 34.844 77.6012 34.496C77.6012 32.072 77.4572 29.912 77.1692 28.016C77.1692 27.776 77.2532 27.56 77.4212 27.368C77.6012 27.176 77.7992 27.08 78.0152 27.08C78.2432 27.08 78.4112 27.206 78.5192 27.458C78.9632 26.87 79.5572 26.576 80.3012 26.576C81.2492 26.576 81.9812 27.032 82.4972 27.944C83.0972 27.08 83.8892 26.648 84.8732 26.648C85.8692 26.648 86.6132 27.044 87.1052 27.836C87.4292 28.328 87.6572 28.976 87.7892 29.78C87.9212 30.584 87.9872 31.724 87.9872 33.2C87.9872 33.776 87.9272 34.226 87.8072 34.55C87.6872 34.862 87.4352 35.018 87.0512 35.018C86.7392 35.018 86.5832 34.82 86.5832 34.424L86.6372 32.174C86.6372 29.474 85.9352 28.124 84.5312 28.124C84.0872 28.124 83.7752 28.28 83.5952 28.592C83.3912 28.964 83.2712 29.354 83.2352 29.762C83.1872 30.482 83.1632 31.136 83.1632 31.724V34.334C83.1632 34.526 83.0672 34.688 82.8752 34.82C82.6832 34.952 82.4852 35.018 82.2812 35.018C82.0172 35.018 81.8492 34.844 81.7772 34.496L81.8312 30.77C81.8312 29.45 81.6092 28.628 81.1652 28.304C80.9492 28.148 80.6192 28.07 80.1752 28.07C79.7432 28.07 79.4192 28.232 79.2032 28.556C78.9992 28.88 78.8972 29.402 78.8972 30.122L79.0052 33.47C79.0052 34.502 78.7232 35.018 78.1592 35.018ZM91.9596 26.666C92.5956 26.666 93.2016 26.852 93.7776 27.224C94.3536 27.596 94.6416 28.058 94.6416 28.61C94.6416 29.15 94.4076 29.678 93.9396 30.194C93.4716 30.698 92.8476 31.004 92.0676 31.112C91.7316 31.16 91.2276 31.184 90.5556 31.184C90.6876 32.204 90.9456 32.876 91.3296 33.2C91.4496 33.332 91.6116 33.398 91.8156 33.398C92.5596 33.398 93.1836 33.164 93.6876 32.696C94.1916 32.216 94.5516 31.976 94.7676 31.976C94.8636 31.976 95.0076 32.066 95.1996 32.246C95.3916 32.426 95.4876 32.594 95.4876 32.75C95.4876 33.062 95.1096 33.512 94.3536 34.1C94.0176 34.376 93.6096 34.61 93.1296 34.802C92.6616 34.982 92.2236 35.072 91.8156 35.072C90.7716 35.072 90.0036 34.4 89.5116 33.056C89.1996 32.228 89.0436 31.316 89.0436 30.32C89.0436 29.324 89.2776 28.466 89.7456 27.746C90.2136 27.026 90.9516 26.666 91.9596 26.666ZM92.0496 27.908C91.5936 27.908 91.2036 28.166 90.8796 28.682C90.7596 28.862 90.6456 29.27 90.5376 29.906C92.2176 29.906 93.0576 29.492 93.0576 28.664C93.0576 28.16 92.7216 27.908 92.0496 27.908ZM98.8615 32.372L98.8795 34.226C98.8795 34.442 98.7775 34.64 98.5735 34.82C98.3815 35 98.1895 35.09 97.9975 35.09C97.7215 35.09 97.5475 34.874 97.4755 34.442C97.4635 34.346 97.4155 33.47 97.3315 31.814C97.2475 30.146 97.0855 28.838 96.8455 27.89C96.7375 27.434 96.6835 27.164 96.6835 27.08C96.6835 26.684 96.9235 26.486 97.4035 26.486C97.6075 26.486 97.7695 26.564 97.8895 26.72C98.0095 26.876 98.0815 27.038 98.1055 27.206C98.1415 27.362 98.1715 27.578 98.1955 27.854C98.2195 28.13 98.2375 28.304 98.2495 28.376C98.5015 27.776 98.8795 27.326 99.3835 27.026C99.8875 26.726 100.439 26.576 101.039 26.576C102.023 26.576 102.515 26.828 102.515 27.332C102.515 27.584 102.425 27.788 102.245 27.944C102.077 28.088 101.879 28.16 101.651 28.16C100.631 28.16 99.9115 28.484 99.4915 29.132C99.0715 29.78 98.8615 30.86 98.8615 32.372ZM104.653 23.624C104.869 23.624 105.073 23.726 105.265 23.93C105.457 24.134 105.553 24.35 105.553 24.578C105.553 24.794 105.445 25.016 105.229 25.244C105.025 25.472 104.809 25.586 104.581 25.586C104.353 25.586 104.143 25.49 103.951 25.298C103.771 25.106 103.681 24.86 103.681 24.56C103.681 23.984 103.993 23.672 104.617 23.624C104.629 23.624 104.641 23.624 104.653 23.624ZM105.409 33.056L105.427 34.316C105.427 34.544 105.337 34.736 105.157 34.892C104.977 35.036 104.785 35.108 104.581 35.108C104.281 35.108 104.125 34.958 104.113 34.658C103.957 30.83 103.879 28.712 103.879 28.304C103.879 27.896 103.897 27.398 103.933 26.81C103.957 26.594 104.095 26.486 104.347 26.486C104.983 26.486 105.343 26.744 105.427 27.26C105.463 27.524 105.481 27.734 105.481 27.89L105.409 29.024V33.056ZM107.239 30.788C107.239 29.984 107.449 29.252 107.869 28.592C108.301 27.932 108.847 27.44 109.507 27.116C110.167 26.78 110.809 26.612 111.433 26.612C112.057 26.612 112.555 26.69 112.927 26.846C113.311 26.99 113.503 27.188 113.503 27.44C113.503 27.68 113.431 27.926 113.287 28.178C113.155 28.418 112.975 28.538 112.747 28.538C112.663 28.538 112.429 28.472 112.045 28.34C111.673 28.196 111.433 28.124 111.325 28.124C110.629 28.124 110.035 28.382 109.543 28.898C109.051 29.402 108.805 30.074 108.805 30.914C108.805 31.754 108.937 32.384 109.201 32.804C109.477 33.212 109.945 33.416 110.605 33.416C110.869 33.416 111.319 33.266 111.955 32.966C112.603 32.654 113.005 32.498 113.161 32.498C113.317 32.498 113.443 32.546 113.539 32.642C113.635 32.738 113.683 32.858 113.683 33.002C113.683 33.29 113.497 33.596 113.125 33.92C112.765 34.232 112.315 34.496 111.775 34.712C111.235 34.916 110.749 35.018 110.317 35.018C109.357 35.018 108.601 34.64 108.049 33.884C107.509 33.128 107.239 32.096 107.239 30.788ZM119.491 26.594C120.019 26.594 120.283 27.044 120.283 27.944C120.283 28.04 120.283 28.142 120.283 28.25L120.247 29.51C120.235 29.906 120.229 30.296 120.229 30.68L120.499 34.748C120.499 35.048 120.193 35.198 119.581 35.198C119.545 35.198 119.455 35.198 119.311 35.198C119.179 35.198 119.083 35.144 119.023 35.036C118.975 34.928 118.969 34.796 119.005 34.64C119.053 34.484 119.041 34.31 118.969 34.118C118.417 34.706 117.685 35 116.773 35C115.081 35 114.235 33.692 114.235 31.076C114.235 29.624 114.505 28.526 115.045 27.782C115.597 27.038 116.383 26.666 117.403 26.666C117.883 26.666 118.363 26.75 118.843 26.918C118.999 26.702 119.215 26.594 119.491 26.594ZM117.619 28.232C116.935 28.232 116.425 28.43 116.089 28.826C115.753 29.222 115.585 29.948 115.585 31.004C115.585 32.78 116.065 33.668 117.025 33.668C117.277 33.668 117.553 33.554 117.853 33.326C118.165 33.098 118.381 32.84 118.501 32.552C118.729 31.904 118.843 31.196 118.843 30.428C118.843 29.66 118.747 29.102 118.555 28.754C118.375 28.406 118.063 28.232 117.619 28.232ZM122.202 34.442L122.004 27.134C122.004 26.906 122.082 26.72 122.238 26.576C122.394 26.432 122.55 26.36 122.706 26.36C123.09 26.36 123.312 26.522 123.372 26.846C123.42 27.17 123.444 27.506 123.444 27.854C124.092 27.002 124.902 26.576 125.874 26.576C127.362 26.576 128.106 28.274 128.106 31.67C128.106 31.982 128.106 32.456 128.106 33.092C128.106 33.716 128.07 34.172 127.998 34.46C127.914 34.82 127.656 35 127.224 35C126.936 35 126.792 34.808 126.792 34.424L126.81 33.416C126.81 32.024 126.762 31.076 126.666 30.572C126.582 30.056 126.498 29.648 126.414 29.348C126.21 28.7 125.88 28.376 125.424 28.376C124.824 28.376 124.404 28.592 124.164 29.024C123.9 29.492 123.744 30.044 123.696 30.68C123.612 31.796 123.57 32.978 123.57 34.226C123.57 34.466 123.48 34.658 123.3 34.802C123.12 34.946 122.904 35.018 122.652 35.018C122.352 35.018 122.202 34.826 122.202 34.442Z" fill="black"/>
</svg>
