<svg width="398" height="128" viewBox="0 0 398 128" fill="none" xmlns="http://www.w3.org/2000/svg">
<path d="M27 124.852C13.8495 124.852 3.14844 114.151 3.14844 101V27C3.14844 13.8536 13.8492 3.15234 27 3.15234H371C384.147 3.15234 394.852 13.8539 394.852 27V101C394.852 114.15 384.147 124.852 371 124.852H27Z" fill="#79C392" stroke="#13644D" stroke-width="5"/>
<path d="M48.1016 77.6777C48.3398 77.5332 48.6484 77.459 49.0234 77.459C49.4062 77.459 49.7578 77.623 50.0703 77.9434C50.3828 78.2676 50.5391 78.6426 50.5391 79.0684C50.5391 88.4551 50.5781 94.127 50.6641 96.084C50.7461 98.0449 50.7891 99.0449 50.7891 99.084C50.7891 99.6152 50.6406 100.115 50.3516 100.584C50.0703 101.053 49.75 101.287 49.3984 101.287C49.0547 101.287 48.793 101.271 48.6172 101.24C48.4375 101.201 48.2773 101.158 48.1328 101.115C47.9844 101.064 47.8398 100.967 47.6953 100.818L47.3359 100.459C47.2422 100.365 47.1172 100.186 46.9609 99.9121C46.8047 99.6309 46.6797 99.4082 46.5859 99.2402C46.4922 99.0762 46.3398 98.7832 46.1328 98.3652C45.9219 97.9395 45.4766 97.0801 44.7891 95.7871C44.1094 94.4863 43.4961 93.3184 42.9453 92.2871C41.0469 88.8105 39.2812 86.0605 37.6484 84.0371C37.6484 91.8418 37.4336 97.252 37.0078 100.271C36.9336 100.857 36.4922 101.146 35.6797 101.146C35.293 101.146 34.9687 101.053 34.7109 100.865C34.4609 100.67 34.3359 100.357 34.3359 99.9277C34.3359 99.4902 34.4219 97.1152 34.6016 92.8027C34.7891 88.4824 34.8828 85.7832 34.8828 84.709V82.6777C34.8828 80.9512 35.0117 79.9746 35.2734 79.7559C35.543 79.5371 35.8203 79.4277 36.1016 79.4277C37.4219 79.4277 39.4375 81.5918 42.1484 85.9121C42.6797 86.7559 43.6875 88.5176 45.1797 91.1934C46.668 93.873 47.5547 95.5215 47.8359 96.1465L47.4141 81.1934C47.4141 79.1309 47.6406 77.959 48.1016 77.6777Z" fill="black"/>
<path d="M53.3145 85.8809C53.4082 85.4746 53.6113 85.1387 53.9238 84.8652C54.2363 84.584 54.5527 84.4434 54.877 84.4434C55.1973 84.4434 55.4473 84.5059 55.627 84.6309C55.8145 84.748 55.9238 84.8496 55.9551 84.9434C55.9941 85.0371 56.0371 85.2051 56.0801 85.4434C55.9434 87.3184 55.877 89.0059 55.877 90.5059C55.877 92.0059 56.0527 93.7246 56.4082 95.6621C56.7715 97.5918 57.166 98.5527 57.5957 98.5527C58.2402 98.5527 59.0645 98.1934 60.0645 97.4746C61.0645 96.7559 61.7754 96.002 62.2051 95.209C61.9121 91.752 61.7676 88.7871 61.7676 86.3184C61.7676 85.8105 61.9277 85.377 62.252 85.0215C62.584 84.6582 62.9746 84.4746 63.4238 84.4746C64.1738 84.4746 64.5488 84.9824 64.5488 85.9902C64.5488 87.6895 64.6738 90.2207 64.9238 93.584C65.1738 96.9512 65.4316 99.084 65.7051 99.9902C65.7441 100.178 65.7676 100.404 65.7676 100.662C65.7676 100.912 65.6035 101.154 65.2832 101.381C64.959 101.607 64.5371 101.725 64.0176 101.725C63.5059 101.725 63.166 101.432 63.002 100.85C62.9473 100.373 62.8301 99.6543 62.6426 98.6934C60.9551 100.443 59.2598 101.318 57.5645 101.318C56.7715 101.318 56.0645 101.021 55.4395 100.428C54.8145 99.8262 54.3184 99.0059 53.9551 97.9746C53.3379 95.9863 53.0332 94.1152 53.0332 92.3652C53.0332 90.6074 53.127 88.4434 53.3145 85.8809Z" fill="black"/>
<path d="M69.8379 101.318C69.2129 101.318 68.8379 100.971 68.7129 100.271C68.7129 95.4277 68.4238 91.1113 67.8535 87.3184C67.8535 86.8418 68.0254 86.4082 68.3691 86.0215C68.7207 85.6387 69.1191 85.4434 69.5566 85.4434C70.002 85.4434 70.3379 85.7012 70.5566 86.209C71.4395 85.0332 72.627 84.4434 74.1191 84.4434C76.0137 84.4434 77.4785 85.3574 78.5098 87.1777C79.7051 85.4512 81.2949 84.584 83.2754 84.584C85.2637 84.584 86.748 85.377 87.7285 86.959C88.373 87.9395 88.8262 89.2363 89.0879 90.8496C89.3574 92.4551 89.4941 94.7363 89.4941 97.6934C89.4941 98.8418 89.373 99.7324 89.1348 100.365C88.8926 101.002 88.3887 101.318 87.6191 101.318C86.9941 101.318 86.6816 100.924 86.6816 100.131L86.791 95.6309C86.791 90.2363 85.3848 87.5371 82.5723 87.5371C81.6855 87.5371 81.0645 87.8496 80.7129 88.4746C80.3066 89.2168 80.0645 89.998 79.9941 90.8184C79.8887 92.2559 79.8379 93.5645 79.8379 94.7402V99.959C79.8379 100.346 79.6426 100.67 79.2598 100.928C78.8848 101.189 78.4863 101.318 78.0723 101.318C77.5488 101.318 77.2168 100.971 77.0723 100.271L77.1816 92.834C77.1816 90.1895 76.7363 88.5449 75.8535 87.8965C75.416 87.584 74.7598 87.4277 73.8848 87.4277C73.0098 87.4277 72.3574 87.752 71.9316 88.3965C71.5137 89.0449 71.3066 90.0918 71.3066 91.5371L71.5254 98.2246C71.5254 100.287 70.9629 101.318 69.8379 101.318Z" fill="black"/>
<path d="M92.334 76.9434C92.334 75.9863 92.9316 75.5059 94.1309 75.5059C94.6816 75.5059 95.0098 75.8457 95.1152 76.5215V81.9121C95.1152 82.9238 95.123 83.9355 95.1465 84.9434C95.623 84.7988 96.2324 84.7246 96.9746 84.7246C99.3066 84.7246 101.107 85.5059 102.381 87.0684C103.65 88.6309 104.287 90.5918 104.287 92.9434C104.287 95.2871 103.537 97.2715 102.037 98.8965C100.537 100.514 98.6074 101.318 96.2559 101.318C93.9121 101.318 92.7402 100.658 92.7402 99.334C92.7402 98.002 92.6699 94.6152 92.5371 89.1777C92.4004 83.7402 92.334 79.6621 92.334 76.9434ZM99.6152 88.5371C98.748 87.873 97.834 87.5371 96.8652 87.5371C96.3418 87.5371 95.8066 87.6309 95.2559 87.8184C95.4004 89.7871 95.4746 93.2832 95.4746 98.3027C95.8809 98.4512 96.2949 98.5215 96.7246 98.5215C97.6621 98.5215 98.5996 98.1738 99.5371 97.4746C100.932 96.5176 101.631 95.0488 101.631 93.0684C101.631 91.0801 100.959 89.5684 99.6152 88.5371Z" fill="black"/>
<path d="M117.135 84.4746C118.197 84.4746 118.729 85.377 118.729 87.1777V87.7871L118.65 90.3027C118.627 91.0957 118.619 91.877 118.619 92.6465L119.15 100.787C119.15 101.381 118.541 101.678 117.322 101.678H116.791C116.518 101.678 116.326 101.568 116.213 101.35C116.107 101.143 116.096 100.881 116.182 100.568C116.264 100.256 116.236 99.9082 116.104 99.5215C114.998 100.701 113.529 101.287 111.697 101.287C108.322 101.287 106.635 98.6738 106.635 93.4434C106.635 90.5371 107.174 88.3418 108.26 86.8496C109.354 85.3613 110.92 84.6152 112.963 84.6152C113.92 84.6152 114.877 84.7871 115.838 85.1309C116.15 84.6934 116.58 84.4746 117.135 84.4746ZM113.4 87.7559C112.025 87.7559 110.998 88.1543 110.322 88.9434C109.654 89.7363 109.322 91.1895 109.322 93.3027C109.322 96.8574 110.283 98.6309 112.213 98.6309C112.713 98.6309 113.268 98.4043 113.885 97.9434C114.498 97.4863 114.924 96.9707 115.166 96.3965C115.611 95.0957 115.838 93.6777 115.838 92.1465C115.838 90.6074 115.65 89.4902 115.275 88.8027C114.908 88.1074 114.283 87.7559 113.4 87.7559Z" fill="black"/>
<path d="M122.107 84.4746L123.904 84.5059C124.318 84.5059 124.549 84.498 124.592 84.4746V77.0996C124.611 76.6934 124.814 76.3457 125.201 76.0527C125.584 75.7637 125.943 75.6152 126.279 75.6152C126.623 75.6152 126.893 75.7246 127.092 75.9434C127.299 76.1621 127.389 76.502 127.357 76.959C127.334 77.4082 127.326 79.9043 127.326 84.4434L131.545 84.3027C132.264 84.3027 132.623 84.7207 132.623 85.5527C132.623 86.1777 132.436 86.6465 132.061 86.959C131.686 87.2715 131.287 87.4434 130.873 87.4746C130.455 87.498 130.045 87.5059 129.639 87.5059L127.436 87.459C127.436 88.4512 127.533 90.3965 127.732 93.3027C127.939 96.2012 128.1 98.0762 128.217 98.9277C128.342 99.7832 128.365 100.334 128.295 100.584C128.232 100.834 128.1 101.006 127.904 101.1C127.592 101.248 127.17 101.318 126.639 101.318C126.115 101.318 125.811 101.033 125.717 100.459C125.225 97.3145 124.896 92.998 124.732 87.5059C124.521 87.5293 123.693 87.5371 122.248 87.5371C120.811 87.5371 120.092 87.1152 120.092 86.2715C120.092 85.0762 120.764 84.4746 122.107 84.4746Z" fill="black"/>
<path d="M324.34 114.695C321.27 105.875 316.551 103.391 316.551 103.391C316.551 103.391 318.328 102.801 324.848 98.6523C334.918 89.7656 333.141 80.2852 332.547 75.5469C331.957 70.8047 317.738 62.5117 317.738 62.5117C319.516 58.3633 330.18 43.5508 331.957 39.4063C333.734 35.2578 337.289 8.59766 326.031 9.19141C314.773 9.78125 313.59 15.707 303.516 24C293.445 32.2969 295.223 34.6641 294.629 36.4414C294.039 38.2188 290.484 33.4805 289.891 32.8867C289.297 32.2969 278.043 29.9258 273.301 33.4805C268.562 37.0352 265.598 35.2578 262.043 30.5195C258.488 25.7773 246.047 14.5234 234.793 11.5586C225.906 6.82031 224.719 19.2617 224.719 30.5195C224.719 41.7773 232.422 50.6641 232.422 50.6641C232.422 50.6641 241.902 61.3281 243.68 68.9883C240.125 70.1289 229.457 80.8789 230.961 88.2852C232.465 95.6914 243.68 100.43 243.68 100.43L243.676 100.434C251.277 101.898 257.824 105.953 265.008 108.109C284.785 113.758 304.562 115.855 324.34 114.695Z" fill="#A96D39"/>
<path d="M317.682 114.965C318.968 111.27 314.772 102.121 314.772 102.121C314.772 102.121 327.807 99.2461 323.659 88.5782C319.514 77.9141 305.393 82.0039 301.788 84.6993L298.182 87.3946C298.182 87.3946 296.405 83.5938 294.925 83.4219C293.444 83.2461 291.37 84.1368 291.37 84.1368L290.874 87.2188C290.874 87.2188 290.194 84.4141 284.116 84.7188C278.038 85.0274 277.448 85.0274 275.968 86.5078C273.3 84.4336 272.116 83.8399 272.116 83.8399C272.116 83.8399 268.421 85.0157 267.897 88.2774C267.897 88.2774 264.417 83.2461 262.343 83.543C260.264 83.8399 255.948 84.9688 253.663 84.6993C251.378 82.6563 249.011 82.0625 248.417 82.0625C247.823 82.0625 248.417 79.7774 248.417 79.7774C248.417 79.7774 247.233 79.1016 246.639 82.0625C245.456 85.0274 243.846 86.8672 243.761 90.6836C243.694 93.6368 247.921 99.6055 249.846 102.172C254.991 104.02 259.835 106.559 265.007 108.109C282.565 113.125 300.124 115.344 317.682 114.965Z" fill="#FFFFF0"/>
<path d="M259.972 68.7344C259.507 69.4297 257.601 72.2891 257.601 74.0664C257.601 75.8438 257.007 75.4844 258.785 77.1445C260.562 78.8047 265.378 77.1445 265.378 77.1445C265.378 77.1445 267.671 76.4336 267.082 72.8789C266.488 69.3242 264.117 67.5469 264.117 67.5469C264.117 67.5469 261.156 66.957 259.972 68.7344Z" fill="#1A1A1A"/>
<path d="M259.972 68.7344C259.507 69.4297 257.601 72.2891 257.601 74.0664C257.601 75.8438 257.007 75.4844 258.785 77.1445C260.562 78.8047 265.378 77.1445 265.378 77.1445C265.378 77.1445 267.671 76.4336 267.082 72.8789C266.488 69.3242 264.117 67.5469 264.117 67.5469C264.117 67.5469 261.156 66.957 259.972 68.7344Z" stroke="#1A1A1A" stroke-width="0.197333" stroke-miterlimit="10"/>
<path d="M259.973 71.1016C259.973 71.1016 259.379 73.4727 259.379 75.25C259.379 77.0273 259.973 77.7383 259.973 77.7383C260.074 77.9648 264.711 77.6211 265.379 77.1445C265.266 76.4375 267.059 73.4727 264.996 71.1016C262.934 68.7305 259.973 69.918 259.973 71.1016Z" fill="black"/>
<path d="M299.074 66.957C298.61 67.6523 296.703 70.5117 296.703 72.2891C296.703 74.0664 296.113 73.707 297.891 75.3672C299.664 77.0273 304.481 75.3672 304.481 75.3672C304.481 75.3672 306.777 74.6563 306.184 71.1016C305.59 67.5469 303.223 65.7695 303.223 65.7695C303.223 65.7695 300.258 65.1797 299.074 66.957Z" fill="#1A1A1A"/>
<path d="M299.074 66.957C298.61 67.6523 296.703 70.5117 296.703 72.2891C296.703 74.0664 296.113 73.707 297.891 75.3672C299.664 77.0273 304.481 75.3672 304.481 75.3672C304.481 75.3672 306.777 74.6563 306.184 71.1016C305.59 67.5469 303.223 65.7695 303.223 65.7695C303.223 65.7695 300.258 65.1797 299.074 66.957Z" stroke="#1A1A1A" stroke-width="0.197333" stroke-miterlimit="10"/>
<path d="M299.074 69.3242C299.074 69.3242 298.48 71.6953 298.48 73.4727C298.48 75.25 299.074 75.9609 299.074 75.9609C299.18 76.1875 303.812 75.8437 304.48 75.3672C304.367 74.6602 306.164 71.6953 304.098 69.3242C302.035 66.9531 299.074 68.1406 299.074 69.3242Z" fill="black"/>
<path d="M268.266 94.207C268.266 94.207 270.043 97.1719 273.004 97.7656C275.969 98.3555 282.485 97.1719 282.485 97.1719H284.856C284.856 97.1719 290.547 98.0938 291.848 97.9297C293.149 97.7656 298.481 94.8008 299.075 92.4336C299.668 90.0625 297.297 82.3594 293.149 83.543C292.555 83.543 291.371 84.1367 291.371 84.1367C291.371 84.1367 290.875 88.6367 290.782 89.4688C291.371 94.207 277.153 95.9844 275.969 90.0625C275.375 87.6914 275.969 86.5078 275.969 86.5078C275.969 86.5078 273.598 85.3203 273.004 84.1367C272.414 82.9531 268.86 85.3828 268.266 87.4258C267.672 89.4688 267.082 93.0234 268.266 94.207Z" fill="#F4FFE0"/>
<path d="M275.375 88.2851C275.375 88.2851 277.152 84.7305 280.113 84.7305C283.078 84.7305 291.637 84.1367 290.914 88.2851C290.188 92.4297 290.113 92.2344 287.781 92.9258C285.445 93.6172 275.969 95.9844 275.375 88.2851Z" fill="black"/>
<path d="M284.118 59.6953L305.817 82.7773C304.485 85.457 301.778 86.8398 298.184 87.3945C298.184 87.3945 296.704 83.8906 294.926 83.4219C293.149 82.9531 291.372 84.1367 291.372 84.1367L290.876 87.2188C290.876 87.2188 289.919 84.6719 285.313 84.6992C280.708 84.7305 277.747 84.7305 275.969 86.5078C274.192 84.7305 271.821 83.543 272.118 83.8398C272.415 84.1367 268.719 84.125 267.899 88.2773C264.505 85.8359 262.653 83.8125 262.934 83.4219L278.044 59.6953H284.118Z" fill="#DFA893"/>
<path d="M268.859 86.5078L259.379 80.582M272.117 83.8398L267.969 77.3242M267.898 88.2773L250.195 87.9883M267.969 92.7266L254.344 101.023M267.785 90.5664L249.012 95.0977M267.375 91.543L250.156 99.1016M297 77.3242L292.852 83.8398M320.699 93.9141L298.809 89.6445M304.109 82.0625L297.504 86.5039M312.996 98.0586L299.371 92.1367M309.441 98.6523L298.762 93.1016" stroke="black" stroke-width="0.394667" stroke-miterlimit="10"/>
<path d="M275.969 103.094C278.336 105.465 279.523 106.652 280.707 107.242C281.895 107.836 285.445 107.242 285.445 107.242C288.574 107.711 289.094 104.801 290.188 104.281C291.84 103.492 298.996 94.8203 298.48 94.6328L290.957 97.9492L284.855 97.1719C284.855 97.1719 283.078 97.1719 281.93 97.2656C280.781 97.3594 275.375 97.7656 273.844 97.8789C272.316 97.9922 269.449 95.9844 267.672 96.5781C269.449 98.9492 273.598 100.727 275.969 103.094Z" fill="#3E180D"/>
<path d="M283.078 104.152C293.445 105.508 290.957 97.9492 290.957 97.9492L281.93 97.2656L274.996 97.9492C274.996 97.9492 275.672 98.6523 277.305 101.07C278.937 103.484 283.078 104.152 283.078 104.152Z" fill="#572C2D"/>
<path d="M256.286 69.7344C256.286 69.7344 259.38 65.1797 261.157 65.1797C262.935 65.1797 265.462 65.9961 266.567 69.7344C264.712 68.1407 264.645 67.3633 263.196 67.4571C261.747 67.5469 260.145 67.5938 259.763 69.0508C258.786 70.5117 256.153 70.7344 256.286 69.7344ZM308.556 67.5469C308.556 67.5469 305.591 62.8086 303.224 63.4024C300.853 63.9922 298.481 65.1758 297.892 66.9571C297.298 68.7344 297.892 68.8907 297.892 68.8907C297.892 68.8907 299.063 65.8594 300.849 65.8164C302.63 65.7696 303.813 65.1758 305.001 68.1407C306.185 71.1016 309.145 68.7344 308.556 67.5469Z" fill="#160A0C"/>
<mask id="mask0_391_55716" style="mask-type:luminance" maskUnits="userSpaceOnUse" x="224" y="11" width="35" height="55">
<path d="M224.842 11.1797H258.842V65.1797H224.842V11.1797Z" fill="white"/>
</mask>
<g mask="url(#mask0_391_55716)">
<mask id="mask1_391_55716" style="mask-type:luminance" maskUnits="userSpaceOnUse" x="225" y="11" width="34" height="55">
<path d="M225 22.6406C225.016 35.5547 226.961 41.9453 228.656 44.9688C230.348 47.9961 240.926 62.8086 246.301 65.1758C246.301 65.1758 258.195 47.4023 258.195 46.2188C258.195 45.0352 254.047 24.8906 250.492 21.3359C246.938 17.7812 239.234 11.8555 232.719 11.8555C226.199 11.8555 226.766 12.6836 225 22.6406Z" fill="white"/>
</mask>
<g mask="url(#mask1_391_55716)">
<path d="M248.08 -3.42188L200.455 28.1016L235.111 80.4531L282.732 48.9336L248.08 -3.42188Z" fill="url(#paint0_linear_391_55716)"/>
</g>
</g>
<mask id="mask2_391_55716" style="mask-type:luminance" maskUnits="userSpaceOnUse" x="301" y="9" width="33" height="51">
<path d="M301.846 9.17969H333.846V59.1797H301.846V9.17969Z" fill="white"/>
</mask>
<g mask="url(#mask2_391_55716)">
<mask id="mask3_391_55716" style="mask-type:luminance" maskUnits="userSpaceOnUse" x="302" y="10" width="32" height="49">
<path d="M309.328 18.7148C305.965 21.9531 302.039 40.3086 302.039 41.3867C302.039 42.4648 313.289 58.6602 313.289 58.6602C314.984 58.3984 316.422 56.6836 318.23 54.8359C319.277 53.7695 320.445 52.6563 321.859 51.7539C328.629 47.4375 328.688 43.0938 329.984 40.25C331.031 37.9492 334.582 32.5508 333.441 19.9023C331.773 10.832 332.309 10.0781 326.141 10.0781C319.977 10.0781 312.691 15.4766 309.328 18.7148Z" fill="white"/>
</mask>
<g mask="url(#mask3_391_55716)">
<path d="M311.953 -4.89844L356.941 24.8789L324.668 73.6367L279.68 43.8594L311.953 -4.89844Z" fill="url(#paint1_linear_391_55716)"/>
</g>
</g>
<path d="M250.492 24.8907C250.492 24.8907 245.16 15.4102 237.457 14.8164C229.754 14.2266 227.977 13.0391 226.793 30.2227C228.57 39.7032 226.199 42.0703 239.828 53.9219C239.828 53.9219 244.566 55.1055 246.344 55.6992C246.344 55.6992 250.492 55.6992 247.531 52.1446C246.344 50.9571 245.16 50.9571 243.383 49.7735C241.605 48.5899 246.938 49.7735 246.938 49.1797C246.938 48.5899 245.16 47.4024 245.16 47.4024L246.938 46.8125L245.16 45.0352H248.121L246.344 43.2578L249.305 42.6641L246.938 39.1094C246.938 39.1094 245.16 36.7383 248.121 36.7383C251.082 36.7383 253.453 37.9258 253.453 37.9258L249.305 33.7774C249.305 33.7774 248.121 32 250.492 32.5938C252.863 33.1836 254.047 33.1836 254.047 33.1836C254.047 33.1836 252.27 26.0742 250.492 24.8907ZM309.738 22.5196C309.738 22.5196 315.07 13.0391 322.773 12.4492C330.473 11.8555 332.254 10.6719 333.438 27.8516C331.66 37.3321 334.031 39.7032 320.402 51.5508C320.402 51.5508 315.664 52.7344 313.887 53.3282C313.887 53.3282 309.738 53.3282 312.699 49.7735C313.887 48.5899 315.07 48.5899 316.848 47.4024C318.625 46.2188 313.293 47.4024 313.293 46.8125C313.293 46.2188 315.07 45.0352 315.07 45.0352L313.293 44.4414L315.07 42.6641H312.109L313.887 40.8867L310.922 40.293L313.293 36.7383C313.293 36.7383 315.07 34.3672 312.109 34.3672C309.145 34.3672 306.777 35.5547 306.777 35.5547L310.922 31.4063C310.922 31.4063 312.109 29.6289 309.738 30.2227C307.367 30.8164 306.184 30.8164 306.184 30.8164C306.184 30.8164 307.961 23.7032 309.738 22.5196Z" fill="#824228"/>
<path d="M258.195 43.8164L262.934 39.1094C262.934 39.1094 253.336 23.3789 251.617 22.9492C254.047 28.4453 257.008 42.0078 258.195 43.8164ZM302.035 42.0391L297.297 37.332C297.297 37.332 306.895 21.6016 308.613 21.1719C306.184 26.668 303.223 40.2305 302.035 42.0391Z" fill="#160A0C"/>
<path d="M263.43 39.1094L265.895 35.5547C265.895 35.5547 251.723 20.1485 250.492 20.1485C252.289 24.1797 261.988 38.0664 263.43 39.1094ZM296.871 37.7344L294.832 34.2188C293.504 33.2422 306.941 19.1328 308.895 19.8125C307.176 23.6524 298.176 36.7735 296.871 37.7344Z" fill="#D4905F"/>
<path d="M280.414 58.6797C280.414 58.6797 278.363 53.3321 277.594 51.9883C276.824 50.6446 274.5 47.7969 273.121 45.6094C271.738 43.4219 270.523 40.9258 270.238 40.125C269.863 39.0821 269.047 39.1797 269.469 39.9571C269.469 39.9571 270.394 42.4961 271.219 44.0508C272.047 45.6055 274 48.6563 274.641 49.4805C275.281 50.3086 276.398 51.4649 277.629 53.7305C278.859 56 280.414 58.6797 280.414 58.6797ZM283.965 58.086C283.965 58.086 286.016 52.7422 286.781 51.3985C287.551 50.0508 289.875 47.2032 291.258 45.0157C292.641 42.8321 293.851 40.336 294.141 39.5352C294.512 38.4883 295.332 38.5899 294.91 39.3672C294.91 39.3672 293.984 41.9024 293.156 43.4571C292.328 45.0118 290.379 48.0625 289.738 48.8907C289.094 49.7149 287.98 50.8711 286.75 53.1407C285.516 55.4063 283.965 58.086 283.965 58.086ZM276.582 60.2891C276.582 60.2891 275.328 54.668 274.707 53.25C274.09 51.8321 271.934 48.8047 270.766 46.4961C269.601 44.1836 268.707 41.5547 268.543 40.711C268.332 39.6172 267.32 39.6993 267.652 40.5157C267.652 40.5157 268.187 43.1836 268.832 44.8243C269.476 46.461 271.129 49.6875 271.715 50.5625C272.305 51.4415 273.383 52.6719 274.351 55.0665C275.32 57.4571 276.582 60.2891 276.582 60.2891ZM287.797 59.6954C287.797 59.6954 289.047 54.0782 289.668 52.6563C290.289 51.2383 292.441 48.2149 293.609 45.9024C294.777 43.5899 295.672 40.961 295.832 40.1211C296.047 39.0235 297.059 39.1055 296.726 39.9258C296.726 39.9258 296.191 42.5899 295.547 44.2305C294.902 45.8672 293.246 49.0977 292.66 49.9727C292.074 50.8477 290.992 52.0821 290.027 54.4727C289.059 56.8633 287.797 59.6954 287.797 59.6954Z" fill="#160A0C"/>
<path d="M30.662 23.138C30.962 23.138 31.214 23.27 31.418 23.534C31.622 23.798 31.886 24.344 32.21 25.172C32.966 27.128 33.704 30.194 34.424 34.37C34.436 34.418 34.442 34.49 34.442 34.586C34.442 34.67 34.382 34.766 34.262 34.874C34.154 34.97 33.992 35.018 33.776 35.018C33.572 35.018 33.398 34.97 33.254 34.874C33.11 34.766 33.014 34.598 32.966 34.37C32.918 34.13 32.828 33.668 32.696 32.984C32.408 31.46 32.216 30.668 32.12 30.608C31.976 30.524 31.496 30.434 30.68 30.338C29.876 30.242 29.342 30.194 29.078 30.194C28.814 30.194 28.658 30.218 28.61 30.266C28.394 30.458 28.1 31.916 27.728 34.64C27.68 34.868 27.452 34.982 27.044 34.982C26.636 34.982 26.432 34.808 26.432 34.46C26.432 33.596 26.75 31.946 27.386 29.51C28.022 27.074 28.55 25.46 28.97 24.668C29.498 23.648 30.062 23.138 30.662 23.138ZM30.59 25.136C30.41 25.136 30.098 25.67 29.654 26.738C29.21 27.794 28.988 28.448 28.988 28.7C28.988 28.76 29 28.802 29.024 28.826C29.12 28.922 29.498 29.006 30.158 29.078C30.818 29.15 31.256 29.186 31.472 29.186C31.688 29.186 31.808 29.174 31.832 29.15C31.856 29.114 31.868 29.018 31.868 28.862C31.868 28.694 31.706 28.034 31.382 26.882C31.058 25.718 30.794 25.136 30.59 25.136ZM35.4371 27.296C35.4851 27.092 35.5871 26.924 35.7431 26.792C35.8991 26.648 36.0551 26.576 36.2111 26.576C36.3791 26.576 36.5051 26.606 36.5891 26.666C36.6851 26.726 36.7391 26.78 36.7511 26.828C36.7751 26.876 36.7991 26.96 36.8231 27.08C36.7511 28.016 36.7151 28.862 36.7151 29.618C36.7151 30.362 36.8051 31.22 36.9851 32.192C37.1651 33.152 37.3631 33.632 37.5791 33.632C37.9031 33.632 38.3111 33.452 38.8031 33.092C39.3071 32.732 39.6671 32.354 39.8831 31.958C39.7391 30.23 39.6671 28.748 39.6671 27.512C39.6671 27.26 39.7451 27.044 39.9011 26.864C40.0691 26.684 40.2671 26.594 40.4951 26.594C40.8671 26.594 41.0531 26.846 41.0531 27.35C41.0531 28.202 41.1131 29.468 41.2331 31.148C41.3651 32.828 41.4971 33.896 41.6291 34.352C41.6531 34.448 41.6651 34.562 41.6651 34.694C41.6651 34.814 41.5811 34.928 41.4131 35.036C41.2571 35.156 41.0471 35.216 40.7831 35.216C40.5311 35.216 40.3631 35.072 40.2791 34.784C40.2551 34.544 40.1951 34.184 40.0991 33.704C39.2591 34.58 38.4131 35.018 37.5611 35.018C37.1651 35.018 36.8111 34.868 36.4991 34.568C36.1871 34.268 35.9411 33.86 35.7611 33.344C35.4491 32.348 35.2931 31.412 35.2931 30.536C35.2931 29.66 35.3411 28.58 35.4371 27.296ZM42.9861 28.88C42.9861 28.172 43.2381 27.608 43.7421 27.188C44.2461 26.768 44.8281 26.558 45.4881 26.558C46.1601 26.558 46.8021 26.678 47.4141 26.918C48.0261 27.158 48.3321 27.476 48.3321 27.872C48.3321 28.076 48.2541 28.238 48.0981 28.358C47.9421 28.478 47.8041 28.538 47.6841 28.538C47.5761 28.538 47.4861 28.538 47.4141 28.538C47.3541 28.526 47.1141 28.412 46.6941 28.196C46.2861 27.98 45.9081 27.872 45.5601 27.872C45.2121 27.872 44.9121 27.962 44.6601 28.142C44.4201 28.31 44.3001 28.562 44.3001 28.898C44.3001 29.234 44.4381 29.498 44.7141 29.69C45.0021 29.882 45.5001 30.05 46.2081 30.194C46.9161 30.326 47.4561 30.518 47.8281 30.77C48.2121 31.022 48.4041 31.49 48.4041 32.174C48.4041 33.17 48.1401 33.878 47.6121 34.298C47.0961 34.706 46.4661 34.91 45.7221 34.91C44.9781 34.91 44.3421 34.808 43.8141 34.604C43.2981 34.4 43.0401 34.094 43.0401 33.686C43.0401 33.218 43.2741 32.984 43.7421 32.984C43.8621 32.984 44.1261 33.068 44.5341 33.236C44.9421 33.404 45.3441 33.488 45.7401 33.488C46.1481 33.488 46.4541 33.362 46.6581 33.11C46.8741 32.846 46.9821 32.546 46.9821 32.21C46.9821 31.874 46.8441 31.634 46.5681 31.49C46.2921 31.334 45.8721 31.208 45.3081 31.112C44.7441 31.016 44.3301 30.914 44.0661 30.806C43.3461 30.518 42.9861 29.876 42.9861 28.88ZM50.0559 26.594L50.9559 26.612C51.1599 26.612 51.2739 26.606 51.2979 26.594V22.904C51.3099 22.7 51.4119 22.526 51.6039 22.382C51.7959 22.238 51.9759 22.166 52.1439 22.166C52.3119 22.166 52.4439 22.22 52.5399 22.328C52.6479 22.436 52.6959 22.604 52.6839 22.832C52.6719 23.06 52.6659 24.308 52.6659 26.576L54.7719 26.504C55.1319 26.504 55.3119 26.714 55.3119 27.134C55.3119 27.446 55.2159 27.68 55.0239 27.836C54.8439 27.992 54.6459 28.076 54.4299 28.088C54.2259 28.1 54.0219 28.106 53.8179 28.106L52.7199 28.088C52.7199 28.58 52.7679 29.552 52.8639 31.004C52.9719 32.456 53.0559 33.398 53.1159 33.83C53.1759 34.25 53.1879 34.526 53.1519 34.658C53.1159 34.778 53.0499 34.862 52.9539 34.91C52.7979 34.982 52.5879 35.018 52.3239 35.018C52.0599 35.018 51.9039 34.874 51.8559 34.586C51.6159 33.014 51.4539 30.854 51.3699 28.106C51.2619 28.118 50.8479 28.124 50.1279 28.124C49.4079 28.124 49.0479 27.914 49.0479 27.494C49.0479 26.894 49.3839 26.594 50.0559 26.594ZM58.1154 32.372L58.1334 34.226C58.1334 34.442 58.0314 34.64 57.8274 34.82C57.6354 35 57.4434 35.09 57.2514 35.09C56.9754 35.09 56.8014 34.874 56.7294 34.442C56.7174 34.346 56.6694 33.47 56.5854 31.814C56.5014 30.146 56.3394 28.838 56.0994 27.89C55.9914 27.434 55.9374 27.164 55.9374 27.08C55.9374 26.684 56.1774 26.486 56.6574 26.486C56.8614 26.486 57.0234 26.564 57.1434 26.72C57.2634 26.876 57.3354 27.038 57.3594 27.206C57.3954 27.362 57.4254 27.578 57.4494 27.854C57.4734 28.13 57.4914 28.304 57.5034 28.376C57.7554 27.776 58.1334 27.326 58.6374 27.026C59.1414 26.726 59.6934 26.576 60.2934 26.576C61.2774 26.576 61.7694 26.828 61.7694 27.332C61.7694 27.584 61.6794 27.788 61.4994 27.944C61.3314 28.088 61.1334 28.16 60.9054 28.16C59.8854 28.16 59.1654 28.484 58.7454 29.132C58.3254 29.78 58.1154 30.86 58.1154 32.372ZM67.7412 26.594C68.2692 26.594 68.5332 27.044 68.5332 27.944C68.5332 28.04 68.5332 28.142 68.5332 28.25L68.4972 29.51C68.4852 29.906 68.4792 30.296 68.4792 30.68L68.7492 34.748C68.7492 35.048 68.4432 35.198 67.8312 35.198C67.7952 35.198 67.7052 35.198 67.5612 35.198C67.4292 35.198 67.3332 35.144 67.2732 35.036C67.2252 34.928 67.2192 34.796 67.2552 34.64C67.3032 34.484 67.2912 34.31 67.2192 34.118C66.6672 34.706 65.9352 35 65.0232 35C63.3312 35 62.4852 33.692 62.4852 31.076C62.4852 29.624 62.7552 28.526 63.2952 27.782C63.8472 27.038 64.6332 26.666 65.6532 26.666C66.1332 26.666 66.6132 26.75 67.0932 26.918C67.2492 26.702 67.4652 26.594 67.7412 26.594ZM65.8692 28.232C65.1852 28.232 64.6752 28.43 64.3392 28.826C64.0032 29.222 63.8352 29.948 63.8352 31.004C63.8352 32.78 64.3152 33.668 65.2752 33.668C65.5272 33.668 65.8032 33.554 66.1032 33.326C66.4152 33.098 66.6312 32.84 66.7512 32.552C66.9792 31.904 67.0932 31.196 67.0932 30.428C67.0932 29.66 66.9972 29.102 66.8052 28.754C66.6252 28.406 66.3132 28.232 65.8692 28.232ZM69.714 23.354C69.75 22.898 69.822 22.604 69.93 22.472C70.05 22.328 70.236 22.256 70.488 22.256C71.004 22.256 71.262 22.466 71.262 22.886C71.262 23.21 71.232 24.056 71.172 25.424C71.124 26.792 71.1 28.016 71.1 29.096C71.1 30.176 71.142 31.046 71.226 31.706C71.37 32.858 71.574 33.434 71.838 33.434C72.102 33.434 72.3 33.248 72.432 32.876C72.492 32.732 72.588 32.606 72.72 32.498C72.852 32.378 73.02 32.318 73.224 32.318C73.644 32.318 73.854 32.672 73.854 33.38C73.854 33.764 73.644 34.148 73.224 34.532C72.816 34.904 72.408 35.09 72 35.09C71.592 35.09 71.262 35.024 71.01 34.892C70.77 34.748 70.572 34.538 70.416 34.262C70.272 33.986 70.152 33.722 70.056 33.47C69.972 33.206 69.912 32.888 69.876 32.516C69.804 31.916 69.75 30.956 69.714 29.636C69.69 28.304 69.678 27.038 69.678 25.838C69.678 24.626 69.69 23.798 69.714 23.354ZM75.7372 23.624C75.9532 23.624 76.1572 23.726 76.3492 23.93C76.5412 24.134 76.6372 24.35 76.6372 24.578C76.6372 24.794 76.5292 25.016 76.3132 25.244C76.1092 25.472 75.8932 25.586 75.6652 25.586C75.4372 25.586 75.2272 25.49 75.0352 25.298C74.8552 25.106 74.7652 24.86 74.7652 24.56C74.7652 23.984 75.0772 23.672 75.7012 23.624C75.7132 23.624 75.7252 23.624 75.7372 23.624ZM76.4932 33.056L76.5112 34.316C76.5112 34.544 76.4212 34.736 76.2412 34.892C76.0612 35.036 75.8692 35.108 75.6652 35.108C75.3652 35.108 75.2092 34.958 75.1972 34.658C75.0412 30.83 74.9632 28.712 74.9632 28.304C74.9632 27.896 74.9812 27.398 75.0172 26.81C75.0412 26.594 75.1792 26.486 75.4312 26.486C76.0672 26.486 76.4272 26.744 76.5112 27.26C76.5472 27.524 76.5652 27.734 76.5652 27.89L76.4932 29.024V33.056ZM83.5966 26.594C84.1246 26.594 84.3886 27.044 84.3886 27.944C84.3886 28.04 84.3886 28.142 84.3886 28.25L84.3526 29.51C84.3406 29.906 84.3346 30.296 84.3346 30.68L84.6046 34.748C84.6046 35.048 84.2986 35.198 83.6866 35.198C83.6506 35.198 83.5606 35.198 83.4166 35.198C83.2846 35.198 83.1886 35.144 83.1286 35.036C83.0806 34.928 83.0746 34.796 83.1106 34.64C83.1586 34.484 83.1466 34.31 83.0746 34.118C82.5226 34.706 81.7906 35 80.8786 35C79.1866 35 78.3406 33.692 78.3406 31.076C78.3406 29.624 78.6106 28.526 79.1506 27.782C79.7026 27.038 80.4886 26.666 81.5086 26.666C81.9886 26.666 82.4686 26.75 82.9486 26.918C83.1046 26.702 83.3206 26.594 83.5966 26.594ZM81.7246 28.232C81.0406 28.232 80.5306 28.43 80.1946 28.826C79.8586 29.222 79.6906 29.948 79.6906 31.004C79.6906 32.78 80.1706 33.668 81.1306 33.668C81.3826 33.668 81.6586 33.554 81.9586 33.326C82.2706 33.098 82.4866 32.84 82.6066 32.552C82.8346 31.904 82.9486 31.196 82.9486 30.428C82.9486 29.66 82.8526 29.102 82.6606 28.754C82.4806 28.406 82.1686 28.232 81.7246 28.232Z" fill="black"/>
<defs>
<linearGradient id="paint0_linear_391_55716" x1="225.346" y1="11.6259" x2="260" y2="63.981" gradientUnits="userSpaceOnUse">
<stop stop-color="#F4FFE0"/>
<stop offset="0.125" stop-color="#F4FFE0"/>
<stop offset="0.15625" stop-color="#F3FEDF"/>
<stop offset="0.171875" stop-color="#F3FDDF"/>
<stop offset="0.1875" stop-color="#F2FDDE"/>
<stop offset="0.203125" stop-color="#F2FCDD"/>
<stop offset="0.21875" stop-color="#F1FBDD"/>
<stop offset="0.234375" stop-color="#F1FBDC"/>
<stop offset="0.242187" stop-color="#F0FADC"/>
<stop offset="0.25" stop-color="#F0F9DB"/>
<stop offset="0.257812" stop-color="#EFF9DB"/>
<stop offset="0.265625" stop-color="#EFF8DA"/>
<stop offset="0.273438" stop-color="#EEF8DA"/>
<stop offset="0.28125" stop-color="#EEF7D9"/>
<stop offset="0.289062" stop-color="#EDF6D8"/>
<stop offset="0.296875" stop-color="#EDF6D8"/>
<stop offset="0.304688" stop-color="#ECF5D7"/>
<stop offset="0.3125" stop-color="#ECF4D7"/>
<stop offset="0.320312" stop-color="#EBF4D6"/>
<stop offset="0.328125" stop-color="#EBF3D5"/>
<stop offset="0.335938" stop-color="#EAF2D4"/>
<stop offset="0.34375" stop-color="#E9F1D4"/>
<stop offset="0.351562" stop-color="#E8F0D3"/>
<stop offset="0.359375" stop-color="#E8EFD2"/>
<stop offset="0.367188" stop-color="#E7EED1"/>
<stop offset="0.371094" stop-color="#E6EDD0"/>
<stop offset="0.375" stop-color="#E6EDD0"/>
<stop offset="0.378906" stop-color="#E5ECCF"/>
<stop offset="0.382812" stop-color="#E5ECCF"/>
<stop offset="0.386719" stop-color="#E5EBCF"/>
<stop offset="0.390625" stop-color="#E4EBCE"/>
<stop offset="0.394531" stop-color="#E4EACE"/>
<stop offset="0.398438" stop-color="#E3E9CD"/>
<stop offset="0.402344" stop-color="#E3E9CD"/>
<stop offset="0.40625" stop-color="#E2E8CC"/>
<stop offset="0.410156" stop-color="#E2E8CB"/>
<stop offset="0.414062" stop-color="#E1E7CB"/>
<stop offset="0.417969" stop-color="#E1E6CA"/>
<stop offset="0.421875" stop-color="#E1E6CA"/>
<stop offset="0.425781" stop-color="#E0E5C9"/>
<stop offset="0.429688" stop-color="#E0E5C9"/>
<stop offset="0.433594" stop-color="#DFE4C8"/>
<stop offset="0.4375" stop-color="#DEE3C8"/>
<stop offset="0.441406" stop-color="#DEE3C7"/>
<stop offset="0.445312" stop-color="#DDE2C6"/>
<stop offset="0.449219" stop-color="#DDE1C6"/>
<stop offset="0.453125" stop-color="#DCE0C5"/>
<stop offset="0.457031" stop-color="#DCE0C5"/>
<stop offset="0.460938" stop-color="#DBDFC4"/>
<stop offset="0.464844" stop-color="#DBDEC3"/>
<stop offset="0.46875" stop-color="#DADEC3"/>
<stop offset="0.472656" stop-color="#DADDC2"/>
<stop offset="0.476562" stop-color="#D9DCC1"/>
<stop offset="0.480469" stop-color="#D8DBC1"/>
<stop offset="0.484375" stop-color="#D8DBC0"/>
<stop offset="0.488281" stop-color="#D7DABF"/>
<stop offset="0.492188" stop-color="#D7D9BF"/>
<stop offset="0.496094" stop-color="#D6D8BE"/>
<stop offset="0.5" stop-color="#D5D7BD"/>
<stop offset="0.503906" stop-color="#D5D6BC"/>
<stop offset="0.507812" stop-color="#D4D6BC"/>
<stop offset="0.511719" stop-color="#D3D5BB"/>
<stop offset="0.515625" stop-color="#D3D4BA"/>
<stop offset="0.519531" stop-color="#D2D3B9"/>
<stop offset="0.523438" stop-color="#D1D2B9"/>
<stop offset="0.527344" stop-color="#D1D1B8"/>
<stop offset="0.53125" stop-color="#D0D0B7"/>
<stop offset="0.535156" stop-color="#CFCFB6"/>
<stop offset="0.539062" stop-color="#CECFB5"/>
<stop offset="0.542969" stop-color="#CECEB5"/>
<stop offset="0.546875" stop-color="#CDCDB4"/>
<stop offset="0.550781" stop-color="#CCCCB3"/>
<stop offset="0.554688" stop-color="#CCCBB2"/>
<stop offset="0.558594" stop-color="#CBCAB1"/>
<stop offset="0.5625" stop-color="#CAC9B0"/>
<stop offset="0.566406" stop-color="#C9C8AF"/>
<stop offset="0.570312" stop-color="#C8C7AF"/>
<stop offset="0.574219" stop-color="#C8C6AE"/>
<stop offset="0.578125" stop-color="#C7C5AD"/>
<stop offset="0.582031" stop-color="#C6C4AC"/>
<stop offset="0.585938" stop-color="#C5C3AB"/>
<stop offset="0.589844" stop-color="#C4C2AA"/>
<stop offset="0.59375" stop-color="#C4C0A9"/>
<stop offset="0.597656" stop-color="#C3BFA8"/>
<stop offset="0.601562" stop-color="#C2BEA7"/>
<stop offset="0.605469" stop-color="#C1BDA6"/>
<stop offset="0.609375" stop-color="#C0BCA5"/>
<stop offset="0.613281" stop-color="#BFBBA4"/>
<stop offset="0.617188" stop-color="#BEBAA3"/>
<stop offset="0.621094" stop-color="#BDB9A2"/>
<stop offset="0.625" stop-color="#BDB7A1"/>
<stop offset="0.628906" stop-color="#BCB6A0"/>
<stop offset="0.632812" stop-color="#BBB59F"/>
<stop offset="0.636719" stop-color="#BAB49E"/>
<stop offset="0.640625" stop-color="#B9B39D"/>
<stop offset="0.644531" stop-color="#B8B19C"/>
<stop offset="0.648438" stop-color="#B7B09B"/>
<stop offset="0.652344" stop-color="#B6AF9A"/>
<stop offset="0.65625" stop-color="#B5AE99"/>
<stop offset="0.660156" stop-color="#B4AC97"/>
<stop offset="0.664062" stop-color="#B3AB96"/>
<stop offset="0.667969" stop-color="#B2AA95"/>
<stop offset="0.671875" stop-color="#B1A994"/>
<stop offset="0.675781" stop-color="#B0A793"/>
<stop offset="0.679688" stop-color="#AFA692"/>
<stop offset="0.683594" stop-color="#AEA590"/>
<stop offset="0.6875" stop-color="#ADA38F"/>
<stop offset="0.691406" stop-color="#ACA28E"/>
<stop offset="0.695312" stop-color="#ABA08D"/>
<stop offset="0.699219" stop-color="#AA9F8C"/>
<stop offset="0.703125" stop-color="#A99E8A"/>
<stop offset="0.707031" stop-color="#A89C89"/>
<stop offset="0.710938" stop-color="#A69B88"/>
<stop offset="0.714844" stop-color="#A59987"/>
<stop offset="0.71875" stop-color="#A49885"/>
<stop offset="0.722656" stop-color="#A39684"/>
<stop offset="0.726562" stop-color="#A29583"/>
<stop offset="0.730469" stop-color="#A19482"/>
<stop offset="0.734375" stop-color="#A09280"/>
<stop offset="0.738281" stop-color="#9E917F"/>
<stop offset="0.742188" stop-color="#9D8F7E"/>
<stop offset="0.746094" stop-color="#9C8D7C"/>
<stop offset="0.75" stop-color="#9B8C7B"/>
<stop offset="0.753906" stop-color="#9A8A79"/>
<stop offset="0.757812" stop-color="#988978"/>
<stop offset="0.761719" stop-color="#978777"/>
<stop offset="0.765625" stop-color="#968675"/>
<stop offset="0.769531" stop-color="#958474"/>
<stop offset="0.773438" stop-color="#938272"/>
<stop offset="0.777344" stop-color="#928171"/>
<stop offset="0.78125" stop-color="#917F70"/>
<stop offset="0.785156" stop-color="#907D6E"/>
<stop offset="0.789062" stop-color="#8E7C6D"/>
<stop offset="0.792969" stop-color="#8D7A6B"/>
<stop offset="0.796875" stop-color="#8C786A"/>
<stop offset="0.800781" stop-color="#8A7768"/>
<stop offset="0.804688" stop-color="#897567"/>
<stop offset="0.808594" stop-color="#887365"/>
<stop offset="0.8125" stop-color="#867163"/>
<stop offset="0.816406" stop-color="#857062"/>
<stop offset="0.820312" stop-color="#846E60"/>
<stop offset="0.824219" stop-color="#826C5F"/>
<stop offset="0.828125" stop-color="#816A5D"/>
<stop offset="0.832031" stop-color="#7F685C"/>
<stop offset="0.835938" stop-color="#7E675A"/>
<stop offset="0.839844" stop-color="#7C6558"/>
<stop offset="0.84375" stop-color="#7B6357"/>
<stop offset="0.847656" stop-color="#7A6155"/>
<stop offset="0.851562" stop-color="#785F53"/>
<stop offset="0.855469" stop-color="#775D52"/>
<stop offset="0.859375" stop-color="#755B50"/>
<stop offset="0.863281" stop-color="#74594E"/>
<stop offset="0.867187" stop-color="#72574D"/>
<stop offset="0.871094" stop-color="#71554B"/>
<stop offset="0.875" stop-color="#6F5449"/>
<stop offset="0.878906" stop-color="#6E5248"/>
<stop offset="0.882813" stop-color="#6C5046"/>
<stop offset="0.886719" stop-color="#6B4E44"/>
<stop offset="0.890625" stop-color="#694C42"/>
<stop offset="0.894531" stop-color="#684A41"/>
<stop offset="0.898438" stop-color="#674940"/>
<stop offset="0.90625" stop-color="#674940"/>
<stop offset="0.9375" stop-color="#674940"/>
<stop offset="1" stop-color="#674940"/>
</linearGradient>
<linearGradient id="paint1_linear_391_55716" x1="333.623" y1="9.44293" x2="301.349" y2="58.2026" gradientUnits="userSpaceOnUse">
<stop stop-color="#F4FFE0"/>
<stop offset="0.125" stop-color="#F4FFE0"/>
<stop offset="0.15625" stop-color="#F3FEDF"/>
<stop offset="0.1875" stop-color="#F3FDDF"/>
<stop offset="0.203125" stop-color="#F2FDDE"/>
<stop offset="0.21875" stop-color="#F2FCDD"/>
<stop offset="0.234375" stop-color="#F1FBDD"/>
<stop offset="0.25" stop-color="#F0FADC"/>
<stop offset="0.257812" stop-color="#F0F9DB"/>
<stop offset="0.265625" stop-color="#EFF9DB"/>
<stop offset="0.273438" stop-color="#EFF8DA"/>
<stop offset="0.28125" stop-color="#EEF8DA"/>
<stop offset="0.289062" stop-color="#EEF7D9"/>
<stop offset="0.296875" stop-color="#EDF6D8"/>
<stop offset="0.304688" stop-color="#EDF6D8"/>
<stop offset="0.3125" stop-color="#ECF5D7"/>
<stop offset="0.320312" stop-color="#ECF4D7"/>
<stop offset="0.328125" stop-color="#EBF3D6"/>
<stop offset="0.335938" stop-color="#EAF3D5"/>
<stop offset="0.34375" stop-color="#EAF2D4"/>
<stop offset="0.351562" stop-color="#E9F1D4"/>
<stop offset="0.359375" stop-color="#E8F0D3"/>
<stop offset="0.367188" stop-color="#E8EFD2"/>
<stop offset="0.371094" stop-color="#E7EED1"/>
<stop offset="0.375" stop-color="#E6EED1"/>
<stop offset="0.378906" stop-color="#E6EDD0"/>
<stop offset="0.382812" stop-color="#E6ECD0"/>
<stop offset="0.386719" stop-color="#E5ECCF"/>
<stop offset="0.390625" stop-color="#E5EBCF"/>
<stop offset="0.394531" stop-color="#E4EBCE"/>
<stop offset="0.398438" stop-color="#E4EACE"/>
<stop offset="0.402344" stop-color="#E3EACD"/>
<stop offset="0.40625" stop-color="#E3E9CD"/>
<stop offset="0.410156" stop-color="#E3E9CC"/>
<stop offset="0.414062" stop-color="#E2E8CC"/>
<stop offset="0.417969" stop-color="#E2E7CB"/>
<stop offset="0.421875" stop-color="#E1E7CB"/>
<stop offset="0.425781" stop-color="#E1E6CA"/>
<stop offset="0.429688" stop-color="#E0E5CA"/>
<stop offset="0.433594" stop-color="#E0E5C9"/>
<stop offset="0.4375" stop-color="#DFE4C8"/>
<stop offset="0.441406" stop-color="#DFE3C8"/>
<stop offset="0.445312" stop-color="#DEE3C7"/>
<stop offset="0.449219" stop-color="#DEE2C7"/>
<stop offset="0.453125" stop-color="#DDE1C6"/>
<stop offset="0.457031" stop-color="#DCE1C5"/>
<stop offset="0.460938" stop-color="#DCE0C5"/>
<stop offset="0.464844" stop-color="#DBDFC4"/>
<stop offset="0.46875" stop-color="#DBDEC3"/>
<stop offset="0.472656" stop-color="#DADEC3"/>
<stop offset="0.476562" stop-color="#DADDC2"/>
<stop offset="0.480469" stop-color="#D9DCC1"/>
<stop offset="0.484375" stop-color="#D8DBC1"/>
<stop offset="0.488281" stop-color="#D8DBC0"/>
<stop offset="0.492188" stop-color="#D7DABF"/>
<stop offset="0.496094" stop-color="#D7D9BF"/>
<stop offset="0.5" stop-color="#D6D8BE"/>
<stop offset="0.503906" stop-color="#D5D7BD"/>
<stop offset="0.507812" stop-color="#D5D7BC"/>
<stop offset="0.511719" stop-color="#D4D6BC"/>
<stop offset="0.515625" stop-color="#D3D5BB"/>
<stop offset="0.519531" stop-color="#D3D4BA"/>
<stop offset="0.523438" stop-color="#D2D3B9"/>
<stop offset="0.527344" stop-color="#D1D2B9"/>
<stop offset="0.53125" stop-color="#D1D1B8"/>
<stop offset="0.535156" stop-color="#D0D0B7"/>
<stop offset="0.539062" stop-color="#CFCFB6"/>
<stop offset="0.542969" stop-color="#CECEB5"/>
<stop offset="0.546875" stop-color="#CECEB5"/>
<stop offset="0.550781" stop-color="#CDCDB4"/>
<stop offset="0.554688" stop-color="#CCCCB3"/>
<stop offset="0.558594" stop-color="#CBCBB2"/>
<stop offset="0.5625" stop-color="#CBCAB1"/>
<stop offset="0.566406" stop-color="#CAC9B0"/>
<stop offset="0.570312" stop-color="#C9C8AF"/>
<stop offset="0.574219" stop-color="#C8C7AE"/>
<stop offset="0.578125" stop-color="#C7C6AD"/>
<stop offset="0.582031" stop-color="#C7C4AD"/>
<stop offset="0.585938" stop-color="#C6C3AC"/>
<stop offset="0.589844" stop-color="#C5C2AB"/>
<stop offset="0.59375" stop-color="#C4C1AA"/>
<stop offset="0.597656" stop-color="#C3C0A9"/>
<stop offset="0.601562" stop-color="#C2BFA8"/>
<stop offset="0.605469" stop-color="#C2BEA7"/>
<stop offset="0.609375" stop-color="#C1BDA6"/>
<stop offset="0.613281" stop-color="#C0BCA5"/>
<stop offset="0.617188" stop-color="#BFBBA4"/>
<stop offset="0.621094" stop-color="#BEB9A3"/>
<stop offset="0.625" stop-color="#BDB8A2"/>
<stop offset="0.628906" stop-color="#BCB7A1"/>
<stop offset="0.632812" stop-color="#BBB6A0"/>
<stop offset="0.636719" stop-color="#BAB59F"/>
<stop offset="0.640625" stop-color="#B9B39D"/>
<stop offset="0.644531" stop-color="#B8B29C"/>
<stop offset="0.648438" stop-color="#B7B19B"/>
<stop offset="0.652344" stop-color="#B6B09A"/>
<stop offset="0.65625" stop-color="#B5AE99"/>
<stop offset="0.660156" stop-color="#B4AD98"/>
<stop offset="0.664062" stop-color="#B3AC97"/>
<stop offset="0.667969" stop-color="#B2AA96"/>
<stop offset="0.671875" stop-color="#B1A994"/>
<stop offset="0.675781" stop-color="#B0A893"/>
<stop offset="0.679688" stop-color="#AFA692"/>
<stop offset="0.683594" stop-color="#AEA591"/>
<stop offset="0.6875" stop-color="#ADA490"/>
<stop offset="0.691406" stop-color="#ACA28F"/>
<stop offset="0.695312" stop-color="#ABA18D"/>
<stop offset="0.699219" stop-color="#AAA08C"/>
<stop offset="0.703125" stop-color="#A99E8B"/>
<stop offset="0.707031" stop-color="#A89D8A"/>
<stop offset="0.710938" stop-color="#A79B88"/>
<stop offset="0.714844" stop-color="#A69A87"/>
<stop offset="0.71875" stop-color="#A49886"/>
<stop offset="0.722656" stop-color="#A39784"/>
<stop offset="0.726562" stop-color="#A29583"/>
<stop offset="0.730469" stop-color="#A19482"/>
<stop offset="0.734375" stop-color="#A09280"/>
<stop offset="0.738281" stop-color="#9F917F"/>
<stop offset="0.742188" stop-color="#9D8F7E"/>
<stop offset="0.746094" stop-color="#9C8E7C"/>
<stop offset="0.75" stop-color="#9B8C7B"/>
<stop offset="0.753906" stop-color="#9A8B7A"/>
<stop offset="0.757812" stop-color="#998978"/>
<stop offset="0.761719" stop-color="#978777"/>
<stop offset="0.765625" stop-color="#968675"/>
<stop offset="0.769531" stop-color="#958474"/>
<stop offset="0.773438" stop-color="#938272"/>
<stop offset="0.777344" stop-color="#928171"/>
<stop offset="0.78125" stop-color="#917F70"/>
<stop offset="0.785156" stop-color="#907D6E"/>
<stop offset="0.789062" stop-color="#8E7C6D"/>
<stop offset="0.792969" stop-color="#8D7A6B"/>
<stop offset="0.796875" stop-color="#8C786A"/>
<stop offset="0.800781" stop-color="#8A7668"/>
<stop offset="0.804688" stop-color="#897566"/>
<stop offset="0.808594" stop-color="#887365"/>
<stop offset="0.8125" stop-color="#867163"/>
<stop offset="0.816406" stop-color="#856F62"/>
<stop offset="0.820312" stop-color="#836E60"/>
<stop offset="0.824219" stop-color="#826C5F"/>
<stop offset="0.828125" stop-color="#816A5D"/>
<stop offset="0.832031" stop-color="#7F685B"/>
<stop offset="0.835938" stop-color="#7E665A"/>
<stop offset="0.839844" stop-color="#7C6458"/>
<stop offset="0.84375" stop-color="#7B6256"/>
<stop offset="0.847656" stop-color="#796155"/>
<stop offset="0.851563" stop-color="#785F53"/>
<stop offset="0.855469" stop-color="#765D51"/>
<stop offset="0.859375" stop-color="#755B50"/>
<stop offset="0.863281" stop-color="#73594E"/>
<stop offset="0.867188" stop-color="#72574C"/>
<stop offset="0.871094" stop-color="#70554A"/>
<stop offset="0.875" stop-color="#6F5349"/>
<stop offset="0.878906" stop-color="#6D5147"/>
<stop offset="0.882812" stop-color="#6B4F45"/>
<stop offset="0.886719" stop-color="#6A4D43"/>
<stop offset="0.890625" stop-color="#684B41"/>
<stop offset="0.894531" stop-color="#684A41"/>
<stop offset="0.898438" stop-color="#674940"/>
<stop offset="0.90625" stop-color="#674940"/>
<stop offset="0.9375" stop-color="#674940"/>
<stop offset="1" stop-color="#674940"/>
</linearGradient>
</defs>
</svg>
