<svg width="398" height="128" viewBox="0 0 398 128" fill="none" xmlns="http://www.w3.org/2000/svg">
<path d="M27 124.852C13.8495 124.852 3.14844 114.151 3.14844 101V27C3.14844 13.8495 13.8495 3.14844 27 3.14844H371C384.151 3.14844 394.852 13.8495 394.852 27V101C394.852 114.151 384.151 124.852 371 124.852H27Z" fill="#79C392" stroke="#13644D" stroke-width="5"/>
<path d="M44.7891 77.3789C45.9336 77.3789 47.0742 77.6719 48.2109 78.2539C49.3555 78.8281 49.9297 79.4727 49.9297 80.1914C49.9297 81.2969 49.4766 81.8477 48.5703 81.8477C48.2266 81.8477 47.6328 81.6367 46.7891 81.207C45.9531 80.7695 45.25 80.5508 44.6797 80.5508C42.6172 80.5508 40.8906 81.4805 39.5078 83.332C38.1328 85.1758 37.4453 87.5273 37.4453 90.3789C37.4453 92.5156 37.9062 94.3906 38.8359 96.0039C39.7734 97.6094 40.8828 98.4102 42.1641 98.4102C43.4531 98.4102 44.4648 97.9844 45.1953 97.1289C45.9219 96.2773 46.2891 95.3086 46.2891 94.2227C46.2891 93.6289 46.2461 93.1367 46.1641 92.7383C46.0781 92.3438 45.8711 91.9844 45.5391 91.6602C45.2031 91.3398 44.7617 91.1758 44.2109 91.1758C43.6562 91.1758 43.1328 91.0586 42.6328 90.8164C42.1406 90.5664 41.8984 90.2383 41.8984 89.832C41.8984 89.4258 42.0156 89.0469 42.2578 88.6914C42.4961 88.3281 42.8242 88.1094 43.2422 88.0352C44.8672 88.0352 45.9609 88.207 46.5234 88.5508C47.0938 88.8867 47.5234 89.1602 47.8047 89.3789C48.0937 89.5898 48.3359 89.9492 48.5234 90.457C48.7187 90.957 48.8711 91.375 48.9766 91.707C49.0781 92.043 49.1562 92.582 49.2109 93.332C49.2617 94.582 49.2891 96.043 49.2891 97.707C49.2891 99.375 49.168 100.402 48.9297 100.785C48.7109 101.098 48.3438 101.262 47.8359 101.27C47.3359 101.281 46.9844 101.184 46.7891 100.973C46.6016 100.754 46.4844 100.27 46.4453 99.5195C45.8594 100.02 45.1328 100.449 44.2578 100.801C43.3828 101.145 42.6094 101.316 41.9453 101.316C39.8281 101.316 38.0469 100.199 36.6016 97.957C35.1641 95.707 34.4453 93 34.4453 89.832C34.4453 88.1562 34.7187 86.5117 35.2734 84.8945C35.8242 83.2695 36.5703 81.9062 37.5078 80.8008C39.4766 78.5195 41.9023 77.3789 44.7891 77.3789Z" fill="black"/>
<path d="M53.8965 78.5352C54.3223 78.5352 54.7285 78.7383 55.1152 79.1446C55.498 79.5508 55.6934 79.9805 55.6934 80.4258C55.6934 80.8633 55.4785 81.3126 55.0527 81.7696C54.6348 82.2305 54.1973 82.4571 53.7402 82.4571C53.291 82.4571 52.8809 82.2657 52.5059 81.879C52.1309 81.4962 51.9434 81.004 51.9434 80.4102C51.9434 79.254 52.5684 78.629 53.8184 78.5352H53.8965ZM55.3965 97.3946L55.4434 99.9102C55.4434 100.371 55.2598 100.75 54.8965 101.051C54.541 101.352 54.1543 101.504 53.7402 101.504C53.1465 101.504 52.834 101.203 52.8027 100.598C52.498 92.9415 52.3496 88.7071 52.3496 87.8946C52.3496 87.0821 52.3809 86.0899 52.4434 84.9102C52.4941 84.4727 52.7715 84.254 53.2715 84.254C54.5527 84.254 55.2754 84.7696 55.4434 85.8008C55.5137 86.3321 55.5527 86.754 55.5527 87.0665L55.3965 89.3321V97.3946Z" fill="black"/>
<path d="M69.6152 84.4727C70.6777 84.4727 71.209 85.3751 71.209 87.1758V87.7852L71.1309 90.3008C71.1074 91.0938 71.0996 91.8751 71.0996 92.6446L71.6309 100.785C71.6309 101.379 71.0215 101.676 69.8027 101.676H69.2715C68.998 101.676 68.8066 101.566 68.6934 101.348C68.5879 101.141 68.5762 100.879 68.6621 100.566C68.7441 100.254 68.7168 99.9063 68.584 99.5196C67.4785 100.699 66.0098 101.285 64.1777 101.285C60.8027 101.285 59.1152 98.6719 59.1152 93.4415C59.1152 90.5352 59.6543 88.3399 60.7402 86.8477C61.834 85.3594 63.4004 84.6133 65.4434 84.6133C66.4004 84.6133 67.3574 84.7852 68.3184 85.129C68.6309 84.6915 69.0605 84.4727 69.6152 84.4727ZM65.8809 87.754C64.5059 87.754 63.4785 88.1524 62.8027 88.9415C62.1348 89.7344 61.8027 91.1876 61.8027 93.3008C61.8027 96.8555 62.7637 98.629 64.6934 98.629C65.1934 98.629 65.748 98.4024 66.3652 97.9415C66.9785 97.4844 67.4043 96.9688 67.6465 96.3946C68.0918 95.0938 68.3184 93.6758 68.3184 92.1446C68.3184 90.6055 68.1309 89.4883 67.7559 88.8008C67.3887 88.1055 66.7637 87.754 65.8809 87.754Z" fill="black"/>
<path d="M75.0566 100.176L74.666 85.5508C74.666 85.0938 74.8223 84.7227 75.1348 84.4415C75.4473 84.1524 75.7598 84.004 76.0723 84.004C76.8301 84.004 77.2754 84.3282 77.4004 84.9727C77.4941 85.6212 77.541 86.293 77.541 86.9883C78.8301 85.293 80.4512 84.4415 82.4004 84.4415C85.377 84.4415 86.8691 87.8399 86.8691 94.629V97.4571C86.8691 98.7188 86.7949 99.6368 86.6504 100.207C86.4824 100.926 85.9668 101.285 85.1035 101.285C84.5293 101.285 84.2441 100.902 84.2441 100.129L84.2754 98.1133C84.2754 95.3321 84.1816 93.4337 83.9941 92.4102C83.8145 91.3907 83.6426 90.5821 83.4785 89.9883C83.0723 88.6876 82.416 88.0352 81.5098 88.0352C80.2988 88.0352 79.4551 88.4688 78.9785 89.3321C78.4551 90.2696 78.1426 91.3751 78.041 92.6446C77.873 94.8751 77.791 97.2383 77.791 99.7383C77.791 100.219 77.6074 100.606 77.2441 100.895C76.8887 101.176 76.4629 101.316 75.9629 101.316C75.3574 101.316 75.0566 100.938 75.0566 100.176Z" fill="black"/>
<path d="M90.8594 84.4727L92.6562 84.504C93.0703 84.504 93.3008 84.4962 93.3438 84.4727V77.0977C93.3633 76.6915 93.5664 76.3438 93.9531 76.0508C94.3359 75.7618 94.6953 75.6133 95.0312 75.6133C95.375 75.6133 95.6445 75.7227 95.8438 75.9415C96.0508 76.1602 96.1406 76.5001 96.1094 76.9571C96.0859 77.4063 96.0781 79.9024 96.0781 84.4415L100.297 84.3008C101.016 84.3008 101.375 84.7188 101.375 85.5508C101.375 86.1758 101.188 86.6446 100.812 86.9571C100.438 87.2696 100.039 87.4415 99.625 87.4727C99.207 87.4962 98.7969 87.504 98.3906 87.504L96.1875 87.4571C96.1875 88.4493 96.2852 90.3946 96.4844 93.3008C96.6914 96.1993 96.8516 98.0743 96.9688 98.9258C97.0938 99.7813 97.1172 100.332 97.0469 100.582C96.9844 100.832 96.8516 101.004 96.6562 101.098C96.3438 101.246 95.9219 101.316 95.3906 101.316C94.8672 101.316 94.5625 101.031 94.4688 100.457C93.9766 97.3126 93.6484 92.9962 93.4844 87.504C93.2734 87.5274 92.4453 87.5352 91 87.5352C89.5625 87.5352 88.8438 87.1133 88.8438 86.2696C88.8438 85.0743 89.5156 84.4727 90.8594 84.4727Z" fill="black"/>
<path d="M111.307 97.6133C111.139 95.1446 111.057 91.8087 111.057 87.5977C111.057 83.379 111.119 80.6446 111.244 79.3946C111.357 78.6251 111.885 78.1133 112.822 77.8633C113.76 77.6133 114.994 77.4883 116.525 77.4883C118.783 77.4883 120.686 77.9805 122.229 78.9571C123.779 79.9258 124.557 81.3594 124.557 83.254C124.557 84.8087 124.338 86.1094 123.9 87.1602C123.471 88.2032 122.936 88.9727 122.291 89.4727C121.236 90.2969 119.682 90.7071 117.619 90.7071C116.721 90.7071 115.557 90.5899 114.119 90.3477C114.244 95.1407 114.291 98.1602 114.26 99.4102C114.236 100.66 113.822 101.285 113.01 101.285C112.479 101.285 112.139 101.191 111.994 101.004C111.846 100.809 111.748 100.668 111.697 100.582C111.654 100.5 111.607 100.375 111.557 100.207C111.514 100.043 111.479 99.9063 111.447 99.8008C111.424 99.6876 111.408 99.5274 111.4 99.3165C111.389 99.0977 111.373 98.9258 111.354 98.8008C111.322 98.4376 111.307 98.043 111.307 97.6133ZM121.572 83.3477C121.572 82.3712 121.041 81.5977 119.979 81.0352C118.924 80.4727 117.799 80.1915 116.604 80.1915C115.404 80.1915 114.564 80.3008 114.088 80.5196C113.994 81.9376 113.947 83.2383 113.947 84.4258C113.947 85.6133 113.994 86.6876 114.088 87.6446C114.732 87.7188 115.174 87.7774 115.416 87.8165C116.041 87.8907 116.572 87.9258 117.01 87.9258C117.455 87.9258 117.76 87.9219 117.916 87.9102C118.072 87.9024 118.369 87.8633 118.807 87.8008C119.252 87.7383 119.572 87.6407 119.76 87.504C119.955 87.3594 120.197 87.168 120.479 86.9258C120.768 86.6876 120.979 86.4102 121.104 86.0977C121.416 85.2344 121.572 84.3165 121.572 83.3477Z" fill="black"/>
<path d="M137.98 84.4727C139.043 84.4727 139.574 85.3751 139.574 87.1758V87.7852L139.496 90.3008C139.473 91.0938 139.465 91.8751 139.465 92.6446L139.996 100.785C139.996 101.379 139.387 101.676 138.168 101.676H137.637C137.363 101.676 137.172 101.566 137.059 101.348C136.953 101.141 136.941 100.879 137.027 100.566C137.109 100.254 137.082 99.9063 136.949 99.5196C135.844 100.699 134.375 101.285 132.543 101.285C129.168 101.285 127.48 98.6719 127.48 93.4415C127.48 90.5352 128.02 88.3399 129.105 86.8477C130.199 85.3594 131.766 84.6133 133.809 84.6133C134.766 84.6133 135.723 84.7852 136.684 85.129C136.996 84.6915 137.426 84.4727 137.98 84.4727ZM134.246 87.754C132.871 87.754 131.844 88.1524 131.168 88.9415C130.5 89.7344 130.168 91.1876 130.168 93.3008C130.168 96.8555 131.129 98.629 133.059 98.629C133.559 98.629 134.113 98.4024 134.73 97.9415C135.344 97.4844 135.77 96.9688 136.012 96.3946C136.457 95.0938 136.684 93.6758 136.684 92.1446C136.684 90.6055 136.496 89.4883 136.121 88.8008C135.754 88.1055 135.129 87.754 134.246 87.754Z" fill="black"/>
<path d="M143.422 100.176L143.031 85.5508C143.031 85.0938 143.188 84.7227 143.5 84.4415C143.812 84.1524 144.125 84.004 144.438 84.004C145.195 84.004 145.641 84.3282 145.766 84.9727C145.859 85.6212 145.906 86.293 145.906 86.9883C147.195 85.293 148.816 84.4415 150.766 84.4415C153.742 84.4415 155.234 87.8399 155.234 94.629V97.4571C155.234 98.7188 155.16 99.6368 155.016 100.207C154.848 100.926 154.332 101.285 153.469 101.285C152.895 101.285 152.609 100.902 152.609 100.129L152.641 98.1133C152.641 95.3321 152.547 93.4337 152.359 92.4102C152.18 91.3907 152.008 90.5821 151.844 89.9883C151.438 88.6876 150.781 88.0352 149.875 88.0352C148.664 88.0352 147.82 88.4688 147.344 89.3321C146.82 90.2696 146.508 91.3751 146.406 92.6446C146.238 94.8751 146.156 97.2383 146.156 99.7383C146.156 100.219 145.973 100.606 145.609 100.895C145.254 101.176 144.828 101.316 144.328 101.316C143.723 101.316 143.422 100.938 143.422 100.176Z" fill="black"/>
<path d="M166.926 84.4414L166.895 77.4883C166.895 76.1992 167.305 75.5508 168.129 75.5508C168.961 75.5508 169.426 75.9102 169.52 76.6289C169.57 76.9414 169.633 78.8281 169.707 82.2852C169.777 85.7344 169.887 88.9727 170.035 92.0039C170.191 95.0273 170.27 97.8438 170.27 100.457C170.27 101.176 169.73 101.535 168.66 101.535C167.941 101.535 167.582 101.031 167.582 100.02C166.551 100.844 165.324 101.254 163.91 101.254C162.105 101.254 160.648 100.582 159.535 99.2383C158.418 97.8945 157.863 96.2383 157.863 94.2695C157.863 92.3008 158.262 90.457 159.066 88.7383C159.867 87.0195 161.121 85.793 162.832 85.0508C163.883 84.5938 164.898 84.3633 165.879 84.3633C166.242 84.3633 166.59 84.3906 166.926 84.4414ZM167.129 89.3633C166.949 88.8438 166.742 88.4492 166.504 88.1758C166.262 87.8945 166.004 87.7227 165.723 87.6602C165.449 87.5977 165.121 87.5664 164.738 87.5664C164.352 87.5664 163.883 87.7148 163.332 88.0039C162.777 88.2852 162.309 88.7539 161.926 89.4102C161.152 90.7031 160.77 92.0625 160.77 93.4883C160.77 94.918 161.051 96.082 161.613 96.9883C162.184 97.8867 162.992 98.332 164.035 98.332C165.074 98.332 165.895 97.8164 166.488 96.7852C167.09 95.7539 167.395 94.4375 167.395 92.832C167.395 91.0312 167.305 89.875 167.129 89.3633Z" fill="black"/>
<path d="M182.402 84.4727C183.465 84.4727 183.996 85.3751 183.996 87.1758V87.7852L183.918 90.3008C183.895 91.0938 183.887 91.8751 183.887 92.6446L184.418 100.785C184.418 101.379 183.809 101.676 182.59 101.676H182.059C181.785 101.676 181.594 101.566 181.48 101.348C181.375 101.141 181.363 100.879 181.449 100.566C181.531 100.254 181.504 99.9063 181.371 99.5196C180.266 100.699 178.797 101.285 176.965 101.285C173.59 101.285 171.902 98.6719 171.902 93.4415C171.902 90.5352 172.441 88.3399 173.527 86.8477C174.621 85.3594 176.187 84.6133 178.23 84.6133C179.187 84.6133 180.145 84.7852 181.105 85.129C181.418 84.6915 181.848 84.4727 182.402 84.4727ZM178.668 87.754C177.293 87.754 176.266 88.1524 175.59 88.9415C174.922 89.7344 174.59 91.1876 174.59 93.3008C174.59 96.8555 175.551 98.629 177.48 98.629C177.98 98.629 178.535 98.4024 179.152 97.9415C179.766 97.4844 180.191 96.9688 180.434 96.3946C180.879 95.0938 181.105 93.6758 181.105 92.1446C181.105 90.6055 180.918 89.4883 180.543 88.8008C180.176 88.1055 179.551 87.754 178.668 87.754Z" fill="black"/>
<path d="M265.797 29.5703C265.797 29.5703 285.332 19.625 289.34 18.8398C293.348 18.0508 309.5 20.1797 324.277 31.9492C339.051 43.7226 354.828 57.9961 350.824 74.2734C346.816 90.5547 347.566 107.332 325.777 111.59C303.992 115.848 263.922 112.34 262.043 111.59C260.164 110.84 242.633 64.2578 242.633 64.2578C242.633 64.2578 254.906 34.7031 265.797 29.5703Z" fill="#F8F2EC"/>
<path d="M237.249 64.8827C237.249 64.8827 222.472 54.6132 226.729 41.5937C230.987 28.5702 238.983 25.5624 240.37 25.4374C242.757 24.8124 257.257 32.2304 256.78 35.3319C256.226 38.9569 248.14 67.1796 237.249 64.8827ZM304.788 21.328C304.788 21.328 305.366 11.789 310.124 11.039C314.886 10.289 328.804 20.6874 320.089 28.8866C304.866 21.3046 307.464 21.0937 304.788 21.328Z" fill="#030000"/>
<path d="M289.34 72.4492C289.34 72.4492 286.711 75.0274 281.953 71.2696C277.195 67.5117 280.449 62.8985 281.953 60.6953C283.453 58.4961 284.957 55.2422 284.957 51.9844C284.957 48.7305 292.968 43.7227 294.972 47.9805C298.23 51.7344 296.976 67.8711 289.34 72.4492Z" fill="#3D4657"/>
<path d="M292.202 52.9922C292.202 52.9922 288.3 52.5586 286.566 55.1602C284.831 57.7617 293.378 56.0273 294.308 55.1602C295.237 54.2969 293.937 52.9922 292.202 52.9922Z" fill="#191D21"/>
<path d="M332.663 64.3828C332.663 64.3828 330.409 57.8711 327.905 55.3672C325.401 52.8633 321.648 48.8555 320.394 47.3516C319.14 45.8477 318.39 41.8437 318.64 40.8398C318.89 39.8398 324.101 41.5195 325.628 44.8125C327.155 48.1016 326.905 48.3555 328.659 49.8555C330.409 51.3594 334.667 55.6172 334.667 56.8672C335.167 58.6211 334.417 65.1328 332.663 64.3828Z" fill="#3D4657"/>
<path d="M322.023 47.6406C322.023 47.6406 323.152 46.5078 324.66 46.5078C326.172 46.5078 327.305 47.6406 325.418 48.3945C323.531 49.1484 322.398 48.0156 322.023 47.6406Z" fill="#191D21"/>
<path d="M320.393 63.8828C320.393 63.8828 317.639 63.8828 316.135 64.1328C314.631 64.3828 311.252 66.0117 310.502 66.7617C309.748 67.5117 306.994 69.875 310.502 70.9453C314.006 72.0195 316.26 71.7695 317.01 72.0195C317.764 72.2695 321.073 73.3125 321.073 73.3125C321.073 73.3125 323.772 71.2695 324.276 70.7695C324.776 70.2656 332.287 66.7617 330.033 63.2539C327.78 59.75 321.018 63.7578 320.393 63.8828Z" fill="#3D4657"/>
<path d="M317.764 66.5117C317.764 66.5117 313.506 66.0117 312.377 66.5117C311.252 67.0117 310.498 69.5156 313.506 69.5156C316.51 70.0156 322.772 68.7656 317.764 66.5117ZM323.272 67.0117L326.385 64.4414C326.385 64.4414 328.03 63.2539 328.53 64.0078C329.034 64.7578 328.53 68.2617 323.272 67.0117Z" fill="#191D21"/>
<path d="M313.883 95.4375C313.883 95.4375 307.621 91.9297 306.371 87.6719C305.117 83.4141 319.015 82.0391 321.519 77.0312C327.781 80.5352 328.586 80.6602 328.683 81.8516C328.785 83.0391 326.531 87.2969 329.035 90.0508C332.289 94.5586 319.769 97.0664 313.883 95.4375Z" fill="#030000"/>
<path d="M315.246 94.2461C315.246 94.2461 309.993 91.1836 308.942 87.4609C307.891 83.7383 319.555 82.5352 321.657 78.1562C326.911 81.2227 327.586 81.332 327.668 82.3711C327.754 83.4102 325.86 87.1328 327.961 89.5391C330.696 93.4805 320.184 95.6719 315.246 94.2461Z" fill="#191D21"/>
<path d="M309.5 87.7969L315.012 93.8086C315.012 93.8086 326.781 94.0586 327.031 92.3047C327.281 90.5547 323.273 80.0156 323.273 80.0156L321.77 80.2852C321.77 80.2852 323.523 86.2969 324.023 87.2969C324.527 88.3008 324.777 89.8008 324.777 89.8008C324.777 89.8008 319.77 91.8047 317.266 91.0547C314.758 90.3008 310 86.0469 310 86.0469L309.5 87.7969Z" fill="#D8D8DE"/>
<path d="M30.662 23.138C30.962 23.138 31.214 23.27 31.418 23.534C31.622 23.798 31.886 24.344 32.21 25.172C32.966 27.128 33.704 30.194 34.424 34.37C34.436 34.418 34.442 34.49 34.442 34.586C34.442 34.67 34.382 34.766 34.262 34.874C34.154 34.97 33.992 35.018 33.776 35.018C33.572 35.018 33.398 34.97 33.254 34.874C33.11 34.766 33.014 34.598 32.966 34.37C32.918 34.13 32.828 33.668 32.696 32.984C32.408 31.46 32.216 30.668 32.12 30.608C31.976 30.524 31.496 30.434 30.68 30.338C29.876 30.242 29.342 30.194 29.078 30.194C28.814 30.194 28.658 30.218 28.61 30.266C28.394 30.458 28.1 31.916 27.728 34.64C27.68 34.868 27.452 34.982 27.044 34.982C26.636 34.982 26.432 34.808 26.432 34.46C26.432 33.596 26.75 31.946 27.386 29.51C28.022 27.074 28.55 25.46 28.97 24.668C29.498 23.648 30.062 23.138 30.662 23.138ZM30.59 25.136C30.41 25.136 30.098 25.67 29.654 26.738C29.21 27.794 28.988 28.448 28.988 28.7C28.988 28.76 29 28.802 29.024 28.826C29.12 28.922 29.498 29.006 30.158 29.078C30.818 29.15 31.256 29.186 31.472 29.186C31.688 29.186 31.808 29.174 31.832 29.15C31.856 29.114 31.868 29.018 31.868 28.862C31.868 28.694 31.706 28.034 31.382 26.882C31.058 25.718 30.794 25.136 30.59 25.136ZM35.7791 28.88C35.7791 28.172 36.0311 27.608 36.5351 27.188C37.0391 26.768 37.6211 26.558 38.2811 26.558C38.9531 26.558 39.5951 26.678 40.2071 26.918C40.8191 27.158 41.1251 27.476 41.1251 27.872C41.1251 28.076 41.0471 28.238 40.8911 28.358C40.7351 28.478 40.5971 28.538 40.4771 28.538C40.3691 28.538 40.2791 28.538 40.2071 28.538C40.1471 28.526 39.9071 28.412 39.4871 28.196C39.0791 27.98 38.7011 27.872 38.3531 27.872C38.0051 27.872 37.7051 27.962 37.4531 28.142C37.2131 28.31 37.0931 28.562 37.0931 28.898C37.0931 29.234 37.2311 29.498 37.5071 29.69C37.7951 29.882 38.2931 30.05 39.0011 30.194C39.7091 30.326 40.2491 30.518 40.6211 30.77C41.0051 31.022 41.1971 31.49 41.1971 32.174C41.1971 33.17 40.9331 33.878 40.4051 34.298C39.8891 34.706 39.2591 34.91 38.5151 34.91C37.7711 34.91 37.1351 34.808 36.6071 34.604C36.0911 34.4 35.8331 34.094 35.8331 33.686C35.8331 33.218 36.0671 32.984 36.5351 32.984C36.6551 32.984 36.9191 33.068 37.3271 33.236C37.7351 33.404 38.1371 33.488 38.5331 33.488C38.9411 33.488 39.2471 33.362 39.4511 33.11C39.6671 32.846 39.7751 32.546 39.7751 32.21C39.7751 31.874 39.6371 31.634 39.3611 31.49C39.0851 31.334 38.6651 31.208 38.1011 31.112C37.5371 31.016 37.1231 30.914 36.8591 30.806C36.1391 30.518 35.7791 29.876 35.7791 28.88ZM43.5868 23.624C43.8028 23.624 44.0068 23.726 44.1988 23.93C44.3908 24.134 44.4868 24.35 44.4868 24.578C44.4868 24.794 44.3788 25.016 44.1628 25.244C43.9588 25.472 43.7428 25.586 43.5148 25.586C43.2868 25.586 43.0768 25.49 42.8848 25.298C42.7048 25.106 42.6148 24.86 42.6148 24.56C42.6148 23.984 42.9268 23.672 43.5508 23.624C43.5628 23.624 43.5748 23.624 43.5868 23.624ZM44.3428 33.056L44.3608 34.316C44.3608 34.544 44.2708 34.736 44.0908 34.892C43.9108 35.036 43.7188 35.108 43.5148 35.108C43.2148 35.108 43.0588 34.958 43.0468 34.658C42.8908 30.83 42.8128 28.712 42.8128 28.304C42.8128 27.896 42.8308 27.398 42.8668 26.81C42.8908 26.594 43.0288 26.486 43.2808 26.486C43.9168 26.486 44.2768 26.744 44.3608 27.26C44.3968 27.524 44.4148 27.734 44.4148 27.89L44.3428 29.024V33.056ZM51.4462 26.594C51.9742 26.594 52.2382 27.044 52.2382 27.944C52.2382 28.04 52.2382 28.142 52.2382 28.25L52.2022 29.51C52.1902 29.906 52.1842 30.296 52.1842 30.68L52.4542 34.748C52.4542 35.048 52.1482 35.198 51.5362 35.198C51.5002 35.198 51.4102 35.198 51.2662 35.198C51.1342 35.198 51.0382 35.144 50.9782 35.036C50.9302 34.928 50.9242 34.796 50.9602 34.64C51.0082 34.484 50.9962 34.31 50.9242 34.118C50.3722 34.706 49.6402 35 48.7282 35C47.0362 35 46.1902 33.692 46.1902 31.076C46.1902 29.624 46.4602 28.526 47.0002 27.782C47.5522 27.038 48.3382 26.666 49.3582 26.666C49.8382 26.666 50.3182 26.75 50.7982 26.918C50.9542 26.702 51.1702 26.594 51.4462 26.594ZM49.5742 28.232C48.8902 28.232 48.3802 28.43 48.0442 28.826C47.7082 29.222 47.5402 29.948 47.5402 31.004C47.5402 32.78 48.0202 33.668 48.9802 33.668C49.2322 33.668 49.5082 33.554 49.8082 33.326C50.1202 33.098 50.3362 32.84 50.4562 32.552C50.6842 31.904 50.7982 31.196 50.7982 30.428C50.7982 29.66 50.7022 29.102 50.5102 28.754C50.3302 28.406 50.0182 28.232 49.5742 28.232Z" fill="black"/>
</svg>
