<svg width="398" height="128" viewBox="0 0 398 128" fill="none" xmlns="http://www.w3.org/2000/svg">
<path d="M27.0005 124.852C13.8499 124.852 3.14893 114.151 3.14893 101V27.0001C3.14893 13.8495 13.8499 3.1485 27.0005 3.1485H371C384.151 3.1485 394.852 13.8495 394.852 27.0001V101C394.852 114.151 384.151 124.852 371 124.852H27.0005Z" fill="#79C392" stroke="#13644D" stroke-width="5"/>
<path d="M37.1484 99.7383C37.1484 100.168 36.9531 100.559 36.5703 100.91C36.1836 101.254 35.7656 101.426 35.3203 101.426C34.8828 101.426 34.5781 101.141 34.4141 100.566C34.3398 97.4023 34.3047 94.2461 34.3047 91.0977L34.1953 82.0195C34.1953 80.1992 35 78.9531 36.6172 78.2852C37.9062 77.6836 39.4453 77.3789 41.2266 77.3789C42.1328 77.3789 43.1055 77.6055 44.1484 78.0508C45.1992 78.4883 46.1367 79.1367 46.9609 79.9883C47.793 80.8438 48.2109 81.7695 48.2109 82.7695C48.2109 83.7617 47.75 84.8281 46.8359 85.9727C45.918 87.1094 44.7891 88.1133 43.4453 88.9883C42.1016 89.8633 40.793 90.5195 39.5234 90.957C41.7617 92.5195 43.7031 94.1992 45.3516 95.9883C47.0078 97.7695 47.8359 99.1523 47.8359 100.129C47.8359 100.441 47.6797 100.738 47.3672 101.02C47.0625 101.289 46.6875 101.426 46.2422 101.426C45.793 101.426 45.4141 101.234 45.1016 100.848C44.5781 99.5781 43.5781 98.2461 42.1016 96.8477C40.6211 95.4414 38.8984 94.1055 36.9297 92.832L37.1484 99.7383ZM37.0078 88.9414C38.6094 88.8711 40.4141 88.1992 42.4141 86.9258C44.4219 85.6562 45.4297 84.5117 45.4297 83.4883C45.4297 82.4688 44.9219 81.6836 43.9141 81.1289C42.9141 80.5781 41.7187 80.3008 40.3359 80.3008C38.9609 80.3008 37.8594 80.4688 37.0391 80.8008C37.0156 82.0312 37.0078 84.7461 37.0078 88.9414Z" fill="black"/>
<path d="M56.9453 84.5039C58.6719 84.5039 60.0938 85.332 61.2109 86.9883C62.3359 88.6445 62.8984 90.6367 62.8984 92.957C62.8984 95.2695 62.3242 97.2461 61.1797 98.8789C60.043 100.504 58.5312 101.316 56.6484 101.316C54.7617 101.316 53.2422 100.484 52.0859 98.8164C50.9375 97.1523 50.3672 95.2969 50.3672 93.2539C50.3672 90.6406 50.8906 88.5508 51.9453 86.9883C53.0703 85.332 54.7344 84.5039 56.9453 84.5039ZM56.5234 87.457C55.5117 87.457 54.6836 87.9883 54.0391 89.0508C53.3906 90.1055 53.0703 91.2188 53.0703 92.3945C53.0703 94.2188 53.4297 95.6094 54.1484 96.5664C54.8672 97.5273 55.6797 98.0039 56.5859 98.0039C58.2187 98.0039 59.2656 97.2969 59.7266 95.8789C59.9141 95.2148 60.0078 94.375 60.0078 93.3633C60.0078 89.4258 58.8438 87.457 56.5234 87.457Z" fill="black"/>
<path d="M76.5781 84.6602C76.8789 84.6602 77.1797 84.7695 77.4844 84.9883C77.7852 85.1992 77.9375 85.4336 77.9375 85.6914C77.9375 86.3906 76.9141 90.1602 74.875 97.0039C72.832 103.836 71.3203 108.633 70.3438 111.395C70.125 112.051 69.7852 112.379 69.3281 112.379C68.8789 112.379 68.5195 112.211 68.25 111.879C67.9883 111.555 67.8594 111.082 67.8594 110.457C67.8594 109.84 68.2578 108.352 69.0625 105.988C69.8633 103.621 70.3477 102.117 70.5156 101.473C69.9219 100.465 67.8945 95.4219 64.4375 86.3477C64.3828 86.2227 64.3594 86.0664 64.3594 85.8789C64.3594 85.6836 64.5039 85.4336 64.7969 85.1289C65.0859 84.8164 65.4844 84.6602 65.9844 84.6602C66.4922 84.6602 66.8984 84.9102 67.2031 85.4102C67.5469 86.2773 68.0977 87.7813 68.8594 89.9258C69.6289 92.0742 70.2227 93.6289 70.6406 94.5977C71.0664 95.5586 71.4727 96.5508 71.8594 97.582C72.1914 96.4492 72.7656 94.2539 73.5781 91.0039C74.3984 87.7539 74.8672 85.9023 74.9844 85.4414C75.0781 84.9219 75.6094 84.6602 76.5781 84.6602Z" fill="black"/>
<path d="M90.3525 84.4727C91.415 84.4727 91.9463 85.375 91.9463 87.1758V87.7852L91.8682 90.3008C91.8447 91.0938 91.8369 91.875 91.8369 92.6445L92.3682 100.785C92.3682 101.379 91.7588 101.676 90.54 101.676H90.0088C89.7354 101.676 89.5439 101.566 89.4307 101.348C89.3252 101.141 89.3135 100.879 89.3994 100.566C89.4814 100.254 89.4541 99.9062 89.3213 99.5195C88.2158 100.699 86.7471 101.285 84.915 101.285C81.54 101.285 79.8525 98.6719 79.8525 93.4414C79.8525 90.5352 80.3916 88.3398 81.4775 86.8477C82.5713 85.3594 84.1377 84.6133 86.1807 84.6133C87.1377 84.6133 88.0947 84.7852 89.0557 85.1289C89.3682 84.6914 89.7979 84.4727 90.3525 84.4727ZM86.6182 87.7539C85.2432 87.7539 84.2158 88.1523 83.54 88.9414C82.8721 89.7344 82.54 91.1875 82.54 93.3008C82.54 96.8555 83.501 98.6289 85.4307 98.6289C85.9307 98.6289 86.4854 98.4023 87.1025 97.9414C87.7158 97.4844 88.1416 96.9688 88.3838 96.3945C88.8291 95.0938 89.0557 93.6758 89.0557 92.1445C89.0557 90.6055 88.8682 89.4883 88.4932 88.8008C88.126 88.1055 87.501 87.7539 86.6182 87.7539Z" fill="black"/>
<path d="M94.3408 77.9883C94.4033 77.082 94.5439 76.4961 94.7627 76.2227C94.9893 75.9414 95.3604 75.8008 95.8721 75.8008C96.9033 75.8008 97.4189 76.2188 97.4189 77.0508C97.4189 77.707 97.3604 79.4063 97.2471 82.1445C97.1416 84.875 97.0908 87.3242 97.0908 89.4883C97.0908 91.6445 97.1729 93.3789 97.3408 94.6914C97.6299 97.0039 98.0361 98.1602 98.5596 98.1602C99.0908 98.1602 99.4893 97.7852 99.7627 97.0352C99.876 96.7461 100.063 96.4883 100.325 96.2695C100.595 96.043 100.935 95.9258 101.341 95.9258C102.185 95.9258 102.606 96.6367 102.606 98.0508C102.606 98.8125 102.188 99.5742 101.356 100.332C100.532 101.094 99.708 101.473 98.8877 101.473C98.0752 101.473 97.4189 101.336 96.9189 101.066C96.4268 100.785 96.0322 100.371 95.7314 99.8164C95.4385 99.2656 95.2002 98.7305 95.0127 98.207C94.833 97.6875 94.708 97.0586 94.6377 96.3164C94.501 95.1211 94.4033 93.1992 94.3408 90.5508C94.2783 87.8945 94.2471 85.3633 94.2471 82.957C94.2471 80.543 94.2783 78.8867 94.3408 77.9883Z" fill="black"/>
<path d="M112.962 97.6133C112.794 95.1445 112.712 91.8086 112.712 87.5977C112.712 83.3789 112.774 80.6445 112.899 79.3945C113.013 78.625 113.54 78.1133 114.478 77.8633C115.415 77.6133 116.649 77.4883 118.181 77.4883C120.438 77.4883 122.341 77.9805 123.884 78.957C125.435 79.9258 126.212 81.3594 126.212 83.2539C126.212 84.8086 125.993 86.1094 125.556 87.1602C125.126 88.2031 124.591 88.9727 123.946 89.4727C122.892 90.2969 121.337 90.707 119.274 90.707C118.376 90.707 117.212 90.5898 115.774 90.3477C115.899 95.1406 115.946 98.1602 115.915 99.4102C115.892 100.66 115.478 101.285 114.665 101.285C114.134 101.285 113.794 101.191 113.649 101.004C113.501 100.809 113.403 100.668 113.353 100.582C113.31 100.5 113.263 100.375 113.212 100.207C113.169 100.043 113.134 99.9062 113.103 99.8008C113.079 99.6875 113.063 99.5273 113.056 99.3164C113.044 99.0977 113.028 98.9258 113.009 98.8008C112.978 98.4375 112.962 98.043 112.962 97.6133ZM123.228 83.3477C123.228 82.3711 122.696 81.5977 121.634 81.0352C120.579 80.4727 119.454 80.1914 118.259 80.1914C117.06 80.1914 116.22 80.3008 115.743 80.5195C115.649 81.9375 115.603 83.2383 115.603 84.4258C115.603 85.6133 115.649 86.6875 115.743 87.6445C116.388 87.7188 116.829 87.7773 117.071 87.8164C117.696 87.8906 118.228 87.9258 118.665 87.9258C119.11 87.9258 119.415 87.9219 119.571 87.9102C119.728 87.9023 120.024 87.8633 120.462 87.8008C120.907 87.7383 121.228 87.6406 121.415 87.5039C121.61 87.3594 121.853 87.168 122.134 86.9258C122.423 86.6875 122.634 86.4102 122.759 86.0977C123.071 85.2344 123.228 84.3164 123.228 83.3477Z" fill="black"/>
<path d="M134.779 84.6133C136.049 84.6133 137.264 84.9883 138.42 85.7383C139.576 86.4805 140.154 87.3945 140.154 88.4883C140.154 89.582 139.686 90.6406 138.748 91.6602C137.811 92.6836 136.561 93.2969 134.998 93.5039C134.33 93.6094 133.326 93.6602 131.982 93.6602C132.24 95.6914 132.756 97.0352 133.529 97.6914C133.768 97.9531 134.092 98.082 134.498 98.082C135.986 98.082 137.232 97.6094 138.232 96.6602C139.24 95.7148 139.967 95.2383 140.404 95.2383C140.592 95.2383 140.877 95.4219 141.264 95.7852C141.646 96.1406 141.842 96.4727 141.842 96.7852C141.842 97.4102 141.084 98.3125 139.576 99.4883C138.896 100.043 138.084 100.504 137.139 100.879C136.189 101.246 135.311 101.426 134.498 101.426C132.404 101.426 130.865 100.082 129.889 97.3945C129.264 95.7383 128.951 93.918 128.951 91.9258C128.951 89.9375 129.42 88.2227 130.357 86.7852C131.295 85.3398 132.768 84.6133 134.779 84.6133ZM134.967 87.0977C134.049 87.0977 133.268 87.6133 132.623 88.6445C132.381 89.0117 132.154 89.8281 131.936 91.0977C135.299 91.0977 136.982 90.2695 136.982 88.6133C136.982 87.6055 136.311 87.0977 134.967 87.0977Z" fill="black"/>
<path d="M145.293 100.176L144.902 85.5508C144.902 85.0938 145.059 84.7227 145.371 84.4414C145.684 84.1523 145.996 84.0039 146.309 84.0039C147.066 84.0039 147.512 84.3281 147.637 84.9727C147.73 85.6211 147.777 86.293 147.777 86.9883C149.066 85.293 150.688 84.4414 152.637 84.4414C155.613 84.4414 157.105 87.8398 157.105 94.6289V97.457C157.105 98.7188 157.031 99.6367 156.887 100.207C156.719 100.926 156.203 101.285 155.34 101.285C154.766 101.285 154.48 100.902 154.48 100.129L154.512 98.1133C154.512 95.332 154.418 93.4336 154.23 92.4102C154.051 91.3906 153.879 90.582 153.715 89.9883C153.309 88.6875 152.652 88.0352 151.746 88.0352C150.535 88.0352 149.691 88.4688 149.215 89.332C148.691 90.2695 148.379 91.375 148.277 92.6445C148.109 94.875 148.027 97.2383 148.027 99.7383C148.027 100.219 147.844 100.605 147.48 100.895C147.125 101.176 146.699 101.316 146.199 101.316C145.594 101.316 145.293 100.938 145.293 100.176Z" fill="black"/>
<path d="M170.534 99.8164C169.667 100.816 168.573 101.316 167.253 101.316C165.929 101.316 164.788 100.91 163.831 100.098C161.819 98.5352 160.815 96.1445 160.815 92.9258C160.815 90.418 161.507 88.4023 162.894 86.8789C164.288 85.3477 166.007 84.582 168.05 84.582C170.089 84.582 171.479 85.2813 172.222 86.6758C172.866 87.8945 173.19 89.7383 173.19 92.207L173.128 95.1602C173.128 96.5586 173.19 98.4844 173.315 100.941C173.448 103.398 173.519 105.254 173.519 106.504C173.519 108.566 173.007 110.082 171.987 111.051C170.964 112.027 169.413 112.52 167.331 112.52C166.081 112.52 164.804 112.254 163.503 111.723C162.21 111.191 161.565 110.582 161.565 109.895C161.565 109.383 161.698 108.996 161.972 108.738C162.253 108.477 162.569 108.348 162.925 108.348C163.288 108.348 164.101 108.605 165.362 109.129C166.62 109.66 167.526 109.926 168.081 109.926C169.808 109.926 170.675 108.508 170.675 105.676C170.675 102.84 170.628 100.891 170.534 99.8164ZM170.487 92.1914C170.487 90.4531 170.226 89.2305 169.706 88.5195C169.194 87.8125 168.386 87.457 167.284 87.457C166.179 87.457 165.288 87.9648 164.612 88.9727C163.944 89.9844 163.612 91.2656 163.612 92.8164C163.612 94.3594 163.929 95.5898 164.565 96.5039C165.21 97.4102 166.19 97.8633 167.503 97.8633C168.823 97.8633 169.679 97.3008 170.065 96.1758C170.347 95.2617 170.487 93.9336 170.487 92.1914Z" fill="black"/>
<path d="M176.148 85.8789C176.242 85.4727 176.445 85.1367 176.758 84.8633C177.07 84.582 177.387 84.4414 177.711 84.4414C178.031 84.4414 178.281 84.5039 178.461 84.6289C178.648 84.7461 178.758 84.8477 178.789 84.9414C178.828 85.0352 178.871 85.2031 178.914 85.4414C178.777 87.3164 178.711 89.0039 178.711 90.5039C178.711 92.0039 178.887 93.7227 179.242 95.6602C179.605 97.5898 180 98.5508 180.43 98.5508C181.074 98.5508 181.898 98.1914 182.898 97.4727C183.898 96.7539 184.609 96 185.039 95.207C184.746 91.75 184.602 88.7852 184.602 86.3164C184.602 85.8086 184.762 85.375 185.086 85.0195C185.418 84.6563 185.809 84.4727 186.258 84.4727C187.008 84.4727 187.383 84.9805 187.383 85.9883C187.383 87.6875 187.508 90.2188 187.758 93.582C188.008 96.9492 188.266 99.082 188.539 99.9883C188.578 100.176 188.602 100.402 188.602 100.66C188.602 100.91 188.438 101.152 188.117 101.379C187.793 101.605 187.371 101.723 186.852 101.723C186.34 101.723 186 101.43 185.836 100.848C185.781 100.371 185.664 99.6523 185.477 98.6914C183.789 100.441 182.094 101.316 180.398 101.316C179.605 101.316 178.898 101.02 178.273 100.426C177.648 99.8242 177.152 99.0039 176.789 97.9727C176.172 95.9844 175.867 94.1133 175.867 92.3633C175.867 90.6055 175.961 88.4414 176.148 85.8789Z" fill="black"/>
<path d="M193 78.5352C193.426 78.5352 193.832 78.7383 194.219 79.1445C194.602 79.5508 194.797 79.9805 194.797 80.4258C194.797 80.8633 194.582 81.3125 194.156 81.7695C193.738 82.2305 193.301 82.457 192.844 82.457C192.395 82.457 191.984 82.2656 191.609 81.8789C191.234 81.4961 191.047 81.0039 191.047 80.4102C191.047 79.2539 191.672 78.6289 192.922 78.5352H193ZM194.5 97.3945L194.547 99.9102C194.547 100.371 194.363 100.75 194 101.051C193.645 101.352 193.258 101.504 192.844 101.504C192.25 101.504 191.937 101.203 191.906 100.598C191.602 92.9414 191.453 88.707 191.453 87.8945C191.453 87.082 191.484 86.0898 191.547 84.9102C191.598 84.4727 191.875 84.2539 192.375 84.2539C193.656 84.2539 194.379 84.7695 194.547 85.8008C194.617 86.332 194.656 86.7539 194.656 87.0664L194.5 89.332V97.3945Z" fill="black"/>
<path d="M200.05 100.176L199.659 85.5508C199.659 85.0938 199.815 84.7227 200.128 84.4414C200.44 84.1523 200.753 84.0039 201.065 84.0039C201.823 84.0039 202.269 84.3281 202.394 84.9727C202.487 85.6211 202.534 86.293 202.534 86.9883C203.823 85.293 205.444 84.4414 207.394 84.4414C210.37 84.4414 211.862 87.8398 211.862 94.6289V97.457C211.862 98.7188 211.788 99.6367 211.644 100.207C211.476 100.926 210.96 101.285 210.097 101.285C209.522 101.285 209.237 100.902 209.237 100.129L209.269 98.1133C209.269 95.332 209.175 93.4336 208.987 92.4102C208.808 91.3906 208.636 90.582 208.472 89.9883C208.065 88.6875 207.409 88.0352 206.503 88.0352C205.292 88.0352 204.448 88.4688 203.972 89.332C203.448 90.2695 203.136 91.375 203.034 92.6445C202.866 94.875 202.784 97.2383 202.784 99.7383C202.784 100.219 202.601 100.605 202.237 100.895C201.882 101.176 201.456 101.316 200.956 101.316C200.351 101.316 200.05 100.938 200.05 100.176Z" fill="black"/>
<path d="M304.758 106.25L294.754 113.109L315.989 110.836L304.758 106.25ZM338.86 105.43L348.864 112.289L327.633 110.012L338.86 105.43Z" fill="#FF6728"/>
<path d="M330.646 110.75H313.388C297.567 110.75 284.622 97.8047 283.802 81.6875L282.571 49.2227C283.388 30.7852 299.946 15 318.681 15H319.708C341.544 15 360.646 33.4336 361.47 55.2734L360.235 81.9844C359.411 97.8047 346.47 110.75 330.646 110.75Z" fill="#050400"/>
<path d="M356.945 54.2462C356.945 43.4649 348.207 34.7266 337.426 34.7266C331.16 34.7266 325.586 37.6797 322.016 42.2696C318.445 37.6797 312.871 34.7266 306.605 34.7266C295.824 34.7266 287.086 43.4649 287.086 54.2462C287.086 58.9219 288.73 63.211 291.473 66.5704C290.066 70.3321 289.598 74.4297 290.375 78.6954C295.145 104.938 310.055 109.922 322.426 110.75C337.465 111.762 348.371 106.008 354.48 78.6954C355.512 74.0821 354.969 69.6485 353.281 65.6251C355.586 62.4219 356.945 58.4922 356.945 54.2462Z" fill="white"/>
<path d="M303.996 54.9649C304.559 51.1133 311.777 48.4805 314.934 50.5508C315.484 50.9493 315.824 51.6133 315.789 52.2227C314.398 48.8243 305.172 52.4336 303.996 54.9649ZM340.035 54.9649C338.871 52.4493 329.641 48.8165 328.242 52.2227C328.207 51.6133 328.547 50.9493 329.094 50.5508C332.246 48.4844 339.469 51.1055 340.035 54.9649Z" fill="#050400"/>
<path d="M321.606 65.1367L315.297 60.4102L321.196 56.0938L327.504 60.4102L321.606 65.1367Z" fill="#FF6728"/>
<path d="M315.442 60.6133C319.341 62.0781 323.458 62.0703 327.36 60.6133C324.142 63.4766 318.661 63.4727 315.442 60.6133Z" fill="black"/>
<path d="M282.57 62.2579C282.57 62.2579 265.07 77.6797 269.824 79.1094C280.008 82.168 288.445 71.6407 285.441 70.8907C285.441 70.8907 285.449 59.793 282.57 62.2579Z" fill="#050400"/>
<path d="M280.759 66.9727C280.759 66.9727 269.56 76.8399 272.603 77.754C279.118 79.7149 284.517 72.9766 282.595 72.4962C282.595 72.4962 282.603 65.3946 280.759 66.9727Z" fill="white"/>
<path d="M360.438 63.0822C360.438 63.0822 377.938 78.5001 373.18 79.9298C363.001 82.9923 354.559 72.4611 357.567 71.7111C357.567 71.7111 357.555 60.6134 360.438 63.0822Z" fill="#050400"/>
<path d="M362.25 67.793C362.25 67.793 373.449 77.6602 370.406 78.5782C363.891 80.5352 358.488 73.7969 360.414 73.3165C360.414 73.3165 360.406 66.2149 362.25 67.793Z" fill="white"/>
<path d="M298.633 22C298.633 22 299.18 21.9844 300.09 21.9844C299.512 21.9492 299.012 21.9492 298.633 22ZM312.028 21.957C312.028 21.957 314.008 22.3672 316.063 22.9297C315.09 22.2695 313.747 21.75 312.028 21.957ZM292.575 24.9101C292.575 24.9101 293.594 24.7812 295.196 24.6054C293.969 24.5429 293.036 24.6211 292.575 24.9101ZM287.997 28.5351C287.622 28.5703 287.25 28.6054 286.879 28.6523C286.879 28.6523 287.286 28.6094 287.997 28.5351ZM317.497 20.8008C317.497 20.8008 317.891 20.8672 318.469 21.0351C318.157 20.7539 317.825 20.6367 317.497 20.8008ZM356.243 28.5351C356.95 28.6094 357.36 28.6523 357.36 28.6523C356.989 28.6054 356.614 28.5703 356.243 28.5351ZM349.043 24.6094C350.641 24.7812 351.661 24.9101 351.661 24.9101C351.204 24.6211 350.27 24.5429 349.043 24.6094Z" fill="#FFB850"/>
<path d="M345.442 25.6836C345.415 25.5078 341.892 25.6992 338.044 26.5078C336.239 26.8867 334.692 27.332 333.454 27.7383C333.794 27.1758 334.224 26.6133 334.755 26.0938C337.79 23.1484 342.22 23.5 343.388 23.6289C341.345 23.3828 338.669 23.2539 335.579 23.6289C332.774 23.9688 330.411 24.625 328.591 25.2734C329.653 24.8477 331.208 24.2578 333.114 23.6289C337.61 22.1484 340.134 21.7734 340.099 21.5742C340.056 21.3242 335.954 21.4531 331.47 22.8086C329.239 23.4805 327.466 24.2891 326.255 24.9102C326.411 24.5078 326.63 24.0703 326.946 23.6289C328.263 21.8125 330.306 21.3086 331.06 21.1641C329.661 21.4102 327.712 21.9492 325.716 23.2188C324.985 23.6836 324.364 24.1719 323.841 24.6406C323.771 24.375 323.544 23.3906 324.071 22.3984C324.61 21.3828 325.72 20.7578 326.946 20.7539C326.63 20.7383 325.181 20.6992 323.907 21.7852C322.72 22.7969 322.478 24.1133 322.427 24.4531C322.157 23.8516 321.556 22.7305 320.333 21.7852C318.669 20.5039 316.911 20.3633 316.263 20.3438C316.571 20.3867 318.946 20.7812 319.962 22.8086C320.31 23.5 320.392 24.1641 320.396 24.6406C319.454 24.0117 318.353 23.3789 317.087 22.8086C313.591 21.2344 310.341 20.8203 308.044 20.7539C310.56 21.4141 312.481 22.1953 313.798 22.8086C313.798 22.8086 314.411 23.0938 317.985 24.9102C304.915 22.0625 301.899 21.4922 301.88 21.5742C301.864 21.6484 304.071 22.1367 307.224 23.2188C309.825 24.1133 311.931 25.0156 313.388 25.6836C310.915 25.2969 308.161 24.9961 305.169 24.8633C302.825 24.7578 300.622 24.7734 298.595 24.8633C300.915 24.9609 303.716 25.2891 306.813 26.0938C308.653 26.5742 310.302 27.1484 311.743 27.7383C301.001 26.6523 298.188 26.4336 298.181 26.5078C298.165 26.6523 309.638 26.2773 318.317 33.4922C319.97 34.8633 321.181 36.2266 322.013 37.2734C322.013 37.3125 322.013 37.3477 322.017 37.3867C322.017 37.3867 322.052 37.3672 322.118 37.332C322.185 37.3672 322.224 37.3867 322.224 37.3867L322.228 37.2734C323.372 35.6016 325.146 33.4062 327.771 31.4375C335.677 25.5078 345.481 25.9727 345.442 25.6836Z" fill="#FFB850"/>
<path d="M328.173 22.9297C330.228 22.3672 332.208 21.957 332.208 21.957C330.489 21.75 329.149 22.2695 328.173 22.9297ZM345.603 22C345.224 21.9492 344.728 21.9492 344.149 21.9844C345.06 21.9844 345.603 22 345.603 22ZM325.767 21.0351C326.345 20.8672 326.743 20.8008 326.743 20.8008C326.411 20.6367 326.083 20.7539 325.767 21.0351Z" fill="#FFB850"/>
<path d="M30.662 23.138C30.962 23.138 31.214 23.27 31.418 23.534C31.622 23.798 31.886 24.344 32.21 25.172C32.966 27.128 33.704 30.194 34.424 34.37C34.436 34.418 34.442 34.49 34.442 34.586C34.442 34.67 34.382 34.766 34.262 34.874C34.154 34.97 33.992 35.018 33.776 35.018C33.572 35.018 33.398 34.97 33.254 34.874C33.11 34.766 33.014 34.598 32.966 34.37C32.918 34.13 32.828 33.668 32.696 32.984C32.408 31.46 32.216 30.668 32.12 30.608C31.976 30.524 31.496 30.434 30.68 30.338C29.876 30.242 29.342 30.194 29.078 30.194C28.814 30.194 28.658 30.218 28.61 30.266C28.394 30.458 28.1 31.916 27.728 34.64C27.68 34.868 27.452 34.982 27.044 34.982C26.636 34.982 26.432 34.808 26.432 34.46C26.432 33.596 26.75 31.946 27.386 29.51C28.022 27.074 28.55 25.46 28.97 24.668C29.498 23.648 30.062 23.138 30.662 23.138ZM30.59 25.136C30.41 25.136 30.098 25.67 29.654 26.738C29.21 27.794 28.988 28.448 28.988 28.7C28.988 28.76 29 28.802 29.024 28.826C29.12 28.922 29.498 29.006 30.158 29.078C30.818 29.15 31.256 29.186 31.472 29.186C31.688 29.186 31.808 29.174 31.832 29.15C31.856 29.114 31.868 29.018 31.868 28.862C31.868 28.694 31.706 28.034 31.382 26.882C31.058 25.718 30.794 25.136 30.59 25.136ZM35.4191 23.354C35.4551 22.898 35.5271 22.604 35.6351 22.472C35.7551 22.328 35.9411 22.256 36.1931 22.256C36.7091 22.256 36.9671 22.466 36.9671 22.886C36.9671 23.21 36.9371 24.056 36.8771 25.424C36.8291 26.792 36.8051 28.016 36.8051 29.096C36.8051 30.176 36.8471 31.046 36.9311 31.706C37.0751 32.858 37.2791 33.434 37.5431 33.434C37.8071 33.434 38.0051 33.248 38.1371 32.876C38.1971 32.732 38.2931 32.606 38.4251 32.498C38.5571 32.378 38.7251 32.318 38.9291 32.318C39.3491 32.318 39.5591 32.672 39.5591 33.38C39.5591 33.764 39.3491 34.148 38.9291 34.532C38.5211 34.904 38.1131 35.09 37.7051 35.09C37.2971 35.09 36.9671 35.024 36.7151 34.892C36.4751 34.748 36.2771 34.538 36.1211 34.262C35.9771 33.986 35.8571 33.722 35.7611 33.47C35.6771 33.206 35.6171 32.888 35.5811 32.516C35.5091 31.916 35.4551 30.956 35.4191 29.636C35.3951 28.304 35.3831 27.038 35.3831 25.838C35.3831 24.626 35.3951 23.798 35.4191 23.354ZM45.2763 26.594C45.8043 26.594 46.0683 27.044 46.0683 27.944C46.0683 28.04 46.0683 28.142 46.0683 28.25L46.0323 29.51C46.0203 29.906 46.0143 30.296 46.0143 30.68L46.2843 34.748C46.2843 35.048 45.9783 35.198 45.3663 35.198C45.3303 35.198 45.2403 35.198 45.0963 35.198C44.9643 35.198 44.8683 35.144 44.8083 35.036C44.7603 34.928 44.7543 34.796 44.7903 34.64C44.8383 34.484 44.8263 34.31 44.7543 34.118C44.2023 34.706 43.4703 35 42.5583 35C40.8663 35 40.0203 33.692 40.0203 31.076C40.0203 29.624 40.2903 28.526 40.8303 27.782C41.3823 27.038 42.1683 26.666 43.1883 26.666C43.6683 26.666 44.1483 26.75 44.6283 26.918C44.7843 26.702 45.0003 26.594 45.2763 26.594ZM43.4043 28.232C42.7203 28.232 42.2103 28.43 41.8743 28.826C41.5383 29.222 41.3703 29.948 41.3703 31.004C41.3703 32.78 41.8503 33.668 42.8103 33.668C43.0623 33.668 43.3383 33.554 43.6383 33.326C43.9503 33.098 44.1663 32.84 44.2863 32.552C44.5143 31.904 44.6283 31.196 44.6283 30.428C44.6283 29.66 44.5323 29.102 44.3403 28.754C44.1603 28.406 43.8483 28.232 43.4043 28.232ZM47.6091 28.88C47.6091 28.172 47.8611 27.608 48.3651 27.188C48.8691 26.768 49.4511 26.558 50.1111 26.558C50.7831 26.558 51.4251 26.678 52.0371 26.918C52.6491 27.158 52.9551 27.476 52.9551 27.872C52.9551 28.076 52.8771 28.238 52.7211 28.358C52.5651 28.478 52.4271 28.538 52.3071 28.538C52.1991 28.538 52.1091 28.538 52.0371 28.538C51.9771 28.526 51.7371 28.412 51.3171 28.196C50.9091 27.98 50.5311 27.872 50.1831 27.872C49.8351 27.872 49.5351 27.962 49.2831 28.142C49.0431 28.31 48.9231 28.562 48.9231 28.898C48.9231 29.234 49.0611 29.498 49.3371 29.69C49.6251 29.882 50.1231 30.05 50.8311 30.194C51.5391 30.326 52.0791 30.518 52.4511 30.77C52.8351 31.022 53.0271 31.49 53.0271 32.174C53.0271 33.17 52.7631 33.878 52.2351 34.298C51.7191 34.706 51.0891 34.91 50.3451 34.91C49.6011 34.91 48.9651 34.808 48.4371 34.604C47.9211 34.4 47.6631 34.094 47.6631 33.686C47.6631 33.218 47.8971 32.984 48.3651 32.984C48.4851 32.984 48.7491 33.068 49.1571 33.236C49.5651 33.404 49.9671 33.488 50.3631 33.488C50.7711 33.488 51.0771 33.362 51.2811 33.11C51.4971 32.846 51.6051 32.546 51.6051 32.21C51.6051 31.874 51.4671 31.634 51.1911 31.49C50.9151 31.334 50.4951 31.208 49.9311 31.112C49.3671 31.016 48.9531 30.914 48.6891 30.806C47.9691 30.518 47.6091 29.876 47.6091 28.88ZM60.6549 34.19C60.6549 34.754 60.3969 35.036 59.8809 35.036C59.6649 35.036 59.3709 34.508 58.9989 33.452C58.6269 32.384 58.1289 31.562 57.5049 30.986C57.4449 31.07 57.1869 31.31 56.7309 31.706C56.2869 32.09 56.0229 32.324 55.9389 32.408V34.208C55.9149 34.388 55.8849 34.526 55.8489 34.622C55.8129 34.718 55.7289 34.808 55.5969 34.892C55.4769 34.976 55.3089 35.018 55.0929 35.018C54.7689 35.018 54.6069 34.82 54.6069 34.424C54.6069 33.308 54.5589 31.58 54.4629 29.24C54.3669 26.888 54.3189 24.782 54.3189 22.922C54.3189 22.694 54.4089 22.514 54.5889 22.382C54.7809 22.25 54.9789 22.184 55.1829 22.184C55.4589 22.184 55.6269 22.358 55.6869 22.706V25.892C55.6869 26.276 55.6929 26.564 55.7049 26.756C55.7169 26.948 55.7289 27.236 55.7409 27.62C55.7649 28.412 55.8069 29.306 55.8669 30.302C56.2149 30.038 56.6589 29.624 57.1989 29.06C57.7509 28.484 58.1649 27.992 58.4409 27.584C58.8729 26.9 59.2689 26.558 59.6289 26.558C59.7249 26.558 59.8209 26.582 59.9169 26.63C60.1689 26.774 60.2949 26.942 60.2949 27.134C60.2949 27.326 60.2109 27.578 60.0429 27.89C59.6109 28.634 59.1129 29.312 58.5489 29.924C59.0889 30.524 59.6289 31.382 60.1689 32.498C60.4929 33.218 60.6549 33.782 60.6549 34.19ZM66.7216 26.594C67.2496 26.594 67.5136 27.044 67.5136 27.944C67.5136 28.04 67.5136 28.142 67.5136 28.25L67.4776 29.51C67.4656 29.906 67.4596 30.296 67.4596 30.68L67.7296 34.748C67.7296 35.048 67.4236 35.198 66.8116 35.198C66.7756 35.198 66.6856 35.198 66.5416 35.198C66.4096 35.198 66.3136 35.144 66.2536 35.036C66.2056 34.928 66.1996 34.796 66.2356 34.64C66.2836 34.484 66.2716 34.31 66.1996 34.118C65.6476 34.706 64.9156 35 64.0036 35C62.3116 35 61.4656 33.692 61.4656 31.076C61.4656 29.624 61.7356 28.526 62.2756 27.782C62.8276 27.038 63.6136 26.666 64.6336 26.666C65.1136 26.666 65.5936 26.75 66.0736 26.918C66.2296 26.702 66.4456 26.594 66.7216 26.594ZM64.8496 28.232C64.1656 28.232 63.6556 28.43 63.3196 28.826C62.9836 29.222 62.8156 29.948 62.8156 31.004C62.8156 32.78 63.2956 33.668 64.2556 33.668C64.5076 33.668 64.7836 33.554 65.0836 33.326C65.3956 33.098 65.6116 32.84 65.7316 32.552C65.9596 31.904 66.0736 31.196 66.0736 30.428C66.0736 29.66 65.9776 29.102 65.7856 28.754C65.6056 28.406 65.2936 28.232 64.8496 28.232Z" fill="black"/>
</svg>
