<svg width="176" height="193" viewBox="0 0 176 193" fill="none" xmlns="http://www.w3.org/2000/svg">
<path d="M21.595 190.393C11.0667 190.393 2.5 181.832 2.5 171.323V21.5741C2.5 11.0608 11.0669 2.5 21.595 2.5H153.57C164.101 2.5 172.668 11.0611 172.668 21.5741V171.323C172.668 181.832 164.102 190.393 153.57 190.393H21.595Z" fill="#79C392" stroke="#13644D" stroke-width="5"/>
<path d="M53.2358 129.24C53.8261 129.24 54.318 129.448 54.7115 129.859C55.1121 130.263 55.6286 131.106 56.2575 132.389C57.7262 135.417 59.1667 140.168 60.5722 146.64C60.6003 146.706 60.6143 146.808 60.6143 146.949C60.6143 147.089 60.5019 147.241 60.277 147.399C60.0521 147.56 59.7324 147.638 59.3213 147.638C58.9173 147.638 58.5764 147.56 58.2954 147.399C58.0143 147.241 57.8245 146.984 57.7332 146.626C57.6383 146.26 57.4662 145.55 57.2132 144.489C56.651 142.128 56.2751 140.902 56.0888 140.807C55.8077 140.677 54.8731 140.537 53.292 140.386C51.718 140.238 50.6709 140.161 50.1579 140.161C49.6414 140.161 49.3357 140.199 49.2444 140.273C48.8228 140.575 48.2501 142.831 47.5298 147.047C47.4349 147.406 46.9887 147.581 46.1946 147.581C45.397 147.581 45 147.311 45 146.766C45 145.438 45.6184 142.884 46.8552 139.107C48.0919 135.333 49.1214 132.831 49.9471 131.602C50.9766 130.028 52.0728 129.24 53.2358 129.24ZM53.0953 132.332C52.7474 132.332 52.1396 133.158 51.2682 134.806C50.4039 136.447 49.9752 137.462 49.9752 137.856C49.9752 137.951 49.9963 138.01 50.0455 138.038C50.2317 138.19 50.966 138.32 52.252 138.432C53.545 138.544 54.4023 138.601 54.8239 138.601C55.2456 138.601 55.4775 138.58 55.5267 138.53C55.5723 138.485 55.5969 138.341 55.5969 138.095C55.5969 137.842 55.2772 136.823 54.6412 135.031C54.0123 133.232 53.4958 132.332 53.0953 132.332Z" fill="black"/>
<path d="M67.1721 143.534L67.2002 146.415C67.2002 146.745 67.007 147.047 66.624 147.328C66.2375 147.609 65.8581 147.75 65.4856 147.75C64.9516 147.75 64.6142 147.413 64.4737 146.738C64.4456 146.598 64.3472 145.241 64.1786 142.662C64.0169 140.087 63.7042 138.063 63.2369 136.591C63.0296 135.888 62.9277 135.474 62.9277 135.34C62.9277 134.732 63.395 134.427 64.3332 134.427C64.7267 134.427 65.0394 134.549 65.2748 134.792C65.5067 135.027 65.6543 135.27 65.7105 135.523C65.7667 135.776 65.8159 136.12 65.8651 136.549C65.9108 136.97 65.9494 137.237 65.9775 137.35C66.4624 136.422 67.2002 135.727 68.184 135.256C69.1678 134.788 70.243 134.553 71.4165 134.553C73.3349 134.553 74.2977 134.947 74.2977 135.734C74.2977 136.12 74.122 136.429 73.7776 136.661C73.4403 136.897 73.0503 137.013 72.6111 137.013C70.6225 137.013 69.217 137.515 68.3949 138.516C67.5797 139.521 67.1721 141.194 67.1721 143.534Z" fill="black"/>
<path d="M77.0506 134.581L78.8074 134.609C79.2009 134.609 79.4188 134.602 79.4679 134.581V128.875C79.4961 128.559 79.6963 128.285 80.0723 128.06C80.4447 127.835 80.7961 127.723 81.1264 127.723C81.4531 127.723 81.7166 127.807 81.9134 127.976C82.1102 128.144 82.1945 128.408 82.1664 128.763C82.1453 129.121 82.1383 131.05 82.1383 134.553L86.2421 134.455C86.9448 134.455 87.2962 134.778 87.2962 135.424C87.2962 135.913 87.1135 136.278 86.7481 136.521C86.3897 136.756 86.0067 136.883 85.5956 136.9C85.181 136.921 84.7805 136.928 84.3869 136.928L82.2507 136.9C82.2507 137.659 82.3491 139.17 82.5458 141.426C82.7426 143.674 82.8972 145.129 83.0096 145.782C83.1291 146.439 83.1537 146.865 83.0799 147.061C83.0131 147.258 82.8867 147.395 82.7004 147.469C82.3983 147.581 81.9907 147.638 81.4777 147.638C80.9612 147.638 80.6555 147.413 80.5642 146.963C80.0934 144.528 79.7771 141.183 79.6085 136.928C79.4012 136.949 78.5966 136.956 77.1912 136.956C75.7857 136.956 75.083 136.633 75.083 135.987C75.083 135.052 75.7365 134.581 77.0506 134.581Z" fill="black"/>
<path d="M90.5902 129.985C91.0118 129.985 91.4053 130.147 91.7708 130.463C92.1432 130.783 92.3329 131.117 92.3329 131.461C92.3329 131.798 92.1256 132.146 91.7145 132.501C91.3105 132.849 90.8853 133.021 90.4356 133.021C89.9929 133.021 89.5923 132.877 89.2269 132.585C88.8686 132.287 88.6929 131.904 88.6929 131.433C88.6929 130.544 89.3007 130.063 90.5199 129.985H90.5902ZM92.0518 144.602L92.094 146.555C92.094 146.903 91.9148 147.195 91.5599 147.427C91.2121 147.659 90.8432 147.778 90.4497 147.778C89.8594 147.778 89.5537 147.546 89.5361 147.075C89.2269 141.144 89.0723 137.866 89.0723 137.237C89.0723 136.601 89.1075 135.828 89.1848 134.918C89.2304 134.592 89.4975 134.427 89.9859 134.427C91.2226 134.427 91.9254 134.827 92.094 135.621C92.1573 136.036 92.1924 136.359 92.1924 136.591L92.0518 138.348V144.602Z" fill="black"/>
<path d="M95.6533 141.088C95.6533 139.844 96.0644 138.709 96.8901 137.687C97.7228 136.668 98.7804 135.899 100.066 135.382C101.359 134.869 102.61 134.609 103.819 134.609C105.035 134.609 106.015 134.729 106.756 134.96C107.494 135.196 107.866 135.505 107.866 135.888C107.866 136.264 107.729 136.643 107.459 137.026C107.185 137.413 106.83 137.603 106.391 137.603C106.222 137.603 105.765 137.497 105.028 137.279C104.297 137.065 103.822 136.956 103.608 136.956C102.259 136.956 101.099 137.357 100.137 138.151C99.1809 138.938 98.7031 139.985 98.7031 141.285C98.7031 142.588 98.9631 143.558 99.4901 144.194C100.014 144.834 100.924 145.15 102.217 145.15C102.73 145.15 103.612 144.918 104.859 144.447C106.113 143.969 106.89 143.73 107.192 143.73C107.501 143.73 107.744 143.808 107.923 143.955C108.109 144.106 108.204 144.293 108.204 144.517C108.204 144.96 107.845 145.427 107.136 145.923C106.422 146.422 105.541 146.833 104.493 147.16C103.443 147.479 102.498 147.637 101.655 147.637C99.7783 147.637 98.3096 147.054 97.2415 145.881C96.1804 144.711 95.6533 143.112 95.6533 141.088Z" fill="black"/>
<path d="M109.685 129.564C109.749 128.861 109.889 128.404 110.107 128.186C110.332 127.972 110.69 127.863 111.189 127.863C112.191 127.863 112.693 128.193 112.693 128.847C112.693 129.346 112.64 130.656 112.538 132.782C112.433 134.901 112.384 136.798 112.384 138.474C112.384 140.143 112.461 141.489 112.623 142.508C112.904 144.289 113.301 145.178 113.817 145.178C114.33 145.178 114.717 144.893 114.97 144.321C115.089 144.096 115.279 143.895 115.532 143.716C115.792 143.541 116.122 143.449 116.516 143.449C117.331 143.449 117.739 143.997 117.739 145.094C117.739 145.694 117.334 146.288 116.53 146.878C115.722 147.462 114.921 147.75 114.127 147.75C113.329 147.75 112.693 147.641 112.215 147.427C111.737 147.212 111.351 146.893 111.063 146.471C110.771 146.042 110.536 145.628 110.36 145.234C110.181 144.834 110.058 144.342 109.995 143.758C109.854 142.831 109.749 141.341 109.685 139.289C109.629 137.237 109.601 135.28 109.601 133.414C109.601 131.542 109.629 130.259 109.685 129.564Z" fill="black"/>
<path d="M124.18 134.693C125.424 134.693 126.604 134.985 127.722 135.565C128.846 136.138 129.408 136.851 129.408 137.701C129.408 138.544 128.948 139.367 128.031 140.161C127.121 140.948 125.909 141.422 124.391 141.58C123.734 141.657 122.753 141.693 121.453 141.693C121.706 143.277 122.205 144.321 122.957 144.827C123.189 145.023 123.505 145.122 123.899 145.122C125.35 145.122 126.569 144.756 127.553 144.026C128.537 143.295 129.239 142.929 129.661 142.929C129.847 142.929 130.125 143.07 130.49 143.351C130.863 143.625 131.052 143.881 131.052 144.124C131.052 144.612 130.315 145.311 128.846 146.218C128.189 146.64 127.398 146.998 126.471 147.286C125.55 147.578 124.693 147.722 123.899 147.722C121.864 147.722 120.371 146.682 119.415 144.602C118.804 143.319 118.502 141.903 118.502 140.357C118.502 138.811 118.955 137.483 119.865 136.366C120.782 135.252 122.219 134.693 124.18 134.693ZM124.363 136.619C123.47 136.619 122.711 137.023 122.086 137.828C121.85 138.102 121.626 138.734 121.411 139.725C124.689 139.725 126.33 139.085 126.33 137.799C126.33 137.012 125.673 136.619 124.363 136.619Z" fill="black"/>
<path d="M126.84 110.248C124.14 102.514 119.998 100.338 119.998 100.338C119.998 100.338 121.56 99.8178 127.283 96.1834C136.129 88.3906 134.568 80.0771 134.05 75.9187C133.528 71.7636 121.038 64.4915 121.038 64.4915C122.599 60.8537 131.967 47.8645 133.528 44.2301C135.089 40.5923 138.212 17.2139 128.323 17.7311C118.437 18.2518 117.394 23.4481 108.548 30.7203C99.6986 37.9924 101.26 40.0717 100.742 41.6302C100.22 43.1888 97.0976 39.0338 96.5761 38.5131C96.0579 37.9924 86.1688 35.9166 82.0066 39.0338C77.841 42.1509 75.24 40.5923 72.1175 36.4373C68.995 32.2789 58.0662 22.4068 48.177 19.8103C40.3708 15.6553 39.3311 26.5653 39.3311 36.4373C39.3311 46.3059 46.0942 54.0988 46.0942 54.0988C46.0942 54.0988 54.4221 63.4501 55.9833 70.1674C52.8608 71.171 43.4933 80.5943 44.8143 87.0889C46.132 93.5835 55.9833 97.742 55.9833 97.742L55.9799 97.7454C62.6573 99.0265 68.4116 102.586 74.7184 104.476C92.0913 109.43 109.464 111.269 126.84 110.248Z" fill="#A96D39"/>
<path d="M119.037 110.484C120.133 107.206 116.556 99.1011 116.556 99.1011C116.556 99.1011 127.669 96.5497 124.136 87.0986C120.599 77.6475 108.559 81.2721 105.485 83.6609L102.415 86.0496C102.415 86.0496 100.899 82.6811 99.6369 82.5288C98.3746 82.373 96.6062 83.1623 96.6062 83.1623L96.1832 85.8938C96.1832 85.8938 95.6037 83.4081 90.4215 83.6782C85.2392 83.9482 84.733 83.9482 83.4708 85.2637C81.1994 83.4254 80.1869 82.8992 80.1869 82.8992C80.1869 82.8992 77.0363 83.9378 76.59 86.832C76.59 86.832 73.6226 82.373 71.8541 82.6361C70.0856 82.8992 66.4054 83.8963 64.4571 83.6609C62.5088 81.8503 60.4872 81.3241 59.9809 81.3241C59.478 81.3241 59.9809 79.2988 59.9809 79.2988C59.9809 79.2988 58.9718 78.6999 58.4656 81.3241C57.4564 83.9482 56.0843 85.5788 56.0143 88.9646C55.9577 91.5818 59.558 96.8716 61.2032 99.1461C65.5894 100.784 69.7159 103.03 74.1255 104.408C89.0959 108.853 104.066 110.816 119.037 110.484Z" fill="#FFFFF0"/>
<path d="M69.8749 70.0918C69.4239 70.7909 67.5745 73.6459 67.5745 75.4229C67.5745 77.1999 67.0022 76.8406 68.7266 78.5005C70.4471 80.1642 75.1199 78.5005 75.1199 78.5005C75.1199 78.5005 77.3483 77.7936 76.7723 74.2395C76.1962 70.6855 73.8996 68.9085 73.8996 68.9085C73.8996 68.9085 71.0232 68.3148 69.8749 70.0918Z" fill="#1A1A1A"/>
<path d="M69.8749 70.0918C69.4239 70.7909 67.5745 73.6459 67.5745 75.4229C67.5745 77.1999 67.0022 76.8406 68.7266 78.5005C70.4471 80.1642 75.1199 78.5005 75.1199 78.5005C75.1199 78.5005 77.3483 77.7936 76.7723 74.2395C76.1962 70.6855 73.8996 68.9085 73.8996 68.9085C73.8996 68.9085 71.0232 68.3148 69.8749 70.0918Z" stroke="#1A1A1A" stroke-width="0.197333" stroke-miterlimit="10"/>
<path d="M69.0873 72.1356C69.0873 72.1356 68.5259 74.2788 68.5259 75.8854C68.5259 77.492 69.0873 78.1346 69.0873 78.1346C69.187 78.3359 73.5672 78.0252 74.1988 77.5944C74.0917 76.9588 75.7906 74.2788 73.8369 72.1356C71.8868 69.9923 69.0873 71.0657 69.0873 72.1356Z" fill="black"/>
<path d="M104.015 68.9214C103.614 69.5506 101.973 72.12 101.973 73.7193C101.973 75.3186 101.461 74.9953 102.994 76.4891C104.527 77.9865 108.679 76.4891 108.679 76.4891C108.679 76.4891 110.66 75.8529 110.148 72.6543C109.639 69.4557 107.594 67.8563 107.594 67.8563C107.594 67.8563 105.04 67.3221 104.015 68.9214Z" fill="#1A1A1A"/>
<path d="M104.015 68.9214C103.614 69.5506 101.973 72.12 101.973 73.7193C101.973 75.3186 101.461 74.9953 102.994 76.4891C104.527 77.9865 108.679 76.4891 108.679 76.4891C108.679 76.4891 110.66 75.8529 110.148 72.6543C109.639 69.4557 107.594 67.8563 107.594 67.8563C107.594 67.8563 105.04 67.3221 104.015 68.9214Z" stroke="#1A1A1A" stroke-width="0.197333" stroke-miterlimit="10"/>
<path d="M104.442 70.9161C104.442 70.9161 103.977 72.7532 103.977 74.1303C103.977 75.5074 104.442 76.0582 104.442 76.0582C104.525 76.2307 108.18 75.9644 108.703 75.5951C108.614 75.0504 110.03 72.7532 108.404 70.9161C106.779 69.079 104.442 69.9991 104.442 70.9161Z" fill="black"/>
<path d="M77.4532 92.7C77.4532 92.7 78.9789 95.2499 81.5239 95.7612C84.0655 96.2725 89.6584 95.2499 89.6584 95.2499H91.6937C91.6937 95.2499 96.5792 96.0471 97.6957 95.9059C98.8157 95.7612 103.393 93.2113 103.899 91.1694C104.409 89.1308 102.373 82.4971 98.8157 83.5164C98.306 83.5164 97.2867 84.0277 97.2867 84.0277C97.2867 84.0277 96.8608 87.903 96.7803 88.6195C97.2867 92.7 85.0815 94.2306 84.0655 89.1308C83.5592 87.0889 84.0655 86.0663 84.0655 86.0663C84.0655 86.0663 82.0302 85.047 81.5239 84.0277C81.0142 83.0051 77.9629 85.1008 77.4532 86.8602C76.9469 88.6195 76.4373 91.6807 77.4532 92.7Z" fill="#F4FFE0"/>
<path d="M84.166 86.6903C84.166 86.6903 85.5932 83.4371 87.9738 83.4371C90.3514 83.4371 97.2237 82.8973 96.6434 86.6903C96.06 90.4869 96.0004 90.3045 94.1278 90.9409C92.2553 91.5701 84.6428 93.74 84.166 86.6903Z" fill="black"/>
<path d="M90.7257 62.5574L110.232 82.766C109.035 85.1087 106.598 86.3228 103.371 86.8085C103.371 86.8085 102.04 83.7407 100.442 83.3303C98.8445 82.9165 97.2467 83.9562 97.2467 83.9562L96.8007 86.6546C96.8007 86.6546 95.9369 84.4247 91.7967 84.4487C87.6566 84.4726 84.9948 84.4726 83.3971 86.0321C81.7993 84.4726 79.6678 83.4364 79.9347 83.6963C80.2015 83.9562 76.8796 83.9459 76.1457 87.5814C73.0906 85.4439 71.4261 83.6723 71.679 83.3303L85.2617 62.5574H90.7257Z" fill="#DFA893"/>
<path d="M77.9703 85.8708L69.9727 80.9205M80.7185 83.6438L77.2223 78.1973M77.1629 87.3532L62.2255 87.1083M77.219 91.0724L65.7251 98.0079M77.0641 89.2667L61.2271 93.0544M76.7214 90.083L62.1926 96.4014M101.709 78.1973L98.2131 83.6438M121.702 92.0618L103.238 88.4961M107.707 82.1581L102.138 85.8708M115.207 95.5296L103.71 90.5761M112.208 96.0259L103.196 91.3859" stroke="black" stroke-width="0.394667" stroke-miterlimit="10"/>
<path d="M84.1581 99.6487C86.2427 101.569 87.2833 102.527 88.3273 103.008C89.3679 103.488 92.4931 103.008 92.4931 103.008C95.2405 103.387 95.7007 101.031 96.6588 100.61C98.1115 99.9713 104.407 92.9497 103.953 92.7947L97.3354 95.4831L91.9711 94.8506C91.9711 94.8506 90.4085 94.8506 89.3988 94.9296C88.3926 95.0055 83.6396 95.3313 82.2933 95.423C80.9471 95.5179 78.4298 93.8922 76.8672 94.373C78.4298 96.2928 82.0735 97.732 84.1581 99.6487Z" fill="#3E180D"/>
<path d="M89.8759 99.997C98.5381 100.799 96.459 96.327 96.459 96.327L88.9163 95.9226L83.123 96.327C83.123 96.327 83.6877 96.743 85.052 98.1713C86.4195 99.6018 89.8759 99.997 89.8759 99.997Z" fill="#572C2D"/>
<path d="M66.4447 70.4433C66.4447 70.4433 69.1558 67.0476 70.7133 67.0476C72.2708 67.0476 74.489 67.6586 75.4578 70.4433C73.8284 69.2561 73.7702 68.6771 72.5036 68.7469C71.2336 68.8138 69.8267 68.8459 69.4913 69.9341C68.6389 71.0195 66.3283 71.1883 66.4447 70.4433ZM112.25 68.8138C112.25 68.8138 109.655 65.2813 107.577 65.7236C105.499 66.1659 103.425 67.0476 102.904 68.3716C102.384 69.6955 102.904 69.8148 102.904 69.8148C102.904 69.8148 103.935 67.5568 105.496 67.5219C107.057 67.4899 108.097 67.0476 109.135 69.2561C110.172 71.4618 112.77 69.6955 112.25 68.8138Z" fill="#160A0C"/>
<mask id="mask0_739_20503" style="mask-type:luminance" maskUnits="userSpaceOnUse" x="39" y="20" width="30" height="48">
<path d="M39 20.0624H68.565V67.0185H39V20.0624Z" fill="white"/>
</mask>
<g mask="url(#mask0_739_20503)">
<mask id="mask1_739_20503" style="mask-type:luminance" maskUnits="userSpaceOnUse" x="39" y="20" width="30" height="47">
<path d="M39.4956 29.9502C39.5058 41.1832 41.2008 46.7402 42.6715 49.3692C44.1423 52.0017 53.344 64.8786 58.0179 66.9404C58.0179 66.9404 68.3575 51.4854 68.3575 50.4562C68.3575 49.4236 64.7502 31.9067 61.6592 28.8157C58.5681 25.7281 51.8698 20.5753 46.2041 20.5753C40.5384 20.5753 41.0275 21.2954 39.4956 29.9502Z" fill="white"/>
</mask>
<g mask="url(#mask1_739_20503)">
<path d="M59.5631 7.29077L18.1538 34.6988L48.286 80.225L89.6988 52.8169L59.5631 7.29077Z" fill="url(#paint0_linear_739_20503)"/>
</g>
</g>
<mask id="mask2_739_20503" style="mask-type:luminance" maskUnits="userSpaceOnUse" x="105" y="18" width="30" height="44">
<path d="M105.957 18.3231H134.652V61.801H105.957V18.3231Z" fill="white"/>
</mask>
<g mask="url(#mask2_739_20503)">
<mask id="mask3_739_20503" style="mask-type:luminance" maskUnits="userSpaceOnUse" x="106" y="19" width="28" height="43">
<path d="M112.818 26.5398C109.893 29.3557 106.483 45.3134 106.483 46.2543C106.483 47.1918 116.265 61.2746 116.265 61.2746C117.736 61.047 118.986 59.5558 120.559 57.9492C121.469 57.0219 122.488 56.0538 123.714 55.2692C129.604 51.5158 129.652 47.7387 130.78 45.2659C131.693 43.2652 134.778 38.5709 133.786 27.5724C132.335 19.6852 132.801 19.0297 127.437 19.0297C122.077 19.0297 115.742 23.7239 112.818 26.5398Z" fill="white"/>
</mask>
<g mask="url(#mask3_739_20503)">
<path d="M115.1 6.00671L154.22 31.8999L126.157 74.2976L87.0366 48.4045L115.1 6.00671Z" fill="url(#paint1_linear_739_20503)"/>
</g>
</g>
<path d="M61.2277 31.5156C61.2277 31.5156 56.5359 23.5667 49.7577 23.0689C42.9829 22.5743 41.4189 21.5787 40.374 35.9863C41.938 43.9319 39.855 45.92 51.8441 55.857C51.8441 55.857 56.0135 56.8494 57.5808 57.3439C57.5808 57.3439 61.2277 57.3439 58.6223 54.3668C57.5808 53.3711 56.5359 53.3711 54.972 52.3787C53.408 51.3863 58.0999 52.3787 58.0999 51.8809C58.0999 51.3863 56.5359 50.3907 56.5359 50.3907L58.0999 49.8928L56.5359 48.4026H59.1413L57.5808 46.9157L60.1863 46.4178L58.0999 43.4374C58.0999 43.4374 56.5359 41.4493 59.1413 41.4493C61.7502 41.4493 63.8332 42.4417 63.8332 42.4417L60.1863 38.9667C60.1863 38.9667 59.1413 37.4765 61.2277 37.9711C63.3141 38.4689 64.3556 38.4689 64.3556 38.4689C64.3556 38.4689 62.7917 32.508 61.2277 31.5156ZM113.36 29.5276C113.36 29.5276 118.052 21.5787 124.83 21.0808C131.609 20.5863 133.173 19.5939 134.214 33.9982C132.65 41.9472 134.736 43.9319 122.744 53.8689C122.744 53.8689 118.575 54.8613 117.011 55.3591C117.011 55.3591 113.36 55.3591 115.969 52.3787C117.011 51.3863 118.052 51.3863 119.62 50.3907C121.18 49.3983 116.488 50.3907 116.488 49.8928C116.488 49.3983 118.052 48.4026 118.052 48.4026L116.488 47.908L118.052 46.4178H115.447L117.011 44.9276L114.405 44.4298L116.488 41.4493C116.488 41.4493 118.052 39.4613 115.447 39.4613C112.841 39.4613 110.755 40.4569 110.755 40.4569L114.405 36.9787C114.405 36.9787 115.447 35.4885 113.36 35.9863C111.277 36.4808 110.232 36.4808 110.232 36.4808C110.232 36.4808 111.796 30.52 113.36 29.5276Z" fill="#824228"/>
<path d="M69.891 47.96L73.8783 44.2755C73.8783 44.2755 65.8018 31.9622 64.3555 31.6259C66.4001 35.928 68.895 46.5443 69.891 47.96ZM106.786 46.5687L102.795 42.8842C102.795 42.8842 110.875 30.571 112.318 30.2346C110.274 34.5368 107.782 45.153 106.786 46.5687Z" fill="#160A0C"/>
<path d="M73.3602 43.7893L75.4724 40.9123C75.4724 40.9123 63.3278 28.4434 62.27 28.4434C63.8099 31.706 72.1216 42.9452 73.3602 43.7893ZM102.015 42.6764L100.27 39.8311C99.129 39.0407 110.644 27.6214 112.318 28.1683C110.845 31.2792 103.133 41.8987 102.015 42.6764Z" fill="#D4905F"/>
<path d="M87.8581 61.1571C87.8581 61.1571 86.101 56.4931 85.4417 55.3212C84.7857 54.1493 82.7943 51.6623 81.6095 49.7578C80.4248 47.85 79.3873 45.6731 79.1396 44.9747C78.8217 44.065 78.1188 44.1502 78.4803 44.8282C78.4803 44.8282 79.2735 47.0426 79.983 48.3985C80.6925 49.751 82.3626 52.4152 82.9115 53.134C83.4637 53.8529 84.4175 54.8647 85.4718 56.8406C86.5294 58.82 87.8581 61.1571 87.8581 61.1571ZM90.9003 60.6393C90.9003 60.6393 92.6574 55.9753 93.3167 54.8034C93.976 53.6314 95.9674 51.1478 97.1488 49.24C98.3336 47.3322 99.3711 45.1552 99.6188 44.4568C99.9367 43.5472 100.64 43.6358 100.278 44.3103C100.278 44.3103 99.4849 46.5248 98.7787 47.8807C98.0692 49.2366 96.3958 51.8973 95.8469 52.6196C95.2947 53.3384 94.3408 54.3468 93.2866 56.3262C92.2323 58.3022 90.9003 60.6393 90.9003 60.6393ZM84.5748 62.5573C84.5748 62.5573 83.5005 57.6583 82.9717 56.4216C82.4396 55.1849 80.5955 52.5446 79.5948 50.5278C78.5941 48.5144 77.8276 46.2181 77.6904 45.4857C77.5064 44.5284 76.6395 44.6033 76.924 45.3153C76.924 45.3153 77.3825 47.6422 77.9347 49.0697C78.487 50.5005 79.906 53.3146 80.408 54.0777C80.9101 54.8442 81.8371 55.9174 82.6638 58.0058C83.4938 60.0908 84.5748 62.5573 84.5748 62.5573ZM94.1835 62.0429C94.1835 62.0429 95.2579 57.1404 95.7867 55.9038C96.3188 54.6671 98.1662 52.0268 99.1669 50.0134C100.164 47.9965 100.931 45.7037 101.071 44.9712C101.252 44.0139 102.119 44.0855 101.834 44.8009C101.834 44.8009 101.376 47.1244 100.824 48.5552C100.271 49.9827 98.8557 52.7967 98.3503 53.5633C97.8483 54.3264 96.9246 55.3996 96.0946 57.4879C95.2646 59.5729 94.1835 62.0429 94.1835 62.0429Z" fill="#160A0C"/>
<defs>
<linearGradient id="paint0_linear_739_20503" x1="39.7958" y1="20.375" x2="69.9291" y2="65.9003" gradientUnits="userSpaceOnUse">
<stop stop-color="#F4FFE0"/>
<stop offset="0.125" stop-color="#F4FFE0"/>
<stop offset="0.15625" stop-color="#F3FEDF"/>
<stop offset="0.171875" stop-color="#F3FDDF"/>
<stop offset="0.1875" stop-color="#F2FDDE"/>
<stop offset="0.203125" stop-color="#F2FCDD"/>
<stop offset="0.21875" stop-color="#F1FBDD"/>
<stop offset="0.234375" stop-color="#F1FBDC"/>
<stop offset="0.242188" stop-color="#F0FADC"/>
<stop offset="0.25" stop-color="#F0F9DB"/>
<stop offset="0.257812" stop-color="#EFF9DB"/>
<stop offset="0.265625" stop-color="#EFF8DA"/>
<stop offset="0.273438" stop-color="#EEF8DA"/>
<stop offset="0.28125" stop-color="#EEF7D9"/>
<stop offset="0.289062" stop-color="#EDF6D8"/>
<stop offset="0.296875" stop-color="#EDF6D8"/>
<stop offset="0.304688" stop-color="#ECF5D7"/>
<stop offset="0.3125" stop-color="#ECF4D7"/>
<stop offset="0.320312" stop-color="#EBF4D6"/>
<stop offset="0.328125" stop-color="#EBF3D5"/>
<stop offset="0.335938" stop-color="#EAF2D4"/>
<stop offset="0.34375" stop-color="#E9F1D4"/>
<stop offset="0.351562" stop-color="#E8F0D3"/>
<stop offset="0.359375" stop-color="#E8EFD2"/>
<stop offset="0.367188" stop-color="#E7EED1"/>
<stop offset="0.371094" stop-color="#E6EDD0"/>
<stop offset="0.375" stop-color="#E6EDD0"/>
<stop offset="0.378906" stop-color="#E5ECCF"/>
<stop offset="0.382812" stop-color="#E5ECCF"/>
<stop offset="0.386719" stop-color="#E5EBCF"/>
<stop offset="0.390625" stop-color="#E4EBCE"/>
<stop offset="0.394531" stop-color="#E4EACE"/>
<stop offset="0.398438" stop-color="#E3E9CD"/>
<stop offset="0.402344" stop-color="#E3E9CD"/>
<stop offset="0.40625" stop-color="#E2E8CC"/>
<stop offset="0.410156" stop-color="#E2E8CB"/>
<stop offset="0.414062" stop-color="#E1E7CB"/>
<stop offset="0.417969" stop-color="#E1E6CA"/>
<stop offset="0.421875" stop-color="#E1E6CA"/>
<stop offset="0.425781" stop-color="#E0E5C9"/>
<stop offset="0.429688" stop-color="#E0E5C9"/>
<stop offset="0.433594" stop-color="#DFE4C8"/>
<stop offset="0.4375" stop-color="#DEE3C8"/>
<stop offset="0.441406" stop-color="#DEE3C7"/>
<stop offset="0.445312" stop-color="#DDE2C6"/>
<stop offset="0.449219" stop-color="#DDE1C6"/>
<stop offset="0.453125" stop-color="#DCE0C5"/>
<stop offset="0.457031" stop-color="#DCE0C5"/>
<stop offset="0.460937" stop-color="#DBDFC4"/>
<stop offset="0.464844" stop-color="#DBDEC3"/>
<stop offset="0.46875" stop-color="#DADEC3"/>
<stop offset="0.472656" stop-color="#DADDC2"/>
<stop offset="0.476562" stop-color="#D9DCC1"/>
<stop offset="0.480469" stop-color="#D8DBC1"/>
<stop offset="0.484375" stop-color="#D8DBC0"/>
<stop offset="0.488281" stop-color="#D7DABF"/>
<stop offset="0.492188" stop-color="#D7D9BF"/>
<stop offset="0.496094" stop-color="#D6D8BE"/>
<stop offset="0.5" stop-color="#D5D7BD"/>
<stop offset="0.503906" stop-color="#D5D6BC"/>
<stop offset="0.507812" stop-color="#D4D6BC"/>
<stop offset="0.511719" stop-color="#D3D5BB"/>
<stop offset="0.515625" stop-color="#D3D4BA"/>
<stop offset="0.519531" stop-color="#D2D3B9"/>
<stop offset="0.523438" stop-color="#D1D2B9"/>
<stop offset="0.527344" stop-color="#D1D1B8"/>
<stop offset="0.53125" stop-color="#D0D0B7"/>
<stop offset="0.535156" stop-color="#CFCFB6"/>
<stop offset="0.539063" stop-color="#CECFB5"/>
<stop offset="0.542969" stop-color="#CECEB5"/>
<stop offset="0.546875" stop-color="#CDCDB4"/>
<stop offset="0.550781" stop-color="#CCCCB3"/>
<stop offset="0.554688" stop-color="#CCCBB2"/>
<stop offset="0.558594" stop-color="#CBCAB1"/>
<stop offset="0.5625" stop-color="#CAC9B0"/>
<stop offset="0.566406" stop-color="#C9C8AF"/>
<stop offset="0.570312" stop-color="#C8C7AF"/>
<stop offset="0.574219" stop-color="#C8C6AE"/>
<stop offset="0.578125" stop-color="#C7C5AD"/>
<stop offset="0.582031" stop-color="#C6C4AC"/>
<stop offset="0.585937" stop-color="#C5C3AB"/>
<stop offset="0.589844" stop-color="#C4C2AA"/>
<stop offset="0.59375" stop-color="#C4C0A9"/>
<stop offset="0.597656" stop-color="#C3BFA8"/>
<stop offset="0.601562" stop-color="#C2BEA7"/>
<stop offset="0.605469" stop-color="#C1BDA6"/>
<stop offset="0.609375" stop-color="#C0BCA5"/>
<stop offset="0.613281" stop-color="#BFBBA4"/>
<stop offset="0.617188" stop-color="#BEBAA3"/>
<stop offset="0.621094" stop-color="#BDB9A2"/>
<stop offset="0.625" stop-color="#BDB7A1"/>
<stop offset="0.628906" stop-color="#BCB6A0"/>
<stop offset="0.632812" stop-color="#BBB59F"/>
<stop offset="0.636719" stop-color="#BAB49E"/>
<stop offset="0.640625" stop-color="#B9B39D"/>
<stop offset="0.644531" stop-color="#B8B19C"/>
<stop offset="0.648438" stop-color="#B7B09B"/>
<stop offset="0.652344" stop-color="#B6AF9A"/>
<stop offset="0.65625" stop-color="#B5AE99"/>
<stop offset="0.660156" stop-color="#B4AC97"/>
<stop offset="0.664063" stop-color="#B3AB96"/>
<stop offset="0.667969" stop-color="#B2AA95"/>
<stop offset="0.671875" stop-color="#B1A994"/>
<stop offset="0.675781" stop-color="#B0A793"/>
<stop offset="0.679688" stop-color="#AFA692"/>
<stop offset="0.683594" stop-color="#AEA590"/>
<stop offset="0.6875" stop-color="#ADA38F"/>
<stop offset="0.691406" stop-color="#ACA28E"/>
<stop offset="0.695312" stop-color="#ABA08D"/>
<stop offset="0.699219" stop-color="#AA9F8C"/>
<stop offset="0.703125" stop-color="#A99E8A"/>
<stop offset="0.707031" stop-color="#A89C89"/>
<stop offset="0.710937" stop-color="#A69B88"/>
<stop offset="0.714844" stop-color="#A59987"/>
<stop offset="0.71875" stop-color="#A49885"/>
<stop offset="0.722656" stop-color="#A39684"/>
<stop offset="0.726562" stop-color="#A29583"/>
<stop offset="0.730469" stop-color="#A19482"/>
<stop offset="0.734375" stop-color="#A09280"/>
<stop offset="0.738281" stop-color="#9E917F"/>
<stop offset="0.742188" stop-color="#9D8F7E"/>
<stop offset="0.746094" stop-color="#9C8D7C"/>
<stop offset="0.75" stop-color="#9B8C7B"/>
<stop offset="0.753906" stop-color="#9A8A79"/>
<stop offset="0.757812" stop-color="#988978"/>
<stop offset="0.761719" stop-color="#978777"/>
<stop offset="0.765625" stop-color="#968675"/>
<stop offset="0.769531" stop-color="#958474"/>
<stop offset="0.773438" stop-color="#938272"/>
<stop offset="0.777344" stop-color="#928171"/>
<stop offset="0.78125" stop-color="#917F70"/>
<stop offset="0.785156" stop-color="#907D6E"/>
<stop offset="0.789063" stop-color="#8E7C6D"/>
<stop offset="0.792969" stop-color="#8D7A6B"/>
<stop offset="0.796875" stop-color="#8C786A"/>
<stop offset="0.800781" stop-color="#8A7768"/>
<stop offset="0.804688" stop-color="#897567"/>
<stop offset="0.808594" stop-color="#887365"/>
<stop offset="0.8125" stop-color="#867163"/>
<stop offset="0.816406" stop-color="#857062"/>
<stop offset="0.820312" stop-color="#846E60"/>
<stop offset="0.824219" stop-color="#826C5F"/>
<stop offset="0.828125" stop-color="#816A5D"/>
<stop offset="0.832031" stop-color="#7F685C"/>
<stop offset="0.835937" stop-color="#7E675A"/>
<stop offset="0.839844" stop-color="#7C6558"/>
<stop offset="0.84375" stop-color="#7B6357"/>
<stop offset="0.847656" stop-color="#7A6155"/>
<stop offset="0.851562" stop-color="#785F53"/>
<stop offset="0.855469" stop-color="#775D52"/>
<stop offset="0.859375" stop-color="#755B50"/>
<stop offset="0.863281" stop-color="#74594E"/>
<stop offset="0.867187" stop-color="#72574D"/>
<stop offset="0.871094" stop-color="#71554B"/>
<stop offset="0.875" stop-color="#6F5449"/>
<stop offset="0.878906" stop-color="#6E5248"/>
<stop offset="0.882812" stop-color="#6C5046"/>
<stop offset="0.886719" stop-color="#6B4E44"/>
<stop offset="0.890625" stop-color="#694C42"/>
<stop offset="0.894531" stop-color="#684A41"/>
<stop offset="0.898437" stop-color="#674940"/>
<stop offset="0.90625" stop-color="#674940"/>
<stop offset="0.9375" stop-color="#674940"/>
<stop offset="1" stop-color="#674940"/>
</linearGradient>
<linearGradient id="paint1_linear_739_20503" x1="133.944" y1="18.4773" x2="105.88" y2="60.8761" gradientUnits="userSpaceOnUse">
<stop stop-color="#F4FFE0"/>
<stop offset="0.125" stop-color="#F4FFE0"/>
<stop offset="0.15625" stop-color="#F3FEDF"/>
<stop offset="0.1875" stop-color="#F3FDDF"/>
<stop offset="0.203125" stop-color="#F2FDDE"/>
<stop offset="0.21875" stop-color="#F2FCDD"/>
<stop offset="0.234375" stop-color="#F1FBDD"/>
<stop offset="0.25" stop-color="#F0FADC"/>
<stop offset="0.257812" stop-color="#F0F9DB"/>
<stop offset="0.265625" stop-color="#EFF9DB"/>
<stop offset="0.273438" stop-color="#EFF8DA"/>
<stop offset="0.28125" stop-color="#EEF8DA"/>
<stop offset="0.289062" stop-color="#EEF7D9"/>
<stop offset="0.296875" stop-color="#EDF6D8"/>
<stop offset="0.304688" stop-color="#EDF6D8"/>
<stop offset="0.3125" stop-color="#ECF5D7"/>
<stop offset="0.320312" stop-color="#ECF4D7"/>
<stop offset="0.328125" stop-color="#EBF3D6"/>
<stop offset="0.335938" stop-color="#EAF3D5"/>
<stop offset="0.34375" stop-color="#EAF2D4"/>
<stop offset="0.351562" stop-color="#E9F1D4"/>
<stop offset="0.359375" stop-color="#E8F0D3"/>
<stop offset="0.367188" stop-color="#E8EFD2"/>
<stop offset="0.371094" stop-color="#E7EED1"/>
<stop offset="0.375" stop-color="#E6EED1"/>
<stop offset="0.378906" stop-color="#E6EDD0"/>
<stop offset="0.382812" stop-color="#E6ECD0"/>
<stop offset="0.386719" stop-color="#E5ECCF"/>
<stop offset="0.390625" stop-color="#E5EBCF"/>
<stop offset="0.394531" stop-color="#E4EBCE"/>
<stop offset="0.398438" stop-color="#E4EACE"/>
<stop offset="0.402344" stop-color="#E3EACD"/>
<stop offset="0.40625" stop-color="#E3E9CD"/>
<stop offset="0.410156" stop-color="#E3E9CC"/>
<stop offset="0.414062" stop-color="#E2E8CC"/>
<stop offset="0.417969" stop-color="#E2E7CB"/>
<stop offset="0.421875" stop-color="#E1E7CB"/>
<stop offset="0.425781" stop-color="#E1E6CA"/>
<stop offset="0.429688" stop-color="#E0E5CA"/>
<stop offset="0.433594" stop-color="#E0E5C9"/>
<stop offset="0.4375" stop-color="#DFE4C8"/>
<stop offset="0.441406" stop-color="#DFE3C8"/>
<stop offset="0.445312" stop-color="#DEE3C7"/>
<stop offset="0.449219" stop-color="#DEE2C7"/>
<stop offset="0.453125" stop-color="#DDE1C6"/>
<stop offset="0.457031" stop-color="#DCE1C5"/>
<stop offset="0.460938" stop-color="#DCE0C5"/>
<stop offset="0.464844" stop-color="#DBDFC4"/>
<stop offset="0.46875" stop-color="#DBDEC3"/>
<stop offset="0.472656" stop-color="#DADEC3"/>
<stop offset="0.476562" stop-color="#DADDC2"/>
<stop offset="0.480469" stop-color="#D9DCC1"/>
<stop offset="0.484375" stop-color="#D8DBC1"/>
<stop offset="0.488281" stop-color="#D8DBC0"/>
<stop offset="0.492187" stop-color="#D7DABF"/>
<stop offset="0.496094" stop-color="#D7D9BF"/>
<stop offset="0.5" stop-color="#D6D8BE"/>
<stop offset="0.503906" stop-color="#D5D7BD"/>
<stop offset="0.507812" stop-color="#D5D7BC"/>
<stop offset="0.511719" stop-color="#D4D6BC"/>
<stop offset="0.515625" stop-color="#D3D5BB"/>
<stop offset="0.519531" stop-color="#D3D4BA"/>
<stop offset="0.523437" stop-color="#D2D3B9"/>
<stop offset="0.527344" stop-color="#D1D2B9"/>
<stop offset="0.53125" stop-color="#D1D1B8"/>
<stop offset="0.535156" stop-color="#D0D0B7"/>
<stop offset="0.539062" stop-color="#CFCFB6"/>
<stop offset="0.542969" stop-color="#CECEB5"/>
<stop offset="0.546875" stop-color="#CECEB4"/>
<stop offset="0.550781" stop-color="#CDCDB4"/>
<stop offset="0.554688" stop-color="#CCCCB3"/>
<stop offset="0.558594" stop-color="#CBCBB2"/>
<stop offset="0.5625" stop-color="#CBCAB1"/>
<stop offset="0.566406" stop-color="#CAC9B0"/>
<stop offset="0.570312" stop-color="#C9C8AF"/>
<stop offset="0.574219" stop-color="#C8C7AE"/>
<stop offset="0.578125" stop-color="#C7C6AD"/>
<stop offset="0.582031" stop-color="#C7C4AD"/>
<stop offset="0.585938" stop-color="#C6C3AC"/>
<stop offset="0.589844" stop-color="#C5C2AB"/>
<stop offset="0.59375" stop-color="#C4C1AA"/>
<stop offset="0.597656" stop-color="#C3C0A9"/>
<stop offset="0.601563" stop-color="#C2BFA8"/>
<stop offset="0.605469" stop-color="#C2BEA7"/>
<stop offset="0.609375" stop-color="#C1BDA6"/>
<stop offset="0.613281" stop-color="#C0BCA5"/>
<stop offset="0.617188" stop-color="#BFBBA4"/>
<stop offset="0.621094" stop-color="#BEB9A3"/>
<stop offset="0.625" stop-color="#BDB8A2"/>
<stop offset="0.628906" stop-color="#BCB7A1"/>
<stop offset="0.632812" stop-color="#BBB6A0"/>
<stop offset="0.636719" stop-color="#BAB59F"/>
<stop offset="0.640625" stop-color="#B9B39D"/>
<stop offset="0.644531" stop-color="#B8B29C"/>
<stop offset="0.648437" stop-color="#B7B19B"/>
<stop offset="0.652344" stop-color="#B6B09A"/>
<stop offset="0.65625" stop-color="#B5AE99"/>
<stop offset="0.660156" stop-color="#B4AD98"/>
<stop offset="0.664062" stop-color="#B3AC97"/>
<stop offset="0.667969" stop-color="#B2AA96"/>
<stop offset="0.671875" stop-color="#B1A994"/>
<stop offset="0.675781" stop-color="#B0A893"/>
<stop offset="0.679688" stop-color="#AFA692"/>
<stop offset="0.683594" stop-color="#AEA591"/>
<stop offset="0.6875" stop-color="#ADA490"/>
<stop offset="0.691406" stop-color="#ACA28F"/>
<stop offset="0.695312" stop-color="#ABA18D"/>
<stop offset="0.699219" stop-color="#AAA08C"/>
<stop offset="0.703125" stop-color="#A99E8B"/>
<stop offset="0.707031" stop-color="#A89D8A"/>
<stop offset="0.710938" stop-color="#A79B88"/>
<stop offset="0.714844" stop-color="#A69A87"/>
<stop offset="0.71875" stop-color="#A49886"/>
<stop offset="0.722656" stop-color="#A39784"/>
<stop offset="0.726563" stop-color="#A29583"/>
<stop offset="0.730469" stop-color="#A19482"/>
<stop offset="0.734375" stop-color="#A09280"/>
<stop offset="0.738281" stop-color="#9F917F"/>
<stop offset="0.742188" stop-color="#9D8F7E"/>
<stop offset="0.746094" stop-color="#9C8E7C"/>
<stop offset="0.75" stop-color="#9B8C7B"/>
<stop offset="0.753906" stop-color="#9A8B7A"/>
<stop offset="0.757812" stop-color="#998978"/>
<stop offset="0.761719" stop-color="#978777"/>
<stop offset="0.765625" stop-color="#968675"/>
<stop offset="0.769531" stop-color="#958474"/>
<stop offset="0.773437" stop-color="#938272"/>
<stop offset="0.777344" stop-color="#928171"/>
<stop offset="0.78125" stop-color="#917F70"/>
<stop offset="0.785156" stop-color="#907D6E"/>
<stop offset="0.789062" stop-color="#8E7C6D"/>
<stop offset="0.792969" stop-color="#8D7A6B"/>
<stop offset="0.796875" stop-color="#8C786A"/>
<stop offset="0.800781" stop-color="#8A7668"/>
<stop offset="0.804688" stop-color="#897566"/>
<stop offset="0.808594" stop-color="#877365"/>
<stop offset="0.8125" stop-color="#867163"/>
<stop offset="0.816406" stop-color="#856F62"/>
<stop offset="0.820312" stop-color="#836E60"/>
<stop offset="0.824219" stop-color="#826C5F"/>
<stop offset="0.828125" stop-color="#806A5D"/>
<stop offset="0.832031" stop-color="#7F685B"/>
<stop offset="0.835938" stop-color="#7E665A"/>
<stop offset="0.839844" stop-color="#7C6458"/>
<stop offset="0.84375" stop-color="#7B6256"/>
<stop offset="0.847656" stop-color="#796155"/>
<stop offset="0.851563" stop-color="#785F53"/>
<stop offset="0.855469" stop-color="#765D51"/>
<stop offset="0.859375" stop-color="#755B50"/>
<stop offset="0.863281" stop-color="#73594E"/>
<stop offset="0.867188" stop-color="#72574C"/>
<stop offset="0.871094" stop-color="#70554A"/>
<stop offset="0.875" stop-color="#6F5349"/>
<stop offset="0.878906" stop-color="#6D5147"/>
<stop offset="0.882812" stop-color="#6B4F45"/>
<stop offset="0.886719" stop-color="#6A4D43"/>
<stop offset="0.890625" stop-color="#684B41"/>
<stop offset="0.894531" stop-color="#684A41"/>
<stop offset="0.898437" stop-color="#674940"/>
<stop offset="0.90625" stop-color="#674940"/>
<stop offset="0.9375" stop-color="#674940"/>
<stop offset="1" stop-color="#674940"/>
</linearGradient>
</defs>
</svg>
