<svg width="175" height="202" viewBox="0 0 175 202" fill="none" xmlns="http://www.w3.org/2000/svg">
<path d="M22.0625 198.735C11.2599 198.735 2.5 190.013 2.5 179.336V21.8982C2.5 11.2214 11.2599 2.5 22.0625 2.5H152.063C162.865 2.5 171.625 11.2214 171.625 21.8982V179.336C171.625 190.013 162.865 198.735 152.063 198.735H22.0625Z" fill="#79C392" stroke="#13644D" stroke-width="5"/>
<path d="M125.899 77.986C125.899 77.986 127.188 82.3193 137.477 82.9384C137.477 82.9384 149.698 79.2241 158.058 81.7003C166.419 84.1765 162.562 89.3146 158.058 91.6996C153.555 94.0879 136.191 96.5641 123.97 87.275C111.749 77.986 125.899 77.986 125.899 77.986Z" fill="#85560A"/>
<path d="M125.899 77.986C125.899 77.986 127.188 82.3193 137.477 82.9384C137.477 82.9384 149.698 79.2241 158.058 81.7003C166.419 84.1765 162.562 89.3146 158.058 91.6996C153.555 94.0879 136.191 96.5641 123.97 87.275C111.749 77.986 125.899 77.986 125.899 77.986Z" stroke="black" stroke-width="0.990667" stroke-miterlimit="10" stroke-linecap="round"/>
<path d="M23.3144 52.5918C23.3144 52.5918 22.0286 54.2176 23.9572 55.068C25.8858 55.9184 32.9606 55.6871 34.2463 66.2175C34.2463 66.2175 36.8211 65.7972 35.532 63.119C35.532 63.119 38.7497 64.3571 38.7497 69.9318C38.7497 69.9318 41.3211 66.8365 40.6783 66.2175C40.0354 65.5984 42.6069 69.9318 41.964 73.6494C41.3211 77.367 43.2531 70.5509 43.2531 70.5509C43.2531 70.5509 47.1102 81.1432 43.2531 89.4744C39.3926 97.8055 32.3177 94.707 32.3177 94.707C32.3177 94.707 32.5309 101.549 44.9651 97.8185C44.9651 97.8185 43.8959 95.326 49.0388 95.9451V94.4561C49.0388 94.4561 50.9708 95.326 50.9708 96.5641V93.2995C50.9708 93.2995 55.4708 95.326 56.1136 97.1832C56.1136 97.1832 59.9742 96.5642 59.3313 93.4689C59.3313 93.4689 65.2591 86.5322 70.9061 87.8941C78.6272 89.7513 81.1986 85.4179 81.1986 85.4179L86.3449 89.1322C86.3449 89.1322 82.6975 85.4179 76.6952 89.7513C74.1238 91.6085 76.0524 92.2308 76.0524 92.2308C76.0524 92.2308 76.0524 94.707 77.9809 94.0879C77.9809 94.0879 79.27 95.9451 80.5557 94.707C80.5557 94.707 81.8415 95.326 81.8415 95.9451C81.8415 95.9451 96.634 92.8498 101.78 95.9451C106.926 99.0436 113.355 95.326 113.355 95.326C113.355 95.326 114.137 95.8799 115.287 95.326C119.144 93.4689 140.369 68.6937 114.214 52.5918C109.498 45.1599 81.8415 45.1599 81.8415 45.1599C80.4204 45.6845 68.5005 45.9549 54.1851 35.8676C41.3211 33.3914 45.8245 36.4866 29.7463 38.9661C24.6001 39.5852 27.8144 48.8742 27.8144 48.8742C27.8144 48.8742 28.4572 53.8299 23.3144 52.5918Z" fill="#603813"/>
<path d="M23.3144 52.5918C23.3144 52.5918 22.0286 54.2176 23.9572 55.068C25.8858 55.9184 32.9606 55.6871 34.2463 66.2175C34.2463 66.2175 36.8211 65.7972 35.532 63.119C35.532 63.119 38.7497 64.3571 38.7497 69.9318C38.7497 69.9318 41.3211 66.8365 40.6783 66.2175C40.0354 65.5984 42.6069 69.9318 41.964 73.6494C41.3211 77.367 43.2531 70.5509 43.2531 70.5509C43.2531 70.5509 47.1102 81.1432 43.2531 89.4744C39.3926 97.8055 32.3177 94.707 32.3177 94.707C32.3177 94.707 32.5309 101.549 44.9651 97.8185C44.9651 97.8185 43.8959 95.326 49.0388 95.9451V94.4561C49.0388 94.4561 50.9708 95.326 50.9708 96.5641V93.2995C50.9708 93.2995 55.4708 95.326 56.1136 97.1832C56.1136 97.1832 59.9742 96.5641 59.3313 93.4689C59.3313 93.4689 65.2591 86.5322 70.9061 87.8941C78.6272 89.7513 81.1986 85.4179 81.1986 85.4179L86.3449 89.1322C86.3449 89.1322 82.6975 85.4179 76.6952 89.7513C74.1238 91.6085 76.0524 92.2308 76.0524 92.2308C76.0524 92.2308 76.0524 94.707 77.9809 94.0879C77.9809 94.0879 79.27 95.9451 80.5557 94.707C80.5557 94.707 81.8415 95.326 81.8415 95.9451C81.8415 95.9451 96.634 92.8498 101.78 95.9451C106.926 99.0436 113.355 95.326 113.355 95.326C113.355 95.326 114.137 95.8799 115.287 95.326C119.144 93.4689 140.369 68.6937 114.214 52.5918C109.498 45.1599 81.8415 45.1599 81.8415 45.1599C80.4204 45.6845 68.5005 45.9549 54.1851 35.8676C41.3211 33.3914 45.8245 36.4866 29.7463 38.9661C24.6001 39.5852 27.8144 48.8742 27.8144 48.8742C27.8144 48.8742 28.4572 53.8299 23.3144 52.5918Z" stroke="black" stroke-width="0.990667" stroke-miterlimit="10"/>
<path d="M36.2091 41.0644C36.2091 42.4426 34.8828 43.5601 33.2452 43.5601C31.6076 43.5601 30.2812 42.4426 30.2812 41.0644C30.2812 39.6862 31.6076 38.5686 33.2452 38.5686C34.8828 38.5686 36.2091 39.6862 36.2091 41.0644Z" fill="#EDEAE6"/>
<path d="M36.2091 41.0644C36.2091 42.4426 34.8828 43.5601 33.2452 43.5601C31.6076 43.5601 30.2812 42.4426 30.2812 41.0644C30.2812 39.6862 31.6076 38.5686 33.2452 38.5686C34.8828 38.5686 36.2091 39.6862 36.2091 41.0644Z" stroke="black" stroke-width="1.00533" stroke-miterlimit="10" stroke-linecap="round"/>
<path d="M34.7271 41.4195C34.7271 42.208 34.0639 42.8466 33.2451 42.8466C32.4263 42.8466 31.7632 42.208 31.7632 41.4195C31.7632 40.631 32.4263 39.9924 33.2451 39.9924C34.0639 39.9924 34.7271 40.631 34.7271 41.4195Z" fill="#E5E5E5"/>
<path d="M34.7271 41.4195C34.7271 42.208 34.0639 42.8466 33.2451 42.8466C32.4263 42.8466 31.7632 42.208 31.7632 41.4195C31.7632 40.631 32.4263 39.9924 33.2451 39.9924C34.0639 39.9924 34.7271 40.631 34.7271 41.4195Z" stroke="black" stroke-width="2.28" stroke-miterlimit="10" stroke-linecap="round"/>
<path d="M33.8331 40.2401C35.4335 40.693 36.7767 41.527 37.7207 42.5501C37.8256 42.3644 37.917 42.1689 37.9813 41.9604C38.5767 40.0055 36.9967 37.8388 34.4523 37.1187C31.9079 36.3987 29.3636 37.4022 28.7647 39.3538C28.6666 39.6829 28.6328 40.0185 28.6497 40.3541C30.1452 39.8002 31.9858 39.7155 33.8331 40.2401Z" fill="#483925"/>
<path d="M33.8331 40.2401C35.4335 40.693 36.7767 41.527 37.7207 42.5501C37.8256 42.3644 37.917 42.1689 37.9813 41.9604C38.5767 40.0055 36.9967 37.8388 34.4523 37.1187C31.9079 36.3987 29.3636 37.4022 28.7647 39.3538C28.6666 39.6829 28.6328 40.0185 28.6497 40.3541C30.1452 39.8002 31.9858 39.7155 33.8331 40.2401Z" stroke="black" stroke-width="0.910667" stroke-miterlimit="10"/>
<path d="M28.1356 40.2042C28.1356 40.2042 22.3499 38.4904 18.168 47.0887C18.168 47.0887 20.7394 52.8589 23.1518 53.6539C25.5642 54.4489 30.0676 51.9727 26.8499 46.398C26.2071 43.2994 28.1356 43.9185 28.1356 40.2042Z" fill="#483925"/>
<path d="M28.1356 40.2042C28.1356 40.2042 22.3499 38.4904 18.168 47.0887C18.168 47.0887 20.7394 52.8589 23.1518 53.6539C25.5642 54.4489 30.0676 51.9727 26.8499 46.398C26.2071 43.2994 28.1356 43.9185 28.1356 40.2042Z" stroke="black" stroke-width="0.790667" stroke-miterlimit="10"/>
<path d="M25.3075 48.8742C25.5342 47.2777 28.038 48.8905 28.8229 49.2815C29.8853 49.8908 30.9071 50.5619 31.9019 51.269C30.8598 50.6304 29.794 50.0309 28.6977 49.4965C28.2274 49.275 25.815 48.115 25.8218 48.8742H25.3075ZM25.2974 50.3469C27.6117 49.2619 29.3812 53.2825 30.112 54.8399C30.3759 55.5144 30.6737 56.2018 30.7109 56.9252C30.5113 55.547 27.4763 50.3664 25.832 51.1191L25.2974 50.3469Z" fill="black"/>
<path d="M43.5751 43.9218C43.5751 43.9218 38.7502 43.0942 42.9288 45.7789C44.8608 47.0171 47.4322 46.398 48.3525 44.5376C48.7348 43.7621 49.0935 42.9867 48.9277 42.1428C48.6333 40.6571 48.7179 38.347 46.1465 38.347C43.5751 38.347 42.9288 38.347 42.9288 39.5852C42.9288 40.3508 44.157 40.0217 45.0942 40.1358C45.71 40.2075 45.6085 40.2987 46.1465 41.4423C46.6642 42.5436 45.2566 44.7298 43.5751 43.9218Z" fill="#483925"/>
<path d="M43.5751 43.9218C43.5751 43.9218 38.7502 43.0942 42.9288 45.7789C44.8608 47.0171 47.4322 46.398 48.3525 44.5376C48.7348 43.7621 49.0935 42.9867 48.9277 42.1428C48.6333 40.6571 48.7179 38.347 46.1465 38.347C43.5751 38.347 42.9288 38.347 42.9288 39.5852C42.9288 40.3508 44.157 40.0217 45.0942 40.1358C45.71 40.2075 45.6085 40.2987 46.1465 41.4423C46.6642 42.5436 45.2566 44.7298 43.5751 43.9218Z" stroke="black" stroke-width="0.990667" stroke-miterlimit="10"/>
<path d="M30.6021 96.7401C30.9404 96.196 31.3295 95.7496 31.749 95.2967C32.0502 95.0198 32.3242 94.7982 32.5408 94.4431C32.8893 94.0326 33.3156 94.492 33.6675 94.8373C33.9584 95.1338 34.2697 95.603 34.4863 95.9744L34.5945 96.385C34.5844 97.0268 34.5099 97.9424 34.1209 98.4148C33.8231 98.7928 33.3596 98.2649 33.0381 98.1965C32.2126 97.9521 31.4682 97.6035 30.7103 97.1506L30.6021 96.7401Z" fill="#483925"/>
<path d="M30.6021 96.7401C30.9404 96.196 31.3295 95.7496 31.749 95.2967C32.0502 95.0198 32.3242 94.7982 32.5408 94.4431C32.8893 94.0326 33.3156 94.492 33.6675 94.8373C33.9584 95.1338 34.2697 95.603 34.4863 95.9744L34.5945 96.385C34.5844 97.0268 34.5099 97.9424 34.1209 98.4148C33.8231 98.7928 33.3596 98.2649 33.0381 98.1965C32.2126 97.9521 31.4682 97.6035 30.7103 97.1506L30.6021 96.7401Z" stroke="#020202" stroke-width="0.990667" stroke-miterlimit="10"/>
<path d="M32.1045 99.1707C32.2804 98.5582 32.5342 98.0304 32.8116 97.4862C33.0282 97.1409 33.2278 96.8574 33.3395 96.4567C33.5628 95.9744 34.1007 96.3068 34.5372 96.5511C34.8958 96.7629 35.3289 97.1344 35.6368 97.4374L35.8568 97.8055C36.0259 98.4279 36.2052 99.3304 35.9583 99.8843C35.7755 100.324 35.1834 99.9331 34.8552 99.9527C33.9925 99.9266 33.177 99.78 32.3244 99.5356L32.1045 99.1707Z" fill="#483925"/>
<path d="M32.1045 99.1707C32.2804 98.5582 32.5342 98.0304 32.8116 97.4862C33.0282 97.1409 33.2278 96.8574 33.3395 96.4567C33.5628 95.9744 34.1007 96.3068 34.5372 96.5511C34.8958 96.7629 35.3289 97.1344 35.6368 97.4374L35.8568 97.8055C36.0259 98.4279 36.2052 99.3304 35.9583 99.8843C35.7755 100.324 35.1834 99.9331 34.8552 99.9527C33.9925 99.9266 33.177 99.78 32.3244 99.5356L32.1045 99.1707Z" stroke="#020202" stroke-width="0.990667" stroke-miterlimit="10"/>
<path d="M34.0327 100.409C34.2087 99.7963 34.4624 99.2684 34.7399 98.7243C34.9564 98.379 35.156 98.0955 35.2677 97.698C35.491 97.2125 36.029 97.5449 36.4654 97.7892C36.8275 98.0043 37.2572 98.3757 37.5684 98.6755L37.785 99.0436C37.9541 99.6659 38.1335 100.568 37.8865 101.122C37.7072 101.562 37.1117 101.171 36.7835 101.191C35.9207 101.168 35.1053 101.018 34.2526 100.774L34.0327 100.409Z" fill="#483925" stroke="#020202" stroke-width="0.990667" stroke-miterlimit="10"/>
<path d="M56.7335 98.1215C56.0704 97.4275 55.8471 97.1669 55.7252 97.0235C55.6813 96.9616 55.6407 96.9062 55.6068 96.8769C55.5595 96.8117 55.6677 96.7303 55.7388 96.6944C55.8707 96.6684 56.1719 96.639 56.6557 96.6553C57.4643 96.6944 56.8486 96.8639 57.0008 96.9844L57.2106 97.2711C57.417 97.6947 57.691 98.2583 57.6674 98.809L56.7335 98.1215Z" fill="#4D3C26" stroke="black" stroke-width="0.990667" stroke-miterlimit="10"/>
<path d="M58.1608 97.5025C57.359 96.9551 57.0849 96.7466 56.936 96.6326C56.8785 96.5804 56.8244 96.5348 56.7871 96.5088C56.7229 96.4599 56.8142 96.3556 56.8717 96.3067C56.9969 96.2546 57.2845 96.1634 57.7616 96.0819C58.5601 95.9581 57.995 96.2481 58.171 96.3361L58.4383 96.5739C58.736 96.9453 59.1251 97.4438 59.2199 97.9847L58.1608 97.5025Z" fill="#4D3C26"/>
<path d="M58.1608 97.5025C57.359 96.9551 57.0849 96.7466 56.936 96.6326C56.8785 96.5804 56.8244 96.5348 56.7871 96.5088C56.7229 96.4599 56.8142 96.3556 56.8717 96.3067C56.9969 96.2546 57.2845 96.1634 57.7616 96.0819C58.5601 95.9581 57.995 96.2481 58.171 96.3361L58.4383 96.5739C58.736 96.9453 59.1251 97.4438 59.2199 97.9847L58.1608 97.5025Z" stroke="black" stroke-width="0.990667" stroke-miterlimit="10"/>
<path d="M59.5486 96.8639C58.6655 96.4469 58.3643 96.2807 58.1952 96.1895C58.1309 96.1471 58.07 96.1113 58.0294 96.0917C57.9583 96.0526 58.0294 95.9353 58.0835 95.88C58.1952 95.8083 58.4659 95.6747 58.9226 95.5216C59.694 95.2805 59.1798 95.6519 59.3692 95.7105L59.6704 95.9028C60.0256 96.2253 60.4925 96.6587 60.6753 97.1767L59.5486 96.8639ZM74.1583 92.6413C74.6862 91.8431 74.8892 91.5694 75.0042 91.4195C75.055 91.3609 75.0989 91.3087 75.1226 91.2696C75.1734 91.2077 75.2817 91.2892 75.3358 91.3446C75.3967 91.4619 75.505 91.7356 75.6132 92.1884C75.779 92.9509 75.4508 92.4198 75.3696 92.5957L75.1362 92.8629C74.764 93.1659 74.2666 93.5667 73.7117 93.6839L74.1583 92.6413Z" fill="#4D3C26" stroke="black" stroke-width="0.990667" stroke-miterlimit="10"/>
<path d="M74.8721 94.039C75.5793 93.1919 75.85 92.9052 76.0022 92.7488C76.0733 92.6869 76.1308 92.6315 76.1646 92.5924C76.2323 92.5272 76.3981 92.625 76.4793 92.6902C76.5774 92.8205 76.7533 93.1333 76.9462 93.6448C77.2439 94.4984 76.7297 93.8892 76.6214 94.0749L76.3067 94.3551C75.7924 94.6646 75.1022 95.0686 74.3037 95.1599L74.8721 94.039Z" fill="#4D3C26"/>
<path d="M74.8721 94.039C75.5793 93.1919 75.85 92.9052 76.0022 92.7488C76.0733 92.6869 76.1308 92.6315 76.1646 92.5924C76.2323 92.5272 76.3981 92.625 76.4793 92.6902C76.5774 92.8205 76.7533 93.1333 76.9462 93.6448C77.2439 94.4984 76.7297 93.8892 76.6214 94.0749L76.3067 94.3551C75.7924 94.6646 75.1022 95.0686 74.3037 95.1599L74.8721 94.039Z" stroke="black" stroke-width="0.990667" stroke-miterlimit="10"/>
<path d="M76.1602 94.6582C76.8639 93.8111 77.1346 93.5243 77.2869 93.3679C77.3579 93.306 77.4188 93.2507 77.4493 93.2116C77.517 93.1464 77.6861 93.2441 77.7639 93.3093C77.8654 93.4396 78.038 93.7524 78.2309 94.2639C78.5286 95.1176 78.0143 94.5083 77.906 94.694L77.5914 94.9742C77.0771 95.2838 76.3869 95.6878 75.5884 95.7823L76.1602 94.6582Z" fill="#4D3C26"/>
<path d="M76.1602 94.6582C76.8639 93.8111 77.1346 93.5243 77.2869 93.3679C77.3579 93.306 77.4188 93.2507 77.4493 93.2116C77.517 93.1464 77.6861 93.2441 77.7639 93.3093C77.8654 93.4396 78.038 93.7524 78.2309 94.2639C78.5286 95.1176 78.0143 94.5083 77.906 94.694L77.5914 94.9742C77.0771 95.2838 76.3869 95.6878 75.5884 95.7823L76.1602 94.6582Z" stroke="black" stroke-width="0.990667" stroke-miterlimit="10"/>
<path d="M78.2175 95.9223C79.1276 95.1175 79.4829 94.8471 79.6825 94.6972C79.7739 94.6418 79.8517 94.5897 79.8923 94.5506C79.9836 94.4919 80.2239 94.6027 80.3423 94.6744C80.4912 94.8178 80.7584 95.1468 81.0697 95.6812C81.5603 96.5739 80.7923 95.9125 80.6569 96.095L80.2408 96.3556C79.5506 96.6293 78.6201 96.9877 77.5171 97.0203L78.2175 95.9223Z" fill="#4D3C26"/>
<path d="M78.2175 95.9223C79.1276 95.1175 79.4829 94.8471 79.6825 94.6972C79.7739 94.6418 79.8517 94.5897 79.8923 94.5506C79.9836 94.4919 80.2239 94.6027 80.3423 94.6744C80.4912 94.8178 80.7584 95.1468 81.0697 95.6812C81.5603 96.5739 80.7923 95.9125 80.6569 96.095L80.2408 96.3556C79.5505 96.6293 78.6201 96.9877 77.5171 97.0203L78.2175 95.9223Z" stroke="black" stroke-width="0.990667" stroke-miterlimit="10"/>
<path d="M55.4979 95.7235C45.6892 93.7165 48.5077 86.0598 54.1885 81.0748C55.7923 79.5955 57.5144 78.2597 59.3314 77.0542C56.2321 79.9409 52.8859 82.8472 50.8152 86.5159C48.193 90.9861 50.8964 94.3127 55.4979 95.7235ZM78.3227 87.6465C81.7028 85.1507 83.4927 81.1888 84.7411 77.38C85.3333 78.3509 86.1284 79.3512 86.3077 80.4655C86.3111 80.485 86.3077 80.4296 86.2739 80.371C86.2468 80.3742 86.3314 80.3482 86.0844 80.2407C85.7663 80.2569 85.8002 80.371 85.7697 80.397C85.8949 79.1068 86.1622 77.292 85.8915 75.878C85.8814 75.8389 85.8577 75.8095 85.8746 75.8258C85.8848 75.8389 85.9152 75.8649 85.9795 75.878C86.1453 75.9105 86.3111 75.6825 86.2434 75.5358C86.2569 75.5587 86.3517 75.6629 86.3754 75.6857C87.1536 76.4221 88.0299 77.0835 88.896 77.7514L88.4021 77.9893C88.3716 76.6469 88.3175 75.2882 88.1618 73.9589C88.1314 73.5712 87.9757 72.8804 87.8844 72.6621C87.9521 72.7012 88.0671 72.6491 88.1111 72.5253C88.1415 72.4569 88.1111 72.3787 88.1111 72.3787C88.0739 72.3103 88.1009 72.3624 88.1212 72.3722C88.6761 72.7794 89.346 73.1085 89.9889 73.4441L89.6438 73.6819C89.2411 71.5446 88.3547 65.3931 85.3806 65.5984C85.7968 65.4974 86.2502 65.5789 86.6257 65.7906C87.7389 66.4683 88.2972 67.7097 88.7911 68.8305C89.4678 70.515 89.884 72.2777 90.2021 74.0599C89.3765 73.6461 88.5272 73.317 87.7592 72.7664C87.7152 72.7208 87.6746 72.7143 87.6002 72.5709C87.5359 72.4797 87.6036 72.2321 87.7524 72.1864C88.5881 71.9193 88.6118 73.4115 88.7235 73.8905C88.9299 75.4642 88.984 77.0314 89.0348 78.6051C87.9318 77.7449 86.734 76.9694 85.7697 75.9431C85.7088 75.8714 85.6445 75.7704 85.6276 75.6564C85.6378 75.083 86.3855 75.2003 86.4904 75.6857C86.7814 77.3311 86.531 78.9765 86.2975 80.6121C86.2536 80.6577 86.2975 80.762 85.9727 80.7815C85.7224 80.6707 85.8036 80.6479 85.7765 80.6479C85.6987 80.472 85.7596 80.4557 85.7054 80.2993C85.4652 79.5304 85.0084 78.8168 84.5889 78.1228L85.0761 78.0642C83.7261 81.6971 81.7671 85.4765 78.3227 87.6465Z" fill="black"/>
<path d="M81.6088 85.4016C88.5956 91.2142 96.2389 91.654 100.401 82.7494L100.357 82.9384L100.35 82.0978L100.329 79.0253C100.715 80.2439 101.541 82.8472 101.92 84.0462L100.989 84.0885C101.216 83.0101 101.778 80.384 102.001 79.3381C102.289 80.1917 102.881 81.9414 103.175 82.8015L102.37 82.6973C105.503 77.6634 108.754 71.1666 106.21 65.3214C105.807 64.5297 105.293 63.7901 104.674 63.1189C110.453 68.6382 106.704 77.4516 103.121 83.1795L102.623 83.9386C102.431 83.3913 101.862 81.7948 101.663 81.2213L102.559 81.1692L101.93 84.2677L101.551 86.1379C101.26 85.1702 100.664 83.1958 100.37 82.2248L101.28 82.0978L101.277 82.9384C97.0475 92.3089 88.5144 92.1884 81.6088 85.4016ZM43.2539 70.5508C44.0558 75.4576 48.302 78.807 53.0185 80.1135C53.6986 80.3025 54.3922 80.4589 55.0825 80.6609C54.3719 80.5958 53.658 80.5013 52.9441 80.4068C47.9704 79.5825 43.1997 75.6922 43.2539 70.5508Z" fill="black"/>
<path d="M31.0826 129.544C31.5241 129.544 31.8095 129.823 31.9385 130.373C32.0269 132.921 32.0744 135.699 32.0744 138.716C32.0744 141.732 32.054 143.478 32.0201 143.946C31.9827 144.408 31.8604 144.735 31.6532 144.925C31.4528 145.115 31.086 145.21 30.5527 145.21C30.0636 145.21 29.819 144.959 29.819 144.449V139.15C29.819 138.291 29.7986 137.408 29.7646 136.501C29.7273 135.587 29.7103 135.013 29.7103 134.775C29.0853 135.692 28.2497 136.443 27.2103 137.031C26.1675 137.612 25.0092 137.9 23.7321 137.9C22.4549 137.9 21.3748 137.459 20.4984 136.569C20.461 137.52 20.4441 138.654 20.4441 139.966C20.4441 141.27 20.4509 142.642 20.4712 144.082C20.4712 144.473 20.315 144.758 20.0093 144.938C19.7104 145.122 19.3639 145.21 18.9767 145.21C18.4672 145.21 18.2158 144.952 18.2158 144.436C18.2328 143.023 18.243 140.791 18.243 137.737V131.066C18.243 130.805 18.3517 130.55 18.5691 130.305C18.7865 130.054 19.0344 129.925 19.3164 129.925C19.6051 129.925 19.8666 129.993 20.1044 130.129C20.349 130.258 20.478 130.455 20.4984 130.726C20.5799 132.459 20.9128 133.75 21.5038 134.599C22.1017 135.441 22.8082 135.862 23.6234 135.862C24.4386 135.862 25.1349 135.75 25.7158 135.523C26.3034 135.298 26.7891 135.034 27.1696 134.735C27.55 134.436 27.9168 134.015 28.2701 133.471C28.766 132.683 29.2483 131.718 29.7103 130.577C29.9888 129.891 30.4474 129.544 31.0826 129.544Z" fill="black"/>
<path d="M36.2972 130.346C36.6301 130.346 36.9426 130.482 37.2347 130.754C37.5336 131.018 37.6831 131.294 37.6831 131.582C37.6831 131.874 37.52 132.167 37.1939 132.465C36.8746 132.758 36.5418 132.9 36.1885 132.9C35.8352 132.9 35.5126 132.778 35.2238 132.533C34.9317 132.282 34.7891 131.959 34.7891 131.569C34.7891 130.818 35.2714 130.41 36.2429 130.346H36.2972ZM37.4657 142.642L37.4928 144.286C37.4928 144.585 37.3502 144.836 37.0717 145.033C36.7999 145.224 36.5044 145.319 36.1885 145.319C35.7266 145.319 35.4854 145.125 35.4684 144.734C35.2238 139.745 35.1016 136.983 35.1016 136.446C35.1016 135.913 35.1287 135.264 35.1831 134.504C35.217 134.225 35.431 134.082 35.8217 134.082C36.8067 134.082 37.3638 134.419 37.4928 135.088C37.5472 135.434 37.5744 135.706 37.5744 135.903L37.4657 137.384V142.642Z" fill="black"/>
<path d="M43.8528 134.64L46.1354 138.023C46.7671 137.445 47.3616 136.8 47.9152 136.093L49.0837 134.64C49.3079 134.378 49.5864 134.246 49.9125 134.246C50.2386 134.246 50.5001 134.327 50.7005 134.49C50.9077 134.653 51.013 134.85 51.013 135.074C51.013 135.302 50.6224 135.913 49.8446 136.909C49.0633 137.907 48.2277 138.872 47.331 139.803C47.5008 140.02 47.8745 140.533 48.4451 141.338C49.0226 142.136 49.6544 142.894 50.3337 143.607C50.4696 143.78 50.5375 143.987 50.5375 144.232C50.5375 144.476 50.422 144.704 50.1978 144.911C49.9804 145.112 49.7291 145.21 49.4506 145.21C48.9886 145.21 48.384 144.775 47.6435 143.906C46.8996 143.036 46.2373 142.085 45.6598 141.053C45.1062 141.698 44.5627 142.37 44.0294 143.077C43.5029 143.777 43.0953 144.286 42.8066 144.612C42.5247 144.932 42.2122 145.088 41.8691 145.088C41.5226 145.088 41.2509 145.003 41.0539 144.83C40.8637 144.66 40.7686 144.446 40.7686 144.191C40.7686 143.586 42.0661 142.044 44.668 139.572C44.3487 139.055 43.7746 138.25 42.9425 137.153C42.1069 136.059 41.6925 135.387 41.6925 135.142C41.6925 134.891 41.8147 134.667 42.0593 134.476C42.3107 134.286 42.63 134.191 43.0104 134.191C43.3908 134.191 43.6693 134.341 43.8528 134.64Z" fill="black"/>
<path d="M67.3891 134.218C68.2043 134.218 68.6119 134.809 68.6119 135.985V136.379L68.5576 138.023C68.5372 138.539 68.5304 139.048 68.5304 139.544L68.9516 144.857C68.9516 145.244 68.476 145.441 67.525 145.441H67.1174C66.9068 145.441 66.7641 145.366 66.6826 145.224C66.6011 145.088 66.5909 144.921 66.6554 144.721C66.7165 144.514 66.6962 144.283 66.5875 144.028C65.7349 144.799 64.6038 145.183 63.1908 145.183C60.5719 145.183 59.2642 143.478 59.2642 140.061C59.2642 138.169 59.6854 136.739 60.5277 135.767C61.3769 134.799 62.5929 134.313 64.169 134.313C64.9095 134.313 65.65 134.422 66.3837 134.639C66.6282 134.361 66.9611 134.218 67.3891 134.218ZM64.4951 136.351C63.4353 136.351 62.6473 136.61 62.131 137.126C61.6147 137.642 61.3565 138.59 61.3565 139.965C61.3565 142.285 62.097 143.444 63.5848 143.444C63.972 143.444 64.4034 143.294 64.8755 142.995C65.3443 142.696 65.6772 142.364 65.8674 141.99C66.2104 141.148 66.3837 140.224 66.3837 139.218C66.3837 138.213 66.2376 137.486 65.9489 137.031C65.667 136.579 65.1812 136.351 64.4951 136.351Z" fill="black"/>
<path d="M71.627 144.449L71.3145 134.925C71.3145 134.626 71.4299 134.388 71.6677 134.205C71.9123 134.014 72.1568 133.919 72.4014 133.919C72.9992 133.919 73.3423 134.13 73.434 134.544C73.5053 134.972 73.5427 135.41 73.5427 135.862C74.5481 134.748 75.7981 134.191 77.2927 134.191C79.5922 134.191 80.7437 136.406 80.7437 140.835V142.683C80.7437 143.508 80.6894 144.106 80.5807 144.476C80.4516 144.948 80.0542 145.183 79.385 145.183C78.9401 145.183 78.7193 144.935 78.7193 144.436L78.7465 143.118C78.7465 141.297 78.6717 140.057 78.5291 139.395C78.3932 138.736 78.2607 138.206 78.1351 137.805C77.8158 136.963 77.3063 136.542 76.5997 136.542C75.6758 136.542 75.0271 136.824 74.6568 137.384C74.2492 138.002 74.008 138.722 73.9367 139.544C73.8008 141.005 73.7329 142.547 73.7329 144.177C73.7329 144.486 73.5903 144.734 73.3117 144.925C73.04 145.115 72.7071 145.21 72.3199 145.21C71.8579 145.21 71.627 144.959 71.627 144.449Z" fill="black"/>
<path d="M89.8223 134.191L89.7952 129.667C89.7952 128.817 90.1145 128.389 90.7598 128.389C91.4018 128.389 91.7585 128.627 91.8332 129.096C91.8672 129.307 91.9147 130.536 91.9691 132.792C92.0234 135.04 92.1083 137.15 92.2272 139.123C92.3529 141.1 92.4174 142.938 92.4174 144.639C92.4174 145.111 91.9996 145.346 91.1674 145.346C90.6036 145.346 90.3251 145.02 90.3251 144.368C89.5268 144.894 88.5791 145.156 87.4854 145.156C86.0995 145.156 84.9718 144.721 84.1023 143.851C83.2395 142.975 82.8115 141.891 82.8115 140.604C82.8115 139.32 83.1172 138.118 83.7354 137.003C84.3604 135.883 85.3319 135.081 86.6566 134.599C87.4718 134.3 88.2599 134.15 89.0207 134.15C89.2992 134.15 89.5676 134.164 89.8223 134.191ZM89.9718 137.397C89.8359 137.065 89.6729 136.806 89.4827 136.623C89.2992 136.443 89.1022 136.334 88.8848 136.297C88.6742 136.263 88.4229 136.243 88.124 136.243C87.8319 136.243 87.4718 136.338 87.037 136.528C86.609 136.711 86.2524 137.014 85.9637 137.438C85.3659 138.281 85.0669 139.171 85.0669 140.101C85.0669 141.035 85.2843 141.796 85.7191 142.384C86.1539 142.965 86.7721 143.253 87.5805 143.253C88.3957 143.253 89.0343 142.921 89.4963 142.248C89.9582 141.579 90.1892 140.719 90.1892 139.666C90.1892 138.491 90.1145 137.734 89.9718 137.397Z" fill="black"/>
<path d="M113.696 129.544C114.137 129.544 114.423 129.823 114.552 130.373C114.64 132.921 114.688 135.699 114.688 138.716C114.688 141.732 114.667 143.478 114.633 143.946C114.596 144.408 114.474 144.735 114.266 144.925C114.066 145.115 113.699 145.21 113.166 145.21C112.677 145.21 112.432 144.959 112.432 144.449V139.15C112.432 138.291 112.412 137.408 112.378 136.501C112.341 135.587 112.324 135.013 112.324 134.775C111.699 135.692 110.863 136.443 109.824 137.031C108.781 137.612 107.623 137.9 106.345 137.9C105.068 137.9 103.988 137.459 103.112 136.569C103.074 137.52 103.057 138.654 103.057 139.966C103.057 141.27 103.064 142.642 103.085 144.082C103.085 144.473 102.928 144.758 102.623 144.938C102.324 145.122 101.977 145.21 101.59 145.21C101.08 145.21 100.829 144.952 100.829 144.436C100.846 143.023 100.856 140.791 100.856 137.737V131.066C100.856 130.805 100.965 130.55 101.182 130.305C101.4 130.054 101.648 129.925 101.93 129.925C102.218 129.925 102.48 129.993 102.718 130.129C102.962 130.258 103.091 130.455 103.112 130.726C103.193 132.459 103.526 133.75 104.117 134.599C104.715 135.441 105.421 135.862 106.237 135.862C107.052 135.862 107.748 135.75 108.329 135.523C108.917 135.298 109.402 135.034 109.783 134.735C110.163 134.436 110.53 134.015 110.883 133.471C111.379 132.683 111.862 131.718 112.324 130.577C112.602 129.891 113.061 129.544 113.696 129.544Z" fill="black"/>
<path d="M124.835 134.218C125.65 134.218 126.058 134.809 126.058 135.985V136.379L126.003 138.023C125.983 138.539 125.976 139.048 125.976 139.544L126.397 144.857C126.397 145.244 125.922 145.441 124.971 145.441H124.563C124.353 145.441 124.21 145.366 124.128 145.224C124.047 145.088 124.037 144.921 124.101 144.721C124.162 144.514 124.142 144.283 124.033 144.028C123.181 144.799 122.05 145.183 120.637 145.183C118.018 145.183 116.71 143.478 116.71 140.061C116.71 138.169 117.131 136.739 117.974 135.767C118.823 134.799 120.039 134.313 121.615 134.313C122.355 134.313 123.096 134.422 123.829 134.639C124.074 134.361 124.407 134.218 124.835 134.218ZM121.941 136.351C120.881 136.351 120.093 136.61 119.577 137.126C119.06 137.642 118.802 138.59 118.802 139.965C118.802 142.285 119.543 143.444 121.031 143.444C121.418 143.444 121.849 143.294 122.321 142.995C122.79 142.696 123.123 142.364 123.313 141.99C123.656 141.148 123.829 140.224 123.829 139.218C123.829 138.213 123.683 137.486 123.395 137.031C123.113 136.579 122.627 136.351 121.941 136.351Z" fill="black"/>
<path d="M128.707 134.218L130.092 134.245C130.408 134.245 130.585 134.239 130.622 134.218V129.409C130.639 129.137 130.799 128.913 131.098 128.729C131.397 128.539 131.672 128.444 131.927 128.444C132.188 128.444 132.395 128.519 132.552 128.661C132.715 128.797 132.786 129.014 132.769 129.313C132.749 129.612 132.742 131.239 132.742 134.191L136.003 134.096C136.553 134.096 136.831 134.375 136.831 134.925C136.831 135.332 136.685 135.641 136.397 135.849C136.115 136.049 135.812 136.158 135.486 136.175C135.16 136.185 134.838 136.188 134.522 136.188L132.823 136.161C132.823 136.807 132.898 138.074 133.054 139.965C133.217 141.861 133.343 143.087 133.435 143.648C133.523 144.201 133.543 144.558 133.489 144.721C133.435 144.884 133.333 144.999 133.19 145.061C132.946 145.162 132.62 145.21 132.212 145.21C131.804 145.21 131.563 145.02 131.492 144.639C131.118 142.595 130.87 139.775 130.745 136.188C130.571 136.209 129.929 136.216 128.815 136.216C127.701 136.216 127.144 135.94 127.144 135.387C127.144 134.609 127.664 134.218 128.707 134.218Z" fill="black"/>
<path d="M137.217 139.694C137.217 138.644 137.547 137.69 138.209 136.827C138.868 135.967 139.707 135.326 140.723 134.898C141.745 134.463 142.737 134.245 143.698 134.245C144.666 134.245 145.441 134.347 146.022 134.544C146.609 134.734 146.905 134.993 146.905 135.319C146.905 135.638 146.796 135.957 146.579 136.283C146.368 136.603 146.089 136.759 145.736 136.759C145.607 136.759 145.251 136.671 144.663 136.487C144.072 136.307 143.698 136.215 143.535 136.215C142.455 136.215 141.538 136.552 140.777 137.221C140.016 137.883 139.636 138.763 139.636 139.857C139.636 140.954 139.843 141.772 140.261 142.316C140.675 142.853 141.395 143.118 142.421 143.118C142.829 143.118 143.525 142.921 144.513 142.52C145.509 142.122 146.13 141.922 146.375 141.922C146.619 141.922 146.813 141.986 146.959 142.112C147.102 142.231 147.176 142.384 147.176 142.574C147.176 142.955 146.891 143.355 146.32 143.77C145.757 144.177 145.06 144.524 144.228 144.802C143.393 145.074 142.642 145.21 141.973 145.21C140.495 145.21 139.33 144.717 138.481 143.729C137.638 142.744 137.217 141.399 137.217 139.694Z" fill="black"/>
<path d="M151.413 137.574L151.63 143.118C151.63 143.807 151.593 144.205 151.521 144.313C151.484 144.595 151.375 144.816 151.195 144.979C151.022 145.135 150.686 145.21 150.19 145.21C149.945 145.21 149.745 145.084 149.592 144.83C149.446 144.568 149.364 144.269 149.347 143.933C149.218 141.182 149.048 138.593 148.831 136.175C148.62 133.756 148.519 131.511 148.519 129.436C148.519 129.103 148.644 128.845 148.899 128.661C149.161 128.471 149.47 128.376 149.823 128.376C150.346 128.376 150.658 128.753 150.76 129.504C150.859 130.258 150.923 131.195 150.951 132.316C150.978 133.44 151.008 134.259 151.046 134.775C151.976 134.378 152.907 134.178 153.831 134.178C155.985 134.178 157.35 134.976 157.921 136.569C158.254 137.476 158.423 138.641 158.423 140.061C158.423 140.533 158.372 141.277 158.274 142.289C158.172 143.294 158.111 143.947 158.084 144.245C158.063 144.544 157.91 144.775 157.622 144.938C157.34 145.101 157.031 145.183 156.698 145.183C156.182 145.183 155.923 144.949 155.923 144.476L156.114 140.387C156.114 140.044 156.093 139.473 156.059 138.675C156.022 137.88 155.832 137.248 155.489 136.786C155.142 136.317 154.544 136.08 153.695 136.08C152.173 136.08 151.413 136.579 151.413 137.574Z" fill="black"/>
</svg>
