<svg width="176" height="202" viewBox="0 0 176 202" fill="none" xmlns="http://www.w3.org/2000/svg">
<path d="M22.0283 198.735C11.2674 198.735 2.5 189.959 2.5 179.173V22.0654C2.5 11.275 11.2676 2.5 22.0283 2.5H153.14C163.9 2.5 172.668 11.275 172.668 22.0654V179.173C172.668 189.959 163.901 198.735 153.14 198.735H22.0283Z" fill="#79C392" stroke="#13644D" stroke-width="5"/>
<path d="M72.052 145.022L71.6172 144.601C70.0038 145.736 68.0337 146.391 65.707 146.571C63.995 146.463 62.4529 145.98 61.0874 145.117C59.7186 144.248 58.686 143.161 57.9896 141.857C57.3001 140.552 56.957 139.241 56.957 137.916C56.957 135.399 57.7383 133.147 59.3076 131.164C60.048 130.179 61.0195 129.397 62.2151 128.827C63.4108 128.249 64.7185 127.957 66.1417 127.957C67.5718 127.957 68.9203 128.229 70.1906 128.772C71.4576 129.309 72.4936 130.036 73.302 130.96C74.9766 132.889 75.8156 135.101 75.8156 137.59C75.8156 139.465 75.1362 141.245 73.7776 142.93C73.7776 142.95 74.1308 143.253 74.8373 143.84C75.4895 144.438 75.8156 144.883 75.8156 145.172C75.8156 145.464 75.6967 145.756 75.4623 146.055C75.2246 146.347 74.8373 146.49 74.2939 146.49C73.7504 146.49 73.0031 146.001 72.052 145.022ZM61.1961 141.979C62.2355 143.521 63.8761 144.35 66.1146 144.465C67.925 144.329 69.338 143.949 70.3537 143.324L67.6771 140.783C66.9773 140.141 66.6309 139.649 66.6309 139.302C66.6309 138.959 66.7735 138.674 67.0656 138.446C67.3646 138.212 67.7314 138.093 68.1662 138.093C68.6078 138.093 69.192 138.406 69.9189 139.031C70.3435 139.438 70.9175 140.022 71.6444 140.783C71.9603 141.157 72.1641 141.378 72.2558 141.449C72.9793 140.382 73.3428 139.204 73.3428 137.916C73.3428 135.029 72.1641 132.821 69.8102 131.3C68.6315 130.522 67.2423 130.131 65.639 130.131C63.5636 130.131 62.0283 130.912 61.0331 132.468C60.1907 133.837 59.7695 135.416 59.7695 137.21C59.7695 139.003 60.245 140.593 61.1961 141.979Z" fill="black"/>
<path d="M78.7815 134.547C78.8698 134.241 79.06 133.983 79.3522 133.772C79.6511 133.555 79.95 133.446 80.2489 133.446C80.5546 133.446 80.7958 133.494 80.969 133.582C81.1388 133.674 81.2407 133.755 81.2679 133.827C81.3019 133.901 81.3426 134.031 81.3902 134.221C81.2543 135.671 81.1864 136.975 81.1864 138.134C81.1864 139.295 81.3528 140.62 81.6891 142.115C82.0322 143.602 82.4092 144.343 82.8168 144.343C83.4214 144.343 84.1925 144.068 85.1266 143.514C86.0675 142.954 86.7434 142.369 87.151 141.761C86.8793 139.092 86.7434 136.799 86.7434 134.886C86.7434 134.499 86.8962 134.166 87.2053 133.895C87.5111 133.616 87.8779 133.473 88.3059 133.473C89.0124 133.473 89.3657 133.864 89.3657 134.642C89.3657 135.956 89.4811 137.913 89.7189 140.511C89.9533 143.103 90.1945 144.751 90.439 145.457C90.4832 145.613 90.507 145.79 90.507 145.987C90.507 146.177 90.3507 146.361 90.045 146.53C89.7461 146.71 89.3521 146.802 88.8629 146.802C88.3806 146.802 88.0613 146.575 87.8983 146.123C87.8507 145.753 87.7386 145.199 87.5586 144.465C85.9825 145.817 84.3861 146.49 82.776 146.49C82.0322 146.49 81.3664 146.259 80.7788 145.797C80.1877 145.335 79.7258 144.706 79.3929 143.908C78.8019 142.369 78.5098 140.926 78.5098 139.574C78.5098 138.215 78.5981 136.541 78.7815 134.547Z" fill="black"/>
<path d="M94.6838 128.881C95.0914 128.881 95.4719 129.041 95.8251 129.357C96.1852 129.666 96.3686 129.992 96.3686 130.335C96.3686 130.681 96.1682 131.028 95.7708 131.381C95.3802 131.734 94.9692 131.911 94.5344 131.911C94.1064 131.911 93.7192 131.762 93.3659 131.463C93.0194 131.164 92.8496 130.783 92.8496 130.321C92.8496 129.435 93.4372 128.956 94.6159 128.881H94.6838ZM96.0969 143.46L96.1376 145.403C96.1376 145.756 95.9644 146.052 95.6213 146.286C95.2851 146.51 94.9284 146.626 94.548 146.626C93.9773 146.626 93.6818 146.395 93.6648 145.933C93.3659 140.019 93.2165 136.748 93.2165 136.123C93.2165 135.491 93.2504 134.717 93.3251 133.8C93.3693 133.467 93.6275 133.297 94.0996 133.297C95.2952 133.297 95.9746 133.698 96.1376 134.493C96.1988 134.9 96.2327 135.226 96.2327 135.471L96.0969 137.224V143.46Z" fill="black"/>
<path d="M106.263 135.756L101.413 136.109C100.343 136.109 99.8096 135.729 99.8096 134.968C99.8096 134.173 100.367 133.745 101.481 133.691C101.814 133.674 103.994 133.664 108.016 133.664C108.858 133.664 109.694 133.851 110.53 134.221C111.498 134.666 111.983 135.372 111.983 136.34C111.983 137.302 111.172 138.358 109.551 139.506C108.872 139.988 108.145 140.467 107.377 140.946C104.867 142.516 103.614 143.501 103.614 143.908C103.614 144.18 104.035 144.316 104.877 144.316C105.727 144.316 106.508 144.275 107.214 144.194C107.928 144.112 108.695 144.024 109.511 143.922C110.326 143.813 110.835 143.759 111.046 143.759C111.987 143.759 112.459 144.041 112.459 144.601C112.459 145.861 110.153 146.49 105.543 146.49C103.865 146.49 102.67 146.347 101.956 146.055C101.25 145.756 100.781 145.226 100.557 144.465C100.536 144.35 100.53 144.234 100.53 144.126C100.53 143.609 100.89 142.981 101.617 142.237C102.602 141.232 103.903 140.277 105.516 139.37C107.343 138.331 108.403 137.597 108.695 137.169C108.858 136.925 108.916 136.714 108.872 136.531C108.736 136.014 107.867 135.756 106.263 135.756Z" fill="black"/>
<path d="M63.1683 40.7142C63.1683 40.7142 80.3886 32.088 83.9215 31.407C87.451 30.7226 101.693 32.5691 114.716 42.7776C127.742 52.9895 141.65 65.3697 138.117 79.4881C134.584 93.6099 135.249 108.162 116.041 111.855C96.8342 115.548 61.512 112.506 59.8557 111.855C58.1995 111.204 42.749 70.8009 42.749 70.8009C42.749 70.8009 53.5647 45.1696 63.1683 40.7142Z" fill="#F8F2EC"/>
<path d="M37.9851 70.786C37.9851 70.786 25.1137 61.8654 28.8233 50.556C32.5295 39.2432 39.4996 36.6304 40.7043 36.5218C42.7872 35.9789 55.4204 42.4226 55.0051 45.1167C54.5219 48.2656 47.4736 72.7812 37.9851 70.786ZM96.8287 32.9522C96.8287 32.9522 97.3358 24.6661 101.481 24.0146C105.626 23.3632 117.752 32.3958 110.163 39.518C96.9002 32.9319 99.16 32.7487 96.8287 32.9522Z" fill="#030000"/>
<path d="M82.4156 76.4237C82.4156 76.4237 80.181 78.6162 76.1427 75.4204C72.1044 72.2246 74.8662 68.3013 76.1427 66.4277C77.4192 64.5573 78.6956 61.7901 78.6956 59.0195C78.6956 56.2522 85.4957 51.9934 87.1966 55.6111C89.9617 58.8069 88.8974 72.5302 82.4156 76.4237Z" fill="#3D4657"/>
<path d="M85.7601 60.4984C85.7601 60.4984 82.8124 60.1182 81.5023 62.3993C80.1952 64.677 86.6511 63.1597 87.3504 62.3993C88.0527 61.6389 87.0701 60.4984 85.7601 60.4984Z" fill="#191D21"/>
<path d="M120.191 70.849C120.191 70.849 118.309 65.1651 116.217 62.9794C114.126 60.7938 110.987 57.2954 109.939 55.9827C108.895 54.6734 108.269 51.175 108.478 50.2987C108.686 49.4258 113.039 50.892 114.315 53.7664C115.587 56.6374 115.379 56.859 116.844 58.1683C118.309 59.4811 121.865 63.1976 121.865 64.2922C122.283 65.8197 121.656 71.5037 120.191 70.849Z" fill="#3D4657"/>
<path d="M112.608 55.3225C112.608 55.3225 113.686 54.2186 115.121 54.2186C116.556 54.2186 117.634 55.3225 115.838 56.0571C114.046 56.7917 112.968 55.6879 112.608 55.3225Z" fill="#191D21"/>
<path d="M109.6 69.4571C109.6 69.4571 107.347 69.4571 106.121 69.6613C104.892 69.8654 102.128 71.1956 101.516 71.808C100.903 72.4205 98.6526 74.3503 101.516 75.2275C104.382 76.1015 106.223 75.8973 106.836 76.1015C107.449 76.3088 110.155 77.1573 110.155 77.1573C110.155 77.1573 112.361 75.489 112.769 75.0808C113.181 74.6693 119.319 71.808 117.477 68.9436C115.636 66.0823 110.111 69.3551 109.6 69.4571Z" fill="#3D4657"/>
<path d="M106.902 71.8165C106.902 71.8165 103.051 71.4611 102.033 71.8165C101.016 72.1718 100.334 73.9515 103.051 73.9515C105.771 74.3069 111.434 73.4185 106.902 71.8165ZM111.887 72.1718L114.702 70.3449C114.702 70.3449 116.19 69.5009 116.642 70.0368C117.094 70.5698 116.642 73.0631 111.887 72.1718Z" fill="#191D21"/>
<path d="M104.474 97.5702C104.474 97.5702 99.1454 94.4748 98.0783 90.7176C97.0145 86.9604 108.842 85.747 110.973 81.328C116.302 84.4199 116.987 84.5302 117.07 85.5816C117.153 86.6295 115.235 90.3867 117.369 92.8202C120.139 96.798 109.481 99.0076 104.474 97.5702Z" fill="#030000"/>
<path d="M105.538 96.582C105.538 96.582 101.05 93.877 100.153 90.589C99.2553 87.3009 109.218 86.2383 111.013 82.3706C115.5 85.079 116.074 85.1756 116.147 86.0934C116.218 87.0111 114.603 90.2991 116.398 92.4245C118.73 95.9057 109.755 97.8413 105.538 96.582Z" fill="#191D21"/>
<path d="M100.096 90.9207L105.334 95.9152C105.334 95.9152 116.526 96.1229 116.768 94.6657C117.005 93.2118 113.194 84.4561 113.194 84.4561L111.764 84.68C111.764 84.68 113.432 89.6745 113.907 90.5053C114.383 91.3393 114.624 92.5855 114.624 92.5855C114.624 92.5855 109.858 94.2503 107.477 93.6272C105.096 93.0009 100.571 89.4668 100.571 89.4668L100.096 90.9207Z" fill="#D8D8DE"/>
</svg>
