<svg width="67" height="88" viewBox="0 0 67 88" fill="none" xmlns="http://www.w3.org/2000/svg">
<path d="M17.1182 71.2H18.4062V75.512H23.0822V71.2H24.3702V81H23.0822V76.576H18.4062V81H17.1182V71.2ZM29.3785 81.14C28.6878 81.14 28.0858 80.9953 27.5725 80.706C27.0685 80.4073 26.6765 79.9827 26.3965 79.432C26.1258 78.8813 25.9905 78.2373 25.9905 77.5C25.9905 76.7627 26.1258 76.1187 26.3965 75.568C26.6765 75.0173 27.0685 74.5973 27.5725 74.308C28.0858 74.0093 28.6878 73.86 29.3785 73.86C30.4238 73.86 31.2498 74.1867 31.8565 74.84C32.4725 75.4933 32.7805 76.38 32.7805 77.5C32.7805 78.62 32.4725 79.5067 31.8565 80.16C31.2498 80.8133 30.4238 81.14 29.3785 81.14ZM29.3785 80.23C30.0691 80.23 30.6105 79.9873 31.0025 79.502C31.3945 79.0167 31.5905 78.3493 31.5905 77.5C31.5905 76.6507 31.3945 75.9833 31.0025 75.498C30.6105 75.0127 30.0691 74.77 29.3785 74.77C28.6971 74.77 28.1605 75.0127 27.7685 75.498C27.3765 75.9833 27.1805 76.6507 27.1805 77.5C27.1805 78.3493 27.3765 79.0167 27.7685 79.502C28.1605 79.9873 28.6971 80.23 29.3785 80.23ZM34.1334 75.764C34.1334 75.0547 34.1101 74.4667 34.0634 74H35.1274C35.1648 74.3733 35.1834 74.7887 35.1834 75.246H35.2254C35.4121 74.8167 35.7061 74.4807 36.1074 74.238C36.5088 73.986 36.9568 73.86 37.4514 73.86C37.9461 73.86 38.3708 73.986 38.7254 74.238C39.0801 74.49 39.3181 74.84 39.4394 75.288C39.6354 74.8493 39.9341 74.504 40.3354 74.252C40.7368 73.9907 41.1894 73.86 41.6934 73.86C42.4588 73.86 43.0561 74.1073 43.4854 74.602C43.9241 75.0967 44.1434 75.7873 44.1434 76.674V81H42.9674V76.772C42.9674 76.1373 42.8321 75.652 42.5614 75.316C42.3001 74.98 41.9174 74.812 41.4134 74.812C40.9188 74.812 40.5128 74.9987 40.1954 75.372C39.8781 75.736 39.7194 76.2073 39.7194 76.786V81H38.5434V76.828C38.5434 76.1467 38.4221 75.6427 38.1794 75.316C37.9368 74.98 37.5681 74.812 37.0734 74.812C36.7654 74.812 36.4761 74.9053 36.2054 75.092C35.9348 75.2787 35.7154 75.526 35.5474 75.834C35.3888 76.142 35.3094 76.4733 35.3094 76.828V81H34.1334V75.764ZM51.7716 77.962H46.7316C46.7969 78.6713 47.0069 79.2127 47.3616 79.586C47.7162 79.95 48.2062 80.132 48.8316 80.132C49.6716 80.132 50.3389 79.8007 50.8336 79.138L51.5056 79.782C51.2349 80.2113 50.8569 80.5473 50.3716 80.79C49.8956 81.0233 49.3682 81.14 48.7896 81.14C47.7536 81.14 46.9509 80.8227 46.3816 80.188C45.8122 79.5533 45.5276 78.662 45.5276 77.514C45.5276 76.3753 45.8122 75.484 46.3816 74.84C46.9602 74.1867 47.7536 73.86 48.7616 73.86C49.7042 73.86 50.4416 74.182 50.9736 74.826C51.5056 75.4607 51.7716 76.352 51.7716 77.5V77.962ZM50.6796 76.982C50.6796 76.31 50.5022 75.7827 50.1476 75.4C49.8022 75.0173 49.3216 74.826 48.7056 74.826C48.1269 74.826 47.6649 75.022 47.3196 75.414C46.9836 75.806 46.7876 76.3613 46.7316 77.08H50.6796V76.982Z" fill="white"/>
<circle cx="33.5" cy="33.5" r="33.5" fill="#FFC53A"/>
<path d="M41.976 29.6752C41.4528 25.3893 40.6048 23.7276 39.3599 23.9619C38.483 24.0808 37.3933 24.4413 36.3071 25.1153C36.2133 25.0757 36.1123 25.0505 36.0076 25.0541C35.7442 25.0649 35.5422 25.2235 35.369 25.4145C35.369 25.3533 35.3617 25.292 35.3329 25.2343C35.2715 25.1081 35.1452 25.0252 35.0045 25.0613C34.6761 25.137 34.4596 25.5803 34.3117 25.8471C33.9436 26.5175 33.6477 27.2277 33.4204 27.9594C32.54 29.3003 31.8688 31.0306 31.6234 33.2222C30.8909 39.707 36.1736 49.0069 36.1736 49.0069C36.1736 49.0069 43.6864 37.6848 41.9796 29.6716L41.976 29.6752Z" fill="#774D2F"/>
<path d="M30.2091 58.0944L30.2235 58.1052C30.2235 58.1052 29.9456 59.6371 31.2699 59.7777C32.5942 59.9183 34.8964 59.9183 35.315 59.5002C35.4846 59.3308 35.6037 58.3791 35.6866 57.3085C35.1743 57.1608 34.5428 57.0382 33.8139 57.0274C32.219 57.0021 30.9921 57.6113 30.2091 58.098V58.0944Z" fill="#B78558"/>
<path d="M17.7853 57.6257C17.7997 57.6725 17.8106 57.6978 17.8106 57.6978C17.8106 57.6978 15.9053 58.0006 16.4646 59.4569C17.1971 60.6392 20.9282 60.3256 21.7654 59.7705C21.9602 59.6767 22.1335 59.5686 22.2958 59.4532C21.2783 57.6581 19.5246 57.395 17.7853 57.6293V57.6257Z" fill="#B78558"/>
<path d="M33.4314 30.0934C33.1174 28.0099 34.1278 19.9463 33.4963 14.7736C34.0881 14.9178 34.9541 14.8385 35.5062 13.4688C36.4047 11.2375 34.0664 9.35586 32.8648 9.63702C32.4138 9.74156 31.9411 10.0047 31.5333 10.2895C28.7151 8.13388 23.4613 7.95004 21.6932 7.93562C21.2168 7.56073 20.6034 7.16424 20.0188 7.02726C18.8136 6.7497 16.479 8.63133 17.3775 10.859C17.6445 11.5187 17.9837 11.8791 18.3301 12.0557C17.2404 14.3483 13.6536 22.4948 13.0618 31.3442C12.3906 41.3939 17.3991 56.4794 17.7852 57.6221C19.5209 57.3914 21.2746 57.6509 22.2958 59.446C23.6922 58.462 24.1216 56.8687 26.496 56.8687C29.0291 56.8687 30.0683 57.9897 30.209 58.0907C30.9921 57.604 32.2189 56.9985 33.8139 57.0201C34.5428 57.0309 35.1742 57.1535 35.6866 57.3013C35.8057 55.7477 35.8454 53.9453 35.8454 53.9453L36.78 45.5573C34.9649 44.3029 33.8499 32.8762 33.4314 30.0898V30.0934Z" fill="#936641"/>
<path d="M16.3599 32.2238C16.3599 32.2238 17.8249 40.5866 19.8131 40.7956C21.8014 41.0047 21.2673 39.1916 21.2673 39.1916L19.3945 30.9694C19.3945 30.9694 18.0342 33.4782 16.3599 32.2238Z" fill="#B78558"/>
<path d="M19.7373 40.1829L20.0188 41.1237" stroke="#231F20" stroke-width="0.73" stroke-miterlimit="10"/>
<path d="M20.6646 40.0638L20.9424 41.0011" stroke="#231F20" stroke-width="0.73" stroke-miterlimit="10"/>
<path d="M30.4688 32.2238C30.4688 32.2238 29.0038 40.5866 27.0155 40.7956C25.0273 41.0047 25.5613 39.1916 25.5613 39.1916L27.4341 30.9694C27.4341 30.9694 28.7945 33.4782 30.4688 32.2238Z" fill="#B78558"/>
<path d="M27.0913 40.1829L26.8135 41.1237" stroke="#231F20" stroke-width="0.73" stroke-miterlimit="10"/>
<path d="M26.1641 40.0638L25.8862 41.0011" stroke="#231F20" stroke-width="0.73" stroke-miterlimit="10"/>
<path d="M23.5195 13.6068C23.7598 12.9358 23.6823 12.2945 23.3464 12.1744C23.0105 12.0544 22.5435 12.5012 22.3032 13.1722C22.0629 13.8433 22.1404 14.4846 22.4763 14.6046C22.8122 14.7246 23.2793 14.2779 23.5195 13.6068Z" fill="#231F20"/>
<path d="M30.4182 15.9415C30.6912 15.9415 30.9125 15.3637 30.9125 14.651C30.9125 13.9383 30.6912 13.3606 30.4182 13.3606C30.1452 13.3606 29.9238 13.9383 29.9238 14.651C29.9238 15.3637 30.1452 15.9415 30.4182 15.9415Z" fill="#231F20"/>
<path d="M28.1595 19.0235C28.1595 18.9515 28.1234 18.8866 28.0476 18.8758C27.9827 18.8686 27.8997 18.919 27.8997 18.9875C27.8924 19.2326 27.8419 19.4813 27.6868 19.6796C27.5641 19.8346 27.3584 19.9427 27.1563 19.9175C26.9506 19.8923 26.8027 19.7228 26.7269 19.539C26.6259 19.2975 26.6439 19.02 26.6548 18.764C26.6584 18.6739 26.5898 18.6234 26.5212 18.6198C26.4527 18.6054 26.3733 18.6343 26.3516 18.7244C26.2939 18.9767 26.2362 19.2434 26.0738 19.4525C25.9511 19.6075 25.7635 19.7337 25.5578 19.7012C25.3557 19.6724 25.1897 19.5102 25.114 19.33C25.0165 19.0993 25.0382 18.8433 25.0959 18.609C25.114 18.5405 25.049 18.4684 24.984 18.4612C24.9083 18.4504 24.8505 18.5045 24.8361 18.573C24.7279 19.0163 24.7856 19.5462 25.1861 19.8274C25.3665 19.9536 25.5867 20.0076 25.8032 19.9499C26.0125 19.8959 26.1965 19.7517 26.3192 19.5715C26.3553 19.5174 26.3877 19.4597 26.4166 19.402C26.4274 19.4669 26.4419 19.5318 26.4635 19.5931C26.5357 19.7985 26.6692 19.986 26.8568 20.0941C27.0481 20.2059 27.2754 20.2131 27.4847 20.141C27.9466 19.9788 28.145 19.4849 28.1631 19.0272L28.1595 19.0235Z" fill="#231F20"/>
<path d="M26.8097 17.5023C26.6907 17.5996 26.5175 17.5744 26.4309 17.4446L25.9112 16.6624L25.554 16.1217C25.4313 15.9379 25.5865 15.6928 25.8066 15.7252L26.8567 15.8802L27.9067 16.0352C28.1268 16.0676 28.2026 16.3452 28.033 16.4858L27.5314 16.9003L26.8061 17.4987L26.8097 17.5023Z" fill="#231F20"/>
<path d="M53.5087 44.4688C53.8659 42.0428 53.653 41.0047 52.935 40.9434C52.437 40.8749 51.7839 40.911 51.0875 41.1164C51.0442 41.0804 50.99 41.0515 50.9323 41.0371C50.788 41.0011 50.6508 41.0588 50.5281 41.1381C50.5354 41.1056 50.5426 41.0696 50.5354 41.0335C50.5209 40.9542 50.4632 40.8929 50.3802 40.8893C50.189 40.8821 50.0013 41.0912 49.8822 41.2174C49.5791 41.531 49.3085 41.8734 49.074 42.2411C48.3884 42.8431 47.7605 43.6902 47.295 44.8545C45.9166 48.2969 47.4105 54.1905 47.4105 54.1905C47.4105 54.1905 53.2345 49.1151 53.5051 44.4688H53.5087Z" fill="#895233"/>
<path d="M35.535 59.6515L35.5567 60.2462C35.5567 60.2462 35.8345 61.0825 38.1908 60.7689C40.5435 60.4553 38.9739 59.5686 38.9739 59.5686C38.9739 59.5686 38.9739 59.5613 38.9739 59.5541C37.5991 59.1576 36.7763 59.1504 35.5278 59.6551L35.535 59.6515Z" fill="#A56738"/>
<path d="M43.5889 59.9471L43.6105 60.2463C43.6105 60.2463 43.8884 61.0826 46.2447 60.769C48.5974 60.4553 47.0277 59.5686 47.0277 59.5686C47.0277 59.5686 47.0277 59.5578 47.0349 59.5398C45.5771 59.1505 44.4296 59.5975 43.5889 59.9471Z" fill="#A56738"/>
<path d="M51.0763 32.9482C51.0763 31.6974 50.2969 30.6845 49.3335 30.6845C48.6948 30.6845 48.1391 31.1315 47.836 31.7911C47.1828 31.5172 43.5239 30.0897 40.3196 30.9657C40.215 29.8446 39.4825 28.9795 38.5912 28.9795C37.6277 28.9795 36.8483 29.9924 36.8483 31.2432C36.8483 31.9642 37.1081 32.6058 37.5159 33.0203C37.5159 34.5379 37.4148 40.2837 35.8921 46.5558C34.0085 52.9828 35.5276 59.3595 35.5276 59.3595L35.5384 59.6514C36.787 59.1468 37.6097 59.154 38.9845 59.5505C38.9989 59.482 39.0603 59.1864 39.0855 59.0783C39.0855 59.0783 39.7278 58.2456 41.0377 58.033C42.1527 57.8527 42.9393 58.0185 43.4662 58.2456L43.5961 59.947C44.4368 59.5938 45.5879 59.1468 47.0421 59.5397C47.0601 59.4532 47.1179 59.1828 47.1395 59.0783C47.2225 58.7395 47.4282 57.9825 47.5653 57.467C48.4313 55.4953 49.9649 51.3571 50.3113 46.152C50.7804 39.0653 50.9609 37.3567 50.0984 34.9776C50.6794 34.61 51.0763 33.8386 51.0763 32.9446V32.9482Z" fill="#B77946"/>
<path d="M40.0635 44.4219C40.0635 44.4219 39.7857 49.7243 40.9692 50.1317C42.1528 50.539 42.0806 49.3567 42.0806 49.3567L42.0915 44.0795C42.0915 44.0795 40.9115 45.4204 40.0635 44.4183V44.4219Z" fill="#A56738"/>
<path d="M41.0088 49.7495L41.0449 50.3623" stroke="#231F20" stroke-width="0.46" stroke-miterlimit="10"/>
<path d="M41.5898 49.8036L41.6295 50.4164" stroke="#231F20" stroke-width="0.46" stroke-miterlimit="10"/>
<path d="M47.9767 45.2473C47.9767 45.2473 47.0602 50.4776 45.8152 50.611C44.5703 50.7444 44.9059 49.6089 44.9059 49.6089L46.0787 44.4651C46.0787 44.4651 46.9302 46.0331 47.9767 45.2509V45.2473Z" fill="#A56738"/>
<path d="M45.8658 50.2289L45.689 50.8164" stroke="#231F20" stroke-width="0.46" stroke-miterlimit="10"/>
<path d="M45.285 50.1532L45.1118 50.7407" stroke="#231F20" stroke-width="0.46" stroke-miterlimit="10"/>
<path d="M46.9506 35.7719C47.3156 35.6966 47.5 35.0967 47.3625 34.4318C47.2251 33.767 46.8178 33.2891 46.4528 33.3644C46.0879 33.4397 45.9034 34.0397 46.0409 34.7045C46.1783 35.3693 46.5856 35.8472 46.9506 35.7719Z" fill="#231F20"/>
<path d="M40.8349 34.6648C40.9699 34.0116 40.8358 33.4319 40.5352 33.3699C40.2346 33.3079 39.8815 33.7871 39.7465 34.4402C39.6114 35.0933 39.7456 35.6731 40.0462 35.7351C40.3467 35.7971 40.6999 35.3179 40.8349 34.6648Z" fill="#231F20"/>
<path d="M41.7812 37.746C41.7812 37.6956 41.8137 37.6487 41.8715 37.6415C41.9184 37.6379 41.9761 37.6776 41.9761 37.7316C41.9725 37.9082 41.9978 38.0957 42.1024 38.2435C42.1854 38.3624 42.3297 38.4489 42.4777 38.4417C42.6292 38.4309 42.7447 38.3156 42.806 38.1858C42.889 38.0128 42.889 37.8109 42.8926 37.6235C42.8926 37.5586 42.9468 37.5262 42.9973 37.5225C43.0478 37.5153 43.1055 37.5406 43.1164 37.6054C43.1452 37.7893 43.1777 37.9875 43.286 38.1461C43.369 38.2651 43.4989 38.3624 43.6504 38.3516C43.7984 38.3372 43.9283 38.2291 43.9896 38.0993C44.069 37.9371 44.069 37.7496 44.0365 37.573C44.0257 37.5226 44.0762 37.4721 44.1267 37.4685C44.1845 37.4649 44.2205 37.5045 44.2314 37.5586C44.2891 37.8866 44.2242 38.2687 43.9174 38.4562C43.7803 38.5391 43.6179 38.5679 43.4628 38.5174C43.3112 38.467 43.1849 38.3552 43.1055 38.2182C43.0803 38.175 43.0586 38.1317 43.0406 38.0885C43.0298 38.1353 43.0153 38.1822 42.9973 38.2255C42.9359 38.3696 42.8277 38.503 42.687 38.5751C42.5426 38.6472 42.3766 38.6436 42.2287 38.5823C41.9003 38.4453 41.7776 38.0741 41.7849 37.7424L41.7812 37.746Z" fill="#231F20"/>
<path d="M42.8314 36.6971C42.9144 36.7728 43.0407 36.7619 43.1093 36.6718L43.5206 36.1239L43.8057 35.7454C43.9031 35.6157 43.8021 35.4318 43.6397 35.4462L42.8675 35.5111L42.0953 35.576C41.9329 35.5904 41.8644 35.7887 41.9834 35.9004L42.3298 36.2249L42.8314 36.6935V36.6971Z" fill="#231F20"/>
</svg>
