<svg width="67" height="85" viewBox="0 0 67 85" fill="none" xmlns="http://www.w3.org/2000/svg">
<path d="M20.2551 72.2H23.1391C24.2218 72.2 25.0384 72.452 25.5891 72.956C26.1491 73.46 26.4291 74.1973 26.4291 75.168C26.4291 76.1947 26.1398 76.9833 25.5611 77.534C24.9824 78.0753 24.1518 78.346 23.0691 78.346H21.5431V82H20.2551V72.2ZM23.2371 77.282C23.8624 77.282 24.3431 77.1047 24.6791 76.75C25.0244 76.3953 25.1971 75.8913 25.1971 75.238C25.1971 74.594 25.0198 74.104 24.6651 73.768C24.3104 73.432 23.7971 73.264 23.1251 73.264H21.5431V77.282H23.2371ZM29.6385 82.14C28.6305 82.14 28.1265 81.5473 28.1265 80.362V71.612H29.3165V80.348C29.3165 80.6747 29.3678 80.908 29.4705 81.048C29.5825 81.1787 29.7692 81.244 30.0305 81.244C30.2358 81.244 30.4692 81.188 30.7305 81.076L30.9125 81.79C30.5578 82.0233 30.1332 82.14 29.6385 82.14ZM34.1327 82.14C33.442 82.14 32.8774 81.9393 32.4387 81.538C32 81.1367 31.7807 80.6187 31.7807 79.984C31.7807 79.284 32.042 78.7427 32.5647 78.36C33.0967 77.9773 33.848 77.786 34.8187 77.786H36.2607V77.422C36.2607 76.8993 36.1207 76.5027 35.8407 76.232C35.57 75.952 35.1734 75.812 34.6507 75.812C34.2307 75.812 33.8434 75.9007 33.4887 76.078C33.1434 76.246 32.854 76.4933 32.6207 76.82L32.0187 76.092C32.336 75.6907 32.7234 75.3873 33.1807 75.182C33.638 74.9673 34.1467 74.86 34.7067 74.86C35.584 74.86 36.2607 75.0747 36.7367 75.504C37.2127 75.9333 37.4507 76.5493 37.4507 77.352V80.642C37.4507 81.006 37.5067 81.4587 37.6187 82H36.5827C36.4987 81.7853 36.438 81.4587 36.4007 81.02H36.3727C36.1114 81.384 35.7894 81.664 35.4067 81.86C35.024 82.0467 34.5994 82.14 34.1327 82.14ZM34.3147 81.202C34.6694 81.202 34.996 81.1367 35.2947 81.006C35.5934 80.866 35.8267 80.6793 35.9947 80.446C36.172 80.2127 36.2607 79.956 36.2607 79.676V78.64H34.7767C34.1887 78.64 33.736 78.7567 33.4187 78.99C33.1014 79.2233 32.9427 79.5547 32.9427 79.984C32.9427 80.3573 33.064 80.656 33.3067 80.88C33.5587 81.0947 33.8947 81.202 34.3147 81.202ZM44.7261 75L42.1921 82.126C41.5481 83.9273 40.5541 84.828 39.2101 84.828C38.9674 84.828 38.7061 84.7953 38.4261 84.73V83.82C38.5941 83.876 38.7994 83.904 39.0421 83.904C39.5181 83.904 39.9241 83.7313 40.2601 83.386C40.5961 83.0407 40.9181 82.4573 41.2261 81.636L38.6221 75H39.8961L41.7721 80.362L43.4381 75H44.7261Z" fill="white"/>
<circle cx="33.5" cy="33.5" r="33.5" fill="#FFC53A"/>
<path d="M21.2197 33.6071C21.2197 33.6071 15.1432 27.1857 14.4283 20.5731C13.7134 13.9605 14.339 9.04566 23.8111 17.4455L28.6365 26.024C28.6365 26.024 35.2492 26.7389 36.1428 26.2028C37.0364 25.6666 42.5767 14.7647 50.4404 18.1604C57.4104 22.0922 48.4744 32.8154 43.4703 34.6026C43.4703 34.6026 39.181 47.2917 35.2492 50.6874C35.2492 50.6874 31.3173 55.6915 27.3855 51.581C27.3855 51.581 25.2409 48.9002 24.7047 44.9683C23.772 45.2218 21.7447 42.0237 21.2197 38.1449C20.6723 34.102 21.2197 33.6071 21.2197 33.6071Z" fill="#C8A27E"/>
<path d="M31.4961 26.739C31.4961 26.739 30.2451 33.3516 29.3515 34.0665C28.4579 34.7814 26.4536 33.709 25.5795 34.0665C24.7048 34.4239 23.275 36.0324 23.4537 37.4622C23.6324 38.8919 21.2197 38.1449 21.2197 38.1449C21.3929 38.0604 22.2753 45.0996 24.7048 44.9684C25.6877 49.7045 27.2166 52.2079 29.1106 52.8481C33.194 54.7086 36.6469 48.7404 38.425 46.3283C40.7777 43.1379 42.5041 37.7651 39.7172 35.8537C37.0602 34.0316 35.428 34.9601 35.428 34.9601C35.428 34.9601 33.9759 28.3014 34.7131 27.2751C35.6081 26.029 31.4975 26.3026 31.4961 26.739Z" fill="#333333"/>
<path d="M36.0533 36.6579C36.0533 36.6579 36.9469 35.943 37.3044 35.943C37.6618 35.943 38.198 36.1406 38.198 36.4889C38.198 36.8366 38.5554 37.7302 36.9469 37.9089C35.3385 38.0876 36.0533 36.6579 36.0533 36.6579ZM26.5812 37.5515C26.9386 37.5515 27.3268 35.7643 26.8646 35.6749C26.4025 35.5856 25.2443 35.4068 25.0188 35.6749C24.794 35.943 24.9727 37.5515 26.5812 37.5515Z" fill="#030000"/>
<path d="M27.2065 46.3981C27.2065 46.3981 27.9214 44.6109 28.6363 44.0747C29.3512 43.5385 28.2789 42.4662 27.7427 42.1088C27.2065 41.7513 30.9597 40.8577 31.3171 40.5003C31.6745 40.1429 33.8192 43.3598 33.9979 43.896C34.1766 44.4321 35.9638 46.7555 34.8915 47.2917C33.8192 47.8278 33.6405 46.3981 33.1043 46.2193C32.5681 46.0406 27.3853 46.7555 27.2065 46.3981Z" fill="#E6E6E6"/>
<path d="M36.9468 37.909C36.9468 37.909 38.1979 37.3728 38.1979 37.0154C38.1979 36.6579 38.0192 35.943 37.3043 36.3005C36.5894 36.6579 36.232 36.8366 36.232 37.3728C36.232 37.909 36.4107 37.7302 36.9468 37.909ZM26.2237 37.3728C26.2237 37.3728 25.3301 37.0154 25.1513 36.4792C24.9726 35.943 25.5088 35.6114 26.2237 35.8663C26.9385 36.1218 26.8617 37.0559 26.8617 37.0559C26.8617 37.0559 26.4024 37.3728 26.2237 37.3728Z" fill="#4E2700"/>
<path d="M29.7984 49.3469C29.7984 49.3469 28.5474 48.9895 28.3686 48.8108C28.1899 48.6321 28.0503 46.4972 28.0503 46.4972C28.0503 46.4972 32.5302 46.3283 32.6837 46.4972C32.8366 46.6662 33.7561 46.7269 33.296 47.4111C32.8366 48.0959 32.3005 48.9895 31.943 49.1682C31.5856 49.3469 29.9771 49.7044 29.7984 49.3469Z" fill="#1A1A1A"/>
<path d="M29.3129 47.9611C29.3129 47.9611 28.4961 47.7992 28.4319 47.411C28.3684 47.0236 28.7258 46.8448 28.7258 46.8448C28.7258 46.8448 29.3639 47.6477 29.3129 47.9611ZM31.7256 47.9765C31.7256 47.9765 32.8238 47.8885 32.8747 47.411C32.9257 46.9342 32.5683 46.8065 32.3002 47.0494C32.0321 47.2916 31.5979 47.411 31.7256 47.9765Z" fill="#030000"/>
<path d="M29.083 50.598C29.083 50.598 29.7979 51.1342 30.334 51.1342C30.8702 51.1342 31.2276 50.9555 31.4064 50.598C31.5851 50.2406 29.9766 50.2406 29.083 50.598Z" fill="#B84F4B"/>
<path d="M47.2235 27.275C47.2235 27.275 50.2882 27.0796 50.6191 27.6325C51.2475 28.6825 53.9157 23.1533 52.5557 20.3071C51.3291 17.7408 48.1485 17.1976 45.964 17.6521C43.8131 18.1003 40.7721 19.6788 39.9371 21.4541C39.1078 23.2182 40.7896 22.6283 42.398 21.3773C44.0065 20.1263 44.7214 22.4496 43.6491 23.3432C42.5767 24.2368 45.6464 24.7988 46.3459 24.8749C47.0447 24.9517 46.3299 27.0963 47.2235 27.275Z" fill="#1A1A1A"/>
<path d="M44.185 29.0623C44.185 29.0623 43.1699 29.2752 43.5881 27.6493C44.0062 26.0241 44.8998 25.8453 45.436 26.2028C45.9722 26.5602 46.2591 27.1299 46.9202 27.5599C47.5806 27.99 46.5083 28.8836 45.9722 28.8836C45.436 28.8836 44.8998 29.0623 44.8998 29.4197C44.8998 29.7772 46.361 30.1856 46.3457 30.1605C46.3296 30.1346 45.0786 31.3857 44.5424 31.5644C44.0062 31.7431 43.815 32.4929 43.7319 33.101C43.6488 33.709 45.2028 33.7314 45.2028 33.7314L43.8806 34.44C43.8806 34.44 43.4889 33.5652 43.3011 33.101C43.1126 32.6367 42.219 32.6367 42.0403 32.458C41.8616 32.2793 41.8616 31.0282 41.8616 31.0282C41.8616 31.0282 43.4701 30.8495 43.6488 30.8495C43.8275 30.8495 44.2694 30.1472 44.4949 29.8728C44.7211 29.5985 44.185 29.0623 44.185 29.0623ZM16.2879 26.4618C16.2879 26.4618 18.2706 25.6666 18.9855 25.8453C19.7003 26.0241 17.5557 23.3433 17.5557 23.3433C17.5557 23.3433 19.3429 21.0199 20.0578 21.3774C20.7727 21.7348 19.7003 19.4114 19.8791 19.4114C20.0578 19.4114 21.4875 20.1263 21.6663 19.9476C21.845 19.7689 20.5939 18.8753 20.4152 18.6966C20.2365 18.5178 23.0325 16.7683 23.0325 16.7683C23.4186 16.938 18.5387 12.5307 15.9081 13.0704C12.229 13.6456 14.729 24.1231 16.2879 26.4618ZM21.2195 33.6071C21.2195 33.6071 22.5654 27.4922 23.0541 26.9819C23.5428 26.4709 23.9003 24.3262 24.6151 25.5773C25.33 26.8283 24.907 28.753 24.9398 29.3988C24.9726 30.0453 26.7598 28.36 27.2066 27.058C27.6534 25.756 24.9398 22.9984 24.9398 22.9984C24.9398 22.9984 28.8381 25.9159 28.4241 26.4618C28.0108 27.007 21.2195 33.6071 21.2195 33.6071Z" fill="#1A1A1A"/>
</svg>
