<svg width="325" height="415" viewBox="0 0 325 415" fill="none" xmlns="http://www.w3.org/2000/svg">
<ellipse cx="162.5" cy="337.5" rx="162.5" ry="77.5" fill="#13644D"/>
<path d="M219.772 147.859C216.363 119.912 210.84 109.076 202.73 110.604C197.019 111.38 189.92 113.73 182.845 118.126C182.234 117.867 181.576 117.703 180.894 117.726C179.178 117.797 177.862 118.831 176.734 120.077C176.734 119.677 176.687 119.277 176.499 118.901C176.099 118.079 175.277 117.538 174.36 117.773C172.221 118.267 170.811 121.158 169.847 122.897C167.45 127.269 165.522 131.9 164.041 136.671C158.306 145.415 153.934 156.697 152.336 170.988C147.564 213.274 181.976 273.917 181.976 273.917C181.976 273.917 230.913 200.087 219.795 147.836L219.772 147.859Z" fill="#774D2F"/>
<path d="M143.098 333.172L143.192 333.243C143.192 333.243 141.382 343.233 150.009 344.149C158.635 345.066 173.631 345.066 176.358 342.339C177.463 341.235 178.238 335.029 178.779 328.048C175.441 327.085 171.328 326.285 166.58 326.215C156.191 326.05 148.199 330.023 143.098 333.196V333.172Z" fill="#B78558"/>
<path d="M62.1704 330.117C62.2644 330.423 62.3349 330.587 62.3349 330.587C62.3349 330.587 49.9243 332.562 53.5676 342.058C58.3391 349.767 82.6432 347.722 88.0964 344.102C89.3656 343.491 90.4939 342.786 91.5516 342.034C84.9232 330.329 73.4998 328.613 62.1704 330.14V330.117Z" fill="#B78558"/>
<path d="M164.088 150.586C162.043 137 168.624 84.4195 164.511 50.6899C168.366 51.6301 174.007 51.113 177.603 42.1811C183.456 27.6315 168.225 15.3619 160.398 17.1953C157.46 17.877 154.38 19.5928 151.724 21.4497C133.367 7.39376 99.1438 6.19501 87.6264 6.10099C84.5238 3.65647 80.5279 1.07095 76.7201 0.177766C68.8695 -1.63211 53.6618 10.6374 59.5145 25.1635C61.2539 29.4649 63.4633 31.8154 65.7198 32.9671C58.6213 47.9163 35.2574 101.037 31.4026 158.742C27.0306 224.274 59.6555 322.642 62.1705 330.093C73.4764 328.589 84.8998 330.281 91.5517 341.987C100.648 335.57 103.445 325.181 118.912 325.181C135.412 325.181 142.181 332.491 143.098 333.149C148.199 329.976 156.19 326.027 166.58 326.168C171.328 326.238 175.441 327.038 178.779 328.001C179.554 317.871 179.813 306.118 179.813 306.118L185.901 251.422C174.078 243.242 166.815 168.732 164.088 150.562V150.586Z" fill="#936641"/>
<path d="M52.8857 164.477C52.8857 164.477 62.4288 219.009 75.38 220.372C88.3312 221.735 84.8525 209.912 84.8525 209.912L72.6534 156.298C72.6534 156.298 63.792 172.657 52.8857 164.477Z" fill="#B78558"/>
<path d="M74.9102 216.376L76.72 222.511" stroke="#231F20" stroke-width="0.73" stroke-miterlimit="10"/>
<path d="M80.9272 215.577L82.7606 221.712" stroke="#231F20" stroke-width="0.73" stroke-miterlimit="10"/>
<path d="M144.814 164.477C144.814 164.477 135.271 219.009 122.32 220.372C109.369 221.735 112.848 209.912 112.848 209.912L125.047 156.298C125.047 156.298 133.908 172.657 144.814 164.477Z" fill="#B78558"/>
<path d="M122.79 216.376L120.98 222.511" stroke="#231F20" stroke-width="0.73" stroke-miterlimit="10"/>
<path d="M116.773 215.577L114.939 221.712" stroke="#231F20" stroke-width="0.73" stroke-miterlimit="10"/>
<path d="M99.512 43.0842C101.077 38.7083 100.572 34.5265 98.3842 33.744C96.1962 32.9615 93.1538 35.8744 91.5887 40.2503C90.0236 44.6262 90.5286 48.808 92.7165 49.5905C94.9045 50.373 97.9469 47.4601 99.512 43.0842Z" fill="#231F20"/>
<path d="M144.484 58.2822C146.263 58.2822 147.705 54.5147 147.705 49.8674C147.705 45.22 146.263 41.4526 144.484 41.4526C142.706 41.4526 141.264 45.22 141.264 49.8674C141.264 54.5147 142.706 58.2822 144.484 58.2822Z" fill="#231F20"/>
<path d="M129.747 78.4021C129.747 77.932 129.512 77.5089 129.018 77.4384C128.595 77.3914 128.055 77.7204 128.055 78.167C128.008 79.7654 127.679 81.3872 126.668 82.6799C125.869 83.6907 124.529 84.3958 123.213 84.2313C121.873 84.0667 120.909 82.962 120.416 81.7633C119.757 80.1885 119.875 78.3786 119.945 76.7097C119.969 76.1221 119.522 75.793 119.076 75.7695C118.629 75.6755 118.112 75.8635 117.971 76.4511C117.595 78.0965 117.219 79.8359 116.161 81.1992C115.362 82.2099 114.14 83.0325 112.8 82.821C111.484 82.6329 110.402 81.5752 109.909 80.4C109.274 78.8956 109.415 77.2268 109.791 75.699C109.909 75.2524 109.486 74.7823 109.063 74.7353C108.569 74.6648 108.193 75.0174 108.099 75.464C107.394 78.3551 107.77 81.8103 110.379 83.6437C111.554 84.4663 112.988 84.8189 114.398 84.4428C115.762 84.0902 116.96 83.1501 117.759 81.9748C117.995 81.6223 118.206 81.2462 118.394 80.8701C118.465 81.2932 118.559 81.7163 118.7 82.1159C119.17 83.4556 120.039 84.6779 121.262 85.3831C122.507 86.1117 123.988 86.1587 125.352 85.6886C128.36 84.6309 129.653 81.4107 129.77 78.4256L129.747 78.4021Z" fill="#231F20"/>
<path d="M120.98 68.4595C120.204 69.0941 119.076 68.9296 118.512 68.0834L115.127 62.9829L112.8 59.4571C112.001 58.2584 113.011 56.66 114.445 56.8715L121.285 57.8822L128.125 58.8929C129.559 59.1045 130.053 60.9144 128.948 61.8311L125.681 64.5341L120.956 68.4359L120.98 68.4595Z" fill="#231F20"/>
<path d="M294.893 244.324C297.22 228.505 295.833 221.736 291.156 221.336C287.912 220.889 283.657 221.124 279.121 222.464C278.839 222.229 278.486 222.041 278.11 221.947C277.17 221.712 276.277 222.088 275.478 222.605C275.525 222.394 275.572 222.159 275.525 221.924C275.431 221.407 275.055 221.007 274.514 220.983C273.268 220.936 272.046 222.3 271.27 223.122C269.296 225.167 267.533 227.4 266.005 229.798C261.539 233.723 257.449 239.247 254.417 246.839C245.438 269.286 255.169 307.717 255.169 307.717C255.169 307.717 293.106 274.622 294.869 244.324H294.893Z" fill="#895233"/>
<path d="M177.791 343.327L177.932 347.205C177.932 347.205 179.742 352.658 195.091 350.613C210.416 348.568 200.191 342.786 200.191 342.786C200.191 342.786 200.191 342.739 200.191 342.692C191.236 340.106 185.877 340.059 177.744 343.35L177.791 343.327Z" fill="#A56738"/>
<path d="M230.278 345.254L230.419 347.205C230.419 347.205 232.229 352.658 247.577 350.613C262.903 348.568 252.678 342.786 252.678 342.786C252.678 342.786 252.678 342.715 252.725 342.598C243.229 340.059 235.754 342.974 230.278 345.254Z" fill="#A56738"/>
<path d="M279.051 169.178C279.051 161.022 273.974 154.417 267.698 154.417C263.537 154.417 259.918 157.332 257.943 161.633C253.689 159.847 229.855 150.539 208.982 156.251C208.301 148.941 203.529 143.299 197.724 143.299C191.448 143.299 186.371 149.904 186.371 158.06C186.371 162.761 188.063 166.945 190.719 169.648C190.719 179.544 190.061 217.011 180.142 257.909C167.872 299.819 177.768 341.399 177.768 341.399L177.838 343.303C185.971 340.012 191.33 340.059 200.286 342.645C200.38 342.198 200.779 340.271 200.944 339.566C200.944 339.566 205.128 334.136 213.66 332.749C220.923 331.574 226.047 332.655 229.479 334.136L230.325 345.23C235.802 342.927 243.3 340.012 252.772 342.574C252.89 342.01 253.266 340.247 253.407 339.566C253.947 337.356 255.287 332.42 256.18 329.059C261.822 316.202 271.811 289.218 274.068 255.277C277.123 209.066 278.299 197.925 272.681 182.412C276.465 180.014 279.051 174.984 279.051 169.155V169.178Z" fill="#B77946"/>
<path d="M207.291 244.018C207.291 244.018 205.481 278.594 213.19 281.25C220.9 283.906 220.43 276.197 220.43 276.197L220.501 241.785C220.501 241.785 212.814 250.529 207.291 243.995V244.018Z" fill="#A56738"/>
<path d="M213.449 278.735L213.708 282.731" stroke="#231F20" stroke-width="0.46" stroke-miterlimit="10"/>
<path d="M217.233 279.111L217.491 283.107" stroke="#231F20" stroke-width="0.46" stroke-miterlimit="10"/>
<path d="M258.86 249.401C258.86 249.401 252.89 283.506 244.781 284.376C236.672 285.246 238.858 277.842 238.858 277.842L246.497 244.3C246.497 244.3 252.044 254.525 258.86 249.424V249.401Z" fill="#A56738"/>
<path d="M245.087 281.885L243.958 285.716" stroke="#231F20" stroke-width="0.46" stroke-miterlimit="10"/>
<path d="M241.303 281.391L240.174 285.222" stroke="#231F20" stroke-width="0.46" stroke-miterlimit="10"/>
<path d="M252.198 187.602C254.575 187.111 255.776 183.198 254.881 178.863C253.985 174.528 251.332 171.412 248.955 171.903C246.578 172.394 245.376 176.306 246.272 180.641C247.167 184.976 249.82 188.093 252.198 187.602Z" fill="#231F20"/>
<path d="M212.308 180.41C213.187 176.151 212.313 172.371 210.355 171.966C208.398 171.562 206.097 174.686 205.218 178.945C204.338 183.204 205.212 186.985 207.17 187.389C209.128 187.793 211.428 184.669 212.308 180.41Z" fill="#231F20"/>
<path d="M218.479 200.487C218.479 200.158 218.69 199.852 219.066 199.805C219.372 199.782 219.748 200.04 219.748 200.393C219.724 201.544 219.889 202.767 220.57 203.73C221.111 204.506 222.051 205.07 223.015 205.023C224.002 204.953 224.754 204.2 225.154 203.354C225.695 202.226 225.695 200.91 225.718 199.687C225.718 199.264 226.071 199.053 226.4 199.029C226.729 198.982 227.105 199.147 227.175 199.57C227.363 200.769 227.575 202.062 228.28 203.096C228.821 203.871 229.667 204.506 230.654 204.436C231.618 204.341 232.464 203.636 232.864 202.79C233.381 201.732 233.381 200.51 233.169 199.358C233.099 199.029 233.428 198.7 233.757 198.677C234.133 198.653 234.368 198.912 234.438 199.264C234.814 201.403 234.391 203.895 232.393 205.117C231.5 205.658 230.443 205.846 229.432 205.517C228.445 205.188 227.622 204.459 227.105 203.566C226.94 203.284 226.799 203.002 226.682 202.72C226.611 203.025 226.517 203.331 226.4 203.613C226 204.553 225.295 205.423 224.378 205.893C223.438 206.363 222.357 206.339 221.393 205.94C219.254 205.047 218.455 202.626 218.502 200.463L218.479 200.487Z" fill="#231F20"/>
<path d="M225.318 193.647C225.859 194.14 226.682 194.07 227.128 193.482L229.808 189.91L231.665 187.441C232.299 186.595 231.641 185.397 230.584 185.491L225.554 185.914L220.523 186.337C219.466 186.431 219.019 187.723 219.795 188.452L222.051 190.568L225.318 193.623V193.647Z" fill="#231F20"/>
</svg>
