<svg width="67" height="86" viewBox="0 0 67 86" fill="none" xmlns="http://www.w3.org/2000/svg">
<path d="M19.3475 80.886H15.5395L14.8815 83H13.5095L16.8415 73.2H18.0455L21.3775 83H20.0055L19.3475 80.886ZM19.0115 79.836L17.4435 74.81L15.8755 79.836H19.0115ZM22.5493 77.708C22.5493 76.9147 22.5353 76.3453 22.5073 76H23.6133C23.6507 76.3733 23.6693 76.784 23.6693 77.232V77.372H23.7113C23.8887 76.8867 24.1733 76.5133 24.5653 76.252C24.9573 75.9907 25.4193 75.86 25.9513 75.86C26.1007 75.86 26.236 75.874 26.3573 75.902V76.882C26.236 76.854 26.0727 76.84 25.8673 76.84C25.4753 76.84 25.116 76.9613 24.7893 77.204C24.4627 77.4373 24.206 77.7593 24.0193 78.17C23.8327 78.5807 23.7393 79.0287 23.7393 79.514V83H22.5493V77.708ZM29.8939 83.14C29.2779 83.14 28.7925 82.944 28.4379 82.552C28.0832 82.1507 27.9059 81.6 27.9059 80.9V76.924H26.6459V76H27.9059V74.138L29.0399 73.788H29.0959V76H31.0839V76.924H29.0959V80.788C29.0959 81.264 29.1845 81.6187 29.3619 81.852C29.5392 82.076 29.8145 82.188 30.1879 82.188C30.5892 82.188 30.9159 82.1367 31.1679 82.034L31.2519 82.916C30.9439 83.0653 30.4912 83.14 29.8939 83.14ZM33.4912 74.782C33.2299 74.782 33.0245 74.712 32.8752 74.572C32.7259 74.432 32.6512 74.2407 32.6512 73.998C32.6512 73.7553 32.7259 73.564 32.8752 73.424C33.0245 73.2747 33.2299 73.2 33.4912 73.2C33.7525 73.2 33.9579 73.2747 34.1072 73.424C34.2659 73.564 34.3452 73.7553 34.3452 73.998C34.3452 74.2407 34.2659 74.432 34.1072 74.572C33.9579 74.712 33.7525 74.782 33.4912 74.782ZM32.9032 76H34.0932V83H32.9032V76ZM38.9668 83.14C37.9308 83.14 37.1235 82.8227 36.5448 82.188C35.9755 81.544 35.6908 80.648 35.6908 79.5C35.6908 78.352 35.9755 77.4607 36.5448 76.826C37.1235 76.182 37.9308 75.86 38.9668 75.86C39.5548 75.86 40.0728 75.9767 40.5208 76.21C40.9782 76.434 41.3375 76.7607 41.5988 77.19L40.8848 77.834C40.6795 77.5167 40.4088 77.2693 40.0728 77.092C39.7462 76.9053 39.3915 76.812 39.0088 76.812C38.3462 76.812 37.8235 77.05 37.4408 77.526C37.0675 77.9927 36.8808 78.6507 36.8808 79.5C36.8808 80.34 37.0675 80.998 37.4408 81.474C37.8235 81.95 38.3462 82.188 39.0088 82.188C39.3915 82.188 39.7462 82.0993 40.0728 81.922C40.4088 81.7353 40.6795 81.4833 40.8848 81.166L41.5988 81.81C41.3375 82.2393 40.9782 82.5707 40.5208 82.804C40.0728 83.028 39.5548 83.14 38.9668 83.14ZM44.324 83.14C43.316 83.14 42.812 82.5473 42.812 81.362V72.612H44.002V81.348C44.002 81.6747 44.0534 81.908 44.156 82.048C44.268 82.1787 44.4547 82.244 44.716 82.244C44.9214 82.244 45.1547 82.188 45.416 82.076L45.598 82.79C45.2434 83.0233 44.8187 83.14 44.324 83.14ZM52.2304 79.962H47.1904C47.2558 80.6713 47.4658 81.2127 47.8204 81.586C48.1751 81.95 48.6651 82.132 49.2904 82.132C50.1304 82.132 50.7978 81.8007 51.2924 81.138L51.9644 81.782C51.6938 82.2113 51.3158 82.5473 50.8304 82.79C50.3544 83.0233 49.8271 83.14 49.2484 83.14C48.2124 83.14 47.4098 82.8227 46.8404 82.188C46.2711 81.5533 45.9864 80.662 45.9864 79.514C45.9864 78.3753 46.2711 77.484 46.8404 76.84C47.4191 76.1867 48.2124 75.86 49.2204 75.86C50.1631 75.86 50.9004 76.182 51.4324 76.826C51.9644 77.4607 52.2304 78.352 52.2304 79.5V79.962ZM51.1384 78.982C51.1384 78.31 50.9611 77.7827 50.6064 77.4C50.2611 77.0173 49.7804 76.826 49.1644 76.826C48.5858 76.826 48.1238 77.022 47.7784 77.414C47.4424 77.806 47.2464 78.3613 47.1904 79.08H51.1384V78.982Z" fill="white"/>
<circle cx="33.5" cy="33.5" r="33.5" fill="#FFC53A"/>
<path d="M49.0234 51.8916C47.9467 48.8077 46.2954 47.9404 46.2954 47.9404C46.2954 47.9404 46.9179 47.7328 49.1999 46.2837C52.727 43.1766 52.1045 39.8619 51.8979 38.2038C51.6899 36.5471 46.7099 33.6476 46.7099 33.6476C47.3324 32.1971 51.0674 27.0181 51.6899 25.569C52.3125 24.1186 53.5575 14.7971 49.6145 15.0034C45.6729 15.211 45.257 17.2829 41.7299 20.1824C38.2015 23.0819 38.824 23.911 38.6174 24.5324C38.4094 25.1538 37.1644 23.4971 36.9565 23.2895C36.7499 23.0819 32.8069 22.2543 31.1474 23.4971C29.4864 24.74 28.4494 24.1186 27.2044 22.4619C25.9594 20.8038 21.6019 16.8677 17.6589 15.8324C14.5464 14.1757 14.1318 18.5257 14.1318 22.4619C14.1318 26.3967 16.8284 29.5038 16.8284 29.5038C16.8284 29.5038 20.1489 33.2324 20.7714 35.9107C19.5264 36.3109 15.7914 40.0681 16.3181 42.6576C16.8435 45.2471 20.7714 46.9052 20.7714 46.9052L20.77 46.9065C23.4324 47.4173 25.7268 48.8364 28.2414 49.5903C35.1683 51.5652 42.0952 52.2986 49.0234 51.8916Z" fill="#A96D39"/>
<path d="M45.9122 51.9856C46.3491 50.6784 44.9229 47.4471 44.9229 47.4471C44.9229 47.4471 49.3542 46.4298 47.9453 42.6614C46.535 38.8931 41.7346 40.3383 40.5089 41.2908L39.2846 42.2432C39.2846 42.2432 38.6804 40.9001 38.1771 40.8394C37.6738 40.7773 36.9687 41.092 36.9687 41.092L36.8 42.1811C36.8 42.1811 36.569 41.19 34.5027 41.2977C32.4365 41.4053 32.2346 41.4053 31.7313 41.9299C30.8257 41.1969 30.422 40.9871 30.422 40.9871C30.422 40.9871 29.1658 41.4012 28.9879 42.5551C28.9879 42.5551 27.8047 40.7773 27.0995 40.8822C26.3944 40.9871 24.9271 41.3846 24.1502 41.2908C23.3734 40.5688 22.5674 40.359 22.3655 40.359C22.165 40.359 22.3655 39.5515 22.3655 39.5515C22.3655 39.5515 21.9631 39.3127 21.7613 40.359C21.3589 41.4053 20.8118 42.0555 20.784 43.4054C20.7614 44.449 22.1969 46.5581 22.8529 47.465C24.6017 48.1179 26.247 49.0138 28.0052 49.5631C33.9742 51.3355 39.9432 52.1181 45.9122 51.9856Z" fill="#FFFFF0"/>
<path d="M26.3105 35.8807C26.1306 36.1594 25.3932 37.2977 25.3932 38.0062C25.3932 38.7148 25.1651 38.5715 25.8526 39.2333C26.5386 39.8967 28.4018 39.2333 28.4018 39.2333C28.4018 39.2333 29.2903 38.9515 29.0606 37.5344C28.8309 36.1174 27.9152 35.4088 27.9152 35.4088C27.9152 35.4088 26.7683 35.1721 26.3105 35.8807Z" fill="#1A1A1A"/>
<path d="M26.3105 35.8807C26.1306 36.1594 25.3932 37.2977 25.3932 38.0062C25.3932 38.7148 25.1651 38.5715 25.8526 39.2333C26.5386 39.8967 28.4018 39.2333 28.4018 39.2333C28.4018 39.2333 29.2903 38.9515 29.0606 37.5344C28.8309 36.1174 27.9152 35.4088 27.9152 35.4088C27.9152 35.4088 26.7683 35.1721 26.3105 35.8807Z" stroke="#1A1A1A" stroke-width="0.197333" stroke-miterlimit="10"/>
<path d="M25.9963 36.6954C25.9963 36.6954 25.7725 37.55 25.7725 38.1906C25.7725 38.8311 25.9963 39.0874 25.9963 39.0874C26.0361 39.1676 27.7825 39.0437 28.0344 38.872C27.9917 38.6186 28.669 37.55 27.89 36.6954C27.1125 35.8409 25.9963 36.2689 25.9963 36.6954Z" fill="black"/>
<path d="M39.9226 35.4139C39.7627 35.6648 39.1084 36.6893 39.1084 37.3269C39.1084 37.9646 38.9042 37.8357 39.5155 38.4313C40.1268 39.0283 41.782 38.4313 41.782 38.4313C41.782 38.4313 42.572 38.1776 42.3678 36.9023C42.1649 35.6269 41.3494 34.9893 41.3494 34.9893C41.3494 34.9893 40.331 34.7762 39.9226 35.4139Z" fill="#1A1A1A"/>
<path d="M39.9226 35.4139C39.7627 35.6648 39.1084 36.6893 39.1084 37.3269C39.1084 37.9646 38.9042 37.8357 39.5155 38.4313C40.1268 39.0283 41.782 38.4313 41.782 38.4313C41.782 38.4313 42.572 38.1776 42.3678 36.9023C42.1649 35.6269 41.3494 34.9893 41.3494 34.9893C41.3494 34.9893 40.331 34.7762 39.9226 35.4139Z" stroke="#1A1A1A" stroke-width="0.197333" stroke-miterlimit="10"/>
<path d="M40.0926 36.2092C40.0926 36.2092 39.9072 36.9417 39.9072 37.4908C39.9072 38.0398 40.0926 38.2594 40.0926 38.2594C40.1258 38.3282 41.583 38.222 41.7917 38.0748C41.7561 37.8576 42.3209 36.9417 41.6727 36.2092C41.0244 35.4767 40.0926 35.8436 40.0926 36.2092Z" fill="black"/>
<path d="M29.3318 44.8949C29.3318 44.8949 29.9401 45.9116 30.9549 46.1154C31.9682 46.3193 34.1982 45.9116 34.1982 45.9116H35.0098C35.0098 45.9116 36.9577 46.2294 37.4029 46.1731C37.8494 46.1154 39.6743 45.0988 39.8762 44.2846C40.0794 43.4718 39.2679 40.8268 37.8494 41.2332C37.6462 41.2332 37.2398 41.4371 37.2398 41.4371C37.2398 41.4371 37.07 42.9822 37.0379 43.2679C37.2398 44.8949 32.3733 45.5052 31.9682 43.4718C31.7664 42.6576 31.9682 42.2499 31.9682 42.2499C31.9682 42.2499 31.1567 41.8435 30.9549 41.4371C30.7516 41.0293 29.535 41.8649 29.3318 42.5664C29.1299 43.2679 28.9267 44.4885 29.3318 44.8949Z" fill="#F4FFE0"/>
<path d="M32.0083 42.4987C32.0083 42.4987 32.5773 41.2016 33.5266 41.2016C34.4745 41.2016 37.2146 40.9864 36.9833 42.4987C36.7506 44.0125 36.7269 43.9398 35.9803 44.1935C35.2336 44.4444 32.1984 45.3096 32.0083 42.4987Z" fill="black"/>
<path d="M34.6239 32.8763L42.4016 40.9339C41.9241 41.868 40.9524 42.3521 39.6657 42.5457C39.6657 42.5457 39.1351 41.3225 38.498 41.1589C37.8609 40.9939 37.2239 41.4084 37.2239 41.4084L37.0461 42.4843C37.0461 42.4843 36.7016 41.5953 35.0509 41.6048C33.4001 41.6144 32.3388 41.6144 31.7018 42.2362C31.0647 41.6144 30.2149 41.2012 30.3213 41.3048C30.4277 41.4084 29.1032 41.4044 28.8105 42.8539C27.5924 42.0016 26.9288 41.2953 27.0296 41.1589L32.4453 32.8763H34.6239Z" fill="#DFA893"/>
<path d="M29.5381 42.1719L26.3493 40.1981M30.6339 41.2839L29.2399 39.1123M29.2162 42.7629L23.2604 42.6653M29.2386 44.2459L24.6558 47.0112M29.1768 43.5259L22.8623 45.0361M29.0402 43.8514L23.2473 46.3706M39.0033 39.1123L37.6093 41.2839M46.9747 44.6403L39.613 43.2186M41.3946 40.6916L39.1741 42.1719M44.385 46.023L39.8009 44.048M43.1894 46.2209L39.5959 44.3708" stroke="black" stroke-width="0.394667" stroke-miterlimit="10"/>
<path d="M32.0052 47.6653C32.8363 48.4308 33.2512 48.8129 33.6675 49.0046C34.0824 49.1963 35.3285 49.0046 35.3285 49.0046C36.4239 49.1559 36.6074 48.2164 36.9894 48.0487C37.5687 47.7939 40.0786 44.9943 39.8978 44.9325L37.2592 46.0044L35.1203 45.7522C35.1203 45.7522 34.4973 45.7522 34.0947 45.7837C33.6935 45.814 31.7984 45.9439 31.2616 45.9805C30.7249 46.0183 29.7212 45.3701 29.0981 45.5618C29.7212 46.3273 31.174 46.9011 32.0052 47.6653Z" fill="#3E180D"/>
<path d="M34.2853 47.8042C37.739 48.124 36.9101 46.3409 36.9101 46.3409L33.9027 46.1797L31.5928 46.3409C31.5928 46.3409 31.8179 46.5068 32.3619 47.0763C32.9071 47.6467 34.2853 47.8042 34.2853 47.8042Z" fill="#572C2D"/>
<path d="M24.9426 36.0208C24.9426 36.0208 26.0236 34.6668 26.6446 34.6668C27.2656 34.6668 28.15 34.9105 28.5363 36.0208C27.8866 35.5474 27.8634 35.3165 27.3584 35.3444C26.8521 35.3711 26.2911 35.3838 26.1573 35.8177C25.8175 36.2505 24.8962 36.3178 24.9426 36.0208ZM43.2059 35.3711C43.2059 35.3711 42.1713 33.9626 41.3428 34.1389C40.5144 34.3153 39.6873 34.6668 39.4798 35.1947C39.2723 35.7226 39.4798 35.7702 39.4798 35.7702C39.4798 35.7702 39.8906 34.8699 40.513 34.8559C41.1354 34.8432 41.5503 34.6668 41.9639 35.5474C42.3774 36.4268 43.4134 35.7226 43.2059 35.3711Z" fill="#160A0C"/>
<mask id="mask0_427_91059" style="mask-type:luminance" maskUnits="userSpaceOnUse" x="14" y="15" width="12" height="20">
<path d="M14 15.9329H25.7881V34.6551H14V15.9329Z" fill="white"/>
</mask>
<g mask="url(#mask0_427_91059)">
<mask id="mask1_427_91059" style="mask-type:luminance" maskUnits="userSpaceOnUse" x="14" y="16" width="12" height="19">
<path d="M14.1973 19.8753C14.2013 24.3541 14.8771 26.5697 15.4636 27.618C16.05 28.6676 19.7189 33.8019 21.5824 34.624C21.5824 34.624 25.705 28.4617 25.705 28.0514C25.705 27.6397 24.2667 20.6554 23.0343 19.4229C21.8018 18.1919 19.1311 16.1373 16.8721 16.1373C14.613 16.1373 14.8081 16.4244 14.1973 19.8753Z" fill="white"/>
</mask>
<g mask="url(#mask1_427_91059)">
<path d="M22.1986 10.8406L5.68799 21.7687L17.7023 39.9208L34.2143 28.9927L22.1986 10.8406Z" fill="url(#paint0_linear_427_91059)"/>
</g>
</g>
<mask id="mask2_427_91059" style="mask-type:luminance" maskUnits="userSpaceOnUse" x="40" y="15" width="13" height="18">
<path d="M40.6968 15.2394H52.1382V32.5748H40.6968V15.2394Z" fill="white"/>
</mask>
<g mask="url(#mask2_427_91059)">
<mask id="mask3_427_91059" style="mask-type:luminance" maskUnits="userSpaceOnUse" x="40" y="15" width="12" height="18">
<path d="M43.4326 18.5155C42.2665 19.6383 40.9067 26.0009 40.9067 26.3761C40.9067 26.7499 44.8072 32.3649 44.8072 32.3649C45.3936 32.2742 45.892 31.6796 46.5191 31.0391C46.882 30.6693 47.2883 30.2833 47.7773 29.9705C50.1257 28.4739 50.1446 26.9679 50.5943 25.982C50.9586 25.1843 52.1883 23.3126 51.7929 18.9273C51.2146 15.7825 51.4001 15.5211 49.2616 15.5211C47.1245 15.5211 44.5986 17.3928 43.4326 18.5155Z" fill="white"/>
</mask>
<g mask="url(#mask3_427_91059)">
<path d="M44.3428 10.3286L59.9406 20.6527L48.7512 37.5575L33.1533 27.2334L44.3428 10.3286Z" fill="url(#paint1_linear_427_91059)"/>
</g>
</g>
<path d="M22.8626 20.4995C22.8626 20.4995 20.9919 17.3302 18.2893 17.1317C15.5881 16.9345 14.9645 16.5375 14.5479 22.2821C15.1714 25.4502 14.3409 26.2428 19.1212 30.2049C19.1212 30.2049 20.7836 30.6006 21.4085 30.7978C21.4085 30.7978 22.8626 30.7978 21.8238 29.6107C21.4085 29.2137 20.9919 29.2137 20.3683 28.818C19.7447 28.4223 21.6155 28.818 21.6155 28.6195C21.6155 28.4223 20.9919 28.0254 20.9919 28.0254L21.6155 27.8269L20.9919 27.2327H22.0307L21.4085 26.6398L22.4474 26.4413L21.6155 25.253C21.6155 25.253 20.9919 24.4603 22.0307 24.4603C23.0709 24.4603 23.9014 24.856 23.9014 24.856L22.4474 23.4704C22.4474 23.4704 22.0307 22.8763 22.8626 23.0734C23.6945 23.2719 24.1098 23.2719 24.1098 23.2719C24.1098 23.2719 23.4862 20.8952 22.8626 20.4995ZM43.6488 19.7069C43.6488 19.7069 45.5195 16.5375 48.2221 16.339C50.9248 16.1418 51.5483 15.7461 51.9636 21.4894C51.34 24.6588 52.1719 25.4502 47.3903 29.4122C47.3903 29.4122 45.7279 29.8079 45.1043 30.0064C45.1043 30.0064 43.6488 30.0064 44.689 28.818C45.1043 28.4223 45.5195 28.4223 46.1445 28.0254C46.7667 27.6297 44.896 28.0254 44.896 27.8269C44.896 27.6297 45.5195 27.2327 45.5195 27.2327L44.896 27.0355L45.5195 26.4413H44.4807L45.1043 25.8471L44.0655 25.6486L44.896 24.4603C44.896 24.4603 45.5195 23.6676 44.4807 23.6676C43.4419 23.6676 42.61 24.0646 42.61 24.0646L44.0655 22.6778C44.0655 22.6778 44.4807 22.0836 43.6488 22.2821C42.8183 22.4793 42.4017 22.4793 42.4017 22.4793C42.4017 22.4793 43.0252 20.1026 43.6488 19.7069Z" fill="#824228"/>
<path d="M26.317 27.0562L27.9068 25.5871C27.9068 25.5871 24.6865 20.6776 24.1099 20.5435C24.9251 22.2588 25.9199 26.4917 26.317 27.0562ZM41.0276 26.5015L39.4365 25.0324C39.4365 25.0324 42.6581 20.1229 43.2335 19.9888C42.4182 21.7041 41.4248 25.937 41.0276 26.5015Z" fill="#160A0C"/>
<path d="M27.7002 25.3933L28.5424 24.2462C28.5424 24.2462 23.7001 19.2746 23.2783 19.2746C23.8923 20.5755 27.2063 25.0567 27.7002 25.3933ZM39.1252 24.9496L38.4298 23.8151C37.9747 23.5 42.566 18.9469 43.2334 19.1649C42.6461 20.4053 39.571 24.6395 39.1252 24.9496Z" fill="#D4905F"/>
<path d="M33.4804 32.318C33.4804 32.318 32.7798 30.4584 32.5169 29.9912C32.2554 29.5239 31.4614 28.5323 30.989 27.773C30.5166 27.0123 30.1029 26.1443 30.0042 25.8658C29.8774 25.5031 29.5972 25.5371 29.7413 25.8074C29.7413 25.8074 30.0576 26.6903 30.3405 27.231C30.6234 27.7702 31.2893 28.8325 31.5081 29.1191C31.7283 29.4057 32.1086 29.8091 32.529 30.597C32.9506 31.3862 33.4804 32.318 33.4804 32.318ZM34.6934 32.1116C34.6934 32.1116 35.394 30.252 35.6569 29.7847C35.9198 29.3174 36.7137 28.3272 37.1848 27.5665C37.6572 26.8058 38.0709 25.9378 38.1696 25.6593C38.2964 25.2967 38.5766 25.332 38.4325 25.6009C38.4325 25.6009 38.1162 26.4839 37.8347 27.0245C37.5518 27.5651 36.8846 28.626 36.6657 28.914C36.4455 29.2006 36.0652 29.6027 35.6449 30.3919C35.2245 31.1797 34.6934 32.1116 34.6934 32.1116ZM32.1713 32.8763C32.1713 32.8763 31.743 30.923 31.5321 30.4299C31.32 29.9368 30.5847 28.8841 30.1857 28.0799C29.7867 27.2772 29.4811 26.3616 29.4264 26.0696C29.353 25.6879 29.0074 25.7177 29.1208 26.0016C29.1208 26.0016 29.3036 26.9294 29.5238 27.4986C29.744 28.0691 30.3098 29.1911 30.5099 29.4954C30.7101 29.801 31.0798 30.2289 31.4094 31.0616C31.7403 31.8929 32.1713 32.8763 32.1713 32.8763ZM36.0025 32.6712C36.0025 32.6712 36.4308 30.7165 36.6417 30.2234C36.8539 29.7304 37.5905 28.6776 37.9895 27.8748C38.3871 27.0707 38.6927 26.1565 38.7488 25.8645C38.8208 25.4827 39.1664 25.5113 39.053 25.7965C39.053 25.7965 38.8702 26.7229 38.65 27.2935C38.4298 27.8626 37.8654 28.9846 37.6639 29.2902C37.4637 29.5945 37.0954 30.0224 36.7645 30.8551C36.4335 31.6864 36.0025 32.6712 36.0025 32.6712Z" fill="#160A0C"/>
<defs>
<linearGradient id="paint0_linear_427_91059" x1="14.317" y1="16.0575" x2="26.3317" y2="34.2093" gradientUnits="userSpaceOnUse">
<stop stop-color="#F4FFE0"/>
<stop offset="0.125" stop-color="#F4FFE0"/>
<stop offset="0.15625" stop-color="#F3FEDF"/>
<stop offset="0.171875" stop-color="#F3FDDF"/>
<stop offset="0.1875" stop-color="#F2FDDE"/>
<stop offset="0.203125" stop-color="#F2FCDD"/>
<stop offset="0.21875" stop-color="#F1FBDD"/>
<stop offset="0.234375" stop-color="#F1FBDC"/>
<stop offset="0.242188" stop-color="#F0FADC"/>
<stop offset="0.25" stop-color="#F0F9DB"/>
<stop offset="0.257812" stop-color="#EFF9DB"/>
<stop offset="0.265625" stop-color="#EFF8DA"/>
<stop offset="0.273438" stop-color="#EEF8DA"/>
<stop offset="0.28125" stop-color="#EEF7D9"/>
<stop offset="0.289062" stop-color="#EDF6D8"/>
<stop offset="0.296875" stop-color="#EDF6D8"/>
<stop offset="0.304688" stop-color="#ECF5D7"/>
<stop offset="0.3125" stop-color="#ECF4D7"/>
<stop offset="0.320312" stop-color="#EBF4D6"/>
<stop offset="0.328125" stop-color="#EBF3D5"/>
<stop offset="0.335938" stop-color="#EAF2D4"/>
<stop offset="0.34375" stop-color="#E9F1D4"/>
<stop offset="0.351562" stop-color="#E8F0D3"/>
<stop offset="0.359375" stop-color="#E8EFD2"/>
<stop offset="0.367188" stop-color="#E7EED1"/>
<stop offset="0.371094" stop-color="#E6EDD0"/>
<stop offset="0.375" stop-color="#E6EDD0"/>
<stop offset="0.378906" stop-color="#E5ECCF"/>
<stop offset="0.382812" stop-color="#E5ECCF"/>
<stop offset="0.386719" stop-color="#E5EBCF"/>
<stop offset="0.390625" stop-color="#E4EBCE"/>
<stop offset="0.394531" stop-color="#E4EACE"/>
<stop offset="0.398438" stop-color="#E3E9CD"/>
<stop offset="0.402344" stop-color="#E3E9CD"/>
<stop offset="0.40625" stop-color="#E2E8CC"/>
<stop offset="0.410156" stop-color="#E2E8CB"/>
<stop offset="0.414062" stop-color="#E1E7CB"/>
<stop offset="0.417969" stop-color="#E1E6CA"/>
<stop offset="0.421875" stop-color="#E1E6CA"/>
<stop offset="0.425781" stop-color="#E0E5C9"/>
<stop offset="0.429688" stop-color="#E0E5C9"/>
<stop offset="0.433594" stop-color="#DFE4C8"/>
<stop offset="0.4375" stop-color="#DEE3C8"/>
<stop offset="0.441406" stop-color="#DEE3C7"/>
<stop offset="0.445312" stop-color="#DDE2C6"/>
<stop offset="0.449219" stop-color="#DDE1C6"/>
<stop offset="0.453125" stop-color="#DCE0C5"/>
<stop offset="0.457031" stop-color="#DCE0C5"/>
<stop offset="0.460937" stop-color="#DBDFC4"/>
<stop offset="0.464844" stop-color="#DBDEC3"/>
<stop offset="0.46875" stop-color="#DADEC3"/>
<stop offset="0.472656" stop-color="#DADDC2"/>
<stop offset="0.476562" stop-color="#D9DCC1"/>
<stop offset="0.480469" stop-color="#D8DBC1"/>
<stop offset="0.484375" stop-color="#D8DBC0"/>
<stop offset="0.488281" stop-color="#D7DABF"/>
<stop offset="0.492188" stop-color="#D7D9BF"/>
<stop offset="0.496094" stop-color="#D6D8BE"/>
<stop offset="0.5" stop-color="#D5D7BD"/>
<stop offset="0.503906" stop-color="#D5D6BC"/>
<stop offset="0.507812" stop-color="#D4D6BC"/>
<stop offset="0.511719" stop-color="#D3D5BB"/>
<stop offset="0.515625" stop-color="#D3D4BA"/>
<stop offset="0.519531" stop-color="#D2D3B9"/>
<stop offset="0.523438" stop-color="#D1D2B9"/>
<stop offset="0.527344" stop-color="#D1D1B8"/>
<stop offset="0.53125" stop-color="#D0D0B7"/>
<stop offset="0.535156" stop-color="#CFCFB6"/>
<stop offset="0.539063" stop-color="#CECFB5"/>
<stop offset="0.542969" stop-color="#CECEB5"/>
<stop offset="0.546875" stop-color="#CDCDB4"/>
<stop offset="0.550781" stop-color="#CCCCB3"/>
<stop offset="0.554688" stop-color="#CCCBB2"/>
<stop offset="0.558594" stop-color="#CBCAB1"/>
<stop offset="0.5625" stop-color="#CAC9B0"/>
<stop offset="0.566406" stop-color="#C9C8AF"/>
<stop offset="0.570312" stop-color="#C8C7AF"/>
<stop offset="0.574219" stop-color="#C8C6AE"/>
<stop offset="0.578125" stop-color="#C7C5AD"/>
<stop offset="0.582031" stop-color="#C6C4AC"/>
<stop offset="0.585937" stop-color="#C5C3AB"/>
<stop offset="0.589844" stop-color="#C4C2AA"/>
<stop offset="0.59375" stop-color="#C4C0A9"/>
<stop offset="0.597656" stop-color="#C3BFA8"/>
<stop offset="0.601562" stop-color="#C2BEA7"/>
<stop offset="0.605469" stop-color="#C1BDA6"/>
<stop offset="0.609375" stop-color="#C0BCA5"/>
<stop offset="0.613281" stop-color="#BFBBA4"/>
<stop offset="0.617188" stop-color="#BEBAA3"/>
<stop offset="0.621094" stop-color="#BDB9A2"/>
<stop offset="0.625" stop-color="#BDB7A1"/>
<stop offset="0.628906" stop-color="#BCB6A0"/>
<stop offset="0.632812" stop-color="#BBB59F"/>
<stop offset="0.636719" stop-color="#BAB49E"/>
<stop offset="0.640625" stop-color="#B9B39D"/>
<stop offset="0.644531" stop-color="#B8B19C"/>
<stop offset="0.648438" stop-color="#B7B09B"/>
<stop offset="0.652344" stop-color="#B6AF9A"/>
<stop offset="0.65625" stop-color="#B5AE99"/>
<stop offset="0.660156" stop-color="#B4AC97"/>
<stop offset="0.664063" stop-color="#B3AB96"/>
<stop offset="0.667969" stop-color="#B2AA95"/>
<stop offset="0.671875" stop-color="#B1A994"/>
<stop offset="0.675781" stop-color="#B0A793"/>
<stop offset="0.679688" stop-color="#AFA692"/>
<stop offset="0.683594" stop-color="#AEA590"/>
<stop offset="0.6875" stop-color="#ADA38F"/>
<stop offset="0.691406" stop-color="#ACA28E"/>
<stop offset="0.695312" stop-color="#ABA08D"/>
<stop offset="0.699219" stop-color="#AA9F8C"/>
<stop offset="0.703125" stop-color="#A99E8A"/>
<stop offset="0.707031" stop-color="#A89C89"/>
<stop offset="0.710937" stop-color="#A69B88"/>
<stop offset="0.714844" stop-color="#A59987"/>
<stop offset="0.71875" stop-color="#A49885"/>
<stop offset="0.722656" stop-color="#A39684"/>
<stop offset="0.726562" stop-color="#A29583"/>
<stop offset="0.730469" stop-color="#A19482"/>
<stop offset="0.734375" stop-color="#A09280"/>
<stop offset="0.738281" stop-color="#9E917F"/>
<stop offset="0.742188" stop-color="#9D8F7E"/>
<stop offset="0.746094" stop-color="#9C8D7C"/>
<stop offset="0.75" stop-color="#9B8C7B"/>
<stop offset="0.753906" stop-color="#9A8A79"/>
<stop offset="0.757812" stop-color="#988978"/>
<stop offset="0.761719" stop-color="#978777"/>
<stop offset="0.765625" stop-color="#968675"/>
<stop offset="0.769531" stop-color="#958474"/>
<stop offset="0.773438" stop-color="#938272"/>
<stop offset="0.777344" stop-color="#928171"/>
<stop offset="0.78125" stop-color="#917F70"/>
<stop offset="0.785156" stop-color="#907D6E"/>
<stop offset="0.789063" stop-color="#8E7C6D"/>
<stop offset="0.792969" stop-color="#8D7A6B"/>
<stop offset="0.796875" stop-color="#8C786A"/>
<stop offset="0.800781" stop-color="#8A7768"/>
<stop offset="0.804688" stop-color="#897567"/>
<stop offset="0.808594" stop-color="#887365"/>
<stop offset="0.8125" stop-color="#867163"/>
<stop offset="0.816406" stop-color="#857062"/>
<stop offset="0.820312" stop-color="#846E60"/>
<stop offset="0.824219" stop-color="#826C5F"/>
<stop offset="0.828125" stop-color="#816A5D"/>
<stop offset="0.832031" stop-color="#7F685C"/>
<stop offset="0.835937" stop-color="#7E675A"/>
<stop offset="0.839844" stop-color="#7C6558"/>
<stop offset="0.84375" stop-color="#7B6357"/>
<stop offset="0.847656" stop-color="#7A6155"/>
<stop offset="0.851562" stop-color="#785F53"/>
<stop offset="0.855469" stop-color="#775D52"/>
<stop offset="0.859375" stop-color="#755B50"/>
<stop offset="0.863281" stop-color="#74594E"/>
<stop offset="0.867187" stop-color="#72574D"/>
<stop offset="0.871094" stop-color="#71554B"/>
<stop offset="0.875" stop-color="#6F5449"/>
<stop offset="0.878906" stop-color="#6E5248"/>
<stop offset="0.882812" stop-color="#6C5046"/>
<stop offset="0.886719" stop-color="#6B4E44"/>
<stop offset="0.890625" stop-color="#694C42"/>
<stop offset="0.894531" stop-color="#684A41"/>
<stop offset="0.898437" stop-color="#674940"/>
<stop offset="0.90625" stop-color="#674940"/>
<stop offset="0.9375" stop-color="#674940"/>
<stop offset="1" stop-color="#674940"/>
</linearGradient>
<linearGradient id="paint1_linear_427_91059" x1="51.8561" y1="15.3009" x2="40.6666" y2="32.206" gradientUnits="userSpaceOnUse">
<stop stop-color="#F4FFE0"/>
<stop offset="0.125" stop-color="#F4FFE0"/>
<stop offset="0.15625" stop-color="#F3FEDF"/>
<stop offset="0.1875" stop-color="#F3FDDF"/>
<stop offset="0.203125" stop-color="#F2FDDE"/>
<stop offset="0.21875" stop-color="#F2FCDD"/>
<stop offset="0.234375" stop-color="#F1FBDD"/>
<stop offset="0.25" stop-color="#F0FADC"/>
<stop offset="0.257812" stop-color="#F0F9DB"/>
<stop offset="0.265625" stop-color="#EFF9DB"/>
<stop offset="0.273438" stop-color="#EFF8DA"/>
<stop offset="0.28125" stop-color="#EEF8DA"/>
<stop offset="0.289062" stop-color="#EEF7D9"/>
<stop offset="0.296875" stop-color="#EDF6D8"/>
<stop offset="0.304688" stop-color="#EDF6D8"/>
<stop offset="0.3125" stop-color="#ECF5D7"/>
<stop offset="0.320312" stop-color="#ECF4D7"/>
<stop offset="0.328125" stop-color="#EBF3D6"/>
<stop offset="0.335938" stop-color="#EAF3D5"/>
<stop offset="0.34375" stop-color="#EAF2D4"/>
<stop offset="0.351562" stop-color="#E9F1D4"/>
<stop offset="0.359375" stop-color="#E8F0D3"/>
<stop offset="0.367188" stop-color="#E8EFD2"/>
<stop offset="0.371094" stop-color="#E7EED1"/>
<stop offset="0.375" stop-color="#E6EED1"/>
<stop offset="0.378906" stop-color="#E6EDD0"/>
<stop offset="0.382812" stop-color="#E6ECD0"/>
<stop offset="0.386719" stop-color="#E5ECCF"/>
<stop offset="0.390625" stop-color="#E5EBCF"/>
<stop offset="0.394531" stop-color="#E4EBCE"/>
<stop offset="0.398438" stop-color="#E4EACE"/>
<stop offset="0.402344" stop-color="#E3EACD"/>
<stop offset="0.40625" stop-color="#E3E9CD"/>
<stop offset="0.410156" stop-color="#E3E9CC"/>
<stop offset="0.414062" stop-color="#E2E8CC"/>
<stop offset="0.417969" stop-color="#E2E7CB"/>
<stop offset="0.421875" stop-color="#E1E7CB"/>
<stop offset="0.425781" stop-color="#E1E6CA"/>
<stop offset="0.429688" stop-color="#E0E5CA"/>
<stop offset="0.433594" stop-color="#E0E5C9"/>
<stop offset="0.4375" stop-color="#DFE4C8"/>
<stop offset="0.441406" stop-color="#DFE3C8"/>
<stop offset="0.445312" stop-color="#DEE3C7"/>
<stop offset="0.449219" stop-color="#DEE2C7"/>
<stop offset="0.453125" stop-color="#DDE1C6"/>
<stop offset="0.457031" stop-color="#DCE1C5"/>
<stop offset="0.460938" stop-color="#DCE0C5"/>
<stop offset="0.464844" stop-color="#DBDFC4"/>
<stop offset="0.46875" stop-color="#DBDEC3"/>
<stop offset="0.472656" stop-color="#DADEC3"/>
<stop offset="0.476562" stop-color="#DADDC2"/>
<stop offset="0.480469" stop-color="#D9DCC1"/>
<stop offset="0.484375" stop-color="#D8DBC1"/>
<stop offset="0.488281" stop-color="#D8DBC0"/>
<stop offset="0.492187" stop-color="#D7DABF"/>
<stop offset="0.496094" stop-color="#D7D9BF"/>
<stop offset="0.5" stop-color="#D6D8BE"/>
<stop offset="0.503906" stop-color="#D5D7BD"/>
<stop offset="0.507812" stop-color="#D5D7BC"/>
<stop offset="0.511719" stop-color="#D4D6BC"/>
<stop offset="0.515625" stop-color="#D3D5BB"/>
<stop offset="0.519531" stop-color="#D3D4BA"/>
<stop offset="0.523437" stop-color="#D2D3B9"/>
<stop offset="0.527344" stop-color="#D1D2B9"/>
<stop offset="0.53125" stop-color="#D1D1B8"/>
<stop offset="0.535156" stop-color="#D0D0B7"/>
<stop offset="0.539062" stop-color="#CFCFB6"/>
<stop offset="0.542969" stop-color="#CECEB5"/>
<stop offset="0.546875" stop-color="#CECEB4"/>
<stop offset="0.550781" stop-color="#CDCDB4"/>
<stop offset="0.554688" stop-color="#CCCCB3"/>
<stop offset="0.558594" stop-color="#CBCBB2"/>
<stop offset="0.5625" stop-color="#CBCAB1"/>
<stop offset="0.566406" stop-color="#CAC9B0"/>
<stop offset="0.570312" stop-color="#C9C8AF"/>
<stop offset="0.574219" stop-color="#C8C7AE"/>
<stop offset="0.578125" stop-color="#C7C6AD"/>
<stop offset="0.582031" stop-color="#C7C4AD"/>
<stop offset="0.585938" stop-color="#C6C3AC"/>
<stop offset="0.589844" stop-color="#C5C2AB"/>
<stop offset="0.59375" stop-color="#C4C1AA"/>
<stop offset="0.597656" stop-color="#C3C0A9"/>
<stop offset="0.601563" stop-color="#C2BFA8"/>
<stop offset="0.605469" stop-color="#C2BEA7"/>
<stop offset="0.609375" stop-color="#C1BDA6"/>
<stop offset="0.613281" stop-color="#C0BCA5"/>
<stop offset="0.617188" stop-color="#BFBBA4"/>
<stop offset="0.621094" stop-color="#BEB9A3"/>
<stop offset="0.625" stop-color="#BDB8A2"/>
<stop offset="0.628906" stop-color="#BCB7A1"/>
<stop offset="0.632812" stop-color="#BBB6A0"/>
<stop offset="0.636719" stop-color="#BAB59F"/>
<stop offset="0.640625" stop-color="#B9B39D"/>
<stop offset="0.644531" stop-color="#B8B29C"/>
<stop offset="0.648437" stop-color="#B7B19B"/>
<stop offset="0.652344" stop-color="#B6B09A"/>
<stop offset="0.65625" stop-color="#B5AE99"/>
<stop offset="0.660156" stop-color="#B4AD98"/>
<stop offset="0.664062" stop-color="#B3AC97"/>
<stop offset="0.667969" stop-color="#B2AA96"/>
<stop offset="0.671875" stop-color="#B1A994"/>
<stop offset="0.675781" stop-color="#B0A893"/>
<stop offset="0.679688" stop-color="#AFA692"/>
<stop offset="0.683594" stop-color="#AEA591"/>
<stop offset="0.6875" stop-color="#ADA490"/>
<stop offset="0.691406" stop-color="#ACA28F"/>
<stop offset="0.695312" stop-color="#ABA18D"/>
<stop offset="0.699219" stop-color="#AAA08C"/>
<stop offset="0.703125" stop-color="#A99E8B"/>
<stop offset="0.707031" stop-color="#A89D8A"/>
<stop offset="0.710938" stop-color="#A79B88"/>
<stop offset="0.714844" stop-color="#A69A87"/>
<stop offset="0.71875" stop-color="#A49886"/>
<stop offset="0.722656" stop-color="#A39784"/>
<stop offset="0.726563" stop-color="#A29583"/>
<stop offset="0.730469" stop-color="#A19482"/>
<stop offset="0.734375" stop-color="#A09280"/>
<stop offset="0.738281" stop-color="#9F917F"/>
<stop offset="0.742188" stop-color="#9D8F7E"/>
<stop offset="0.746094" stop-color="#9C8E7C"/>
<stop offset="0.75" stop-color="#9B8C7B"/>
<stop offset="0.753906" stop-color="#9A8B7A"/>
<stop offset="0.757812" stop-color="#998978"/>
<stop offset="0.761719" stop-color="#978777"/>
<stop offset="0.765625" stop-color="#968675"/>
<stop offset="0.769531" stop-color="#958474"/>
<stop offset="0.773437" stop-color="#938272"/>
<stop offset="0.777344" stop-color="#928171"/>
<stop offset="0.78125" stop-color="#917F70"/>
<stop offset="0.785156" stop-color="#907D6E"/>
<stop offset="0.789062" stop-color="#8E7C6D"/>
<stop offset="0.792969" stop-color="#8D7A6B"/>
<stop offset="0.796875" stop-color="#8C786A"/>
<stop offset="0.800781" stop-color="#8A7668"/>
<stop offset="0.804688" stop-color="#897566"/>
<stop offset="0.808594" stop-color="#877365"/>
<stop offset="0.8125" stop-color="#867163"/>
<stop offset="0.816406" stop-color="#856F62"/>
<stop offset="0.820312" stop-color="#836E60"/>
<stop offset="0.824219" stop-color="#826C5F"/>
<stop offset="0.828125" stop-color="#806A5D"/>
<stop offset="0.832031" stop-color="#7F685B"/>
<stop offset="0.835938" stop-color="#7E665A"/>
<stop offset="0.839844" stop-color="#7C6458"/>
<stop offset="0.84375" stop-color="#7B6256"/>
<stop offset="0.847656" stop-color="#796155"/>
<stop offset="0.851563" stop-color="#785F53"/>
<stop offset="0.855469" stop-color="#765D51"/>
<stop offset="0.859375" stop-color="#755B50"/>
<stop offset="0.863281" stop-color="#73594E"/>
<stop offset="0.867188" stop-color="#72574C"/>
<stop offset="0.871094" stop-color="#70554A"/>
<stop offset="0.875" stop-color="#6F5349"/>
<stop offset="0.878906" stop-color="#6D5147"/>
<stop offset="0.882812" stop-color="#6B4F45"/>
<stop offset="0.886719" stop-color="#6A4D43"/>
<stop offset="0.890625" stop-color="#684B41"/>
<stop offset="0.894531" stop-color="#684A41"/>
<stop offset="0.898437" stop-color="#674940"/>
<stop offset="0.90625" stop-color="#674940"/>
<stop offset="0.9375" stop-color="#674940"/>
<stop offset="1" stop-color="#674940"/>
</linearGradient>
</defs>
</svg>
