<?xml version="1.0" encoding="UTF-8"?>
<svg id="Layer_1" data-name="Layer 1" xmlns="http://www.w3.org/2000/svg" viewBox="0 0 168.79 122.24">
  <defs>
    <style>
      .cls-1 {
        fill: #2c6832;
      }

      .cls-1, .cls-2, .cls-3, .cls-4, .cls-5 {
        stroke-width: 0px;
      }

      .cls-2 {
        fill: #774d2f;
      }

      .cls-3 {
        fill: #231f20;
      }

      .cls-4 {
        fill: #b77946;
      }

      .cls-5 {
        fill: #936641;
      }
    </style>
  </defs>
  <path class="cls-2" d="m98.34,57.4c-1.46-7.81-3.56-10.89-6.42-10.35-1.96.27-4.31.98-6.72,2.22l1.19,31.77s3.95-12.13,11.95-23.64Z"/>
  <path class="cls-5" d="m47.32,43.83l1.14,18.65,27.79-26.75c.07-5-.05-9.93-.57-14.17,1.64.4,4.04.18,5.57-3.62,2.49-6.19-3.99-11.4-7.32-10.63-1.25.29-2.56,1.02-3.69,1.81-7.81-5.98-22.37-6.49-27.27-6.53-1.32-1.04-3.02-2.14-4.64-2.52-3.34-.77-9.81,4.45-7.32,10.63.74,1.83,1.68,2.83,2.64,3.32-3.02,6.36-12.96,28.96-14.6,53.51-.09,1.38-.14,2.81-.15,4.25,10.79-15.57,22.75-27.35,28.42-27.96Zm19.83-26.19c.76,0,1.37,1.6,1.37,3.58s-.61,3.58-1.37,3.58-1.37-1.6-1.37-3.58.61-3.58,1.37-3.58Zm-12.78,6.56l2.91.43,2.91.43c.61.09.82.86.35,1.25l-1.39,1.15-2.01,1.66c-.33.27-.81.2-1.05-.16l-1.44-2.17-.99-1.5c-.34-.51.09-1.19.7-1.1Zm-2.7,7.89c.05-.19.2-.34.41-.31.18.02.36.22.31.41-.16.66-.22,1.37.05,2,.21.51.68.95,1.23,1.03.57.09,1.09-.26,1.43-.69.45-.57.61-1.32.77-2.02.05-.24.28-.32.47-.29.19.01.39.15.37.4-.04.71-.08,1.47.2,2.15.21.51.62.98,1.19,1.05.56.07,1.12-.23,1.47-.66.43-.54.57-1.24.59-1.92,0-.2.23-.34.41-.31.21.03.32.21.31.41-.04,1.26-.59,2.64-1.88,3.09-.58.2-1.2.18-1.74-.13-.52-.3-.9-.83-1.09-1.39-.06-.17-.1-.35-.13-.53-.08.16-.17.32-.27.47-.34.49-.84.89-1.43,1.05-.6.16-1.21,0-1.71-.34-1.11-.78-1.27-2.25-.97-3.48Zm-7.02-14.93c.67-1.86,1.96-3.1,2.89-2.76.93.33,1.14,2.11.48,3.97-.67,1.86-1.96,3.1-2.89,2.76s-1.14-2.11-.48-3.97Z"/>
  <path class="cls-3" d="m45.12,21.12c.93.33,2.22-.91,2.89-2.76.67-1.86.45-3.64-.48-3.97-.93-.33-2.22.91-2.89,2.76-.67,1.86-.45,3.64.48,3.97Z"/>
  <path class="cls-5" d="m44.23,24.14c.93.33,2.22-.91,2.89-2.76.67-1.86.45-3.64-.48-3.97-.93-.33-2.22.91-2.89,2.76-.67,1.86-.45,3.64.48,3.97Z"/>
  <ellipse class="cls-3" cx="67.15" cy="21.22" rx="1.37" ry="3.58"/>
  <ellipse class="cls-5" cx="67.15" cy="24.19" rx="1.37" ry="3.58"/>
  <path class="cls-3" d="m52.64,35.56c.5.35,1.11.5,1.71.34.58-.15,1.09-.55,1.43-1.05.1-.15.19-.31.27-.47.03.18.07.36.13.53.2.57.57,1.09,1.09,1.39.53.31,1.16.33,1.74.13,1.28-.45,1.83-1.82,1.88-3.09,0-.2-.1-.38-.31-.41-.18-.02-.41.12-.41.31-.02.68-.16,1.37-.59,1.92-.34.43-.91.73-1.47.66-.57-.07-.98-.54-1.19-1.05-.28-.67-.23-1.44-.2-2.15.01-.25-.18-.39-.37-.4-.19-.04-.41.04-.47.29-.16.7-.32,1.44-.77,2.02-.34.43-.86.78-1.43.69-.56-.08-1.02-.53-1.23-1.03-.27-.64-.21-1.35-.05-2,.05-.19-.13-.39-.31-.41-.21-.03-.37.12-.41.31-.3,1.23-.14,2.7.97,3.48Z"/>
  <path class="cls-3" d="m54.66,26.8l1.44,2.17c.23.35.72.43,1.05.16l2.01-1.66,1.39-1.15c.47-.39.26-1.16-.35-1.25l-2.91-.43-2.91-.43c-.61-.09-1.04.58-.7,1.1l.99,1.5Z"/>
  <path class="cls-4" d="m135.41,67.82s0,0,0,0c.13-.01.29.1.29.25-.01.49.06,1.01.35,1.42.23.33.63.57,1.04.55.42-.03.74-.35.91-.71.23-.48.23-1.04.24-1.56,0-.18.15-.27.29-.28.14-.02.3.05.33.23.08.51.17,1.06.47,1.5.23.33.59.6,1.01.57.41-.04.77-.34.94-.7.22-.45.22-.97.13-1.46-.03-.14.11-.28.25-.29.16-.01.26.1.29.25.16.91-.02,1.97-.87,2.49-.38.23-.83.31-1.26.17-.42-.14-.77-.45-.99-.83-.07-.12-.13-.24-.18-.36-.03.13-.07.26-.12.38-.17.4-.47.77-.86.97-.4.2-.86.19-1.27.02-.33-.14-.58-.36-.77-.63l1.53,13.89,9.04-15.15s4.31-7.24,13.29-18.23c-.87-1.11-2.07-1.8-3.39-1.8-1.77,0-3.31,1.24-4.15,3.07-1.81-.76-11.95-4.72-20.83-2.29-.29-3.11-2.32-5.51-4.79-5.51-2.67,0-4.83,2.81-4.83,6.28,0,2,.72,3.78,1.85,4.93,0,2.59-.11,9.63-1.17,18.72l12.88-9.12.36,3.22Zm12.74-11.88c1.01-.21,2.14,1.12,2.52,2.96s-.13,3.51-1.14,3.72c-1.01.21-2.14-1.12-2.52-2.96-.38-1.84.13-3.51,1.14-3.72Zm-12.11,6.16l2.14-.18,2.14-.18c.45-.04.73.47.46.83l-.79,1.05-1.14,1.52c-.19.25-.54.28-.77.07l-1.39-1.3-.96-.9c-.33-.31-.14-.86.31-.9Zm-3.5-2.51c-.37,1.81-1.35,3.14-2.18,2.97-.83-.17-1.2-1.78-.83-3.59.37-1.81,1.35-3.14,2.18-2.97.83.17,1.2,1.78.83,3.59Z"/>
  <path class="cls-3" d="m149.53,62.62c1.01-.21,1.52-1.87,1.14-3.72s-1.51-3.17-2.52-2.96c-1.01.21-1.52,1.87-1.14,3.72.38,1.84,1.51,3.17,2.52,2.96Z"/>
  <path class="cls-4" d="m150.24,65.07c1.01-.21,1.52-1.87,1.14-3.72s-1.51-3.17-2.52-2.96c-1.01.21-1.52,1.87-1.14,3.72.38,1.84,1.51,3.17,2.52,2.96Z"/>
  <path class="cls-3" d="m131.71,56c-.83-.17-1.81,1.16-2.18,2.97-.37,1.81,0,3.42.83,3.59.83.17,1.81-1.16,2.18-2.97.37-1.81,0-3.42-.83-3.59Z"/>
  <path class="cls-4" d="m131.01,58.45c-.83-.17-1.81,1.16-2.18,2.97-.37,1.81,0,3.42.83,3.59.83.17,1.81-1.16,2.18-2.97.37-1.81,0-3.42-.83-3.59Z"/>
  <path class="cls-3" d="m136.4,70.44c.41.17.87.18,1.27-.02.39-.2.69-.56.86-.97.05-.12.09-.25.12-.38.05.12.11.24.18.36.23.37.57.69.99.83.43.14.88.06,1.26-.17.85-.52,1.03-1.58.87-2.49-.03-.14-.13-.26-.29-.25-.13.01-.27.14-.25.29.09.49.1,1.01-.13,1.46-.18.36-.53.66-.94.7-.42.04-.78-.24-1.01-.57-.3-.44-.39-.99-.47-1.5-.03-.18-.19-.25-.33-.23-.14,0-.29.1-.29.28,0,.52,0,1.08-.24,1.56-.18.36-.49.69-.91.71-.41.03-.81-.22-1.04-.55-.29-.41-.36-.93-.35-1.42,0-.14-.15-.26-.29-.25,0,0,0,0,0,0l.22,1.99c.19.27.44.49.77.63Z"/>
  <path class="cls-3" d="m136.69,63.9l1.39,1.3c.23.21.58.18.77-.07l1.14-1.52.79-1.05c.27-.36-.01-.87-.46-.83l-2.14.18-2.14.18c-.45.04-.64.59-.31.9l.96.9Z"/>
  <path class="cls-1" d="m166.4,92.59l-1.27-15.68-2.46-30.42c-1.13,1.33-2.18,2.6-3.19,3.83-8.98,10.99-13.29,18.23-13.29,18.23l-9.04,15.15-1.53-13.89c-.34-.48-.48-1.11-.46-1.7,0-.14.09-.27.24-.28l-.36-3.22-12.88,9.12-7.34,5.2,2.84-39.06c-7.99,3.64-14.42,10.47-19.34,17.54-8,11.51-11.95,23.64-11.95,23.64l-1.19-31.77-.8-21.39-8.15,7.85-27.79,26.75-1.14-18.65c-5.68.61-17.64,12.39-28.42,27.96-1.29,1.86-2.56,3.77-3.8,5.73l-11.1-12.16c-3.46,6.38-3.99,43.86-3.99,43.86v13.02h168.79l-2.39-29.66Z"/>
  <path class="cls-1" d="m135.17,68.11c-.02.59.12,1.22.46,1.7l-.22-1.99c-.15.02-.24.14-.24.28Z"/>
  <path class="cls-3" d="m56.69,35.2c-.33-.33-.58-.75-.61-1.22-.5.74-1.41,1.2-2.23,1.55-.24.69-.01,1.46.22,2.15.12.36.28.71.53.99.25.28.61.48.99.48.44,0,.84-.27,1.14-.59.59-.62.97-1.69,1.08-2.55-.4-.24-.8-.49-1.12-.82Z"/>
</svg>